<?xml version="1.0" encoding="UTF-8"?>
<svg width="15px" height="11px" viewBox="0 0 15 11" version="1.1" xmlns="http://www.w3.org/2000/svg" xmlns:xlink="http://www.w3.org/1999/xlink">
    <title>Solid/Acquire Image</title>
    <g id="Page-1" stroke="none" stroke-width="1" fill="none" fill-rule="evenodd">
        <g id="Objects" transform="translate(-89.000000, -38.000000)" fill="#000000">
            <g id="Shape" transform="translate(89.000000, 36.000000)">
                <path d="M2.25,4 L4.75,4 C4.88807106,4 5,4.1119287 5,4.25 L5,5.75454283 C5,5.89261389 4.88807106,6.00454283 4.75,6.00454283 L2.25,6.00454283 C2.1119287,6.00454283 2,5.89261413 2,5.75454283 L2,4.25 C2,4.11192894 2.11192894,4 2.25,4 Z M9.49998093,11.1852646 C7.51117325,11.1852646 5.89892578,9.5730176 5.89892578,7.58420944 C5.89892578,5.59540176 7.51117325,3.9831543 9.49998093,3.9831543 C11.4887886,3.9831543 13.1010361,5.59540176 13.1010361,7.58420944 C13.1010361,9.5730176 11.4887886,11.1852646 9.49998093,11.1852646 Z M9.49998093,10.1852646 C8.06345749,10.1852646 6.89892578,9.02073288 6.89892578,7.58420944 C6.89892578,6.14768648 8.06345749,4.9831543 9.49998093,4.9831543 C10.9365044,4.9831543 12.1010361,6.14768648 12.1010361,7.58420944 C12.1010361,9.02073288 10.9365044,10.1852646 9.49998093,10.1852646 Z M2,2 L13,2 C14.1045694,2 15,2.89543068 15,4 L15,11 C15,12.1045704 14.1045694,13 13,13 L2,13 C0.895430684,13 0,12.1045694 0,11 L0,4 C0,2.89543021 0.895430565,2 2,2 Z"></path>
            </g>
        </g>
    </g>
</svg>