<?xml version="1.0" encoding="UTF-8"?>
<svg width="15px" height="15px" viewBox="0 0 15 15" version="1.1" xmlns="http://www.w3.org/2000/svg" xmlns:xlink="http://www.w3.org/1999/xlink">
    <title>Solid/Arrow Circle Down</title>
    <g id="Page-1" stroke="none" stroke-width="1" fill="none" fill-rule="evenodd">
        <g id="Arrows" transform="translate(-29.000000, -180.000000)" fill="#000000" fill-rule="nonzero">
            <g id="Combined-Shape" transform="translate(29.000000, 180.000000)">
                <path d="M7.5,0.5 C11.3659932,0.5 14.5,3.63400675 14.5,7.5 C14.5,11.3659932 11.3659932,14.5 7.5,14.5 C3.63400675,14.5 0.5,11.3659932 0.5,7.5 C0.5,3.63400675 3.63400675,0.5 7.5,0.5 Z M7.50000043,2.5 C7.24896193,2.5 7.04545498,2.70350689 7.04545498,2.95454545 L7.04545498,2.95454545 L7.04545433,10.9480841 L4.18504856,8.08767882 C4.00753751,7.91016752 3.71973525,7.91016752 3.54222421,8.08767882 C3.36471315,8.26518969 3.36471315,8.55299213 3.54222418,8.730503 L3.54222418,8.730503 L7.17858791,12.3668671 C7.26383166,12.4521108 7.37944711,12.5 7.5,12.5 C7.62055289,12.5 7.73616834,12.4521108 7.82141209,12.3668671 L7.82141209,12.3668671 L11.4577762,8.730503 C11.635287,8.55299213 11.635287,8.26518969 11.4577762,8.08767882 C11.2802644,7.91016752 10.9924629,7.91016752 10.814952,8.08767882 L10.814952,8.08767882 L7.95454502,10.9480849 L7.95454589,2.95454545 C7.95454589,2.70350697 7.75103916,2.5 7.50000043,2.5 Z"></path>
            </g>
        </g>
    </g>
</svg>