<?xml version="1.0" encoding="UTF-8"?>
<svg width="15px" height="15px" viewBox="0 0 15 15" version="1.1" xmlns="http://www.w3.org/2000/svg" xmlns:xlink="http://www.w3.org/1999/xlink">
    <title>Solid/Arrow Circle Left</title>
    <g id="Page-1" stroke="none" stroke-width="1" fill="none" fill-rule="evenodd">
        <g id="Arrows" transform="translate(-118.000000, -180.000000)" fill="#000000" fill-rule="nonzero">
            <g id="Combined-Shape" transform="translate(118.000000, 180.000000)">
                <path d="M7.5,0.5 C11.3659932,0.5 14.5,3.63400675 14.5,7.5 C14.5,11.3659932 11.3659932,14.5 7.5,14.5 C3.63400675,14.5 0.5,11.3659932 0.5,7.5 C0.5,3.63400675 3.63400675,0.5 7.5,0.5 Z M6.91232118,3.54222421 C6.73481031,3.36471315 6.44700787,3.36471315 6.269497,3.54222418 L6.269497,3.54222418 L2.63313293,7.17858791 C2.54788919,7.26383166 2.5,7.37944711 2.5,7.5 C2.5,7.62055289 2.54788919,7.73616834 2.63313293,7.82141209 L2.63313293,7.82141209 L6.269497,11.4577762 C6.44700787,11.635287 6.73481031,11.635287 6.91232118,11.4577762 C7.08983248,11.2802644 7.08983248,10.9924629 6.91232118,10.814952 L6.91232118,10.814952 L4.05191508,7.95454502 L12.0454545,7.95454589 C12.296493,7.95454589 12.5,7.75103916 12.5,7.50000043 C12.5,7.24896193 12.2964931,7.04545498 12.0454545,7.04545498 L12.0454545,7.04545498 L4.05191595,7.04545433 L6.91232118,4.18504856 C7.08983248,4.00753751 7.08983248,3.71973525 6.91232118,3.54222421 Z"></path>
            </g>
        </g>
    </g>
</svg>