<?xml version="1.0" encoding="UTF-8"?>
<svg width="15px" height="15px" viewBox="0 0 15 15" version="1.1" xmlns="http://www.w3.org/2000/svg" xmlns:xlink="http://www.w3.org/1999/xlink">
    <title>Solid/Arrow Square Up</title>
    <g id="Page-1" stroke="none" stroke-width="1" fill="none" fill-rule="evenodd">
        <g id="Arrows" transform="translate(-59.000000, -144.000000)" fill="#000000" fill-rule="nonzero">
            <g id="Combined-Shape" transform="translate(59.000000, 144.000000)">
                <path d="M12.5,0.5 C13.6045695,0.5 14.5,1.3954305 14.5,2.5 L14.5,2.5 L14.5,12.5 C14.5,13.6045695 13.6045695,14.5 12.5,14.5 L12.5,14.5 L2.5,14.5 C1.3954305,14.5 0.5,13.6045695 0.5,12.5 L0.5,12.5 L0.5,2.5 C0.5,1.3954305 1.3954305,0.5 2.5,0.5 L2.5,0.5 Z M7.5,2.5 C7.37944711,2.5 7.26383166,2.54788919 7.17858791,2.63313293 L7.17858791,2.63313293 L3.54222384,6.269497 C3.36471298,6.44700787 3.36471298,6.73481031 3.54222384,6.91232118 C3.71973558,7.08983248 4.00753715,7.08983248 4.18504802,6.91232118 L4.18504802,6.91232118 L7.04545498,4.05191508 L7.04545411,12.0454545 C7.04545411,12.296493 7.24896084,12.5 7.49999957,12.5 C7.75103807,12.5 7.95454502,12.2964931 7.95454502,12.0454545 L7.95454502,12.0454545 L7.95454567,4.05191595 L10.8149514,6.91232118 C10.9924625,7.08983248 11.2802647,7.08983248 11.4577758,6.91232118 C11.6352868,6.73481031 11.6352868,6.44700787 11.4577758,6.269497 L11.4577758,6.269497 L7.82141209,2.63313293 C7.73616834,2.54788919 7.62055289,2.5 7.5,2.5 Z"></path>
            </g>
        </g>
    </g>
</svg>