<?xml version="1.0" encoding="UTF-8"?>
<svg width="13px" height="13px" viewBox="0 0 13 13" version="1.1" xmlns="http://www.w3.org/2000/svg" xmlns:xlink="http://www.w3.org/1999/xlink">
    <title>Solid/Atom Geometry</title>
    <g id="Page-1" stroke="none" stroke-width="1" fill="none" fill-rule="evenodd">
        <g id="Abstract" transform="translate(-208.000000, -181.000000)" fill="#000000">
            <g id="Shape" transform="translate(207.000000, 180.000000)">
                <path d="M3.5,10 C2.11928797,10 1,8.88070822 1,7.5 C1,6.11928463 2.11928821,5 3.5,5 C4.46047711,5 5.29444787,5.54163599 5.71312952,6.3361311 L9.10424423,4.21668339 C9.03642749,3.98965454 9,3.74908161 9,3.5 C9,2.11928844 10.1192894,1 11.5,1 C12.8807125,1 14,2.11928844 14,3.5 C14,4.88071156 12.8807125,6 11.5,6 C10.6915007,6 9.97263911,5.61620712 9.5156641,5.02086926 L5.9853034,7.22734547 C5.9950161,7.31689501 6,7.40786409 6,7.5 C6,7.59212637 5.99501657,7.68309212 5.98530436,7.77263927 L9.51567268,9.9791193 C9.97264859,9.38378763 10.6915045,9 11.5,9 C12.8807116,9 14,10.119288 14,11.5 C14,12.8807118 12.8807116,14 11.5,14 C10.1192875,14 9,12.8807118 9,11.5 C9,11.2509134 9.03642751,11.0103347 9.10424709,10.7833014 L5.71313334,8.66385508 C5.2944527,9.45835447 4.46047974,10 3.5,10 Z"></path>
            </g>
        </g>
    </g>
</svg>