<?xml version="1.0" encoding="UTF-8"?>
<svg width="14px" height="13px" viewBox="0 0 14 13" version="1.1" xmlns="http://www.w3.org/2000/svg" xmlns:xlink="http://www.w3.org/1999/xlink">
    <title>Solid/Calibrate</title>
    <g id="Page-1" stroke="none" stroke-width="1" fill="none" fill-rule="evenodd">
        <g id="Objects" transform="translate(-90.000000, -289.000000)" fill="#000000" fill-rule="nonzero">
            <g id="Solid/Calibrate" transform="translate(89.000000, 288.000000)">
                <path d="M10.0359197,1 C7.79260575,1 5.97404045,2.8185653 5.97404045,5.06187927 L5.98277025,5.3300808 C5.98857918,5.41905213 5.99727616,5.50755971 6.00882838,5.59549977 L6.05076484,5.85168913 L1.49436463,10.407844 C0.965610456,10.9365982 0.965610456,11.7938781 1.49436463,12.3226323 L2.60068673,13.4289544 L2.70351764,13.5218995 C3.23531759,13.9556431 4.01976795,13.9246614 4.51547499,13.4289544 L8.96448624,8.97933617 L9.21439075,9.0405508 C9.48252018,9.09565659 9.75741474,9.12375855 10.0359197,9.12375855 C12.2792337,9.12375855 14.097799,7.30519325 14.097799,5.06187927 C14.097799,4.6162982 14.0258691,4.1798934 13.8864193,3.76554359 L13.6543515,3.07599626 L12.0921333,4.63583327 L10.4809212,4.61597519 L10.4610631,3.00476308 L12.0229417,1.44403437 L11.3332682,1.21172071 C10.9186187,1.07204779 10.4818655,1 10.0359197,1 Z" id="Combined-Shape"></path>
            </g>
        </g>
    </g>
</svg>