<?xml version="1.0" encoding="UTF-8"?>
<svg width="15px" height="10px" viewBox="0 0 15 10" version="1.1" xmlns="http://www.w3.org/2000/svg" xmlns:xlink="http://www.w3.org/1999/xlink">
    <title>Solid/Camera</title>
    <g id="Page-1" stroke="none" stroke-width="1" fill="none" fill-rule="evenodd">
        <g id="Objects" transform="translate(-118.000000, -38.000000)" fill="#000000" fill-rule="nonzero">
            <g id="Combined-Shape" transform="translate(118.000000, 36.000000)">
                <path d="M10,2 C10.8284271,2 11.5,2.67157288 11.5,3.5 L11.5,4.898 L15,2.56581549 L15,11.4341845 L11.5,9.101 L11.5,10.5 C11.5,11.3284271 10.8284271,12 10,12 L1.5,12 C0.671572875,12 0,11.3284271 0,10.5 L0,3.5 C0,2.67157288 0.671572875,2 1.5,2 L10,2 Z M14,4.434 L11.5,6.1 L11.5,7.899 L14,9.565 L14,4.434 Z M9,8.5 L3,8.5 L2.91012437,8.50805567 C2.67687516,8.55039163 2.5,8.75454011 2.5,9 C2.5,9.27614237 2.72385763,9.5 3,9.5 L3,9.5 L9,9.5 L9.08987563,9.49194433 C9.32312484,9.44960837 9.5,9.24545989 9.5,9 C9.5,8.72385763 9.27614237,8.5 9,8.5 L9,8.5 Z M8,4 C7.44771525,4 7,4.44771525 7,5 C7,5.55228475 7.44771525,6 8,6 C8.55228475,6 9,5.55228475 9,5 C9,4.44771525 8.55228475,4 8,4 Z"></path>
            </g>
        </g>
    </g>
</svg>