<?xml version="1.0" encoding="UTF-8"?>
<svg width="14px" height="14px" viewBox="0 0 14 14" version="1.1" xmlns="http://www.w3.org/2000/svg" xmlns:xlink="http://www.w3.org/1999/xlink">
    <title>Solid/Close Circle</title>
    <g id="Page-1" stroke="none" stroke-width="1" fill="none" fill-rule="evenodd">
        <g id="Abstract" transform="translate(-149.000000, -37.000000)" fill="#000000">
            <g id="Shape" transform="translate(148.000000, 36.000000)">
                <path d="M9.97650337,5.97650242 L8.33005619,7.6229496 L9.97650242,9.26939583 C10.1717644,9.46465778 10.1717644,9.78124046 9.97650242,9.97650242 C9.78124046,10.1717644 9.46465778,10.1717644 9.26939583,9.97650242 L7.6229496,8.33005619 L5.97650242,9.97650337 C5.78124046,10.1717644 5.46465778,10.1717644 5.26939583,9.97650337 C5.0741334,9.78124046 5.0741334,9.46465778 5.26939583,9.26939583 L6.91584253,7.62294912 L5.26939583,5.97650242 C5.0741334,5.78124046 5.0741334,5.46465778 5.26939583,5.26939583 C5.46465778,5.0741334 5.78124046,5.0741334 5.97650242,5.26939583 L7.62294912,6.91584253 L9.26939583,5.26939583 C9.46465778,5.0741334 9.78124046,5.0741334 9.97650337,5.26939583 C10.1717644,5.46465778 10.1717644,5.78124046 9.97650337,5.97650242 Z M7.62283182,1 C11.2804909,1 14.2456636,3.96514463 14.2456636,7.62283039 C14.2456636,11.2804899 11.2804918,14.2456617 7.62283182,14.2456617 C3.96514606,14.2456617 1,11.280489 1,7.62283039 C1,3.96514583 3.96514726,1 7.62283182,1 Z"></path>
            </g>
        </g>
    </g>
</svg>