<?xml version="1.0" encoding="UTF-8" standalone="no"?>
<svg
   width="13px"
   height="9px"
   viewBox="0 0 13 9"
   version="1.1"
   id="svg9"
   sodipodi:docname="Cloud Fds.svg"
   inkscape:version="1.1.1 (3bf5ae0d25, 2021-09-20)"
   xmlns:inkscape="http://www.inkscape.org/namespaces/inkscape"
   xmlns:sodipodi="http://sodipodi.sourceforge.net/DTD/sodipodi-0.dtd"
   xmlns="http://www.w3.org/2000/svg"
   xmlns:svg="http://www.w3.org/2000/svg"
   xmlns:rdf="http://www.w3.org/1999/02/22-rdf-syntax-ns#"
   xmlns:cc="http://creativecommons.org/ns#"
   xmlns:dc="http://purl.org/dc/elements/1.1/">
  <defs
     id="defs13" />
  <sodipodi:namedview
     id="namedview11"
     pagecolor="#ffffff"
     bordercolor="#666666"
     borderopacity="1.0"
     inkscape:pageshadow="2"
     inkscape:pageopacity="0.0"
     inkscape:pagecheckerboard="0"
     showgrid="false"
     inkscape:zoom="79.888889"
     inkscape:cx="6.4965229"
     inkscape:cy="4.5"
     inkscape:window-width="2560"
     inkscape:window-height="1377"
     inkscape:window-x="-8"
     inkscape:window-y="-8"
     inkscape:window-maximized="1"
     inkscape:current-layer="Shape" />
  <title
     id="title2">Solid/Cloud</title>
  <g
     id="Page-1"
     stroke="none"
     stroke-width="1"
     fill="none"
     fill-rule="evenodd">
    <g
       id="Abstract"
       fill="#000000"
       fill-rule="nonzero">
      <g
         id="Shape">
        <path
           d="m 5.434617,0.43324061 c -0.140451,0 -0.2834647,0.009768 -0.4461263,0.0302689 L 4.7949581,0.49214523 C 3.3224328,0.74993178 2.1158739,1.8796703 1.7128781,3.3499976 l -0.029751,0.116243 -0.036716,0.012262 C 0.668898,3.8365329 0.01112656,4.7843467 0.01112656,5.8795482 L 0.02411459,6.088148 c 0.001338,0.00777 0.003218,0.018033 0.006038,0.03343 C 0.1032627,7.3827432 1.182398,8.4332406 2.4901992,8.4332406 h 8.1288278 c 1.323529,0 2.3921,-1.1084673 2.3921,-2.4629506 L 13.00605,5.8089229 C 12.935339,4.6883896 12.133639,3.7657433 11.083092,3.5525901 l -0.145965,-0.02535 -0.01805,-0.052271 C 10.600353,2.6662434 9.8050516,2.0976213 8.8916584,2.0976213 l -0.1648579,0.00646 -0.1376739,0.016158 -0.058417,-0.086047 C 7.8063739,1.0382164 6.6563225,0.43324061 5.434617,0.43324061 Z"
           id="path4" />
      </g>
    </g>
  </g>
  <metadata
     id="metadata15">
    <rdf:RDF>
      <cc:Work
         rdf:about="">
        <dc:title>Solid/Cloud</dc:title>
      </cc:Work>
    </rdf:RDF>
  </metadata>
</svg>
