<?xml version="1.0" encoding="UTF-8"?>
<svg width="15px" height="13px" viewBox="0 0 15 13" version="1.1" xmlns="http://www.w3.org/2000/svg" xmlns:xlink="http://www.w3.org/1999/xlink">
    <title>Solid/Comment Full</title>
    <g id="Page-1" stroke="none" stroke-width="1" fill="none" fill-rule="evenodd">
        <g id="Objects" transform="translate(-29.000000, -181.000000)" fill="#000000">
            <g id="Combined-Shape" transform="translate(29.000000, 180.000000)">
                <path d="M12.5,1 C13.8807087,1 15,2.11928654 15,3.5 L15,8.50002718 C15,9.88073826 13.8807125,11.0000277 12.5,11.0000277 L11,11.0000277 L11,13.5 C11,13.7022285 10.8781786,13.8845463 10.6913414,13.961937 C10.5045042,14.0393276 10.2894459,13.9965496 10.1464462,13.8535509 L7.29292345,11.0000277 L2.5,11.0000277 C1.11928797,11.0000277 0,9.88073921 0,8.50002718 L0,3.50002289 C0,2.11931324 1.11928463,1 2.5,1 L12.5,1 Z M7,7 L3,7 L3,8 L7,8 L7,7 Z M12,4 L3,4 L3,5 L12,5 L12,4 Z"></path>
            </g>
        </g>
    </g>
</svg>