<?xml version="1.0" encoding="UTF-8"?>
<svg width="13px" height="13px" viewBox="0 0 13 13" version="1.1" xmlns="http://www.w3.org/2000/svg" xmlns:xlink="http://www.w3.org/1999/xlink">
    <title>Solid/Command Line</title>
    <g id="Page-1" stroke="none" stroke-width="1" fill="none" fill-rule="evenodd">
        <g id="Objects" transform="translate(-208.000000, -73.000000)" fill="#000000" fill-rule="nonzero">
            <g id="Combined-Shape" transform="translate(207.000000, 72.000000)">
                <path d="M12.5,1 C13.3284271,1 14,1.67157288 14,2.5 L14,12.5 C14,13.3284271 13.3284271,14 12.5,14 L2.5,14 C1.67157288,14 1,13.3284271 1,12.5 L1,2.5 C1,1.67157288 1.67157288,1 2.5,1 L12.5,1 Z M11.5,10 L7.5,10 L7.5,11 L11.5,11 L11.5,10 Z M4.35355339,4.64644661 L3.64644661,5.35355339 L5.293,7 L3.64644661,8.64644661 L4.35355339,9.35355339 L6.70710678,7 L4.35355339,4.64644661 Z"></path>
            </g>
        </g>
    </g>
</svg>