<?xml version="1.0" encoding="UTF-8"?>
<svg width="9px" height="13px" viewBox="0 0 9 13" version="1.1" xmlns="http://www.w3.org/2000/svg" xmlns:xlink="http://www.w3.org/1999/xlink">
    <title>Solid/Database</title>
    <g id="Page-1" stroke="none" stroke-width="1" fill="none" fill-rule="evenodd">
        <g id="Objects" transform="translate(-62.000000, -325.000000)" fill="#000000" fill-rule="nonzero">
            <g id="Combined-Shape" transform="translate(59.000000, 324.000000)">
                <path d="M11.5015747,10.2009308 L11.5,11.2727273 L11.5,11.2727273 L11.4937937,11.3713356 C11.3784253,12.2889163 9.66820086,13.1202346 7.5,13.1202346 C5.25436339,13.1202346 3.5,12.2284761 3.5,11.2727273 L3.5,11.2727273 L3.50033141,10.2023048 C4.41879742,10.8639344 5.87988904,11.2727273 7.5,11.2727273 C9.1212322,11.2727273 10.5832249,10.8633684 11.5015747,10.2009308 L11.5015747,10.2009308 Z M11.5015747,7.47365805 L11.5,8.545 L11.5,8.54545455 L11.4937937,8.64406291 C11.3784253,9.56164359 9.66820086,10.3929619 7.5,10.3929619 C5.33179914,10.3929619 3.62157473,9.56164359 3.50620634,8.64406291 L3.50620634,8.64406291 L3.5,8.559 L3.50033141,7.4750321 C4.41879742,8.13666172 5.87988904,8.54545455 7.5,8.54545455 C9.1212322,8.54545455 10.5832249,8.1360957 11.5015747,7.47365805 L11.5015747,7.47365805 Z M3.4993013,4.66655644 C4.41817005,5.22172152 5.87904848,5.54545455 7.50045887,5.54545455 L7.50045887,5.54545455 L7.76093638,5.54265378 C9.27820854,5.50992443 10.6332276,5.19193323 11.5019613,4.6724528 L11.5019613,4.6724528 L11.5,5.818 L11.5,5.81818182 L11.4937937,5.91679018 C11.3784253,6.83437086 9.66820086,7.66568915 7.5,7.66568915 C5.33179914,7.66568915 3.62157473,6.83437086 3.50620634,5.91679018 L3.50620634,5.91679018 L3.5,5.832 Z M7.50045892,1.90909091 C9.73984037,1.90909091 11.5,2.62034812 11.5,3.27272727 L11.5,3.27272727 L11.4942601,3.34495524 L11.4781443,3.41425679 C11.2804238,4.01590865 9.58751512,4.63636364 7.50045892,4.63636364 C5.33313133,4.63636364 3.59085337,3.96726351 3.50391599,3.31758816 L3.50391599,3.31758816 L3.5,3.24519669 L3.50677182,3.17795432 C3.62725478,2.57045125 5.34105537,1.90909091 7.50045892,1.90909091 Z"></path>
            </g>
        </g>
    </g>
</svg>