<?xml version="1.0" encoding="UTF-8"?>
<svg width="13px" height="13px" viewBox="0 0 13 13" version="1.1" xmlns="http://www.w3.org/2000/svg" xmlns:xlink="http://www.w3.org/1999/xlink">
    <title>Solid/Edit</title>
    <g id="Page-1" stroke="none" stroke-width="1" fill="none" fill-rule="evenodd">
        <g id="Objects" transform="translate(-149.000000, -145.000000)" fill="#000000">
            <g id="Shape" transform="translate(148.000000, 144.000000)">
                <path d="M11.8535328,1.14644662 L13.8535328,3.14644671 C14.0487957,3.34170867 14.0487957,3.65829135 13.8535328,3.8535533 L9.91090679,7.79617978 C9.83490562,7.87218047 9.74714851,7.93543244 9.65101337,7.98350001 L5.72358608,9.94721318 C5.53109169,10.0434609 5.29860592,10.0057335 5.14642572,9.85355378 C4.99424577,9.70137311 4.95651841,9.46888734 5.05276585,9.2763939 L7.01647902,5.34896565 C7.06454659,5.25283147 7.1277976,5.16507436 7.20379925,5.08907319 L11.1464262,1.14644662 C11.3416882,0.951184459 11.6582708,0.951184459 11.8535328,1.14644662 Z M7.99998093,3.00000001 L3.90000153,3.00000001 C3.47171164,3.00000001 3.18056476,3.00038815 2.95551991,3.01877499 C2.73631239,3.036685 2.6242106,3.06914783 2.54601073,3.10899282 C2.35784853,3.20486618 2.20486796,3.35784674 2.1089946,3.54600883 C2.06914973,3.6242087 2.0366869,3.73631049 2.01877689,3.95551801 C2.00039005,4.18056274 2,4.47170926 2,4.89999891 L2,11.0999994 C2,11.5282888 2.00039005,11.8194351 2.01877689,12.0444803 C2.0366869,12.2636881 2.06914973,12.3757896 2.1089946,12.45399 C2.20486796,12.6421518 2.35784853,12.7951326 2.54601073,12.8910055 C2.6242106,12.93085 2.73631239,12.9633131 2.95551991,12.9812231 C3.18056476,12.99961 3.4717114,13 3.90000105,13 L10.1000013,13 C10.5282907,13 10.819437,12.99961 11.0444822,12.9812231 C11.26369,12.9633131 11.3757915,12.93085 11.4539919,12.8910055 C11.6421537,12.7951326 11.7951345,12.6421518 11.8910074,12.45399 C11.9308519,12.3757896 11.963315,12.2636881 11.981225,12.0444803 C11.9996119,11.8194361 12,11.5282888 12,11.0999994 L12,6.9999795 L13,5.9999795 L13,11.1206608 C13,11.5231409 13.0000124,11.8553171 12.9779043,12.1259117 C12.9549417,12.4069605 12.9056597,12.6653128 12.7820139,12.90798 C12.5902672,13.2843046 12.2843065,13.5902653 11.9079819,13.782012 C11.6653147,13.9056578 11.4069624,13.9549398 11.1259136,13.9779024 C10.855319,14 10.5231428,14 10.1206627,14 L3.87933874,14 C3.47685957,14 3.144683,14 2.87408805,13.9779024 C2.59303951,13.9549398 2.33468783,13.9056578 2.09202003,13.782012 C1.71569598,13.5902653 1.40973493,13.2843046 1.21798818,12.90798 C1.09434278,12.6653128 1.04506062,12.4069605 1.02209802,12.1259117 C1,11.8553209 1,11.5231495 1,11.120678 L1,4.87934924 C1,4.47687937 1,4.14467574 1.02209802,3.87408615 C1.04506062,3.59303761 1.09434278,3.33468605 1.21798818,3.09201813 C1.40973493,2.71569408 1.71569598,2.40973295 2.09202003,2.21798623 C2.33468795,2.09434081 2.59303951,2.04505862 2.87408805,2.02209605 C3.14467943,1.99998791 3.47685075,2.00000001 3.87932324,2.00000001 L8.99998188,2.00000001 L7.99998093,3.00000001 Z"></path>
            </g>
        </g>
    </g>
</svg>