<?xml version="1.0" encoding="UTF-8" standalone="no"?>
<svg
   width="15px"
   height="9px"
   viewBox="0 0 15 9"
   version="1.1"
   id="svg9"
   sodipodi:docname="Eye Open Fds.svg"
   inkscape:version="1.1.1 (3bf5ae0d25, 2021-09-20)"
   xmlns:inkscape="http://www.inkscape.org/namespaces/inkscape"
   xmlns:sodipodi="http://sodipodi.sourceforge.net/DTD/sodipodi-0.dtd"
   xmlns="http://www.w3.org/2000/svg"
   xmlns:svg="http://www.w3.org/2000/svg">
  <defs
     id="defs13" />
  <sodipodi:namedview
     id="namedview11"
     pagecolor="#ffffff"
     bordercolor="#666666"
     borderopacity="1.0"
     inkscape:pageshadow="2"
     inkscape:pageopacity="0.0"
     inkscape:pagecheckerboard="0"
     showgrid="false"
     inkscape:zoom="77.133333"
     inkscape:cx="7.4935177"
     inkscape:cy="2.4308557"
     inkscape:window-width="1920"
     inkscape:window-height="1017"
     inkscape:window-x="-8"
     inkscape:window-y="-8"
     inkscape:window-maximized="1"
     inkscape:current-layer="Shape" />
  <title
     id="title2">Solid/Eye Open</title>
  <g
     id="Page-1"
     stroke="none"
     stroke-width="1"
     fill="none"
     fill-rule="evenodd">
    <g
       id="Objects"
       fill="#000000">
      <g
         id="Shape">
        <path
           d="m 9.4870354,4.4922213 c 0,-1.1045695 -0.8954306,-2 -2,-2 -1.1045694,0 -2,0.8954305 -2,2 0,1.1045694 0.8954306,2 2,2 1.1045694,0 2,-0.8954306 2,-2 z M 0.06303568,4.2272352 c -0.10133406,0.1621352 -0.10133364,0.3678642 1.2e-6,0.5299988 1.58039012,2.5286117 4.23185792,4.2349873 7.42399852,4.2349873 3.1921406,0 5.8436086,-1.7063761 7.4239986,-4.2349878 0.101334,-0.1621346 0.101334,-0.3678631 10e-7,-0.5299988 -1.58039,-2.5286366 -4.231858,-4.23501344 -7.4239996,-4.23501344 -3.1921415,0 -5.8436097,1.70637684 -7.42399972,4.23501394 z"
           id="path4" />
      </g>
    </g>
  </g>
</svg>
