<?xml version="1.0" encoding="UTF-8"?>
<svg width="15px" height="13px" viewBox="0 0 15 13" version="1.1" xmlns="http://www.w3.org/2000/svg" xmlns:xlink="http://www.w3.org/1999/xlink">
    <title>Solid/Eye None</title>
    <g id="Page-1" stroke="none" stroke-width="1" fill="none" fill-rule="evenodd">
        <g id="Objects" transform="translate(-118.000000, -145.000000)" fill="#000000">
            <g id="Solid/Eye-None" transform="translate(118.000000, 144.000000)">
                <path d="M13.3535534,1.64644661 C13.5271197,1.82001296 13.5464049,2.08943736 13.4114088,2.2843055 L13.3535534,2.35355339 L2.35355339,13.3535534 C2.15829124,13.5488155 1.84170876,13.5488155 1.64644661,13.3535534 C1.47288026,13.179987 1.45359511,12.9105626 1.58859116,12.7156945 L1.64644661,12.6464466 L12.6464466,1.64644661 C12.8417088,1.45118446 13.1582912,1.45118446 13.3535534,1.64644661 Z M12.501787,4.61863955 C13.4623868,5.31535595 14.281662,6.20726787 14.9239998,7.23501348 C15.0253334,7.39714909 15.0253334,7.60287762 14.9239988,7.76501226 C13.3436089,10.2936239 10.6921406,12 7.5,12 C6.76351978,12 6.05581969,11.9091693 5.38341368,11.738366 L12.501787,4.61863955 Z M7.5,3 C8.23684359,3 8.94487864,3.09092039 9.61758156,3.26188717 L2.49821414,10.3813664 C1.53761444,9.68465387 0.718339307,8.79274818 0.0760014355,7.76501274 C-0.0253334045,7.60287809 -0.0253338218,7.39714909 0.0760002434,7.23501396 C1.65639034,4.70637679 4.30785847,3 7.5,3 Z" id="Combined-Shape"></path>
            </g>
        </g>
    </g>
</svg>