<?xml version="1.0" encoding="UTF-8"?>
<svg width="11px" height="13px" viewBox="0 0 11 13" version="1.1" xmlns="http://www.w3.org/2000/svg" xmlns:xlink="http://www.w3.org/1999/xlink">
    <title>Solid/File Close</title>
    <g id="Page-1" stroke="none" stroke-width="1" fill="none" fill-rule="evenodd">
        <g id="Objects" transform="translate(-120.000000, -73.000000)" fill="#000000">
            <g id="Shape" transform="translate(118.000000, 72.000000)">
                <path d="M3.5,1 L8.5,1 C8.63260841,1 8.75978518,1.05267841 8.8535533,1.14644662 L12.8535538,5.1464467 C12.9473219,5.24021482 13,5.36739182 13,5.5 L13,12.5 C13,13.3284273 12.3284264,14 11.5,14 L3.5,14 C2.67157304,14 2,13.3284273 2,12.5 L2,2.5 C2,1.67157286 2.67157304,1 3.5,1 Z M6.49686864,7.58068975 L6.56611652,7.6385452 L7.45,8.52242867 L8.33388348,7.6385452 C8.52914562,7.44328305 8.84572811,7.44328305 9.04099026,7.6385452 C9.21455661,7.81211155 9.23384176,8.08153595 9.09884571,8.27640409 L9.04099026,8.34565198 L8.15710678,9.22953545 L9.04099026,10.1134189 C9.2362524,10.3086811 9.2362524,10.6252636 9.04099026,10.8205257 C8.86742391,10.9940921 8.5979995,11.0133772 8.40313136,10.8783812 L8.33388348,10.8205257 L7.45,9.93664223 L6.56611652,10.8205257 C6.37085438,11.0157879 6.05427189,11.0157879 5.85900974,10.8205257 C5.68544339,10.6469594 5.66615824,10.377535 5.80115429,10.1826668 L5.85900974,10.1134189 L6.74289322,9.22953545 L5.85900974,8.34565198 C5.6637476,8.15038983 5.6637476,7.83380734 5.85900974,7.6385452 C6.03257609,7.46497884 6.3020005,7.44569369 6.49686864,7.58068975 Z M9,2.70710671 L11.2928934,5 L9,5 L9,2.70710671 Z"></path>
            </g>
        </g>
    </g>
</svg>