<?xml version="1.0" encoding="UTF-8"?>
<svg width="11px" height="13px" viewBox="0 0 11 13" version="1.1" xmlns="http://www.w3.org/2000/svg" xmlns:xlink="http://www.w3.org/1999/xlink">
    <title>Solid/File Text</title>
    <g id="Page-1" stroke="none" stroke-width="1" fill="none" fill-rule="evenodd">
        <g id="Objects" transform="translate(-150.000000, -73.000000)" fill="#000000">
            <g id="Shape" transform="translate(148.000000, 72.000000)">
                <path d="M3.5,1 L8.5,1 C8.63260841,1 8.75978518,1.05267841 8.8535533,1.14644662 L12.8535538,5.1464467 C12.9473219,5.24021482 13,5.36739182 13,5.5 L13,12.5 C13,13.3284273 12.3284264,14 11.5,14 L3.5,14 C2.67157304,14 2,13.3284273 2,12.5 L2,2.5 C2,1.67157286 2.67157304,1 3.5,1 Z M10.5,10 C10.7761421,10 11,10.2238579 11,10.5 C11,10.7761421 10.7761421,11 10.5,11 L10.5,11 L4.5,11 C4.22385764,11 4,10.7761421 4,10.5 C4,10.2238579 4.22385764,10 4.5,10 L4.5,10 Z M10.5,7 C10.7761421,7 11,7.22385788 11,7.5 C11,7.77614212 10.7761421,8 10.5,8 L10.5,8 L4.5,8 C4.22385764,8 4,7.77614212 4,7.5 C4,7.22385788 4.22385764,7 4.5,7 L4.5,7 Z M9,2.70710671 L11.2928934,5 L9,5 L9,2.70710671 Z M6,3.97953545 C6.27614212,3.97953545 6.5,4.20339309 6.5,4.47953545 C6.5,4.75567781 6.27614212,4.97953545 6,4.97953545 L6,4.97953545 L4.5,4.97953545 C4.22385764,4.97953545 4,4.75567781 4,4.47953545 C4,4.20339309 4.22385764,3.97953545 4.5,3.97953545 L4.5,3.97953545 Z"></path>
            </g>
        </g>
    </g>
</svg>