<?xml version="1.0" encoding="UTF-8"?>
<svg width="11px" height="13px" viewBox="0 0 11 13" version="1.1" xmlns="http://www.w3.org/2000/svg" xmlns:xlink="http://www.w3.org/1999/xlink">
    <title>Solid/File Minus</title>
    <g id="Page-1" stroke="none" stroke-width="1" fill="none" fill-rule="evenodd">
        <g id="Objects" transform="translate(-91.000000, -73.000000)" fill="#000000">
            <g id="Shape" transform="translate(89.000000, 72.000000)">
                <path d="M3.5,1 L8.5,1 C8.63260841,1 8.75978518,1.05267841 8.8535533,1.14644662 L12.8535538,5.1464467 C12.9473219,5.24021482 13,5.36739182 13,5.5 L13,12.5 C13,13.3284273 12.3284264,14 11.5,14 L3.5,14 C2.67157304,14 2,13.3284273 2,12.5 L2,2.5 C2,1.67157286 2.67157304,1 3.5,1 Z M9.2,8.72953545 C9.47614237,8.72953545 9.7,8.95339308 9.7,9.22953545 C9.7,9.47499534 9.52312484,9.67914382 9.28987563,9.72147978 L9.2,9.72953545 L5.7,9.72953545 C5.42385763,9.72953545 5.2,9.50567783 5.2,9.22953545 C5.2,8.98407556 5.37687516,8.77992708 5.61012437,8.73759112 L5.7,8.72953545 L9.2,8.72953545 Z M9,2.70710671 L11.2928934,5 L9,5 L9,2.70710671 Z"></path>
            </g>
        </g>
    </g>
</svg>