<?xml version="1.0" encoding="UTF-8"?>
<svg width="13px" height="13px" viewBox="0 0 13 13" version="1.1" xmlns="http://www.w3.org/2000/svg" xmlns:xlink="http://www.w3.org/1999/xlink">
    <title>Solid/Folder Plus</title>
    <g id="Page-1" stroke="none" stroke-width="1" fill="none" fill-rule="evenodd">
        <g id="Objects" transform="translate(-60.000000, -109.000000)" fill="#000000" fill-rule="nonzero">
            <g id="Combined-Shape" transform="translate(59.000000, 108.000000)">
                <path d="M14,4 L14,12.3333333 C14,13.2538079 13.3284271,14 12.5,14 L2.5,14 C1.67157288,14 1,13.2538079 1,12.3333333 L1,5.66666667 C1,4.74619208 1.67157288,4 2.5,4 L14,4 Z M7.5,6.25 C7.2238574,6.25 7,6.47385764 7,6.75 L7,6.75 L7,8.5 L5.25,8.5 C4.97385764,8.5 4.75,8.7238574 4.75,9 C4.75,9.2761426 4.97385764,9.5 5.25,9.5 L5.25,9.5 L7,9.5 L7,11.25 C7,11.5261421 7.2238574,11.75 7.5,11.75 C7.7761426,11.75 8,11.5261421 8,11.25 L8,11.25 L8,9.5 L9.75,9.5 C10.0261421,9.5 10.25,9.2761426 10.25,9 C10.25,8.7238574 10.0261421,8.5 9.75,8.5 L9.75,8.5 L8,8.5 L8,6.75 C8,6.47385764 7.7761426,6.25 7.5,6.25 Z M12.9,1 C13.5075132,1 14,1.49248678 14,2.1 L14,3 L7.554,3 L8.45830282,1.99438563 C9.02726839,1.36147168 9.83827717,1 10.6893364,1 L12.9,1 Z"></path>
            </g>
        </g>
    </g>
</svg>