<?xml version="1.0" encoding="UTF-8"?>
<svg width="13px" height="13px" viewBox="0 0 13 13" version="1.1" xmlns="http://www.w3.org/2000/svg" xmlns:xlink="http://www.w3.org/1999/xlink">
    <title>Solid/Folder Minus</title>
    <g id="Page-1" stroke="none" stroke-width="1" fill="none" fill-rule="evenodd">
        <g id="Objects" transform="translate(-90.000000, -109.000000)" fill="#000000" fill-rule="nonzero">
            <g id="Combined-Shape" transform="translate(89.000000, 108.000000)">
                <path d="M14,4 L14,12.3333333 C14,13.2538079 13.3284271,14 12.5,14 L2.5,14 C1.67157288,14 1,13.2538079 1,12.3333333 L1,5.66666667 C1,4.74619208 1.67157288,4 2.5,4 L14,4 Z M9.75,8.5 L5.25,8.5 C4.97385764,8.5 4.75,8.7238574 4.75,9 C4.75,9.2761426 4.97385764,9.5 5.25,9.5 L9.75,9.5 C10.0261421,9.5 10.25,9.2761426 10.25,9 C10.25,8.7238574 10.0261421,8.5 9.75,8.5 Z M12.9,1 C13.5075132,1 14,1.49248678 14,2.1 L14,3 L7.554,3 L8.45830282,1.99438563 C9.02726839,1.36147168 9.83827717,1 10.6893364,1 L12.9,1 Z"></path>
            </g>
        </g>
    </g>
</svg>