<?xml version="1.0" encoding="UTF-8"?>
<svg width="13px" height="13px" viewBox="0 0 13 13" version="1.1" xmlns="http://www.w3.org/2000/svg" xmlns:xlink="http://www.w3.org/1999/xlink">
    <title>Solid/Folder Close</title>
    <g id="Page-1" stroke="none" stroke-width="1" fill="none" fill-rule="evenodd">
        <g id="Objects" transform="translate(-119.000000, -109.000000)" fill="#000000" fill-rule="nonzero">
            <g id="Combined-Shape" transform="translate(118.000000, 108.000000)">
                <path d="M14,4 L14,12.3333333 C14,13.2538079 13.3284271,14 12.5,14 L2.5,14 C1.67157288,14 1,13.2538079 1,12.3333333 L1,5.66666667 C1,4.74619208 1.67157288,4 2.5,4 L14,4 Z M6.26256313,7.05545635 C6.067301,6.86019422 5.75071865,6.86019405 5.55545635,7.05545635 C5.36019405,7.25071865 5.36019422,7.567301 5.55545635,7.76256313 L5.55545635,7.76256313 L6.79289322,9 L5.55545635,10.2374369 C5.36019439,10.4326988 5.36019405,10.7492813 5.55545635,10.9445436 C5.75071865,11.139806 6.06730117,11.1398056 6.26256313,10.9445436 L6.26256313,10.9445436 L7.5,9.70710678 L8.73743687,10.9445436 C8.93269883,11.1398056 9.24928135,11.139806 9.44454365,10.9445436 C9.63980595,10.7492813 9.63980561,10.4326988 9.44454365,10.2374369 L9.44454365,10.2374369 L8.20710678,9 L9.44454365,7.76256313 C9.63980578,7.567301 9.63980595,7.25071865 9.44454365,7.05545635 C9.24928135,6.86019405 8.932699,6.86019422 8.73743687,7.05545635 L8.73743687,7.05545635 L7.5,8.29289322 Z M12.9,1 C13.5075132,1 14,1.49248678 14,2.1 L14,3 L7.554,3 L8.45830282,1.99438563 C9.02726839,1.36147168 9.83827717,1 10.6893364,1 L12.9,1 Z"></path>
            </g>
        </g>
    </g>
</svg>