<?xml version="1.0" encoding="UTF-8"?>
<svg width="15px" height="15px" viewBox="0 0 15 15" version="1.1" xmlns="http://www.w3.org/2000/svg" xmlns:xlink="http://www.w3.org/1999/xlink">
    <title>Solid/Gear</title>
    <g id="Page-1" stroke="none" stroke-width="1" fill="none" fill-rule="evenodd">
        <g id="Objects" transform="translate(-118.000000, -216.000000)" fill="#000000">
            <g id="Shape" transform="translate(118.000000, 216.000000)">
                <path d="M7.50004775,9.97788251 C6.13147404,9.97788251 5.02202588,8.86843436 5.02202588,7.49986064 C5.02202588,6.13128692 6.13147404,5.02183877 7.50004775,5.02183877 C8.86862147,5.02183877 9.97806963,6.13128692 9.97806963,7.49986064 C9.97806963,8.86843436 8.86862147,9.97788251 7.50004775,9.97788251 Z M6.21442916,1.17656736 L5.97113291,2.24973626 C5.58382966,2.36236653 5.2143599,2.51661141 4.8679507,2.70719865 L3.93699,2.12034001 C3.59376371,1.90397709 3.14647525,1.95404394 2.85958054,2.24093865 L2.24021504,2.86030439 C1.95332033,3.1471991 1.90325372,3.59448732 2.11961652,3.93771361 L2.70668506,4.86900712 C2.51626227,5.21532423 2.36215736,5.58467606 2.249636,5.97184239 L1.17656736,6.21511574 C0.780878072,6.30482165 0.5,6.6565047 0.5,7.06223495 L0.5,7.93815049 C0.5,8.34388074 0.780878072,8.69556378 1.17656736,8.78527018 L2.24976014,9.02857131 C2.36234631,9.4158424 2.51653917,9.78528682 2.70706855,10.131678 L2.12009746,11.0628166 C1.90373454,11.4060433 1.95380128,11.8533308 2.24069599,12.140226 L2.86006148,12.7595918 C3.14695619,13.0464869 3.59424465,13.0965531 3.93747094,12.8801898 L4.86866748,12.2931824 C5.21486911,12.4835883 5.58409474,12.6376966 5.97112998,12.7502496 L6.21442916,13.8234324 C6.30413508,14.2191217 6.65581812,14.5 7.06154837,14.5 L7.93746391,14.5 C8.34319416,14.5 8.69487769,14.2191217 8.78458312,13.8234324 L9.02779264,12.7506463 C9.41515631,12.6381078 9.78469136,12.4839449 10.1311683,12.2934299 L11.062301,12.8803974 C11.4055278,13.0967607 11.8528153,13.0466936 12.1397105,12.7597993 L12.7590762,12.1404336 C13.0459704,11.8535384 13.0960375,11.4062509 12.8796742,11.0630241 L12.2929163,10.1322228 C12.4835951,9.78565326 12.6378983,9.41600223 12.7505449,9.02850212 L13.8234324,8.78527018 C14.2191217,8.69556378 14.5,8.34388025 14.5,7.93815 L14.5,7.06223446 C14.5,6.65650421 14.2191217,6.30482117 13.8234324,6.21511525 L12.7506696,5.9719111 C12.6380874,5.58451526 12.4838718,5.21495487 12.2932993,4.86845942 L12.8801537,3.93750554 C13.096517,3.59427925 13.0464499,3.14699079 12.7595557,2.86009608 L12.14019,2.24073058 C11.8532948,1.95383588 11.4060073,1.90376926 11.0627805,2.12013206 L10.1318836,2.70695038 C9.78519814,2.51625387 9.41542042,2.361956 9.02778971,2.24934034 L8.78458312,1.17656724 C8.69487769,0.780878011 8.34319416,0.5 7.93746391,0.5 L7.06154837,0.5 C6.65581812,0.5 6.30413508,0.780878103 6.21442916,1.17656736 Z"></path>
            </g>
        </g>
    </g>
</svg>