<?xml version="1.0" encoding="UTF-8"?>
<svg width="13px" height="13px" viewBox="0 0 13 13" version="1.1" xmlns="http://www.w3.org/2000/svg" xmlns:xlink="http://www.w3.org/1999/xlink">
    <title>Solid/Hardware</title>
    <g id="Page-1" stroke="none" stroke-width="1" fill="none" fill-rule="evenodd">
        <g id="Objects" transform="translate(-119.000000, -289.000000)" fill="#000000" fill-rule="nonzero">
            <g id="Combined-Shape" transform="translate(118.000000, 288.000000)">
                <path d="M10.5,1 C10.7454599,1 10.9496084,1.17687516 10.9919443,1.41012437 L11,1.5 L11,3 L10.9927306,3.08280463 C11.4224619,3.23219564 11.7633042,3.57152729 11.9147505,4.00029246 L13,4 C13.2761424,4 13.5,4.22385763 13.5,4.5 C13.5,4.74545989 13.3231248,4.94960837 13.0898756,4.99194433 L13,5 L12,5 L12,7 L13,7 C13.2761424,7 13.5,7.22385763 13.5,7.5 C13.5,7.74545989 13.3231248,7.94960837 13.0898756,7.99194433 L13,8 L12,8 L12,10 L13,10 C13.2761424,10 13.5,10.2238576 13.5,10.5 C13.5,10.7454599 13.3231248,10.9496084 13.0898756,10.9919443 L13,11 L11.9143985,11.000703 C11.7637161,11.4263438 11.4263438,11.7637161 11.000703,11.9143985 L11,13 C11,13.2761424 10.7761424,13.5 10.5,13.5 C10.2545401,13.5 10.0503916,13.3231248 10.0080557,13.0898756 L10,13 L10,12 L8,12 L8,13 C8,13.2761424 7.77614237,13.5 7.5,13.5 C7.25454011,13.5 7.05039163,13.3231248 7.00805567,13.0898756 L7,13 L7,12 L5,12 L5,13 C5,13.2761424 4.77614237,13.5 4.5,13.5 C4.25454011,13.5 4.05039163,13.3231248 4.00805567,13.0898756 L4,13 L4.00029246,11.9147505 C3.57152729,11.7633042 3.23219564,11.4224619 3.08280463,10.9927306 L3,11 L1.5,11 C1.22385763,11 1,10.7761424 1,10.5 C1,10.2545401 1.17687516,10.0503916 1.41012437,10.0080557 L1.5,10 L3,10 L3,8 L1.5,8 C1.22385763,8 1,7.77614237 1,7.5 C1,7.25454011 1.17687516,7.05039163 1.41012437,7.00805567 L1.5,7 L3,7 L3,5 L1.5,5 C1.22385763,5 1,4.77614237 1,4.5 C1,4.25454011 1.17687516,4.05039163 1.41012437,4.00805567 L1.5,4 L3,4 L3.08280463,4.00726941 C3.23300503,3.57520983 3.57520983,3.23300503 4.00726941,3.08280463 L4,3 L4,1.5 C4,1.22385763 4.22385763,1 4.5,1 C4.74545989,1 4.94960837,1.17687516 4.99194433,1.41012437 L5,1.5 L5,3 L7,3 L7,1.5 C7,1.22385763 7.22385763,1 7.5,1 C7.74545989,1 7.94960837,1.17687516 7.99194433,1.41012437 L8,1.5 L8,3 L10,3 L10,1.5 C10,1.22385763 10.2238576,1 10.5,1 Z M9,5.5 L6,5.5 C5.72385763,5.5 5.5,5.72385763 5.5,6 L5.5,6 L5.5,9 C5.5,9.27614237 5.72385763,9.5 6,9.5 L6,9.5 L9,9.5 C9.27614237,9.5 9.5,9.27614237 9.5,9 L9.5,9 L9.5,6 C9.5,5.72385763 9.27614237,5.5 9,5.5 L9,5.5 Z M8.5,6.5 L8.5,8.5 L6.5,8.5 L6.5,6.5 L8.5,6.5 Z"></path>
            </g>
        </g>
    </g>
</svg>