<?xml version="1.0" encoding="UTF-8"?>
<svg width="15px" height="13px" viewBox="0 0 15 13" version="1.1" xmlns="http://www.w3.org/2000/svg" xmlns:xlink="http://www.w3.org/1999/xlink">
    <title>Solid/Home</title>
    <g id="Page-1" stroke="none" stroke-width="1" fill="none" fill-rule="evenodd">
        <g id="Objects" transform="translate(-178.000000, -37.000000)" fill="#000000">
            <g id="Shape" transform="translate(178.000000, 36.000000)">
                <path d="M7.77076531,1.17226539 L14.5207653,7.81227732 C14.7569962,8.04465962 14.7601175,8.42454577 14.5277348,8.6607771 C14.2953529,8.89700843 13.9154663,8.90012885 13.6792355,8.66774703 L12.8500004,7.85202409 L12.8500004,13.4500065 C12.8500004,13.7261486 12.6261425,13.9500065 12.3500004,13.9500065 L2.35000014,13.9500065 C2.07385779,13.9500065 1.85000014,13.7261486 1.85000014,13.4500065 L1.85000014,7.85202409 L1.02076507,8.66774703 C0.784533741,8.90012885 0.404647575,8.89700843 0.172265516,8.6607771 C-0.060116513,8.42454577 -0.0569960906,8.04465962 0.179235236,7.81227732 L6.92923546,1.17226539 C7.16272736,0.942578204 7.53727341,0.942578204 7.77076531,1.17226539 Z M9,13.95 L9,10 L6,10 L6,13.95 L9,13.95 Z"></path>
            </g>
        </g>
    </g>
</svg>