<?xml version="1.0" encoding="UTF-8"?>
<svg width="13px" height="14px" viewBox="0 0 13 14" version="1.1" xmlns="http://www.w3.org/2000/svg" xmlns:xlink="http://www.w3.org/1999/xlink">
    <title>Solid/Hourglass</title>
    <g id="Page-1" stroke="none" stroke-width="1" fill="none" fill-rule="evenodd">
        <g id="Objects" transform="translate(-30.000000, -325.000000)" fill="#000000" fill-rule="nonzero">
            <g id="Combined-Shape" transform="translate(29.000000, 324.000000)">
                <path d="M12.9,1.23223305 C13.1761424,1.23223305 13.4,1.45609067 13.4,1.73223305 C13.4,1.97769294 13.2231248,2.18184142 12.9898756,2.22417738 L12.9,2.23223305 L12.449014,2.23304528 C12.1692288,4.77149339 10.764086,6.8550644 8.88253011,7.551181 C10.8536603,8.2781644 12.3019369,10.5300375 12.4812514,13.2324869 L12.9,13.232233 C13.1761424,13.232233 13.4,13.4560907 13.4,13.732233 C13.4,13.9776929 13.2231248,14.1818414 12.9898756,14.2241774 L12.9,14.232233 L2.33707256,14.232233 C2.06093019,14.232233 1.83707256,14.0083754 1.83707256,13.732233 C1.83707256,13.4867732 2.01394772,13.2826247 2.24719693,13.2402887 L2.33707256,13.232233 L2.51871824,13.2329452 C2.69789935,10.5302888 4.14622823,8.2781165 6.11746989,7.548819 C4.23596669,6.85489144 2.83084999,4.77159448 2.55100948,2.2332574 L2.33707256,2.23223305 C2.06093019,2.23223305 1.83707256,2.00837542 1.83707256,1.73223305 C1.83707256,1.48677316 2.01394772,1.28262468 2.24719693,1.24028872 L2.33707256,1.23223305 L12.9,1.23223305 Z"></path>
            </g>
        </g>
    </g>
</svg>