<?xml version="1.0" encoding="UTF-8"?>
<svg width="13px" height="13px" viewBox="0 0 13 13" version="1.1" xmlns="http://www.w3.org/2000/svg" xmlns:xlink="http://www.w3.org/1999/xlink">
    <title>Solid/Image</title>
    <g id="Page-1" stroke="none" stroke-width="1" fill="none" fill-rule="evenodd">
        <g id="Objects" transform="translate(-90.000000, -181.000000)" fill="#000000">
            <g id="Shape" transform="translate(89.000000, 180.000000)">
                <path d="M5.74921894,5.5 C5.74921894,6.46692944 6.53307009,7.25078106 7.5,7.25078106 C8.46692944,7.25078106 9.25078106,6.46692944 9.25078106,5.5 C9.25078106,4.53307033 8.46692944,3.7492187 7.5,3.7492187 C6.53307009,3.7492187 5.74921894,4.53307033 5.74921894,5.5 Z M12.5,1 C13.3284264,1 14,1.67157245 14,2.5 L14,12.5 C14,13.3284264 13.3284273,14 12.5,14 L2.5,14 C1.67157352,14 1,13.3284273 1,12.5 L1,2.5 C1,1.67157352 1.67157245,1 2.5,1 L12.5,1 Z M2,2.5 L2,8.36360359 L3.68180203,6.6818018 C3.76809049,6.59551334 3.88572311,6.54796886 4.00773549,6.55006647 C4.12974787,6.55216408 4.24567676,6.60372448 4.32894802,6.69292831 L7.87355042,10.4900532 L10.6818018,7.6818018 C10.8575382,7.50606585 11.1424618,7.50606585 11.3181982,7.6818018 L13,9.36360359 L13,2.5 C13,2.22385764 12.7761421,2 12.5,2 L2.5,2 C2.22385764,2 2,2.22385776 2,2.5 Z"></path>
            </g>
        </g>
    </g>
</svg>