<?xml version="1.0" encoding="UTF-8"?>
<svg width="14px" height="14px" viewBox="0 0 14 14" version="1.1" xmlns="http://www.w3.org/2000/svg" xmlns:xlink="http://www.w3.org/1999/xlink">
    <title>Solid/Information</title>
    <g id="Page-1" stroke="none" stroke-width="1" fill="none" fill-rule="evenodd">
        <g id="Abstract" transform="translate(-238.000000, -37.000000)" fill="#000000">
            <g id="Shape" transform="translate(237.000000, 36.000000)">
                <path d="M7.62284517,5.37309361 C7.20863152,5.37309361 6.87284517,5.03730726 6.87284517,4.62309361 C6.87284517,4.20887995 7.20863152,3.87309361 7.62284517,3.87309361 C8.03705883,3.87309361 8.37284517,4.20887995 8.37284517,4.62309361 C8.37284517,5.03730726 8.03705883,5.37309361 7.62284517,5.37309361 Z M7.62295961,6.12309361 C7.89910221,6.12309361 8.12295961,6.34695148 8.12295961,6.62309361 L8.12295961,10.1230936 L9.12295914,10.1230936 L9.12295914,11.1230936 L6.12295961,11.1230936 L6.12295961,10.1230936 L7.12295961,10.1230936 L7.12295961,7.12309361 L6.12295961,7.12309361 L6.12295961,6.12309361 L7.62295961,6.12309361 Z M1,7.62283182 C1,11.2804909 3.96514463,14.2456636 7.62283039,14.2456636 C11.2804899,14.2456636 14.2456617,11.2804918 14.2456617,7.62283182 C14.2456617,3.96514606 11.280489,1 7.62283039,1 C3.96514583,1 1,3.96514726 1,7.62283182 Z"></path>
            </g>
        </g>
    </g>
</svg>