<?xml version="1.0" encoding="UTF-8"?>
<svg width="13px" height="15px" viewBox="0 0 13 15" version="1.1" xmlns="http://www.w3.org/2000/svg" xmlns:xlink="http://www.w3.org/1999/xlink">
    <title>Solid/Lap Timer</title>
    <g id="Page-1" stroke="none" stroke-width="1" fill="none" fill-rule="evenodd">
        <g id="Objects" transform="translate(-149.000000, -216.000000)" fill="#000000">
            <g id="Shape" transform="translate(148.000000, 216.000000)">
                <path d="M8.90000153,0 C9.17614365,0 9.40000153,0.223857611 9.40000153,0.5 C9.40000153,0.776142359 9.17614365,1 8.90000153,1 L7.90000153,1 L7.90000153,2.11921883 C8.99834681,2.20409393 10.0189848,2.56622338 10.892025,3.13571739 C10.9115849,3.10851145 10.9335947,3.08252263 10.9580593,3.05805826 L11.9580593,2.05805826 C12.202137,1.81398058 12.5978661,1.81398058 12.8419437,2.05805826 C13.0860214,2.30213594 13.0860214,2.69786406 12.8419437,2.94194174 L11.8670683,3.91681695 C13.0595207,5.07925081 13.8000002,6.70313883 13.8000002,8.4999752 C13.8000002,12.0345984 10.9346228,14.8999758 7.4000001,14.8999758 C3.86537766,14.8999758 1,12.0345984 1,8.4999752 C1,5.13361454 3.59906483,2.37429833 6.90000153,2.11921859 L6.90000153,1 L5.90000153,1 C5.62385893,1 5.40000153,0.776142359 5.40000153,0.5 C5.40000153,0.223857611 5.62385893,0 5.90000153,0 L8.90000153,0 Z M7.5,4 L7.5,8.5 L7.5,8.5 C7.5,8.5 10.5,12 10.5337161,11.8236768 C11.4347474,11.000789 12,9.81640541 12,8.5 C12,6.01471863 9.98528137,4 7.5,4 Z"></path>
            </g>
        </g>
    </g>
</svg>