<?xml version="1.0" encoding="UTF-8"?>
<svg width="13px" height="15px" viewBox="0 0 13 15" version="1.1" xmlns="http://www.w3.org/2000/svg" xmlns:xlink="http://www.w3.org/1999/xlink">
    <title>Solid/Layer</title>
    <g id="Page-1" stroke="none" stroke-width="1" fill="none" fill-rule="evenodd">
        <g id="Geometry" transform="translate(-208.000000, -36.000000)" fill="#000000">
            <g id="Shape" transform="translate(207.000000, 36.000000)">
                <path d="M7.24571657,0.56953676 L1.74571656,3.81953669 C1.59348054,3.9094944 1.5,4.07317185 1.5,4.25 C1.5,4.42682815 1.59348054,4.5905056 1.74571656,4.68046331 L7.24571657,7.93046331 C7.40261984,8.02317905 7.59754229,8.02317905 7.75444555,7.93046331 L13.254447,4.68046331 C13.406683,4.5905056 13.5001602,4.42682815 13.5001602,4.25 C13.5001602,4.07317185 13.406683,3.9094944 13.254447,3.81953669 L7.75444555,0.56953676 C7.59754229,0.47682108 7.40261984,0.47682108 7.24571657,0.56953676 Z M2.25444591,7.06953669 L7.50008106,10.1692305 L12.745717,7.06953669 C12.9834557,6.92905521 13.2900639,7.0078969 13.4305449,7.24563551 C13.5710268,7.48337364 13.4921846,7.78998137 13.254447,7.93046331 L7.75444555,11.1804638 C7.59754229,11.2731791 7.40261984,11.2731791 7.24571657,11.1804638 L1.74571656,7.93046331 C1.50797828,7.78998137 1.42913627,7.48337364 1.56961798,7.24563551 C1.71009969,7.0078969 2.0167076,6.92905521 2.25444591,7.06953669 Z M2.25444341,10.0695372 L7.50007868,13.1692305 L12.7457142,10.0695372 C12.9834528,9.92905521 13.290061,10.0078974 13.430542,10.245635 C13.5710239,10.4833736 13.4921818,10.7899818 13.2544441,10.9304628 L7.75444317,14.1804638 C7.5975399,14.2731791 7.40261745,14.2731791 7.24571419,14.1804638 L1.74571405,10.9304628 C1.50797577,10.7899818 1.42913377,10.4833736 1.56961548,10.245635 C1.71009719,10.0078974 2.0167051,9.92905521 2.25444341,10.0695372 Z"></path>
            </g>
        </g>
    </g>
</svg>