<?xml version="1.0" encoding="UTF-8"?>
<svg width="15px" height="15px" viewBox="0 0 15 15" version="1.1" xmlns="http://www.w3.org/2000/svg" xmlns:xlink="http://www.w3.org/1999/xlink">
    <title>Solid/Light</title>
    <g id="Page-1" stroke="none" stroke-width="1" fill="none" fill-rule="evenodd">
        <g id="Objects" transform="translate(-207.000000, -36.000000)" fill="#000000">
            <g id="Shape" transform="translate(207.000000, 36.000000)">
                <path d="M8,0.5 L8,2.5 C8,2.77614236 7.7761426,3 7.5,3 C7.2238574,3 7,2.77614236 7,2.5 L7,0.5 C7,0.223857611 7.2238574,0 7.5,0 C7.7761426,0 8,0.223857611 8,0.5 Z M2.90380573,2.19669938 L4.31801939,3.6109128 C4.51328135,3.80617499 4.51328135,4.12275743 4.31801939,4.31801939 C4.12275743,4.51328182 3.80617476,4.51328182 3.61091256,4.31801939 L2.19669914,2.90380597 C2.00143695,2.70854402 2.00143695,2.39196134 2.19669914,2.19669938 C2.3919611,2.00143719 2.70854378,2.00143719 2.90380573,2.19669938 Z M0,7.5 C0,7.7761426 0.223857611,8 0.5,8 L2.5,8 C2.77614236,8 3,7.7761426 3,7.5 C3,7.2238574 2.77614236,7 2.5,7 L0.5,7 C0.223857611,7 0,7.2238574 0,7.5 Z M2.19669938,12.0961943 L3.6109128,10.6819811 C3.80617499,10.4867191 4.12275743,10.4867191 4.31801939,10.6819811 C4.51328182,10.877243 4.51328182,11.1938257 4.31801939,11.3890877 L2.90380597,12.8033018 C2.70854402,12.9985638 2.39196134,12.9985638 2.19669938,12.8033018 C2.00143719,12.6080389 2.00143719,12.2914572 2.19669938,12.0961943 Z M12,7.5 C12,7.7761426 12.2238579,8 12.5,8 L14.5,8 C14.7761421,8 15,7.7761426 15,7.5 C15,7.2238574 14.7761421,7 14.5,7 L12.5,7 C12.2238579,7 12,7.2238574 12,7.5 Z M10.6819801,3.6109128 L12.0961943,2.19669914 C12.2914562,2.00143695 12.6080389,2.00143695 12.8033009,2.19669914 C12.9985628,2.39196134 12.9985628,2.70854378 12.8033009,2.90380597 L11.3890877,4.31801939 C11.1938248,4.51328182 10.877243,4.51328182 10.6819801,4.31801939 C10.4867182,4.12275743 10.4867182,3.80617476 10.6819801,3.6109128 Z M7.5,12 C7.2238574,12 7,12.2238579 7,12.5 L7,14.5 C7,14.7761421 7.2238574,15 7.5,15 C7.7761426,15 8,14.7761421 8,14.5 L8,12.5 C8,12.2238579 7.7761426,12 7.5,12 Z M11.3890877,10.6819801 L12.8033009,12.0961943 C12.9985628,12.2914562 12.9985628,12.6080389 12.8033009,12.8033009 C12.6080389,12.9985628 12.2914562,12.9985628 12.0961943,12.8033009 L10.6819801,11.3890877 C10.4867182,11.1938248 10.4867182,10.877243 10.6819801,10.6819801 C10.877243,10.4867182 11.1938248,10.4867182 11.3890877,10.6819801 Z M4.5,7.5 C4.5,9.15685463 5.84314585,10.5 7.5,10.5 C9.15685463,10.5 10.5,9.15685463 10.5,7.5 C10.5,5.84314585 9.15685463,4.5 7.5,4.5 C5.84314585,4.5 4.5,5.84314585 4.5,7.5 Z"></path>
            </g>
        </g>
    </g>
</svg>