<?xml version="1.0" encoding="UTF-8"?>
<svg width="15px" height="14px" viewBox="0 0 15 14" version="1.1" xmlns="http://www.w3.org/2000/svg" xmlns:xlink="http://www.w3.org/1999/xlink">
    <title>Solid/Lock Open</title>
    <g id="Page-1" stroke="none" stroke-width="1" fill="none" fill-rule="evenodd">
        <g id="Objects" transform="translate(-148.000000, -180.000000)" fill="#000000">
            <g id="Shape" transform="translate(148.000000, 180.000000)">
                <path d="M9.64154053,1.6862334 C10.0366392,1.26501632 10.6431732,1 11.5014019,1 C12.4484816,1 13.0838528,1.30551839 13.4721985,1.8063643 C13.803093,2.23311591 14,2.84312773 14,3.63325119 L15,3.63325119 C15,2.68241549 14.7625504,1.8385582 14.2624683,1.19360518 C13.6389275,0.389430225 12.6742983,0 11.5014019,0 C10.4293928,0 9.53522587,0.337871075 8.91218281,1.00210094 C8.29351139,1.66167021 8,2.58135056 8,3.63601279 L8,6 L1,6 C0.447715044,6 0,6.44771767 0,7 L0,13 C0,13.5522861 0.447715521,14 1,14 L10,14 C10.5522852,14 11,13.5522861 11,13 L11,7 C11,6.44771719 10.5522842,6 10,6 L9,6 L9,3.63601279 C9,2.76043701 9.2420702,2.11211109 9.64154053,1.6862334 Z"></path>
            </g>
        </g>
    </g>
</svg>