<?xml version="1.0" encoding="UTF-8"?>
<svg width="13px" height="13px" viewBox="0 0 13 13" version="1.1" xmlns="http://www.w3.org/2000/svg" xmlns:xlink="http://www.w3.org/1999/xlink">
    <title>Solid/Log</title>
    <g id="Page-1" stroke="none" stroke-width="1" fill="none" fill-rule="evenodd">
        <g id="Objects" transform="translate(-238.000000, -73.000000)" fill="#000000" fill-rule="nonzero">
            <g id="Combined-Shape" transform="translate(237.000000, 72.000000)">
                <path d="M12.5,1 C13.3284271,1 14,1.67157288 14,2.5 L14,12.5 C14,13.3284271 13.3284271,14 12.5,14 L2.5,14 C1.67157288,14 1,13.3284271 1,12.5 L1,2.5 C1,1.67157288 1.67157288,1 2.5,1 L12.5,1 Z M7.25943085,6 C7.02551673,6 6.81904504,6.0378967 6.6400158,6.1136901 C6.50541717,6.16988176 6.3815995,6.25612943 6.26856279,6.3724331 C6.15552607,6.48873677 6.06633815,6.62006844 6.00099901,6.76642811 C5.91344456,6.9650591 5.86966734,7.21073427 5.86966734,7.50345362 C5.86966734,7.9608276 5.99577188,8.31986617 6.24798096,8.58056934 C6.50019004,8.84127251 6.83995357,8.9716241 7.26727154,8.9716241 C7.68936239,8.9716241 8.02651235,8.84061912 8.27872143,8.57860917 C8.53093052,8.31659922 8.65703506,7.95364029 8.65703506,7.4897324 C8.65703506,7.02190415 8.52995043,6.65665836 8.27578117,6.39399502 C8.02161192,6.13133167 7.68282848,6 7.25943085,6 Z M10.4368732,6 C10.1624488,6 9.93310846,6.04769757 9.74885209,6.14309272 C9.50709727,6.26723708 9.32349429,6.44561294 9.19804314,6.67822028 C9.07259199,6.91082761 9.00986641,7.17675791 9.00986641,7.47601118 C9.00986641,7.75174235 9.06605807,8.00689169 9.1784414,8.2414592 C9.29082472,8.47602672 9.45874631,8.65636274 9.68220617,8.78246729 C9.90566603,8.90857183 10.167676,8.9716241 10.468236,8.9716241 C10.7047637,8.9716241 10.9383511,8.92686679 11.1689983,8.83735216 C11.353516,8.76574047 11.5031165,8.6851381 11.6177998,8.59554507 L11.6972652,8.52666455 L11.6972652,7.38192282 L10.4466741,7.38192282 L10.4466741,7.86608584 L11.1111732,7.86608584 L11.1111732,8.23067825 C11.0236187,8.29863095 10.9187494,8.35645609 10.7965652,8.40415366 C10.674381,8.45185124 10.5525235,8.47570002 10.4309927,8.47570002 C10.1853175,8.47570002 9.98668656,8.39043244 9.83509975,8.21989729 C9.68351295,8.04936213 9.60771955,7.7935594 9.60771955,7.45248909 C9.60771955,7.13624765 9.68253286,6.89775979 9.83215949,6.7370255 C9.98178612,6.57629122 10.1833574,6.49592407 10.4368732,6.49592407 C10.6041414,6.49592407 10.7436405,6.53676104 10.8553704,6.61843496 C10.9391679,6.67969041 11.0029348,6.75766859 11.0466712,6.8523695 L11.0837307,6.95264466 L11.6600219,6.84483508 C11.6025235,6.58086496 11.4734787,6.37406658 11.2728875,6.22443995 C11.0722964,6.07481332 10.7936249,6 10.4368732,6 Z M4.13099281,6.07252645 L3.55078125,6.07252645 L3.55078125,8.92261974 L5.57368103,8.92261974 L5.57368103,8.43845671 L4.13099281,8.43845671 L4.13099281,6.07252645 Z M7.26531137,6.49592407 C7.50445262,6.49592407 7.696223,6.57694461 7.8406225,6.73898568 C7.985022,6.90102674 8.05722175,7.14670191 8.05722175,7.47601118 C8.05722175,7.80924079 7.98306183,8.059163 7.83474198,8.22577781 C7.68642213,8.39239262 7.49661193,8.47570002 7.26531137,8.47570002 C7.03401081,8.47570002 6.84322052,8.39173923 6.6929405,8.22381764 C6.54266048,8.05589605 6.46752047,7.80924079 6.46752047,7.48385187 C6.46752047,7.15323582 6.54070031,6.90592718 6.68705998,6.74192594 C6.83341965,6.5779247 7.02617012,6.49592407 7.26531137,6.49592407 Z"></path>
            </g>
        </g>
    </g>
</svg>