<?xml version="1.0" encoding="UTF-8"?>
<svg width="13px" height="15px" viewBox="0 0 13 15" version="1.1" xmlns="http://www.w3.org/2000/svg" xmlns:xlink="http://www.w3.org/1999/xlink">
    <title>Solid/Microscope</title>
    <g id="Page-1" stroke="none" stroke-width="1" fill="none" fill-rule="evenodd">
        <g id="Objects" transform="translate(-209.000000, -324.000000)" fill="#000000" fill-rule="nonzero">
            <g id="Combined-Shape" transform="translate(208.000000, 324.000000)">
                <path d="M9.2330127,0.25 L10.9650635,1.25 C11.2042098,1.38807119 11.2861474,1.69386639 11.1480762,1.9330127 L10.7393398,2.63992921 L10.923127,2.80419238 C12.200687,3.99113023 13,5.68582376 13,7.56720685 C13,8.85317422 12.6265587,10.0519197 11.9822065,11.0609129 L12.9393398,11.0606602 C13.2154822,11.0606602 13.4393398,11.2845178 13.4393398,11.5606602 L13.4393398,13.5606602 C13.4393398,13.8368025 13.2154822,14.0606602 12.9393398,14.0606602 L1.93933983,14.0606602 C1.66319745,14.0606602 1.43933983,13.8368025 1.43933983,13.5606602 L1.43933983,11.5606602 C1.43933983,11.2845178 1.66319745,11.0606602 1.93933983,11.0606602 L6.7162325,11.0606364 C8.54851777,10.9489578 10,9.42758826 10,7.56720685 C10,6.71526949 9.69561512,5.93442502 9.18966508,5.32749317 L7.85176111,7.64450006 C8.01198495,7.80278532 8.04977253,8.05553776 7.92874646,8.25724788 C7.80245839,8.467728 7.54575567,8.55178236 7.32396445,8.46807941 L7.24275212,8.42874646 L4.74275212,6.92874646 C4.50596199,6.78667238 4.42917946,6.47954226 4.57125354,6.24275212 C4.69754161,6.032272 4.95424433,5.94821764 5.17603555,6.03192059 L5.25724788,6.07125354 L5.28433983,6.08792921 L8.55,0.433012702 C8.68807119,0.19386639 8.99386639,0.111928813 9.2330127,0.25 Z"></path>
            </g>
        </g>
    </g>
</svg>