<?xml version="1.0" encoding="UTF-8"?>
<svg width="14px" height="14px" viewBox="0 0 14 14" version="1.1" xmlns="http://www.w3.org/2000/svg" xmlns:xlink="http://www.w3.org/1999/xlink">
    <title>Solid/Plus Circle</title>
    <g id="Page-1" stroke="none" stroke-width="1" fill="none" fill-rule="evenodd">
        <g id="Abstract" transform="translate(-30.000000, -37.000000)" fill="#000000">
            <g id="Shape" transform="translate(29.000000, 36.000000)">
                <path d="M8.12295532,4.62310791 L8.12295532,7.12310791 L10.6229553,7.12310791 C10.8990974,7.12310791 11.1229553,7.34696579 11.1229553,7.62310791 C11.1229553,7.89925003 10.8990974,8.12310791 10.6229553,8.12310791 L8.12295532,8.12310791 L8.12295532,10.6231079 C8.12295532,10.89925 7.89909744,11.1231079 7.62295532,11.1231079 C7.3468132,11.1231079 7.12295532,10.89925 7.12295532,10.6231079 L7.12295532,8.12310791 L4.62295532,8.12310791 C4.34681296,8.12310791 4.12295532,7.89925003 4.12295532,7.62310791 C4.12295532,7.34696579 4.34681296,7.12310791 4.62295532,7.12310791 L7.12295532,7.12310791 L7.12295532,4.62310791 C7.12295532,4.34696555 7.3468132,4.12310791 7.62295532,4.12310791 C7.89909744,4.12310791 8.12295532,4.34696555 8.12295532,4.62310791 Z M1,7.62283182 C1,11.2804909 3.96514463,14.2456636 7.62283039,14.2456636 C11.2804899,14.2456636 14.2456617,11.2804918 14.2456617,7.62283182 C14.2456617,3.96514606 11.280489,1 7.62283039,1 C3.96514583,1 1,3.96514726 1,7.62283182 Z"></path>
            </g>
        </g>
    </g>
</svg>