<?xml version="1.0" encoding="UTF-8"?>
<svg width="15px" height="15px" viewBox="0 0 15 15" version="1.1" xmlns="http://www.w3.org/2000/svg" xmlns:xlink="http://www.w3.org/1999/xlink">
    <title>Solid/Production</title>
    <g id="Page-1" stroke="none" stroke-width="1" fill="none" fill-rule="evenodd">
        <g id="Objects" transform="translate(-148.000000, -288.000000)" fill="#000000" fill-rule="nonzero">
            <g id="Combined-Shape" transform="translate(148.000000, 288.000000)">
                <path d="M4.96334444,0.5 L4.99998889,5.99666674 L4.5,6 L4.99993057,6.00833218 L4.986,6.822 L8.14444444,3.84035992 L8.144,6.84 L11.3222222,3.84035992 L11.322,6.839 L14.5,3.84035992 L14.5,14.5 L0.5,14.5 L0.5,0.5 L4.96334444,0.5 Z M12,10 L10,10 L10,12 L12,12 L12,10 Z M8.5,10 L6.5,10 L6.5,12 L8.5,12 L8.5,10 Z M5,10 L3,10 L3,12 L5,12 L5,10 Z"></path>
            </g>
        </g>
    </g>
</svg>