<?xml version="1.0" encoding="UTF-8" standalone="no"?>
<svg
   width="15px"
   height="14px"
   viewBox="0 0 15 14"
   version="1.1"
   id="svg9"
   sodipodi:docname="Reserved by others fds.svg"
   inkscape:version="1.1.1 (3bf5ae0d25, 2021-09-20)"
   xmlns:inkscape="http://www.inkscape.org/namespaces/inkscape"
   xmlns:sodipodi="http://sodipodi.sourceforge.net/DTD/sodipodi-0.dtd"
   xmlns="http://www.w3.org/2000/svg"
   xmlns:svg="http://www.w3.org/2000/svg">
  <defs
     id="defs13" />
  <sodipodi:namedview
     id="namedview11"
     pagecolor="#ffffff"
     bordercolor="#666666"
     borderopacity="1.0"
     inkscape:pageshadow="2"
     inkscape:pageopacity="0.0"
     inkscape:pagecheckerboard="0"
     showgrid="false"
     inkscape:zoom="51.357143"
     inkscape:cx="7.5062587"
     inkscape:cy="7"
     inkscape:window-width="2560"
     inkscape:window-height="1377"
     inkscape:window-x="-8"
     inkscape:window-y="-8"
     inkscape:window-maximized="1"
     inkscape:current-layer="svg9" />
  <title
     id="title2">Solid/Reserved by others</title>
  <path
     id="path36"
     style="fill:#000000;fill-rule:evenodd;stroke:none;stroke-width:1"
     d="M 8.5898438 0 C 8.4710006 5e-08 8.3485743 0.00940575 8.2109375 0.02734375 L 8.0488281 0.05078125 L 7.8535156 0.09375 C 6.696747 0.3823058 5.7625028 1.3339102 5.4394531 2.5527344 L 5.4140625 2.6542969 L 5.3828125 2.6640625 L 5.2304688 2.7285156 C 4.634017 3.0120572 4.2017806 3.5759681 4.0546875 4.2519531 C 5.0086972 4.2631961 5.8309693 4.5730406 6.4199219 5.1757812 C 6.8914717 5.6583712 7.1731641 6.2855706 7.2636719 7 L 12.976562 7 L 13.121094 6.9941406 C 14.173123 6.9148321 15 5.9793467 15 4.8457031 L 14.996094 4.703125 L 14.978516 4.5332031 C 14.855044 3.6310413 14.205776 2.9040536 13.369141 2.7285156 L 13.244141 2.7070312 L 13.230469 2.6621094 L 13.169922 2.5234375 C 12.869289 1.8903152 12.235019 1.4570312 11.513672 1.4570312 L 11.375 1.4609375 L 11.257812 1.4765625 L 11.208984 1.4003906 L 11.082031 1.2304688 C 10.466407 0.46043985 9.5546778 0 8.5898438 0 z M 4.0019531 5 C 3.2203878 5 2.569574 5.2382507 2.1171875 5.7011719 C 1.6683869 6.1604236 1.4550781 6.7984995 1.4550781 7.5273438 L 1.4550781 8.4707031 L 0.7265625 8.4707031 C 0.32490071 8.4707031 0 8.7803954 0 9.1621094 L 0 13.308594 C -7.4014868e-17 13.690308 0.32490098 14 0.7265625 14 L 7.2734375 14 C 7.6750994 14 8 13.690308 8 13.308594 L 8 9.1621094 C 8 8.7803951 7.6750987 8.4707031 7.2734375 8.4707031 L 6.5449219 8.4707031 L 6.5449219 7.5253906 C 6.5449219 6.7967116 6.3331569 6.1600611 5.8847656 5.7011719 C 5.4327632 5.2385876 4.7833522 5 4.0019531 5 z M 4.0019531 5.6914062 C 4.6245304 5.6914062 5.0641597 5.8757904 5.3515625 6.1699219 C 5.642576 6.4677484 5.8183594 6.9198183 5.8183594 7.5253906 L 5.8183594 8.4707031 L 2.1816406 8.4707031 L 2.1816406 7.5273438 C 2.1816406 6.9220955 2.3587244 6.4703332 2.6503906 6.171875 C 2.9384707 5.8770864 3.3797094 5.6914062 4.0019531 5.6914062 z " />
</svg>
