<?xml version="1.0" encoding="UTF-8"?>
<svg width="15px" height="15px" viewBox="0 0 15 15" version="1.1" xmlns="http://www.w3.org/2000/svg" xmlns:xlink="http://www.w3.org/1999/xlink">
    <title>Solid/Reserved by me</title>
    <g id="Page-1" stroke="none" stroke-width="1" fill="none" fill-rule="evenodd">
        <g id="Objects" transform="translate(-178.000000, -180.000000)" fill="#000000">
            <g id="Combined-Shape" transform="translate(178.000000, 180.000000)">
                <path d="M4.00101956,5.99989135 C4.78241868,5.99989135 5.43237478,6.23766674 5.88437722,6.70025103 C6.33276853,7.15914024 6.54545455,7.79734682 6.54545455,8.52602579 L6.54545455,9.47065529 L7.27272727,9.47065529 C7.67438854,9.47065529 8,9.78009572 8,10.1618098 L8,14.3087368 C8,14.6904506 7.67438923,14.9998914 7.27272727,14.9998914 L0.727272814,14.9998914 C0.325611288,14.9998914 0,14.6904506 0,14.3087368 L0,10.1618098 C0,9.78009605 0.325610941,9.47065529 0.727272727,9.47065529 L1.45454545,9.47065529 L1.45454545,8.52793465 C1.45454545,7.7990904 1.66792003,7.16050127 2.11672055,6.70124962 C2.56910706,6.23832843 3.21945433,5.99989135 4.00101956,5.99989135 Z M4.00101956,6.69104586 C3.37877586,6.69104586 2.93770426,6.87679566 2.64962422,7.17158432 C2.35795801,7.47004247 2.18181818,7.92268653 2.18181818,8.52793465 L2.18181818,8.52793465 L2.18181818,9.47065529 L5.81818182,9.47065529 L5.81818182,8.52602579 C5.81818182,7.92045354 5.64245675,7.46838145 5.3514432,7.17055491 C5.06404044,6.87642341 4.62359688,6.69104586 4.00101956,6.69104586 Z M11,-0.00010864851 C12.4626849,-0.00010864851 13.6484206,1.10646418 13.6484206,2.47149212 C13.6484206,3.59846688 12.840194,4.54927215 11.7351655,4.84662726 C12.6075024,4.9458398 13.3557345,5.2337886 13.9193945,5.75218495 C14.6368026,6.41198239 15,7.3942379 15,8.67603267 C15,8.85489803 14.8446215,8.99989135 14.6529603,8.99989135 C14.6188386,8.99989135 14.5858673,8.99529547 14.5547182,8.98673084 L14.5323638,8.99183568 L14.4424881,8.99989135 L7.63487097,9.00004901 C7.55006025,8.93790382 7.46049422,8.88184748 7.36686098,8.83249782 L7.22344674,8.76358057 L7.201,8.754 L7.17493085,8.54897475 L7.128818,8.30093351 C7.1046161,8.18983108 7.07592545,8.08062839 7.04271642,7.97354606 C7.1519608,7.03014945 7.50047005,6.28573857 8.08058767,5.75218885 C8.64424234,5.23378048 9.3924732,4.94582972 10.2648233,4.84662206 C9.15980482,4.5492611 8.35158769,3.59846038 8.35158769,2.47149212 C8.35158769,1.10646418 9.53732345,-0.00010864851 11,-0.00010864851 Z"></path>
            </g>
        </g>
    </g>
</svg>