<?xml version="1.0" encoding="UTF-8"?>
<svg width="12px" height="14px" viewBox="0 0 12 14" version="1.1" xmlns="http://www.w3.org/2000/svg" xmlns:xlink="http://www.w3.org/1999/xlink">
    <title>Solid/Robot</title>
    <g id="Page-1" stroke="none" stroke-width="1" fill="none" fill-rule="evenodd">
        <g id="Objects" transform="translate(-149.000000, -252.000000)" fill="#000000">
            <g id="Combined-Shape" transform="translate(148.000000, 252.000000)">
                <path d="M4.99832976,7.0824899 L8.20710678,10.2928932 C8.40236893,10.4881554 8.5,10.7440777 8.5,11 L12,11 C12.5522847,11 13,11.4477153 13,12 L13,13 C13,13.5522847 12.5522847,14 12,14 L3,14 C2.44771525,14 2,13.5522847 2,13 L2,12 C2,11.4477153 2.44771525,11 3,11 L6.085,10.9998986 L3.88186507,8.79558008 C4.52098705,8.48109216 4.96778413,7.83541992 4.99832976,7.0824899 Z M2.95,5.7 C3.64035594,5.7 4.2,6.25964406 4.2,6.95 C4.2,7.64035594 3.64035594,8.2 2.95,8.2 C2.25964406,8.2 1.7,7.64035594 1.7,6.95 C1.7,6.25964406 2.25964406,5.7 2.95,5.7 Z M11.6619898,0.957898562 L11.6968893,1.95728939 L11.5527569,1.96919337 C10.795105,2.0683802 10.2229413,2.72950373 10.2501523,3.50872487 C10.2773633,4.28794602 10.8942509,4.90754696 11.6569761,4.95364106 L11.8015878,4.95546187 L11.8364873,5.9548527 L11.6720261,5.95527489 C10.6050378,5.92335295 9.69650715,5.21833133 9.37426986,4.23917318 C9.31712716,4.30046302 9.24891788,4.35511953 9.17232641,4.40114033 L4.99615442,6.9088225 L4.99451426,6.85073766 C4.94218965,6.14151369 4.52001216,5.53514162 3.9201157,5.22375536 L8.14225026,2.68680573 C8.53213341,2.4525403 9.01762533,2.51510836 9.33569005,2.80892768 C9.61013394,1.77519438 10.5360874,0.99721594 11.6619898,0.957898562 Z"></path>
            </g>
        </g>
    </g>
</svg>