<?xml version="1.0" encoding="UTF-8" standalone="no"?>
<svg
   width="13px"
   height="13px"
   viewBox="0 0 13 13"
   version="1.1"
   id="svg9"
   sodipodi:docname="Save Fds.svg"
   inkscape:version="1.1.1 (3bf5ae0d25, 2021-09-20)"
   xmlns:inkscape="http://www.inkscape.org/namespaces/inkscape"
   xmlns:sodipodi="http://sodipodi.sourceforge.net/DTD/sodipodi-0.dtd"
   xmlns="http://www.w3.org/2000/svg"
   xmlns:svg="http://www.w3.org/2000/svg"
   xmlns:rdf="http://www.w3.org/1999/02/22-rdf-syntax-ns#"
   xmlns:cc="http://creativecommons.org/ns#"
   xmlns:dc="http://purl.org/dc/elements/1.1/">
  <defs
     id="defs13" />
  <sodipodi:namedview
     id="namedview11"
     pagecolor="#ffffff"
     bordercolor="#666666"
     borderopacity="1.0"
     inkscape:pageshadow="2"
     inkscape:pageopacity="0.0"
     inkscape:pagecheckerboard="0"
     showgrid="false"
     inkscape:zoom="55.307692"
     inkscape:cx="6.5090403"
     inkscape:cy="6.5"
     inkscape:window-width="1920"
     inkscape:window-height="1017"
     inkscape:window-x="-8"
     inkscape:window-y="-8"
     inkscape:window-maximized="1"
     inkscape:current-layer="Combined-Shape" />
  <title
     id="title2">Solid/Save</title>
  <g
     id="Page-1"
     stroke="none"
     stroke-width="1"
     fill="none"
     fill-rule="evenodd">
    <g
       id="Objects"
       fill="#000000"
       fill-rule="nonzero">
      <g
         id="Combined-Shape">
        <path
           d="M 2.0236439,0.00556328 V 4.0055633 h 6.2 V 0.01294208 l 0.01726,0.00127 c 0.2166791,0.02874 0.4193372,0.1279474 0.5756027,0.2842128 L 12.730751,4.2126688 c 0.187536,0.1875377 0.292893,0.4418916 0.292893,0.7071081 v 7.0851651 c 0,0.552285 -0.447715,1 -1,1 H 1.0236439 c -0.55228475,0 -0.99999995,-0.447715 -0.99999995,-1 V 1.0049421 c 0,-0.55228482 0.4476422,-1.00000002 0.99992685,-1.00000002 z m 4.5,6.00000002 c -1.3807119,0 -2.5,1.1192881 -2.5,2.5 0,1.380712 1.1192881,2.4999997 2.5,2.4999997 1.3807119,0 2.5,-1.1192877 2.5,-2.4999997 0,-1.3807119 -1.1192881,-2.5 -2.5,-2.5 z m 0,1 c 0.8284271,0 1.5,0.6715729 1.5,1.5 0,0.828427 -0.6715729,1.4999997 -1.5,1.4999997 -0.8284271,0 -1.5,-0.6715727 -1.5,-1.4999997 0,-0.8284271 0.6715729,-1.5 1.5,-1.5 z m 0.7,-6 v 2 h -4.2 v -2 z"
           id="path4" />
      </g>
    </g>
  </g>
  <metadata
     id="metadata15">
    <rdf:RDF>
      <cc:Work
         rdf:about="">
        <dc:title>Solid/Save</dc:title>
      </cc:Work>
    </rdf:RDF>
  </metadata>
</svg>
