<?xml version="1.0" encoding="UTF-8"?>
<svg width="13px" height="13px" viewBox="0 0 13 13" version="1.1" xmlns="http://www.w3.org/2000/svg" xmlns:xlink="http://www.w3.org/1999/xlink">
    <title>Solid/Screen</title>
    <g id="Page-1" stroke="none" stroke-width="1" fill="none" fill-rule="evenodd">
        <g id="Objects" transform="translate(-237.000000, -217.000000)" fill="#000000" fill-rule="nonzero">
            <g id="Combined-Shape" transform="translate(236.000000, 216.000000)">
                <path d="M7,11 L2.5,11 C1.67157288,11 1,10.3284271 1,9.5 L1,2.5 C1,1.67157288 1.67157288,1 2.5,1 L12.5,1 C13.3284271,1 14,1.67157288 14,2.5 L14,9.5 C14,10.3284271 13.3284271,11 12.5,11 L8,11 L8,13 L12,13 C12.2761424,13 12.5,13.2238576 12.5,13.5 C12.5,13.7454599 12.3231248,13.9496084 12.0898756,13.9919443 L12,14 L3,14 C2.72385763,14 2.5,13.7761424 2.5,13.5 C2.5,13.2545401 2.67687516,13.0503916 2.91012437,13.0080557 L3,13 L7,13 L7,11 Z"></path>
            </g>
        </g>
    </g>
</svg>