<?xml version="1.0" encoding="UTF-8"?>
<svg width="15px" height="7px" viewBox="0 0 15 7" version="1.1" xmlns="http://www.w3.org/2000/svg" xmlns:xlink="http://www.w3.org/1999/xlink">
    <title>Solid/Size 2</title>
    <g id="Page-1" stroke="none" stroke-width="1" fill="none" fill-rule="evenodd">
        <g id="Objects" transform="translate(-178.000000, -328.000000)">
            <g id="Group" transform="translate(178.000000, 324.000000)">
                <path d="M14.5,4 C14.7761421,4 15,4.22385761 15,4.5 L15,4.5 L15,10.5 C15,10.7761426 14.7761421,11 14.5,11 L14.5,11 L0.5,11 C0.223857611,11 0,10.7761426 0,10.5 L0,10.5 L0,4.5 C0,4.22385761 0.223857611,4 0.5,4 L0.5,4 Z M2.5,4 C2.22385763,4 2,4.22385763 2,4.5 L2,4.5 L2,7.5 L2.00805567,7.58987563 C2.05039163,7.82312484 2.25454011,8 2.5,8 C2.77614237,8 3,7.77614237 3,7.5 L3,7.5 L3,4.5 L2.99194433,4.41012437 C2.94960837,4.17687516 2.74545989,4 2.5,4 Z M8.5,4 C8.22385763,4 8,4.22385763 8,4.5 L8,4.5 L8,7.5 L8.00805567,7.58987563 C8.05039163,7.82312484 8.25454011,8 8.5,8 C8.77614237,8 9,7.77614237 9,7.5 L9,7.5 L9,4.5 L8.99194433,4.41012437 C8.94960837,4.17687516 8.74545989,4 8.5,4 Z M10.5,4 C10.2238576,4 10,4.22385763 10,4.5 L10,4.5 L10,6.5 L10.0080557,6.58987563 C10.0503916,6.82312484 10.2545401,7 10.5,7 C10.7761424,7 11,6.77614237 11,6.5 L11,6.5 L11,4.5 L10.9919443,4.41012437 C10.9496084,4.17687516 10.7454599,4 10.5,4 Z M12.5,4 C12.2238576,4 12,4.22385763 12,4.5 L12,4.5 L12,6.5 L12.0080557,6.58987563 C12.0503916,6.82312484 12.2545401,7 12.5,7 C12.7761424,7 13,6.77614237 13,6.5 L13,6.5 L13,4.5 L12.9919443,4.41012437 C12.9496084,4.17687516 12.7454599,4 12.5,4 Z M6.5,4 C6.22385763,4 6,4.22385763 6,4.5 L6,4.5 L6,6.5 L6.00805567,6.58987563 C6.05039163,6.82312484 6.25454011,7 6.5,7 C6.77614237,7 7,6.77614237 7,6.5 L7,6.5 L7,4.5 L6.99194433,4.41012437 C6.94960837,4.17687516 6.74545989,4 6.5,4 Z M4.5,4 C4.22385763,4 4,4.22385763 4,4.5 L4,4.5 L4,6.5 L4.00805567,6.58987563 C4.05039163,6.82312484 4.25454011,7 4.5,7 C4.77614237,7 5,6.77614237 5,6.5 L5,6.5 L5,4.5 L4.99194433,4.41012437 C4.94960837,4.17687516 4.74545989,4 4.5,4 Z" id="Combined-Shape" fill="#000000"></path>
                <line x1="1.5" y1="4.5" x2="14" y2="4.5" id="Path-27" stroke="#000000"></line>
            </g>
        </g>
    </g>
</svg>