<?xml version="1.0" encoding="UTF-8"?>
<svg width="15px" height="15px" viewBox="0 0 15 15" version="1.1" xmlns="http://www.w3.org/2000/svg" xmlns:xlink="http://www.w3.org/1999/xlink">
    <title>Solid/Size 1</title>
    <g id="Page-1" stroke="none" stroke-width="1" fill="none" fill-rule="evenodd">
        <g id="Objects" transform="translate(-148.000000, -324.000000)" fill="#000000">
            <g id="Combined-Shape" transform="translate(148.000000, 324.000000)">
                <path d="M5,5 L5,14.5 C5,14.7761421 4.7761426,15 4.5,15 L4.5,15 L0.5,15 C0.223857611,15 0,14.7761421 0,14.5 L0,14.5 L0,0.5 C0,0.223857611 0.223857611,0 0.5,0 L0.5,0 L14.5,0 C14.7761421,0 15,0.223857611 15,0.5 L15,0.5 L15,4.5 C15,4.7761426 14.7761421,5 14.5,5 L14.5,5 L5,5 Z M4,12.25 L3,12.25 L2.91012437,12.2580557 C2.67687516,12.3003916 2.5,12.5045401 2.5,12.75 C2.5,13.0261424 2.72385763,13.25 3,13.25 L3,13.25 L4,13.25 L4,12.25 Z M4,10 L2.66666667,10 L2.57679103,10.0080557 C2.34354183,10.0503916 2.16666667,10.2545401 2.16666667,10.5 C2.16666667,10.7761424 2.39052429,11 2.66666667,11 L2.66666667,11 L4,11 L4,10 Z M4,8.25 L3,8.25 L2.91012437,8.25805567 C2.67687516,8.30039163 2.5,8.50454011 2.5,8.75 C2.5,9.02614237 2.72385763,9.25 3,9.25 L3,9.25 L4,9.25 L4,8.25 Z M4,6.25 L3,6.25 L2.91012437,6.25805567 C2.67687516,6.30039163 2.5,6.50454011 2.5,6.75 C2.5,7.02614237 2.72385763,7.25 3,7.25 L3,7.25 L4,7.25 L4,6.25 Z M4.0750227,1 L1,1 L1,4.07504749 L4.07505417,4.07506943 L4.0750227,1 L4.0750227,1 Z M6.5,2.16666667 C6.22385763,2.16666667 6,2.39052429 6,2.66666667 L6,2.66666667 L6,4 L7,4 L7,2.66666667 L6.99194433,2.57679103 C6.94960837,2.34354183 6.74545989,2.16666667 6.5,2.16666667 Z M8.5,2.83333333 C8.22385763,2.83333333 8,3.05719096 8,3.33333333 L8,3.33333333 L8,4 L9,4 L9,3.33333333 L8.99194433,3.2434577 C8.94960837,3.01020849 8.74545989,2.83333333 8.5,2.83333333 Z M10.5,2.16666667 C10.2238576,2.16666667 10,2.39052429 10,2.66666667 L10,2.66666667 L10,3.999 L11,3.999 L11,2.66666667 L10.9919443,2.57679103 C10.9496084,2.34354183 10.7454599,2.16666667 10.5,2.16666667 Z M12.5,2.83333333 C12.2238576,2.83333333 12,3.05719096 12,3.33333333 L12,3.33333333 L12,3.999 L13,3.999 L13,3.33333333 L12.9919443,3.2434577 C12.9496084,3.01020849 12.7454599,2.83333333 12.5,2.83333333 Z"></path>
            </g>
        </g>
    </g>
</svg>