<?xml version="1.0" encoding="UTF-8"?>
<svg width="14px" height="13px" viewBox="0 0 14 13" version="1.1" xmlns="http://www.w3.org/2000/svg" xmlns:xlink="http://www.w3.org/1999/xlink">
    <title>Solid/Star Full </title>
    <g id="Page-1" stroke="none" stroke-width="1" fill="none" fill-rule="evenodd">
        <g id="Objects" transform="translate(-30.000000, -145.000000)" fill="#000000" fill-rule="nonzero">
            <g id="Shape" transform="translate(29.000000, 144.000000)">
                <path d="M7.96739101,1.18479072 L9.60380077,5.11919117 C9.64700299,5.22306175 9.74468596,5.29403289 9.85682297,5.30302286 L14.1043386,5.6435442 C14.3703349,5.664869 14.4781938,5.99682175 14.2755327,6.17042255 L11.0393734,8.94253731 C10.9539368,9.01572285 10.9166248,9.1305559 10.9427271,9.2399826 L11.931427,13.3848372 C11.9933433,13.6444044 11.7109681,13.849562 11.4832382,13.7104654 L7.84677172,11.4893265 C7.75076679,11.4306871 7.63002344,11.430687 7.53401852,11.4893265 L3.89755249,13.7104654 C3.66982259,13.849562 3.38744695,13.6444044 3.44936323,13.3848372 L4.43806243,9.23998356 C4.46416471,9.13055685 4.42685343,9.01572285 4.34141684,8.94253731 L1.10525776,6.17042255 C0.90259666,5.99682175 1.01045418,5.664869 1.27645043,5.6435442 L5.52396631,5.30302286 C5.63610332,5.29403289 5.73378677,5.22306222 5.77698898,5.11919165 L7.41339874,1.18479092 C7.5158772,0.938403159 7.86491255,0.938402951 7.96739101,1.18479072 Z"></path>
            </g>
        </g>
    </g>
</svg>