<?xml version="1.0" encoding="UTF-8"?>
<svg width="9px" height="13px" viewBox="0 0 9 13" version="1.1" xmlns="http://www.w3.org/2000/svg" xmlns:xlink="http://www.w3.org/1999/xlink">
    <title>Solid/Trash</title>
    <g id="Page-1" stroke="none" stroke-width="1" fill="none" fill-rule="evenodd">
        <g id="Objects" transform="translate(-62.000000, -37.000000)" fill="#000000">
            <g id="Shape" transform="translate(59.000000, 36.000000)">
                <path d="M5,2 C5,2.27614236 5.22385764,2.5 5.5,2.5 L9.5,2.5 C9.7761426,2.5 10,2.27614236 10,2 C10,1.72385761 9.7761426,1.5 9.5,1.5 L5.5,1.5 C5.22385764,1.5 5,1.72385761 5,2 Z M3.5,3.5 L11.5,3.5 C11.7761421,3.5 12,3.72385764 12,4 C12,4.27614236 11.7761421,4.5 11.5,4.5 L11,4.5 L11,12.5 C11,13.0522842 10.5522847,13.5 10,13.5 L5,13.5 C4.44771516,13.5 4,13.0522852 4,12.5 L4,4.5 L3.5,4.5 C3.22385761,4.5 3,4.27614236 3,4 C3,3.72385764 3.22385761,3.5 3.5,3.5 Z"></path>
            </g>
        </g>
    </g>
</svg>