<?xml version="1.0" encoding="UTF-8"?>
<svg width="11px" height="14px" viewBox="0 0 11 14" version="1.1" xmlns="http://www.w3.org/2000/svg" xmlns:xlink="http://www.w3.org/1999/xlink">
    <title>Solid/User 1</title>
    <g id="Page-1" stroke="none" stroke-width="1" fill="none" fill-rule="evenodd">
        <g id="Objects" transform="translate(-209.000000, -145.000000)" fill="#000000">
            <g id="Combined-Shape" transform="translate(207.000000, 144.000000)">
                <path d="M7.47497559,1 C9.47700882,1 11.0999756,2.622967 11.0999756,4.625 C11.0999756,6.27788973 9.99372149,7.67239857 8.48122215,8.10851765 C9.67522669,8.2540288 10.6993637,8.67635202 11.4708691,9.43666363 C12.452816,10.4043627 12.9499397,11.8449984 12.9499397,13.7249565 C12.9499397,13.7646711 12.9450656,13.8032471 12.9358828,13.8401191 L12.9450248,13.9502481 L12.9450248,13.9502481 L12.9475062,14 C12.9475062,14.2761424 12.7236486,14.5 12.4475062,14.5 L12.4475062,14.5 L2.5,14.5 C2.22385763,14.5 2,14.2761424 2,14 L2,14 L2,13.5 C2.04233903,11.7255779 2.53811048,10.3639832 3.47904623,9.43666935 C4.25054431,8.6763401 5.27467966,8.25401402 6.46870232,8.10851002 C4.95621657,7.67238235 3.84997547,6.27788019 3.84997547,4.625 C3.84997547,2.622967 5.47294235,1 7.47497559,1 Z"></path>
            </g>
        </g>
    </g>
</svg>