<?xml version="1.0" encoding="UTF-8"?>
<svg width="13px" height="13px" viewBox="0 0 13 13" version="1.1" xmlns="http://www.w3.org/2000/svg" xmlns:xlink="http://www.w3.org/1999/xlink">
    <title>Solid/Wafer Error 2</title>
    <g id="Page-1" stroke="none" stroke-width="1" fill="none" fill-rule="evenodd">
        <g id="Objects" transform="translate(-60.000000, -361.000000)" fill="#000000" fill-rule="nonzero">
            <g id="Combined-Shape" transform="translate(59.000000, 360.000000)">
                <path d="M7.5,1.5 C11.0898509,1.5 14,4.41014913 14,8 C14,10.316473 12.7882391,12.3499241 10.9640177,13.501053 L4.0359823,13.501053 C2.21176087,12.3499241 1,10.316473 1,8 C1,4.41014913 3.91014913,1.5 7.5,1.5 Z M6.19141228,6.2476009 C5.99654414,6.11260485 5.72711974,6.13189 5.55355339,6.30545635 C5.35829124,6.5007185 5.35829124,6.81730099 5.55355339,7.01256313 L5.55355339,7.01256313 L6.79110678,8.25000974 L5.55355339,9.48743687 L5.49569794,9.55668475 C5.36070189,9.7515529 5.37998704,10.0209773 5.55355339,10.1945436 C5.72711974,10.36811 5.99654414,10.3873952 6.19141228,10.2523991 L6.19141228,10.2523991 L6.26066017,10.1945436 L7.49810678,8.95700974 L8.73553391,10.1945436 L8.80478179,10.2523991 C8.99964993,10.3873952 9.26907434,10.36811 9.44264069,10.1945436 C9.63790283,9.9992815 9.63790283,9.68269901 9.44264069,9.48743687 L9.44264069,9.48743687 L8.20510678,8.25000974 L9.44264069,7.01256313 L9.50049614,6.94331525 C9.63549219,6.7484471 9.61620704,6.4790227 9.44264069,6.30545635 C9.26907434,6.13189 8.99964993,6.11260485 8.80478179,6.2476009 L8.80478179,6.2476009 L8.73553391,6.30545635 L7.49810678,7.54300974 L6.26066017,6.30545635 Z"></path>
            </g>
        </g>
    </g>
</svg>