<?xml version="1.0" encoding="UTF-8"?>
<svg width="13px" height="13px" viewBox="0 0 13 13" version="1.1" xmlns="http://www.w3.org/2000/svg" xmlns:xlink="http://www.w3.org/1999/xlink">
    <title>Solid/Wafer Result</title>
    <g id="Page-1" stroke="none" stroke-width="1" fill="none" fill-rule="evenodd">
        <g id="Objects" transform="translate(-208.000000, -361.000000)" fill="#000000" fill-rule="nonzero">
            <g id="Combined-Shape" transform="translate(207.000000, 360.000000)">
                <path d="M7.5,1.5 C11.0898509,1.5 14,4.41014913 14,8 C14,10.316473 12.7882391,12.3499241 10.9640177,13.501053 L4.0359823,13.501053 C2.21176087,12.3499241 1,10.316473 1,8 C1,4.41014913 3.91014913,1.5 7.5,1.5 Z M5.6,6.5 L4.6,6.5 L4.6,10.5 L5.6,10.5 L5.6,6.5 Z M8,5.5 L7,5.5 L7,10.5 L8,10.5 L8,5.5 Z M10.4,8.5 L9.4,8.5 L9.4,10.5 L10.4,10.5 L10.4,8.5 Z"></path>
            </g>
        </g>
    </g>
</svg>