<?xml version="1.0" encoding="UTF-8"?>
<svg width="13px" height="13px" viewBox="0 0 13 13" version="1.1" xmlns="http://www.w3.org/2000/svg" xmlns:xlink="http://www.w3.org/1999/xlink">
    <title>Solid/Wafer Warning</title>
    <g id="Page-1" stroke="none" stroke-width="1" fill="none" fill-rule="evenodd">
        <g id="Objects" transform="translate(-90.000000, -361.000000)" fill="#000000" fill-rule="nonzero">
            <g id="Combined-Shape" transform="translate(89.000000, 360.000000)">
                <path d="M7.5,1.5 C11.0898509,1.5 14,4.41014913 14,8 C14,10.316473 12.7882391,12.3499241 10.9640177,13.501053 L4.0359823,13.501053 C2.21176087,12.3499241 1,10.316473 1,8 C1,4.41014913 3.91014913,1.5 7.5,1.5 Z M7.55,9.93936205 C7.13578634,9.93936205 6.8,10.2751489 6.8,10.689362 C6.8,11.1035752 7.13578634,11.439362 7.55,11.439362 C7.96421366,11.439362 8.30000048,11.1035752 8.30000048,10.689362 C8.30000048,10.2751489 7.96421366,9.93936205 7.55,9.93936205 Z M7.55011158,4 C7.16794186,4 6.86232643,4.31759596 6.87701445,4.69948292 L6.87701445,4.69948292 L7.03089457,8.7003808 C7.04162483,8.9793725 7.27091389,9.20001173 7.5501111,9.20001173 C7.8293088,9.20001173 8.0585969,8.9793725 8.06932764,8.7003808 L8.06932764,8.7003808 L8.22320871,4.69948339 C8.23789625,4.31759644 7.93228083,4 7.55011158,4 Z"></path>
            </g>
        </g>
    </g>
</svg>