<?xml version="1.0" encoding="UTF-8"?>
<svg width="13px" height="13px" viewBox="0 0 13 13" version="1.1" xmlns="http://www.w3.org/2000/svg" xmlns:xlink="http://www.w3.org/1999/xlink">
    <title>Solid/Wafer Wait</title>
    <g id="Page-1" stroke="none" stroke-width="1" fill="none" fill-rule="evenodd">
        <g id="Objects" transform="translate(-179.000000, -361.000000)" fill="#000000" fill-rule="nonzero">
            <g id="Combined-Shape" transform="translate(178.000000, 360.000000)">
                <path d="M7.5,1.5 C11.0898509,1.5 14,4.41014913 14,8 C14,10.316473 12.7882391,12.3499241 10.9640177,13.501053 L4.0359823,13.501053 C2.21176087,12.3499241 1,10.316473 1,8 C1,4.41014913 3.91014913,1.5 7.5,1.5 Z M9.51538674,5.5 L5.5,5.5 L5.5,6 C5.5,6.80715246 5.8050272,7.54004686 6.29295699,7.99941199 C5.8050272,8.45995314 5.5,9.19284754 5.5,10 L5.5,10 L5.5,10.5 L9.51538674,10.5 L9.49479797,9.82081881 L9.4738745,9.60112799 C9.38912309,8.95058196 9.10917722,8.38081345 8.70517029,8.00089566 C9.15406688,7.57697347 9.44980166,6.92045898 9.49479797,6.17918119 L9.49479797,6.17918119 L9.51538674,5.5 Z M7.5,8.5 L7.5964805,8.5075254 L7.70112095,8.53268365 C8.01181474,8.6338936 8.28926875,8.96299129 8.42030843,9.41929303 L8.42030843,9.41929303 L8.44,9.5 L6.559,9.5 L6.58369775,9.40510349 L6.62801761,9.27342685 C6.80565631,8.80506676 7.1453001,8.5 7.5,8.5 L7.5,8.5 Z M8.44,6.5 L8.42030843,6.58070697 C8.27470879,7.0877089 7.94835071,7.4376688 7.5964805,7.4924746 L7.5964805,7.4924746 L7.5,7.5 C7.11305466,7.5 6.74402733,7.13694534 6.58369775,6.59489651 L6.58369775,6.59489651 L6.559,6.5 L8.44,6.5 Z"></path>
            </g>
        </g>
    </g>
</svg>