<?xml version="1.0" encoding="UTF-8" standalone="no"?>
<svg
   width="13px"
   height="14px"
   viewBox="0 0 13 14"
   version="1.1"
   id="svg11"
   sodipodi:docname="Wafer Error Fds.svg"
   inkscape:version="1.1.1 (3bf5ae0d25, 2021-09-20)"
   xmlns:inkscape="http://www.inkscape.org/namespaces/inkscape"
   xmlns:sodipodi="http://sodipodi.sourceforge.net/DTD/sodipodi-0.dtd"
   xmlns="http://www.w3.org/2000/svg"
   xmlns:svg="http://www.w3.org/2000/svg"
   xmlns:rdf="http://www.w3.org/1999/02/22-rdf-syntax-ns#"
   xmlns:cc="http://creativecommons.org/ns#"
   xmlns:dc="http://purl.org/dc/elements/1.1/">
  <defs
     id="defs15" />
  <sodipodi:namedview
     id="namedview13"
     pagecolor="#ffffff"
     bordercolor="#666666"
     borderopacity="1.0"
     inkscape:pageshadow="2"
     inkscape:pageopacity="0.0"
     inkscape:pagecheckerboard="0"
     showgrid="false"
     inkscape:zoom="51.357143"
     inkscape:cx="6.4937413"
     inkscape:cy="7"
     inkscape:window-width="2560"
     inkscape:window-height="1377"
     inkscape:window-x="-8"
     inkscape:window-y="-8"
     inkscape:window-maximized="1"
     inkscape:current-layer="svg11" />
  <title
     id="title2">Solid/Wafer Error</title>
  <path
     id="Combined-Shape"
     style="fill:#000000;fill-rule:nonzero;stroke:none;stroke-width:1"
     d="M 6.5 0.5 C 5.3181886 0.5 4.2107599 0.8159723 3.2558594 1.3671875 L 6.6347656 4.7441406 L 9.9121094 1.4667969 C 8.9202673 0.85380327 7.7516289 0.5 6.5 0.5 z M 0.85351562 0.64648438 L 0.14648438 1.3535156 L 5.7929688 7 L 0.14648438 12.646484 L 0.85351562 13.353516 L 6.5 7.7070312 L 12.146484 13.353516 L 12.853516 12.646484 L 7.2070312 7 L 12.853516 1.3535156 L 12.146484 0.64648438 L 6.5 6.2929688 L 0.85351562 0.64648438 z M 1.0722656 3.4238281 C 0.39474223 4.4498758 0 5.6784334 0 7 C 1.4802974e-16 8.2515946 0.35383427 9.4202844 0.96679688 10.412109 L 4.5136719 6.8652344 L 1.0722656 3.4238281 z M 12.033203 3.5878906 L 8.7539062 6.8652344 L 12.132812 10.244141 C 12.684068 9.2892146 13 8.1818571 13 7 C 13 5.7483711 12.646197 4.5797331 12.033203 3.5878906 z M 6.6347656 8.9863281 L 3.1191406 12.501953 L 9.9648438 12.501953 C 10.002467 12.478213 10.039072 12.452224 10.076172 12.427734 L 6.6347656 8.9863281 z " />
  <metadata
     id="metadata30">
    <rdf:RDF>
      <cc:Work
         rdf:about="">
        <dc:title>Solid/Wafer Error</dc:title>
      </cc:Work>
    </rdf:RDF>
  </metadata>
</svg>
