<?xml version="1.0" encoding="UTF-8"?>
<svg width="15px" height="13px" viewBox="0 0 15 13" version="1.1" xmlns="http://www.w3.org/2000/svg" xmlns:xlink="http://www.w3.org/1999/xlink">
    <title>Solid/Warning</title>
    <g id="Page-1" stroke="none" stroke-width="1" fill="none" fill-rule="evenodd">
        <g id="Abstract" transform="translate(-29.000000, -73.000000)" fill="#000000">
            <g id="Shape" transform="translate(29.000000, 72.000000)">
                <path d="M7.49560405,4.71470211 C7.87777329,4.71470211 8.18338872,5.03229855 8.16870118,5.41418551 L8.01482011,9.41508292 C8.00408936,9.69407462 7.77480126,9.91471384 7.49560357,9.91471384 C7.21640635,9.91471384 6.9871173,9.69407462 6.97638703,9.41508292 L6.82250691,5.41418503 C6.8078189,5.03229807 7.11343432,4.71470211 7.49560405,4.71470211 Z M7.49549247,12.1540642 C7.08127881,12.1540642 6.74549247,11.8182773 6.74549247,11.4040642 C6.74549247,10.989851 7.08127881,10.6540642 7.49549247,10.6540642 C7.90970612,10.6540642 8.24549294,10.989851 8.24549294,11.4040642 C8.24549294,11.8182773 7.90970612,12.1540642 7.49549247,12.1540642 Z M6.55069781,1.53683643 L0.156783291,12.2648868 C-0.280218772,12.9981117 0.248108514,13.92805 1.10168756,13.92805 L13.889535,13.92805 C14.7431116,13.92805 15.2714443,12.9981127 14.8344402,12.2648859 L8.44050885,1.53683548 C8.01390267,0.821054623 6.97730351,0.821054742 6.55069781,1.53683643 Z"></path>
            </g>
        </g>
    </g>
</svg>