<?xml version="1.0" encoding="UTF-8"?>
<svg width="14px" height="14px" viewBox="0 0 14 14" version="1.1" xmlns="http://www.w3.org/2000/svg" xmlns:xlink="http://www.w3.org/1999/xlink">
    <title>Solid/Warning Circle</title>
    <g id="Page-1" stroke="none" stroke-width="1" fill="none" fill-rule="evenodd">
        <g id="Abstract" transform="translate(-60.000000, -73.000000)" fill="#000000">
            <g id="Combined-Shape" transform="translate(59.000000, 72.000000)">
                <path d="M7.62283182,1 C11.2804909,1 14.2456636,3.96514463 14.2456636,7.62283039 C14.2456636,11.2804899 11.2804918,14.2456617 7.62283182,14.2456617 C3.96514606,14.2456617 1,11.280489 1,7.62283039 C1,3.96514583 3.96514726,1 7.62283182,1 Z M7.49549247,9.65406416 C7.08127881,9.65406416 6.74549247,9.98985098 6.74549247,10.4040642 C6.74549247,10.8182773 7.08127881,11.1540642 7.49549247,11.1540642 C7.90970612,11.1540642 8.24549294,10.8182773 8.24549294,10.4040642 C8.24549294,9.98985098 7.90970612,9.65406416 7.49549247,9.65406416 Z M7.49560405,3.71470211 C7.11343432,3.71470211 6.8078189,4.03229807 6.82250691,4.41418503 L6.82250691,4.41418503 L6.97638703,8.41508292 C6.9871173,8.69407462 7.21640635,8.91471384 7.49560357,8.91471384 C7.77480126,8.91471384 8.00408936,8.69407462 8.01482011,8.41508292 L8.01482011,8.41508292 L8.16870118,4.41418551 C8.18338872,4.03229855 7.87777329,3.71470211 7.49560405,3.71470211 Z"></path>
            </g>
        </g>
    </g>
</svg>