<?xml version="1.0" encoding="UTF-8"?>
<svg width="13px" height="13px" viewBox="0 0 13 13" version="1.1" xmlns="http://www.w3.org/2000/svg" xmlns:xlink="http://www.w3.org/1999/xlink">
    <title>Solid/Workflow</title>
    <g id="Page-1" stroke="none" stroke-width="1" fill="none" fill-rule="evenodd">
        <g id="Abstract" transform="translate(-238.000000, -181.000000)" fill="#000000" fill-rule="nonzero">
            <g id="Combined-Shape" transform="translate(237.000000, 180.000000)">
                <path d="M9,1 C9.27614237,1 9.5,1.22385763 9.5,1.5 L9.5,4.5 C9.5,4.77614237 9.27614237,5 9,5 L8,5 L8,6 L8.00283791,6.2129749 C8.02352172,6.96881795 8.15586169,7.44875491 8.35355339,7.64644661 L8.35355339,7.64644661 L8.40148981,7.67315774 L8.50748936,7.71460228 L8.66979355,7.76770297 L8.88664383,7.82938253 L9.77076027,8.05669332 L10.0637668,8.14082481 C11.3159647,8.5230351 12,9.03666969 12,10 L12,10 L13.5,10 C13.7761424,10 14,10.2238576 14,10.5 L14,13.5 C14,13.7761424 13.7761424,14 13.5,14 L10.5,14 C10.2238576,14 10,13.7761424 10,13.5 L10,10.5 C10,10.2238576 10.2238576,10 10.5,10 L11,10 L10.9941359,9.9237251 C10.9392556,9.573263 10.4970815,9.29825516 9.57992579,9.04117364 L9.57992579,9.04117364 L9.50546315,9.02086494 L8.4488341,8.7458257 C8.05265021,8.63164451 7.82053201,8.52763879 7.64644661,8.35355339 C7.59383907,8.30094585 7.54470873,8.24383777 7.49896017,8.18221608 C7.45529127,8.24383777 7.40616093,8.30094585 7.35355339,8.35355339 C7.17946799,8.52763879 6.94734979,8.63164451 6.5511659,8.7458257 L5.49453685,9.02086494 L5.42007421,9.04117364 C4.50291849,9.29825516 4.06074436,9.573263 4.00586405,9.9237251 L4,10 L4.5,10 C4.77614237,10 5,10.2238576 5,10.5 L5,13.5 C5,13.7761424 4.77614237,14 4.5,14 L1.5,14 C1.22385763,14 1,13.7761424 1,13.5 L1,10.5 C1,10.2238576 1.22385763,10 1.5,10 L3,10 C3,9.03666969 3.68403531,8.5230351 4.93623318,8.14082481 L5.22923973,8.05669332 L6.11335617,7.82938253 L6.33020645,7.76770297 L6.49251064,7.71460228 L6.59851019,7.67315774 L6.64644661,7.64644661 C6.84413831,7.44875491 6.97647828,6.96881795 6.99716209,6.2129749 L7,6 L7,5 L6,5 C5.72385763,5 5.5,4.77614237 5.5,4.5 L5.5,1.5 C5.5,1.22385763 5.72385763,1 6,1 L9,1 Z"></path>
            </g>
        </g>
    </g>
</svg>