<?xml version="1.0" encoding="UTF-8"?>
<svg width="11px" height="11px" viewBox="0 0 11 11" version="1.1" xmlns="http://www.w3.org/2000/svg" xmlns:xlink="http://www.w3.org/1999/xlink">
    <title>Solid/Zoom Out</title>
    <g id="Page-1" stroke="none" stroke-width="1" fill="none" fill-rule="evenodd">
        <g id="Objects" transform="translate(-91.000000, -254.000000)" fill="#000000">
            <g id="Shape" transform="translate(89.000000, 252.000000)">
                <path d="M4.25,6.5 C4.25,6.7761426 4.47385764,7 4.75,7 L8.25,7 C8.52614212,7 8.75,6.7761426 8.75,6.5 C8.75,6.2238574 8.52614212,6 8.25,6 L4.75,6 C4.47385764,6 4.25,6.2238574 4.25,6.5 Z M9.30884314,10.0159492 L12.1464462,12.8535538 C12.3417091,13.0488157 12.6582909,13.0488157 12.8535538,12.8535538 C13.0488157,12.6582909 13.0488157,12.3417091 12.8535538,12.1464462 L10.0159492,9.30884314 C10.6317635,8.53900766 11,7.56250715 11,6.5 C11,4.01471853 8.98528147,2 6.5,2 C4.01471853,2 2,4.01471853 2,6.5 C2,8.98528147 4.01471853,11 6.5,11 C7.56250715,11 8.53900766,10.6317635 9.30884314,10.0159492 Z"></path>
            </g>
        </g>
    </g>
</svg>