<svg width="200" height="200" fill="#002451" xmlns="http://www.w3.org/2000/svg" xmlns:xlink="http://www.w3.org/1999/xlink" version="1.1" x="0px" y="0px" viewBox="0 0 100 100" style="enable-background:new 0 0 100 100;" xml:space="preserve"><path d="M49.7,59c-5.2,0-9.4-4.2-9.4-9.4c0-5.2,4.2-9.4,9.4-9.4s9.4,4.2,9.4,9.4C59.1,54.8,54.9,59,49.7,59z M49.7,43.2  c-3.5,0-6.4,2.9-6.4,6.4s2.9,6.4,6.4,6.4c3.5,0,6.4-2.9,6.4-6.4S53.2,43.2,49.7,43.2z"/><g><circle cx="49.7" cy="6.2" r="0.9"/><circle cx="49.7" cy="13" r="1.4"/><circle cx="49.7" cy="19.7" r="1.9"/><circle cx="49.7" cy="26.5" r="2.3"/><circle cx="49.7" cy="33.2" r="2.8"/></g><g><circle cx="18.5" cy="18.4" r="0.9"/><circle cx="23.2" cy="23.2" r="1.4"/><circle cx="28" cy="27.9" r="1.9"/><circle cx="32.8" cy="32.7" r="2.3"/><circle cx="37.6" cy="37.5" r="2.8"/></g><g><circle cx="6.3" cy="49.6" r="0.9"/><circle cx="13.1" cy="49.6" r="1.4"/><circle cx="19.8" cy="49.6" r="1.9"/><circle cx="26.6" cy="49.6" r="2.3"/><circle cx="33.3" cy="49.6" r="2.8"/></g><g><circle cx="18.5" cy="80.8" r="0.9"/><circle cx="23.2" cy="76" r="1.4"/><circle cx="28" cy="71.3" r="1.9"/><circle cx="32.8" cy="66.5" r="2.3"/><circle cx="37.6" cy="61.7" r="2.8"/></g><g><circle cx="49.7" cy="93" r="0.9"/><circle cx="49.7" cy="86.2" r="1.4"/><circle cx="49.7" cy="79.5" r="1.9"/><circle cx="49.7" cy="72.7" r="2.3"/><circle cx="49.7" cy="66" r="2.8"/></g><g><circle cx="80.9" cy="80.8" r="0.9"/><circle cx="76.1" cy="76" r="1.4"/><circle cx="71.3" cy="71.3" r="1.9"/><circle cx="66.6" cy="66.5" r="2.3"/><circle cx="61.8" cy="61.7" r="2.8"/></g><g><circle cx="93" cy="49.6" r="0.9"/><circle cx="86.3" cy="49.6" r="1.4"/><circle cx="79.5" cy="49.6" r="1.9"/><circle cx="72.8" cy="49.6" r="2.3"/><circle cx="66" cy="49.6" r="2.8"/></g><g><circle cx="80.9" cy="18.4" r="0.9"/><circle cx="76.1" cy="23.2" r="1.4"/><circle cx="71.3" cy="27.9" r="1.9"/><circle cx="66.6" cy="32.7" r="2.3"/><circle cx="61.8" cy="37.5" r="2.8"/></g><circle cx="49.7" cy="49.6" r="3.6"/></svg>