<?xml version="1.0" encoding="UTF-8" standalone="no"?>
<svg
   width="15px"
   height="11px"
   viewBox="0 0 15 11"
   version="1.1"
   id="svg9"
   sodipodi:docname="Acquire Image Fds.svg"
   inkscape:version="1.1.1 (3bf5ae0d25, 2021-09-20)"
   xmlns:inkscape="http://www.inkscape.org/namespaces/inkscape"
   xmlns:sodipodi="http://sodipodi.sourceforge.net/DTD/sodipodi-0.dtd"
   xmlns="http://www.w3.org/2000/svg"
   xmlns:svg="http://www.w3.org/2000/svg"
   xmlns:rdf="http://www.w3.org/1999/02/22-rdf-syntax-ns#"
   xmlns:cc="http://creativecommons.org/ns#"
   xmlns:dc="http://purl.org/dc/elements/1.1/">
  <defs
     id="defs13" />
  <sodipodi:namedview
     id="namedview11"
     pagecolor="#ffffff"
     bordercolor="#666666"
     borderopacity="1.0"
     inkscape:pageshadow="2"
     inkscape:pageopacity="0.0"
     inkscape:pagecheckerboard="0"
     showgrid="false"
     inkscape:zoom="65.363636"
     inkscape:cx="7.4965229"
     inkscape:cy="5.5"
     inkscape:window-width="1920"
     inkscape:window-height="1017"
     inkscape:window-x="-8"
     inkscape:window-y="-8"
     inkscape:window-maximized="1"
     inkscape:current-layer="Shape" />
  <title
     id="title2">Line/Acquire Image</title>
  <g
     id="Page-1"
     stroke="none"
     stroke-width="1"
     fill="none"
     fill-rule="evenodd">
    <g
       id="Objects"
       fill="#000000">
      <g
         id="Shape">
        <path
           d="m 2.25,2.0264256 h 2.5 c 0.1380711,0 0.25,0.1119287 0.25,0.25 v 1.5045428 c 0,0.1380711 -0.1119289,0.25 -0.25,0.25 h -2.5 c -0.1380713,0 -0.25,-0.1119287 -0.25,-0.25 V 2.2764256 c 0,-0.1380711 0.1119289,-0.25 0.25,-0.25 z m 7.2499809,7.1852646 c -1.9888077,0 -3.6010551,-1.612247 -3.6010551,-3.6010552 0,-1.9888076 1.6122474,-3.6010551 3.6010551,-3.6010551 1.9888081,0 3.6010551,1.6122475 3.6010551,3.6010551 0,1.9888082 -1.612247,3.6010552 -3.6010551,3.6010552 z m 0,-1 c -1.4365234,0 -2.6010551,-1.1645317 -2.6010551,-2.6010552 0,-1.4365229 1.1645317,-2.6010551 2.6010551,-2.6010551 1.4365231,0 2.6010551,1.1645322 2.6010551,2.6010551 0,1.4365235 -1.164532,2.6010552 -2.6010551,2.6010552 z M 2,0.02642559 h 11 c 1.104569,0 2,0.89543068 2,2.00000001 v 7 c 0,1.1045704 -0.895431,2.0000004 -2,2.0000004 H 2 c -1.10456932,0 -2,-0.895431 -2,-2.0000004 v -7 C 0,0.9218558 0.89543056,0.02642559 2,0.02642559 Z M 1,2.0264256 v 7 c 0,0.5522852 0.4477154,1.0000004 1,1.0000004 h 11 c 0.552285,0 1,-0.4477152 1,-1.0000004 v -7 c 0,-0.5522846 -0.447716,-1 -1,-1 H 2 c -0.5522847,0 -1,0.4477152 -1,1 z"
           id="path4" />
      </g>
    </g>
  </g>
  <metadata
     id="metadata15">
    <rdf:RDF>
      <cc:Work
         rdf:about="">
        <dc:title>Line/Acquire Image</dc:title>
      </cc:Work>
    </rdf:RDF>
  </metadata>
</svg>
