<?xml version="1.0" encoding="UTF-8"?>
<svg width="13px" height="13px" viewBox="0 0 13 13" version="1.1" xmlns="http://www.w3.org/2000/svg" xmlns:xlink="http://www.w3.org/1999/xlink">
    <title>Line/Add Branch</title>
    <g id="Page-1" stroke="none" stroke-width="1" fill="none" fill-rule="evenodd">
        <g id="Abstract" transform="translate(-268.000000, -163.000000)" fill="#000000" fill-rule="nonzero">
            <g id="Combined-Shape" transform="translate(267.000000, 162.000000)">
                <path d="M12.6041667,10 L12.6035,11.3333333 L13.9375,11.3333333 L13.9375,12.6666667 L12.6035,12.6666667 L12.6041667,14 L11.2708333,14 L11.2701667,12.6666667 L9.9375,12.6666667 L9.9375,11.3333333 L11.2701667,11.3333333 L11.2708333,10 L12.6041667,10 Z M9,1 C9.27614237,1 9.5,1.22385763 9.5,1.5 L9.5,4.5 C9.5,4.77614237 9.27614237,5 9,5 L8,5 L8,6 L8.00283791,6.2129749 C8.02164137,6.90010494 8.13272265,7.35921343 8.30129255,7.58553764 L8.35355339,7.64644661 L8.40148981,7.67315774 L8.50748936,7.71460228 L8.66979355,7.76770297 L8.88664383,7.82938253 L9.77076027,8.05669332 L9.962,8.111 L9.657,9.025 L9.57992579,9.04117364 L9.50546315,9.02086494 L8.4488341,8.7458257 C8.05265021,8.63164451 7.82053201,8.52763879 7.64644661,8.35355339 C7.59383907,8.30094585 7.54470873,8.24383777 7.49896017,8.18221608 C7.45529127,8.24383777 7.40616093,8.30094585 7.35355339,8.35355339 C7.17946799,8.52763879 6.94734979,8.63164451 6.5511659,8.7458257 L5.49453685,9.02086494 L5.42007421,9.04117364 C4.50291849,9.29825516 4.06074436,9.573263 4.00586405,9.9237251 L4,10 L5,10 C5.27614237,10 5.5,10.2238576 5.5,10.5 L5.5,13.5 C5.5,13.7761424 5.27614237,14 5,14 L2,14 C1.72385763,14 1.5,13.7761424 1.5,13.5 L1.5,10.5 C1.5,10.2238576 1.72385763,10 2,10 L3,10 C3,9.03666969 3.68403531,8.5230351 4.93623318,8.14082481 L5.22923973,8.05669332 L6.11335617,7.82938253 L6.33020645,7.76770297 L6.49251064,7.71460228 L6.59851019,7.67315774 L6.64644661,7.64644661 C6.84413831,7.44875491 6.97647828,6.96881795 6.99716209,6.2129749 L7,6 L7,5 L6,5 C5.72385763,5 5.5,4.77614237 5.5,4.5 L5.5,1.5 C5.5,1.22385763 5.72385763,1 6,1 L9,1 Z M4.5,11 L2.5,11 L2.5,13 L4.5,13 L4.5,11 Z M8.5,2 L6.5,2 L6.5,4 L8.5,4 L8.5,2 Z"></path>
            </g>
        </g>
    </g>
</svg>