<?xml version="1.0" encoding="UTF-8"?>
<svg width="9px" height="9px" viewBox="0 0 9 9" version="1.1" xmlns="http://www.w3.org/2000/svg" xmlns:xlink="http://www.w3.org/1999/xlink">
    <title>Line/Arrow Bottom Right</title>
    <g id="Page-1" stroke="none" stroke-width="1" fill="none" fill-rule="evenodd">
        <g id="Arrows" transform="translate(-240.000000, -21.000000)" fill="#000000" fill-rule="nonzero">
            <g id="Shape" transform="translate(237.000000, 18.000000)">
                <path d="M3.14644584,3.8535524 L9.79289484,10.50001 L5.5,10.5000105 C5.22385898,10.5000102 5,10.723868 5,11.0000105 C5,11.2761526 5.22385934,11.5000114 5.5,11.5000114 L11,11.5000114 C11.1326091,11.5000114 11.2597856,11.4473324 11.3535538,11.3535643 C11.4473219,11.2597961 11.5,11.1326198 11.5,11.0000114 L11.5,5.5 C11.5,5.22385946 11.2761422,5 11,5 C10.7238574,5 10.5,5.22385934 10.5,5.5 L10.5,9.79290247 L3.85355246,3.14644578 C3.65829168,2.95118466 3.34170908,2.95118457 3.14644679,3.14644656 C2.9511847,3.34170839 2.95118441,3.65829097 3.14644584,3.8535524 Z"></path>
            </g>
        </g>
    </g>
</svg>