<?xml version="1.0" encoding="UTF-8"?>
<svg width="9px" height="11px" viewBox="0 0 9 11" version="1.1" xmlns="http://www.w3.org/2000/svg" xmlns:xlink="http://www.w3.org/1999/xlink">
    <title>Line/Arrow Up</title>
    <g id="Page-1" stroke="none" stroke-width="1" fill="none" fill-rule="evenodd">
        <g id="Arrows" transform="translate(-62.000000, -20.000000)" fill="#000000" fill-rule="nonzero">
            <g id="Shape" transform="translate(59.000000, 18.000000)">
                <path d="M7.8535533,2.1464466 L11.8535538,6.1464467 C12.0488157,6.34170866 12.0488157,6.65829086 11.8535538,6.8535533 C11.6582909,7.04881525 11.3417091,7.04881525 11.1464472,6.8535533 L8,3.70710647 L8,12.5 C8,12.7761421 7.77614307,13 7.5,13 C7.22385812,13 7,12.7761421 7,12.5 L7,3.70710683 L3.85355341,6.8535533 C3.65829127,7.04881573 3.34170878,7.04881573 3.14644663,6.8535533 C2.95118447,6.65829134 2.95118447,6.34170866 3.1464466,6.1464467 L7.1464467,2.14644663 C7.34170866,1.95118447 7.65829086,1.95118447 7.8535533,2.1464466 Z"></path>
            </g>
        </g>
    </g>
</svg>