<?xml version="1.0" encoding="UTF-8"?>
<svg width="9px" height="9px" viewBox="0 0 9 9" version="1.1" xmlns="http://www.w3.org/2000/svg" xmlns:xlink="http://www.w3.org/1999/xlink">
    <title>Line/Arrow Top Left</title>
    <g id="Page-1" stroke="none" stroke-width="1" fill="none" fill-rule="evenodd">
        <g id="Arrows" transform="translate(-151.000000, -21.000000)" fill="#000000" fill-rule="nonzero">
            <g id="Shape" transform="translate(148.000000, 18.000000)">
                <path d="M11.3535547,10.6464586 L4.70710611,4 L9,4 C9.27614197,4 9.5,3.77614334 9.5,3.5 C9.5,3.2238588 9.27614161,3 9,3 L3.5,3 C3.36739203,3 3.24021511,3.05267884 3.14644697,3.14644697 C3.05267884,3.24021511 3,3.36739187 3,3.5 L3,9 C3,9.27615175 3.22385895,9.5 3.5,9.5 C3.77614379,9.5 4,9.2761521 4,9 L4,4.70710886 L10.6464486,11.3535652 C10.8417094,11.5488263 11.1582915,11.5488262 11.3535538,11.3535643 C11.5488159,11.1583024 11.5488162,10.8417201 11.3535547,10.6464586 Z"></path>
            </g>
        </g>
    </g>
</svg>