<?xml version="1.0" encoding="UTF-8"?>
<svg width="9px" height="9px" viewBox="0 0 9 9" version="1.1" xmlns="http://www.w3.org/2000/svg" xmlns:xlink="http://www.w3.org/1999/xlink">
    <title>Line/Arrow Bottom Left</title>
    <g id="Page-1" stroke="none" stroke-width="1" fill="none" fill-rule="evenodd">
        <g id="Arrows" transform="translate(-210.000000, -21.000000)" fill="#000000" fill-rule="nonzero">
            <g id="Shape" transform="translate(207.000000, 18.000000)">
                <path d="M11.3535547,3.8535524 L4.70710611,10.50001 L9,10.5000105 C9.27614197,10.5000102 9.5,10.723868 9.5,11.0000105 C9.5,11.2761526 9.27614161,11.5000114 9,11.5000114 L3.5,11.5000114 C3.36739203,11.5000114 3.24021511,11.4473324 3.14644697,11.3535643 C3.05267884,11.2597961 3,11.1326198 3,11.0000114 L3,5.5 C3,5.22385946 3.22385895,5 3.5,5 C3.77614379,5 4,5.22385934 4,5.5 L4,9.79290247 L10.6464486,3.14644578 C10.8417094,2.95118466 11.1582915,2.95118457 11.3535538,3.14644656 C11.5488159,3.34170839 11.5488162,3.65829097 11.3535547,3.8535524 Z"></path>
            </g>
        </g>
    </g>
</svg>