<?xml version="1.0" encoding="UTF-8"?>
<svg width="15px" height="15px" viewBox="0 0 15 15" version="1.1" xmlns="http://www.w3.org/2000/svg" xmlns:xlink="http://www.w3.org/1999/xlink">
    <title>Line/Arrow Square Right</title>
    <g id="Page-1" stroke="none" stroke-width="1" fill="none" fill-rule="evenodd">
        <g id="Arrows" transform="translate(-89.000000, -126.000000)" fill="#000000" fill-rule="nonzero">
            <g id="Combined-Shape" transform="translate(89.000000, 126.000000)">
                <path d="M12.5,0.5 C13.6045695,0.5 14.5,1.3954305 14.5,2.5 L14.5,2.5 L14.5,12.5 C14.5,13.6045695 13.6045695,14.5 12.5,14.5 L12.5,14.5 L2.5,14.5 C1.3954305,14.5 0.5,13.6045695 0.5,12.5 L0.5,12.5 L0.5,2.5 C0.5,1.3954305 1.3954305,0.5 2.5,0.5 L2.5,0.5 Z M12.5,1.5 L2.5,1.5 C1.94771525,1.5 1.5,1.94771525 1.5,2.5 L1.5,2.5 L1.5,12.5 C1.5,13.0522847 1.94771525,13.5 2.5,13.5 L2.5,13.5 L12.5,13.5 C13.0522847,13.5 13.5,13.0522847 13.5,12.5 L13.5,12.5 L13.5,2.5 C13.5,1.94771525 13.0522847,1.5 12.5,1.5 L12.5,1.5 Z M8.08767882,3.54222421 C8.26518969,3.36471315 8.55299213,3.36471315 8.730503,3.54222418 L8.730503,3.54222418 L12.3668671,7.17858791 C12.4521108,7.26383166 12.5,7.37944711 12.5,7.5 C12.5,7.62055289 12.4521108,7.73616834 12.3668671,7.82141209 L12.3668671,7.82141209 L8.730503,11.4577762 C8.55299213,11.635287 8.26518969,11.635287 8.08767882,11.4577762 C7.91016752,11.2802644 7.91016752,10.9924629 8.08767882,10.814952 L8.08767882,10.814952 L10.9480849,7.95454502 L2.95454545,7.95454589 C2.70350697,7.95454589 2.5,7.75103916 2.5,7.50000043 C2.5,7.24896193 2.70350689,7.04545498 2.95454545,7.04545498 L2.95454545,7.04545498 L10.9480841,7.04545433 L8.08767882,4.18504856 C7.91016752,4.00753751 7.91016752,3.71973525 8.08767882,3.54222421 Z"></path>
            </g>
        </g>
    </g>
</svg>