<?xml version="1.0" encoding="UTF-8"?>
<svg width="9px" height="9px" viewBox="0 0 9 9" version="1.1" xmlns="http://www.w3.org/2000/svg" xmlns:xlink="http://www.w3.org/1999/xlink">
    <title>Line/Arrow Top Right</title>
    <g id="Page-1" stroke="none" stroke-width="1" fill="none" fill-rule="evenodd">
        <g id="Arrows" transform="translate(-181.000000, -21.000000)" fill="#000000" fill-rule="nonzero">
            <g id="Shape" transform="translate(178.000000, 18.000000)">
                <path d="M3.14644584,10.6464586 L9.79289484,4 L5.5,4 C5.22385898,4 5,3.77614334 5,3.5 C5,3.2238588 5.22385934,3 5.5,3 L11,3 C11.1326091,3 11.2597856,3.05267884 11.3535538,3.14644697 C11.4473219,3.24021511 11.5,3.36739187 11.5,3.5 L11.5,9 C11.5,9.27615175 11.2761422,9.5 11,9.5 C10.7238574,9.5 10.5,9.2761521 10.5,9 L10.5,4.70710886 L3.85355246,11.3535652 C3.65829168,11.5488263 3.34170908,11.5488262 3.14644679,11.3535643 C2.9511847,11.1583024 2.95118441,10.8417201 3.14644584,10.6464586 Z"></path>
            </g>
        </g>
    </g>
</svg>