<?xml version="1.0" encoding="UTF-8"?>
<svg width="9px" height="11px" viewBox="0 0 9 11" version="1.1" xmlns="http://www.w3.org/2000/svg" xmlns:xlink="http://www.w3.org/1999/xlink">
    <title>Line/Arrow Down</title>
    <g id="Page-1" stroke="none" stroke-width="1" fill="none" fill-rule="evenodd">
        <g id="Arrows" transform="translate(-32.000000, -20.000000)" fill="#000000" fill-rule="nonzero">
            <g id="Shape" transform="translate(29.000000, 18.000000)">
                <path d="M8,2.5 L8,11.2928934 L11.1464472,8.1464467 C11.3417091,7.95118427 11.6582909,7.95118427 11.8535538,8.1464467 C12.0488157,8.34170866 12.0488157,8.65829134 11.8535538,8.8535533 L7.8535533,12.8535538 C7.75978518,12.9473219 7.63260818,13 7.5,13 C7.36739182,13 7.24021482,12.9473219 7.1464467,12.8535538 L3.1464466,8.8535533 C2.95118447,8.65829134 2.95118447,8.34170866 3.14644663,8.1464467 C3.34170878,7.95118427 3.65829127,7.95118427 3.85355341,8.1464467 L7,11.2928925 L7,2.5 C7,2.22385758 7.22385812,2 7.5,2 C7.77614307,2 8,2.22385767 8,2.5 Z"></path>
            </g>
        </g>
    </g>
</svg>