<?xml version="1.0" encoding="UTF-8"?>
<svg width="15px" height="15px" viewBox="0 0 15 15" version="1.1" xmlns="http://www.w3.org/2000/svg" xmlns:xlink="http://www.w3.org/1999/xlink">
    <title>Line/Arrow Square Up</title>
    <g id="Page-1" stroke="none" stroke-width="1" fill="none" fill-rule="evenodd">
        <g id="Arrows" transform="translate(-59.000000, -126.000000)" fill="#000000" fill-rule="nonzero">
            <g id="Combined-Shape" transform="translate(59.000000, 126.000000)">
                <path d="M12.5,0.5 C13.6045695,0.5 14.5,1.3954305 14.5,2.5 L14.5,2.5 L14.5,12.5 C14.5,13.6045695 13.6045695,14.5 12.5,14.5 L12.5,14.5 L2.5,14.5 C1.3954305,14.5 0.5,13.6045695 0.5,12.5 L0.5,12.5 L0.5,2.5 C0.5,1.3954305 1.3954305,0.5 2.5,0.5 L2.5,0.5 Z M12.5,1.5 L2.5,1.5 C1.94771525,1.5 1.5,1.94771525 1.5,2.5 L1.5,2.5 L1.5,12.5 C1.5,13.0522847 1.94771525,13.5 2.5,13.5 L2.5,13.5 L12.5,13.5 C13.0522847,13.5 13.5,13.0522847 13.5,12.5 L13.5,12.5 L13.5,2.5 C13.5,1.94771525 13.0522847,1.5 12.5,1.5 L12.5,1.5 Z M7.5,2.5 C7.62055289,2.5 7.73616834,2.54788919 7.82141209,2.63313293 L11.4577758,6.269497 C11.6352868,6.44700787 11.6352868,6.73481031 11.4577758,6.91232118 C11.2802647,7.08983248 10.9924625,7.08983248 10.8149514,6.91232118 L7.95454567,4.05191595 L7.95454502,12.0454545 C7.95454502,12.2964931 7.75103807,12.5 7.49999957,12.5 C7.24896084,12.5 7.04545411,12.296493 7.04545411,12.0454545 L7.04545498,4.05191508 L4.18504802,6.91232118 C4.00753715,7.08983248 3.71973558,7.08983248 3.54222384,6.91232118 C3.36471298,6.73481031 3.36471298,6.44700787 3.54222384,6.269497 L7.17858791,2.63313293 C7.26383166,2.54788919 7.37944711,2.5 7.5,2.5 Z"></path>
            </g>
        </g>
    </g>
</svg>