<?xml version="1.0" encoding="UTF-8" standalone="no"?>
<svg
   xmlns:dc="http://purl.org/dc/elements/1.1/"
   xmlns:cc="http://creativecommons.org/ns#"
   xmlns:rdf="http://www.w3.org/1999/02/22-rdf-syntax-ns#"
   xmlns:svg="http://www.w3.org/2000/svg"
   xmlns="http://www.w3.org/2000/svg"
   xmlns:sodipodi="http://sodipodi.sourceforge.net/DTD/sodipodi-0.dtd"
   xmlns:inkscape="http://www.inkscape.org/namespaces/inkscape"
   width="16"
   height="16"
   viewBox="0 0 4.2333332 4.2333335"
   version="1.1"
   id="svg854"
   inkscape:version="1.0.1 (3bc2e813f5, 2020-09-07)"
   sodipodi:docname="Auto3.svg">
  <defs
     id="defs848" />
  <sodipodi:namedview
     id="base"
     pagecolor="#ffffff"
     bordercolor="#666666"
     borderopacity="1.0"
     inkscape:pageopacity="0.0"
     inkscape:pageshadow="2"
     inkscape:zoom="44.8"
     inkscape:cx="10.301536"
     inkscape:cy="7.4436045"
     inkscape:document-units="mm"
     inkscape:current-layer="layer1"
     inkscape:document-rotation="0"
     showgrid="true"
     units="px"
     showguides="true"
     inkscape:guide-bbox="true"
     inkscape:window-width="2560"
     inkscape:window-height="1377"
     inkscape:window-x="-8"
     inkscape:window-y="-8"
     inkscape:window-maximized="1">
    <inkscape:grid
       type="xygrid"
       id="grid1417" />
    <sodipodi:guide
       position="2.1166666,2.1166667"
       orientation="-0.70710678,-0.70710678"
       id="guide1462" />
  </sodipodi:namedview>
  <metadata
     id="metadata851">
    <rdf:RDF>
      <cc:Work
         rdf:about="">
        <dc:format>image/svg+xml</dc:format>
        <dc:type
           rdf:resource="http://purl.org/dc/dcmitype/StillImage" />
        <dc:title></dc:title>
      </cc:Work>
    </rdf:RDF>
  </metadata>
  <g
     inkscape:label="Calque 1"
     inkscape:groupmode="layer"
     id="layer1">
    <path
       id="path1421"
       style="fill:#000000;stroke:none;stroke-width:3.1681;stroke-linecap:round;stroke-linejoin:round"
       d="M 8 -0.048828125 A 8.0487917 8.0487917 0 0 0 7.0019531 0.013671875 L 7.2558594 2.0507812 A 5.9955358 5.9955358 0 0 1 8 2.0039062 A 5.9955358 5.9955358 0 0 1 13.996094 8 A 5.9955358 5.9955358 0 0 1 11.597656 12.796875 L 12.828125 14.4375 A 8.0487917 8.0487917 0 0 0 16.048828 8 A 8.0487917 8.0487917 0 0 0 8 -0.048828125 z M 3.171875 1.5625 A 8.0487917 8.0487917 0 0 0 -0.048828125 8 A 8.0487917 8.0487917 0 0 0 8 16.048828 A 8.0487917 8.0487917 0 0 0 8.9980469 15.986328 L 8.7441406 13.949219 A 5.9955358 5.9955358 0 0 1 8 13.996094 A 5.9955358 5.9955358 0 0 1 2.0039062 8 A 5.9955358 5.9955358 0 0 1 4.4023438 3.203125 L 3.171875 1.5625 z "
       transform="scale(0.26458333)" />
    <path
       style="fill:#000000;fill-opacity:1;stroke:none;stroke-width:0.231166px;stroke-linecap:butt;stroke-linejoin:miter;stroke-opacity:1"
       d="m 0.1,0.1 h 1.387 l -1e-7,1.387 L 0.1,0.1"
       id="path1464" />
    <path
       style="fill:#000000;fill-opacity:1;stroke:none;stroke-width:0.231166px;stroke-linecap:butt;stroke-linejoin:miter;stroke-opacity:1"
       d="M 4.1330001,4.133 2.746,2.746 l 10e-8,1.387 z"
       id="path1466" />
    <path
       style="fill:#000000;fill-opacity:1;stroke:none;stroke-width:0.298px;stroke-linecap:butt;stroke-linejoin:miter;stroke-opacity:1"
       d="M 1.852,1.223 V 3.011 L 2.746,2.117 Z"
       id="path1468" />
    <path
       style="fill:none;stroke:none;stroke-width:0.264583px;stroke-linecap:butt;stroke-linejoin:miter;stroke-opacity:1"
       d="M 1.8520833,0 V 2.1166666 L 0.79374999,0 Z"
       id="path1470" />
  </g>
</svg>
