<?xml version="1.0" encoding="UTF-8"?>
<svg width="14px" height="13px" viewBox="0 0 14 13" version="1.1" xmlns="http://www.w3.org/2000/svg" xmlns:xlink="http://www.w3.org/1999/xlink">
    <title>Line/Auto</title>
    <g id="Page-1" stroke="none" stroke-width="1" fill="none" fill-rule="evenodd">
        <g id="Abstract" transform="translate(-208.000000, -127.000000)" fill="#000000" fill-rule="nonzero">
            <g id="Combined-Shape" transform="translate(207.000000, 126.000000)">
                <path d="M8.73532486,1.11378942 C11.6095901,1.65338586 14.1923914,4.09403372 14.1923914,7.6711874 C14.1923914,9.20786428 13.4932727,10.4155082 12.6768379,11.3341894 C12.0919924,11.99228 11.4228945,12.5266075 10.884778,12.935935 L12.5212107,12.935935 C12.7973528,12.935935 13.0212107,13.1597929 13.0212107,13.435935 C13.0212107,13.7120771 12.7973528,13.935936 12.5212107,13.935936 L9.52121067,13.935936 C9.24506855,13.935936 9.02121068,13.7120771 9.02121067,13.435935 L9.02121067,10.435935 C9.02121066,10.1597929 9.24506855,9.93593503 9.52121067,9.93593502 C9.79735279,9.93593501 10.0212107,10.1597929 10.0212107,10.435935 L10.0212107,12.2814827 L10.0227785,12.2803001 C10.5942535,11.8492975 11.2926331,11.3225842 11.897686,10.6417551 C12.6122131,9.8377437 13.1500178,8.86641979 13.1500177,7.6711874 C13.1500176,4.65912962 10.9896135,2.59757876 8.54299688,2.13826644 C8.26009512,2.08515633 8.07381202,1.812765 8.12692213,1.52986419 C8.18003224,1.24696243 8.45242357,1.06067931 8.73532486,1.11378942 Z M5.67121124,1 C5.94735336,1 6.17121123,1.22385785 6.17121124,1.5 L6.17121172,4.5 C6.17121173,4.77614212 5.94735384,5 5.67121172,5 C5.39506912,5 5.17121173,4.77614212 5.17121172,4.5 L5.17121172,2.6544323 L5.16969872,2.65557384 C4.59822917,3.08657554 3.89974952,3.61336327 3.29470468,4.29418182 C2.58017832,5.09819323 2.0423736,6.06951666 2.04237366,7.26474857 C2.04237379,10.3089426 4.24957418,12.3827103 6.72808933,12.8118696 C7.01171255,12.8609794 7.20182322,13.130713 7.1527133,13.4143362 C7.10360385,13.6979594 6.83387041,13.8880696 6.55024719,13.8389597 C3.63858271,13.3348 1,10.8806345 1,7.26474857 C1,5.72807121 1.69911903,4.52042896 2.51555288,3.60174775 C3.10040057,2.94365621 3.76950097,2.40932849 4.30761838,2 L2.67121136,2 C2.395069,2 2.17121137,1.7761423 2.17121136,1.5 C2.17121135,1.22385806 2.395069,1 2.67121136,1 L5.67121124,1 Z M6.29335172,6.02202204 L9.89335175,7.83154569 C9.95894966,7.8645183 10,7.92935835 10,8 C10,8.07064147 9.95894966,8.13548152 9.89335175,8.16845412 L6.29335172,9.97797793 C6.23135807,10.0091386 6.15675962,10.0071146 6.09672935,9.97264281 C6.03669908,9.93817102 6,9.87628355 6,9.80952381 L6,6.19047628 C6,6.12371623 6.03669908,6.06182887 6.09672935,6.0273571 C6.15675962,5.99288533 6.23135807,5.9908612 6.29335172,6.02202204 Z"></path>
            </g>
        </g>
    </g>
</svg>