<?xml version="1.0" encoding="UTF-8"?>
<svg width="15px" height="15px" viewBox="0 0 15 15" version="1.1" xmlns="http://www.w3.org/2000/svg" xmlns:xlink="http://www.w3.org/1999/xlink">
    <title>Line/Autofocus</title>
    <g id="Page-1" stroke="none" stroke-width="1" fill="none" fill-rule="evenodd">
        <g id="Abstract" transform="translate(-29.000000, -90.000000)" fill="#000000" fill-rule="nonzero">
            <g id="Combined-Shape" transform="translate(29.000000, 90.000000)">
                <path d="M1.5,10.5 L1.5,12.5 C1.5,13.0128358 1.88604019,13.4355072 2.38337887,13.4932723 L2.5,13.5 L4.5,13.5 L4.5,14.5 L2.5,14.5 C1.4456382,14.5 0.581834878,13.6841222 0.505485736,12.6492623 L0.5,12.5 L0.5,10.5 L1.5,10.5 Z M14.5,10.5 L14.5,12.5 C14.5,13.5543618 13.6841222,14.4181651 12.6492623,14.4945143 L12.5,14.5 L10.5,14.5 L10.5,13.5 L12.5,13.5 C13.0128358,13.5 13.4355072,13.1139598 13.4932723,12.6166211 L13.5,12.5 L13.5,10.5 L14.5,10.5 Z M6.26287165,5 L7.98401223,9.29845331 L7.03987719,9.29845331 L6.66456886,8.32206522 L4.94636037,8.32206522 L4.59157671,9.29845331 L3.67089844,9.29845331 L5.34512548,5 L6.26287165,5 Z M11.3969724,5 L11.3969724,5.72715991 L9.31811609,5.72715991 L9.31811609,6.74459735 L11.1125591,6.74459735 L11.1125591,7.47175726 L9.31811609,7.47175726 L9.31811609,9.29845331 L8.45021556,9.29845331 L8.45021556,5 L11.3969724,5 Z M5.79373623,6.00277697 L5.21318114,7.59783741 L6.3860197,7.59783741 L5.79373623,6.00277697 Z M12.5,0.5 C13.5543618,0.5 14.4181651,1.31587779 14.4945143,2.35073766 L14.5,2.5 L14.5,4.5 L13.5,4.5 L13.5,2.5 C13.5,1.98716416 13.1139598,1.56449284 12.6166211,1.50672773 L12.5,1.5 L10.5,1.5 L10.5,0.5 L12.5,0.5 Z M4.5,0.5 L4.5,1.5 L2.5,1.5 C1.98716416,1.5 1.56449284,1.88604019 1.50672773,2.38337887 L1.5,2.5 L1.5,4.5 L0.5,4.5 L0.5,2.5 C0.5,1.4456382 1.31587779,0.581834878 2.35073766,0.505485736 L2.5,0.5 L4.5,0.5 Z"></path>
            </g>
        </g>
    </g>
</svg>