<?xml version="1.0" encoding="UTF-8"?>
<svg width="11px" height="15px" viewBox="0 0 11 15" version="1.1" xmlns="http://www.w3.org/2000/svg" xmlns:xlink="http://www.w3.org/1999/xlink">
    <title>Line/Bell</title>
    <g id="Page-1" stroke="none" stroke-width="1" fill="none" fill-rule="evenodd">
        <g id="Objects" transform="translate(-31.000000, -18.000000)" fill="#000000">
            <g id="Shape" transform="translate(29.000000, 18.000000)">
                <path d="M7.80093241,2.3594677 C10.1459246,2.51427503 12.0000505,4.46539421 12.0000505,6.84956808 L12.0000505,10.2995789 C12.0000505,11.105859 12.032959,11.7570087 12.7236586,12.1023647 C12.9310646,12.2060692 13.0399504,12.4387695 12.9866724,12.6644547 C12.9333954,12.8901398 12.7319365,13.049577 12.5000486,13.049577 L8.16149807,13.049577 C8.36909866,13.2328131 8.50003433,13.5009005 8.50003433,13.7995703 C8.50003433,14.3518555 8.05231905,14.7995703 7.50003433,14.7995703 C6.94774962,14.7995703 6.50003433,14.3518555 6.50003433,13.7995703 C6.50003433,13.5009005 6.63097,13.2328131 6.8385706,13.049577 L2.50004888,13.049577 C2.26816082,13.049577 2.06670262,12.8901398 2.0134248,12.6644547 C1.96014701,12.4387695 2.06903246,12.2060692 2.27643862,12.1023647 C2.96713939,11.7570068 3.00004876,11.1058571 3.00004876,10.2995789 L3.00004876,6.8495676 C3.00004876,4.46494551 4.85486817,2.51354332 7.20048523,2.3593821 C6.73873091,2.22866006 6.40042114,1.80405767 6.40042114,1.30043871 C6.40042114,0.692683172 6.89310455,0.2 7.50085974,0.2 C8.1086154,0.2 8.60129833,0.692683172 8.60129833,1.30043871 C8.60129833,1.80416746 8.26284123,2.22884531 7.80093241,2.3594677 Z M4.00004864,6.8495676 L4.00008536,10.3505117 C4.00056076,10.7959101 4.00126767,11.4579689 3.69935107,12.049577 L11.3007469,12.049577 C10.9988318,11.4579708 10.9995384,10.7959129 11.0000143,10.3505156 L11.0000505,6.84956808 C11.0000505,4.91657181 9.43304634,3.34956808 7.50004959,3.34956808 C5.56705284,3.34956808 4.00004864,4.91657085 4.00004864,6.8495676 Z"></path>
            </g>
        </g>
    </g>
</svg>