<?xml version="1.0" encoding="UTF-8"?>
<svg width="14px" height="13px" viewBox="0 0 14 13" version="1.1" xmlns="http://www.w3.org/2000/svg" xmlns:xlink="http://www.w3.org/1999/xlink">
    <title>Line/Calibrate</title>
    <g id="Page-1" stroke="none" stroke-width="1" fill="none" fill-rule="evenodd">
        <g id="Objects" transform="translate(-90.000000, -271.000000)" fill="#000000" fill-rule="nonzero">
            <g id="Line/Calibrate" transform="translate(89.000000, 270.000000)">
                <path d="M10.0359197,1 C7.79260575,1 5.97404045,2.8185653 5.97404045,5.06187927 L5.98277025,5.3300808 C5.98857918,5.41905213 5.99727616,5.50755971 6.00882838,5.59549977 L6.05076484,5.85168913 L1.49436463,10.407844 C0.965610456,10.9365982 0.965610456,11.7938781 1.49436463,12.3226323 L2.60068673,13.4289544 L2.70351764,13.5218995 C3.23531759,13.9556431 4.01976795,13.9246614 4.51547499,13.4289544 L8.96448624,8.97933617 L9.21439075,9.0405508 C9.48252018,9.09565659 9.75741474,9.12375855 10.0359197,9.12375855 C12.2792337,9.12375855 14.097799,7.30519325 14.097799,5.06187927 C14.097799,4.6162982 14.0258691,4.1798934 13.8864193,3.76554359 L13.6543515,3.07599626 L12.0921333,4.63583327 L10.4809212,4.61597519 L10.4610631,3.00476308 L12.0229417,1.44403437 L11.3332682,1.21172071 C10.9186187,1.07204779 10.4818655,1 10.0359197,1 Z M10.0359197,1.90263984 L10.2434548,1.9093315 L10.2769246,1.91256888 L9.55370435,2.63642998 L9.59023373,5.50756527 L12.4612338,5.54409293 L13.1843275,4.82087444 L13.1884784,4.85451259 C13.1929229,4.92325864 13.1951592,4.99240522 13.1951592,5.06187927 C13.1951592,6.80667903 11.7807195,8.22111871 10.0359197,8.22111871 C9.6740819,8.22111871 9.32115791,8.16045628 8.98752592,8.04313444 L8.71955975,7.94890402 L3.87723069,12.7906732 C3.70096084,12.966943 3.41520088,12.966943 3.23894948,12.7906916 L2.13262738,11.6843695 C1.95637599,11.5081181 1.95637599,11.2223582 2.13262738,11.0461068 L6.81322089,6.36551328 L7.05638238,6.15194577 L6.98403048,5.88189973 C6.91303024,5.6168986 6.87668029,5.34200623 6.87668029,5.06187927 C6.87668029,3.31707951 8.29111997,1.90263984 10.0359197,1.90263984 Z" id="Combined-Shape"></path>
            </g>
        </g>
    </g>
</svg>