<?xml version="1.0" encoding="UTF-8"?>
<svg width="5px" height="9px" viewBox="0 0 5 9" version="1.1" xmlns="http://www.w3.org/2000/svg" xmlns:xlink="http://www.w3.org/1999/xlink">
    <title>Line/Caret Up Down</title>
    <g id="Page-1" stroke="none" stroke-width="1" fill="none" fill-rule="evenodd">
        <g id="Arrows" transform="translate(-153.000000, -75.000000)" fill="#000000">
            <g id="Shape" transform="translate(148.000000, 72.000000)">
                <path d="M5.12203886,6.05210974 C5.2847573,6.2298202 5.54857598,6.22981996 5.71129444,6.05210974 L7.5,4.09860249 L9.28870474,6.0521095 C9.45142319,6.22981996 9.71524215,6.22981996 9.87796061,6.0521095 C10.0406791,5.87439928 10.0406791,5.58627369 9.87796061,5.40856323 L7.79462727,3.13328285 C7.71648714,3.04794331 7.61050634,3 7.5,3 C7.38949278,3 7.28351198,3.04794333 7.20537184,3.13328288 L5.1220388,5.40856323 C4.95932037,5.58627369 4.9593204,5.87439928 5.12203886,6.05210974 Z M9.87796105,8.9478905 C9.71524259,8.77018004 9.45142363,8.77018004 9.28870518,8.9478905 L7.5,10.9013974 L5.71129526,8.9478905 C5.54857681,8.77018004 5.28475788,8.77018004 5.12203941,8.9478905 C4.95932095,9.12560096 4.95932092,9.41372679 5.12203938,9.59143725 L7.20537273,11.8667166 C7.36809096,12.0444275 7.6319097,12.0444275 7.79462816,11.8667166 L9.87796105,9.59143725 C10.0406795,9.41372679 10.0406795,9.12560096 9.87796105,8.9478905 Z"></path>
            </g>
        </g>
    </g>
</svg>