<?xml version="1.0" encoding="UTF-8"?>
<svg width="15px" height="15px" viewBox="0 0 15 15" version="1.1" xmlns="http://www.w3.org/2000/svg" xmlns:xlink="http://www.w3.org/1999/xlink">
    <title>Line/Chamber</title>
    <g id="Page-1" stroke="none" stroke-width="1" fill="none" fill-rule="evenodd">
        <g id="Objects" transform="translate(-118.000000, -234.000000)" fill="#000000" fill-rule="nonzero">
            <g id="Combined-Shape" transform="translate(118.000000, 234.000000)">
                <path d="M7.5,11 C7.7020554,11 7.90224459,11.0021307 8.10026885,11.0063125 L8.68754812,11.0249312 C8.78424596,11.0290333 8.88032788,11.0336283 8.97575654,11.0387061 L9.54019072,11.0748881 L10.0871544,11.1221814 C10.1767595,11.1309631 10.265562,11.1401877 10.3535246,11.1498455 L10.8709218,11.2129098 L11.3663674,11.2858904 C11.4470128,11.2988537 11.5266689,11.3122102 11.6052983,11.3259501 L12.0644561,11.4129092 C13.8494171,11.7785076 15,12.3534227 15,13 C15,13.6465773 13.8494171,14.2214924 12.0644561,14.5870908 L11.6052983,14.6740499 C11.5266689,14.6877898 11.4470128,14.7011463 11.3663674,14.7141096 L10.8709218,14.7870902 L10.3535246,14.8501545 L9.81596838,14.9028243 C9.72479532,14.9107098 9.63285699,14.9181424 9.54019072,14.9251119 L8.97575654,14.9612939 C8.88032788,14.9663717 8.78424596,14.9709667 8.68754812,14.9750688 L8.10026885,14.9936875 C7.90224459,14.9978693 7.7020554,15 7.5,15 C7.2979446,15 7.09775541,14.9978693 6.89973115,14.9936875 L6.31245188,14.9750688 C6.21575404,14.9709667 6.11967212,14.9663717 6.02424346,14.9612939 L5.45980928,14.9251119 L4.91284564,14.8778186 C4.82324049,14.8690369 4.73443795,14.8598123 4.64647538,14.8501545 L4.12907825,14.7870902 L3.63363259,14.7141096 C3.55298718,14.7011463 3.47333109,14.6877898 3.39470168,14.6740499 L2.93554394,14.5870908 C1.15058292,14.2214924 0,13.6465773 0,13 C0,12.3534227 1.15058292,11.7785076 2.93554394,11.4129092 L3.39470168,11.3259501 C3.47333109,11.3122102 3.55298718,11.2988537 3.63363259,11.2858904 L4.12907825,11.2129098 L4.64647538,11.1498455 L5.18403162,11.0971757 C5.27520468,11.0892902 5.36714301,11.0818576 5.45980928,11.0748881 L6.02424346,11.0387061 C6.11967212,11.0336283 6.21575404,11.0290333 6.31245188,11.0249312 L6.89973115,11.0063125 C6.99874328,11.0042216 7.09829664,11.0026435 7.1983539,11.0015881 L7.5,11 Z M7.5,12 C5.5656983,12 3.76120613,12.2035296 2.45436179,12.5520214 C2.00865595,12.6708763 1.63962019,12.8022732 1.3650848,12.9348594 L1.238,13 L1.3650848,13.0651406 C1.5938643,13.1756291 1.88826904,13.2852917 2.23798059,13.3875586 L2.45436179,13.4479786 C3.76120613,13.7964704 5.5656983,14 7.5,14 C9.4343017,14 11.2387939,13.7964704 12.5456382,13.4479786 C12.9913441,13.3291237 13.3603798,13.1977268 13.6349152,13.0651406 L13.761,13 L13.6349152,12.9348594 C13.4061357,12.8243709 13.111731,12.7147083 12.7620194,12.6124414 L12.5456382,12.5520214 C11.2387939,12.2035296 9.4343017,12 7.5,12 Z M9.66666667,0 C10.4950938,0 11.1666667,0.671572875 11.1666667,1.5 L11.1666667,1.5 L11.1666667,5.5 C11.1666667,6.16884238 10.7289107,6.73544136 10.1242796,6.92891612 L11.5418713,10 L3.97896201,10 L5.37756243,6.97216409 C4.68746914,6.83742376 4.16666667,6.22953185 4.16666667,5.5 L4.16666667,5.5 L4.16666667,1.5 C4.16666667,0.671572875 4.83823954,0 5.66666667,0 L5.66666667,0 Z M9.055,7 L6.465,7 L5.541,9 L9.979,9 L9.055,7 Z M9.66666667,1 L5.66666667,1 C5.39052429,1 5.16666667,1.22385763 5.16666667,1.5 L5.16666667,1.5 L5.16666667,5.5 C5.16666667,5.77614237 5.39052429,6 5.66666667,6 L5.66666667,6 L9.66666667,6 C9.94280904,6 10.1666667,5.77614237 10.1666667,5.5 L10.1666667,5.5 L10.1666667,1.5 C10.1666667,1.22385763 9.94280904,1 9.66666667,1 L9.66666667,1 Z"></path>
            </g>
        </g>
    </g>
</svg>