<?xml version="1.0" encoding="UTF-8"?>
<svg width="14px" height="14px" viewBox="0 0 14 14" version="1.1" xmlns="http://www.w3.org/2000/svg" xmlns:xlink="http://www.w3.org/1999/xlink">
    <title>Line/Check Circle</title>
    <g id="Page-1" stroke="none" stroke-width="1" fill="none" fill-rule="evenodd">
        <g id="Abstract" transform="translate(-90.000000, -91.000000)" fill="#000000">
            <g id="Shape" transform="translate(89.000000, 90.000000)">
                <path d="M10.1606979,4.96404743 C9.93486595,4.80512929 9.62296486,4.85937285 9.46404743,5.08520365 L6.64269066,9.09449959 L5.47973061,7.91001606 C5.2862668,7.71297216 4.96969795,7.71006966 4.77265358,7.90353298 C4.57560945,8.09699678 4.5727067,8.41356564 4.7661705,8.61061001 L6.34950352,10.2232475 C6.45346737,10.3291349 6.59909344,10.3833733 6.7469945,10.3712902 C6.89489508,10.3592081 7.02978754,10.2820549 7.11518717,10.1606979 L10.2818537,5.66069746 C10.4407721,5.43486643 10.386528,5.12296534 10.1606979,4.96404743 Z M1,7.62283039 C1,11.280489 3.96514606,14.2456617 7.62283182,14.2456617 C11.2804918,14.2456617 14.2456636,11.2804899 14.2456636,7.62283039 C14.2456636,3.96514463 11.2804909,1 7.62283182,1 C3.96514726,1 1,3.96514583 1,7.62283039 Z M7.62283182,1.9499985 C10.7558222,1.9499985 13.2956638,4.48981762 13.2956638,7.62283039 C13.2956638,10.7558193 10.7558212,13.2956619 7.62283182,13.2956619 C4.48981905,13.2956619 1.94999999,10.7558203 1.94999999,7.62283039 C1.94999999,4.48981643 4.48981786,1.9499985 7.62283182,1.9499985 Z"></path>
            </g>
        </g>
    </g>
</svg>