<?xml version="1.0" encoding="UTF-8"?>
<svg width="11px" height="9px" viewBox="0 0 11 9" version="1.1" xmlns="http://www.w3.org/2000/svg" xmlns:xlink="http://www.w3.org/1999/xlink">
    <title>Line/Chevron Double Left</title>
    <g id="Page-1" stroke="none" stroke-width="1" fill="none" fill-rule="evenodd">
        <g id="Arrows" transform="translate(-120.000000, -57.000000)" fill="#000000">
            <g id="Shape" transform="translate(118.000000, 54.000000)">
                <path d="M6.85355377,3.14644665 C6.65829182,2.95118448 6.34170914,2.95118445 6.14644718,3.14644662 L2.14644684,7.14644623 C1.95118441,7.34170818 1.95118439,7.65829086 2.14644681,7.85355282 L6.1464467,11.8535538 C6.34170866,12.0488157 6.65829134,12.0488157 6.8535533,11.8535538 C7.04881573,11.6582909 7.04881573,11.3417082 6.8535533,11.1464462 L3.20710671,7.5 L6.85355377,3.85355341 C7.0488162,3.65829128 7.0488162,3.34170879 6.85355377,3.14644665 Z M12.8535538,3.14644665 C12.6582909,2.95118448 12.3417091,2.95118445 12.1464462,3.14644662 L8.1464467,7.14644623 C7.95118427,7.34170818 7.95118427,7.65829086 8.1464467,7.85355282 L12.1464462,11.8535538 C12.3417082,12.0488157 12.6582909,12.0488157 12.8535528,11.8535538 C13.0488148,11.6582909 13.0488148,11.3417082 12.8535528,11.1464462 L9.20710659,7.5 L12.8535538,3.85355341 C13.0488157,3.65829128 13.0488157,3.34170879 12.8535538,3.14644665 Z"></path>
            </g>
        </g>
    </g>
</svg>