<?xml version="1.0" encoding="UTF-8"?>
<svg width="11px" height="9px" viewBox="0 0 11 9" version="1.1" xmlns="http://www.w3.org/2000/svg" xmlns:xlink="http://www.w3.org/1999/xlink">
    <title>Line/Chevron Double Right</title>
    <g id="Page-1" stroke="none" stroke-width="1" fill="none" fill-rule="evenodd">
        <g id="Arrows" transform="translate(-91.000000, -57.000000)" fill="#000000">
            <g id="Shape" transform="translate(89.000000, 54.000000)">
                <path d="M2.14644699,11.8535538 C2.34170914,12.0488157 2.65829164,12.0488157 2.85355377,11.8535538 L6.8535533,7.85355377 C7.04881573,7.65829182 7.04881573,7.34170914 6.8535533,7.14644718 L2.85355335,3.14644645 C2.65829122,2.9511845 2.34170872,2.95118453 2.1464466,3.14644648 C1.95118445,3.34170941 1.95118447,3.65829158 2.14644665,3.85355353 L5.79289365,7.5 L2.14644696,11.1464462 C1.95118479,11.3417091 1.95118482,11.6582909 2.14644699,11.8535538 Z M8.14644718,11.8535538 C8.34170914,12.0488157 8.65829182,12.0488157 8.85355377,11.8535538 L12.8535538,7.85355377 C13.0488157,7.65829182 13.0488157,7.34170914 12.8535538,7.14644718 L8.8535533,3.14644645 C8.65829134,2.9511845 8.34170866,2.95118453 8.1464467,3.14644648 C7.95118475,3.34170941 7.95118475,3.65829158 8.1464467,3.85355353 L11.7928934,7.5 L8.14644718,11.1464462 C7.95118475,11.3417091 7.95118475,11.6582909 8.14644718,11.8535538 Z"></path>
            </g>
        </g>
    </g>
</svg>