<?xml version="1.0" encoding="UTF-8"?>
<svg width="9px" height="11px" viewBox="0 0 9 11" version="1.1" xmlns="http://www.w3.org/2000/svg" xmlns:xlink="http://www.w3.org/1999/xlink">
    <title>Line/Chevron Double Bottom</title>
    <g id="Page-1" stroke="none" stroke-width="1" fill="none" fill-rule="evenodd">
        <g id="Arrows" transform="translate(-32.000000, -56.000000)" fill="#000000">
            <g id="Shape" transform="translate(29.000000, 54.000000)">
                <path d="M3.14644662,2.14644662 C2.95118446,2.34170876 2.95118446,2.65829129 3.14644662,2.85355336 L7.14644671,6.8535533 C7.34170867,7.04881573 7.65829135,7.04881573 7.8535533,6.8535533 L11.8535538,2.85355336 C12.0488157,2.65829129 12.0488157,2.34170876 11.8535538,2.14644662 C11.6582909,1.95118446 11.3417082,1.95118446 11.1464462,2.14644662 L7.50000001,5.79289342 L3.85355336,2.14644662 C3.65829129,1.95118446 3.34170876,1.95118446 3.14644662,2.14644662 Z M3.14644662,8.14644671 C2.95118446,8.34170867 2.95118446,8.65829135 3.14644662,8.8535533 L7.14644671,12.8535538 C7.34170867,13.0488157 7.65829135,13.0488157 7.8535533,12.8535538 L11.8535538,8.8535533 C12.0488157,8.65829135 12.0488157,8.34170867 11.8535538,8.14644671 C11.6582909,7.95118428 11.3417082,7.95118428 11.1464462,8.14644671 L7.50000001,11.7928934 L3.85355336,8.14644671 C3.65829129,7.95118428 3.34170876,7.95118428 3.14644662,8.14644671 Z"></path>
            </g>
        </g>
    </g>
</svg>