<?xml version="1.0" encoding="UTF-8"?>
<svg width="9px" height="11px" viewBox="0 0 9 11" version="1.1" xmlns="http://www.w3.org/2000/svg" xmlns:xlink="http://www.w3.org/1999/xlink">
    <title>Line/Chevron Double Top</title>
    <g id="Page-1" stroke="none" stroke-width="1" fill="none" fill-rule="evenodd">
        <g id="Arrows" transform="translate(-62.000000, -56.000000)" fill="#000000">
            <g id="Shape" transform="translate(59.000000, 54.000000)">
                <path d="M11.8535538,6.85355377 C12.0488157,6.65829182 12.0488157,6.34170914 11.8535538,6.14644718 L7.85355377,2.14644687 C7.65829182,1.95118441 7.34170914,1.95118439 7.14644718,2.14644679 L3.1464465,6.14644623 C2.95118453,6.34170866 2.9511845,6.65829086 3.14644644,6.8535533 C3.34170932,7.04881525 3.65829152,7.04881525 3.85355347,6.8535533 L7.5,3.20710671 L11.1464462,6.85355377 C11.3417091,7.0488162 11.6582909,7.0488162 11.8535538,6.85355377 Z M11.8535538,12.8535547 C12.0488157,12.6582918 12.0488157,12.3417101 11.8535538,12.1464472 L7.85355377,8.14644718 C7.65829182,7.95118475 7.34170914,7.95118475 7.14644718,8.14644718 L3.1464465,12.1464472 C2.95118453,12.3417091 2.9511845,12.6582918 3.14644644,12.8535538 C3.34170932,13.0488157 3.65829152,13.0488157 3.85355347,12.8535538 L7.5,9.20710707 L11.1464462,12.8535547 C11.3417091,13.0488167 11.6582909,13.0488167 11.8535538,12.8535547 Z"></path>
            </g>
        </g>
    </g>
</svg>