<?xml version="1.0" encoding="UTF-8"?>
<svg width="14px" height="14px" viewBox="0 0 14 14" version="1.1" xmlns="http://www.w3.org/2000/svg" xmlns:xlink="http://www.w3.org/1999/xlink">
    <title>Line/Circle Slash</title>
    <g id="Page-1" stroke="none" stroke-width="1" fill="none" fill-rule="evenodd">
        <g id="Abstract" transform="translate(-179.000000, -55.000000)" fill="#000000">
            <g id="Shape" transform="translate(178.000000, 54.000000)">
                <path d="M1,7.62283182 C1,11.2804909 3.96514606,14.2456636 7.62283182,14.2456636 C11.2804918,14.2456636 14.2456636,11.2804918 14.2456636,7.62283182 C14.2456636,3.96514606 11.2804909,1 7.62283182,1 C3.96514726,1 1,3.96514726 1,7.62283182 Z M7.62283182,1.94999999 C10.7558222,1.94999999 13.2956638,4.48981905 13.2956638,7.62283182 C13.2956638,9.00930595 12.7982559,10.2796173 11.9721565,11.265049 L3.98060536,3.27349806 C4.96603513,2.4474026 6.2363472,1.94999999 7.62283182,1.94999999 Z M1.94999999,7.62283182 C1.94999999,10.7558222 4.48981905,13.2956638 7.62283182,13.2956638 C9.00930595,13.2956638 10.2796173,12.7982559 11.265049,11.9721565 L3.2734983,3.98060513 C2.4474026,4.96603489 1.94999999,6.2363472 1.94999999,7.62283182 Z"></path>
            </g>
        </g>
    </g>
</svg>