<?xml version="1.0" encoding="UTF-8"?>
<svg width="14px" height="14px" viewBox="0 0 14 14" version="1.1" xmlns="http://www.w3.org/2000/svg" xmlns:xlink="http://www.w3.org/1999/xlink">
    <title>Line/Circle Size-16px</title>
    <g id="Page-1" stroke="none" stroke-width="1" fill="none" fill-rule="evenodd">
        <g id="Arrows" transform="translate(-179.000000, -91.000000)">
            <g id="Shape" transform="translate(178.000000, 90.000000)">
                <path d="M1,7.62283039 C1,11.280489 3.96514606,14.2456617 7.62283182,14.2456617 C11.2804918,14.2456617 14.2456636,11.2804899 14.2456636,7.62283039 C14.2456636,3.96514463 11.2804909,1 7.62283182,1 C3.96514726,1 1,3.96514583 1,7.62283039 Z M7.62283182,1.9499985 C10.7558222,1.9499985 13.2956638,4.48981762 13.2956638,7.62283039 C13.2956638,10.7558193 10.7558212,13.2956619 7.62283182,13.2956619 C4.48981905,13.2956619 1.94999999,10.7558203 1.94999999,7.62283039 C1.94999999,4.48981643 4.48981786,1.9499985 7.62283182,1.9499985 Z" fill="#7F7F7F"></path>
                <path d="M5.79566198,5.56243716 L4.04930709,7.32359163 L11.3792642,7.36596399 L9.63290919,5.60480951 C9.45569695,5.426095 9.45569695,5.13634152 9.63290919,4.95762701 C9.8101224,4.77891252 10.0974403,4.77891252 10.2746535,4.95762701 L12.795662,7.5 C12.9728742,7.67871452 12.9728742,7.96846777 12.795662,8.14718229 L10.2746535,10.6895551 C10.0974403,10.8682697 9.8101224,10.8682697 9.63290919,10.6895551 C9.45569695,10.5108406 9.45569695,10.2210869 9.63290919,10.0423724 L11.3792642,8.28121878 L4.04930709,8.23884595 L5.79566198,10 C5.9728747,10.1787145 5.9728747,10.4684683 5.79566198,10.6471828 C5.61844925,10.8258973 5.33113089,10.8258973 5.15391816,10.6471828 L2.63290952,8.10480994 C2.45569683,7.92609541 2.45569683,7.63634217 2.63290952,7.45762764 L5.15391816,4.91525465 C5.33113089,4.73654016 5.61844925,4.73654016 5.79566198,4.91525465 C5.9728747,5.09396916 5.9728747,5.38372265 5.79566198,5.56243716 Z" fill="#000000" fill-rule="nonzero"></path>
            </g>
        </g>
    </g>
</svg>