<?xml version="1.0" encoding="UTF-8" standalone="no"?>
<svg
   width="9px"
   height="9px"
   viewBox="0 0 9 9"
   version="1.1"
   id="svg9"
   sodipodi:docname="Close Fds.svg"
   inkscape:version="1.1.1 (3bf5ae0d25, 2021-09-20)"
   xmlns:inkscape="http://www.inkscape.org/namespaces/inkscape"
   xmlns:sodipodi="http://sodipodi.sourceforge.net/DTD/sodipodi-0.dtd"
   xmlns="http://www.w3.org/2000/svg"
   xmlns:svg="http://www.w3.org/2000/svg"
   xmlns:rdf="http://www.w3.org/1999/02/22-rdf-syntax-ns#"
   xmlns:cc="http://creativecommons.org/ns#"
   xmlns:dc="http://purl.org/dc/elements/1.1/">
  <defs
     id="defs13" />
  <sodipodi:namedview
     id="namedview11"
     pagecolor="#ffffff"
     bordercolor="#666666"
     borderopacity="1.0"
     inkscape:pageshadow="2"
     inkscape:pageopacity="0.0"
     inkscape:pagecheckerboard="0"
     showgrid="false"
     inkscape:snap-page="false"
     inkscape:zoom="79.888889"
     inkscape:cx="4.4937413"
     inkscape:cy="4.5"
     inkscape:window-width="1920"
     inkscape:window-height="1017"
     inkscape:window-x="-8"
     inkscape:window-y="-8"
     inkscape:window-maximized="1"
     inkscape:current-layer="Shape" />
  <title
     id="title2">Line/Close</title>
  <g
     id="Page-1"
     stroke="none"
     stroke-width="1"
     fill="none"
     fill-rule="evenodd">
    <g
       id="Abstract"
       fill="#000000"
       fill-rule="nonzero">
      <g
         id="Shape">
        <path
           d="m 8.8497914,0.19116822 c -0.2270742,-0.22707452 -0.5952348,-0.22707452 -0.8223096,0 L 4.5200969,3.698553 1.0127125,0.19116834 c -0.22707452,-0.22707452 -0.59523506,-0.22707452 -0.82230959,0 -0.22707452,0.22707457 -0.22707452,0.59523507 0,0.82230956 L 3.6977875,4.5208623 0.19040279,8.0282472 c -0.22707452,0.2270748 -0.22707452,0.5952354 0,0.8223096 0.22707453,0.2270743 0.59523499,0.2270743 0.82230951,0 L 4.5200969,5.343172 8.0274823,8.8505568 c 0.2270743,0.2270743 0.5952349,0.2270743 0.8223091,0 0.2270743,-0.2270742 0.2270743,-0.5952348 0,-0.8223091 L 5.3424065,4.5208623 8.8497914,1.0134778 c 0.2270743,-0.22707449 0.2270743,-0.59523509 0,-0.82230958 z"
           id="path4" />
      </g>
    </g>
  </g>
  <metadata
     id="metadata15">
    <rdf:RDF>
      <cc:Work
         rdf:about="">
        <dc:title>Line/Close</dc:title>
      </cc:Work>
    </rdf:RDF>
  </metadata>
</svg>
