<?xml version="1.0" encoding="UTF-8" standalone="no"?>
<svg
   width="13px"
   height="10px"
   viewBox="0 0 13 10"
   version="1.1"
   id="svg9"
   sodipodi:docname="Cloud Tools Fds.svg"
   inkscape:version="1.1.1 (3bf5ae0d25, 2021-09-20)"
   xmlns:inkscape="http://www.inkscape.org/namespaces/inkscape"
   xmlns:sodipodi="http://sodipodi.sourceforge.net/DTD/sodipodi-0.dtd"
   xmlns="http://www.w3.org/2000/svg"
   xmlns:svg="http://www.w3.org/2000/svg"
   xmlns:rdf="http://www.w3.org/1999/02/22-rdf-syntax-ns#"
   xmlns:cc="http://creativecommons.org/ns#"
   xmlns:dc="http://purl.org/dc/elements/1.1/">
  <defs
     id="defs13" />
  <sodipodi:namedview
     id="namedview11"
     pagecolor="#ffffff"
     bordercolor="#666666"
     borderopacity="1.0"
     inkscape:pageshadow="2"
     inkscape:pageopacity="0.0"
     inkscape:pagecheckerboard="0"
     showgrid="false"
     inkscape:zoom="71.9"
     inkscape:cx="6.5020862"
     inkscape:cy="5"
     inkscape:window-width="2560"
     inkscape:window-height="1377"
     inkscape:window-x="-8"
     inkscape:window-y="-8"
     inkscape:window-maximized="1"
     inkscape:current-layer="svg9" />
  <title
     id="title2">Line/Cloud Tools</title>
  <path
     id="Combined-Shape"
     style="fill:#000000;fill-rule:nonzero;stroke:none;stroke-width:1"
     d="M 10.957031 0.41210938 C 10.08248 0.41210938 9.3730469 1.1215429 9.3730469 1.9960938 L 9.3769531 2.1015625 C 9.3792531 2.1362475 9.3822587 2.1707951 9.3867188 2.2050781 L 9.4042969 2.3046875 L 7.6269531 4.0800781 C 7.4208195 4.2862118 7.4208195 4.6200383 7.6269531 4.8261719 L 8.0585938 5.2578125 L 8.0996094 5.2949219 C 8.3069304 5.4640159 8.6114372 5.4510624 8.8046875 5.2578125 L 10.539062 3.5234375 L 10.636719 3.546875 C 10.741248 3.568358 10.848456 3.5800781 10.957031 3.5800781 C 11.831582 3.5800781 12.541016 2.8706445 12.541016 1.9960938 C 12.541016 1.822385 12.513354 1.6517678 12.458984 1.4902344 L 12.367188 1.2226562 L 11.759766 1.8300781 L 11.130859 1.8222656 L 11.123047 1.1933594 L 11.732422 0.5859375 L 11.462891 0.49609375 C 11.301207 0.44164165 11.130882 0.41210938 10.957031 0.41210938 z M 5.4238281 1.7675781 C 5.2833771 1.7675781 5.1392241 1.7783272 4.9765625 1.7988281 L 4.7832031 1.8261719 L 4.5839844 1.8671875 C 3.202532 2.1878738 2.0858497 3.2800995 1.7011719 4.6835938 L 1.671875 4.8007812 L 1.6347656 4.8125 L 1.4667969 4.8828125 C 0.58328948 5.283646 0 6.1840658 0 7.2148438 L 0.013671875 7.421875 L 0.015625 7.4375 L 0.01953125 7.4570312 C 0.09264125 8.7181972 1.1707143 9.7675781 2.4785156 9.7675781 L 10.607422 9.7675781 L 10.765625 9.7617188 C 12.015382 9.6779127 13 8.6049911 13 7.3046875 L 12.994141 7.1425781 L 12.980469 6.9882812 C 12.967599 6.8860526 12.949208 6.7866211 12.923828 6.6894531 C 12.651392 7.0083612 12.333921 7.2880974 11.984375 7.5214844 C 11.883983 8.2281704 11.300856 8.7675781 10.607422 8.7675781 L 2.4785156 8.7675781 L 2.34375 8.7617188 C 1.6768778 8.6974428 1.1272931 8.1615579 1.0214844 7.4609375 L 1 7.2148438 L 1.0058594 7.0664062 C 1.0606095 6.435038 1.4650531 5.9164657 2.0371094 5.7324219 L 2.2109375 5.6875 L 2.53125 5.6152344 L 2.5996094 5.25 L 2.6367188 5.0664062 C 2.9194574 3.8555811 3.9128301 2.9345599 5.1074219 2.7890625 C 5.1868511 2.4310452 5.3074348 2.0883175 5.4667969 1.7675781 L 5.4238281 1.7675781 z " />
  <metadata
     id="metadata25">
    <rdf:RDF>
      <cc:Work
         rdf:about="">
        <dc:title>Line/Cloud Tools</dc:title>
      </cc:Work>
    </rdf:RDF>
  </metadata>
</svg>
