<?xml version="1.0" encoding="UTF-8" standalone="no"?>
<svg
   width="13px"
   height="9px"
   viewBox="0 0 13 9"
   version="1.1"
   id="svg9"
   sodipodi:docname="Cloud Fds.svg"
   inkscape:version="1.1.1 (3bf5ae0d25, 2021-09-20)"
   xmlns:inkscape="http://www.inkscape.org/namespaces/inkscape"
   xmlns:sodipodi="http://sodipodi.sourceforge.net/DTD/sodipodi-0.dtd"
   xmlns="http://www.w3.org/2000/svg"
   xmlns:svg="http://www.w3.org/2000/svg"
   xmlns:rdf="http://www.w3.org/1999/02/22-rdf-syntax-ns#"
   xmlns:cc="http://creativecommons.org/ns#"
   xmlns:dc="http://purl.org/dc/elements/1.1/">
  <defs
     id="defs13" />
  <sodipodi:namedview
     id="namedview11"
     pagecolor="#ffffff"
     bordercolor="#666666"
     borderopacity="1.0"
     inkscape:pageshadow="2"
     inkscape:pageopacity="0.0"
     inkscape:pagecheckerboard="0"
     showgrid="false"
     inkscape:zoom="128"
     inkscape:cx="3.6132812"
     inkscape:cy="2.6914062"
     inkscape:window-width="1920"
     inkscape:window-height="1017"
     inkscape:window-x="242"
     inkscape:window-y="1432"
     inkscape:window-maximized="1"
     inkscape:current-layer="svg9" />
  <title
     id="title2">Line/Cloud</title>
  <path
     style="color:#000000;fill:#000000;-inkscape-stroke:none"
     d="M 5.4238281,0.5 C 3.5238627,0.49834286 2.2470026,2.125255 1.7246094,3.5976563 1.7132354,3.6271476 1.6712221,3.6315121 1.6445284,3.64844 0.69359828,4.0222462 0,4.8818819 0,5.9472656 c 0,0.055535 0.00435702,0.095835 0.00585938,0.1171875 l -0.00195313,-0.00977 0.00390625,0.050781 v 0.00781 C 0.0908303,7.4396021 1.1685283,8.5 2.4785156,8.5 H 10.607422 C 11.931891,8.5 12.991043,7.4393407 13,6.0371094 13.008957,4.6348781 11.63116,3.8564921 10.888672,3.6933594 10.842985,3.6796967 10.837891,3.6126302 10.8125,3.5722656 10.110216,2.263318 8.8229521,2.2825456 8.5527344,2.2929688 7.4528919,0.88615267 6.6877088,0.51845615 5.4238281,0.5 Z M 0.0078125,6.1132812 v 0.00781 c -0.00289777,-0.026513 -0.00265907,0.00269 0.01171875,0.068359 z M 5.4238281,1.5 c 0.9989966,0 1.9465721,0.5567853 2.4648438,1.4648438 l 0.00195,0.00195 0.2246094,0.390625 C 9.63943,3.2594811 9.918661,3.8871756 10.1934,4.5722664 h 0.414063 C 11.368967,4.5722656 12,5.2153614 12,6.0371094 12,6.8581312 11.369155,7.5 10.607422,7.5 H 2.4785156 C 1.7080596,7.5 1.0576166,6.877673 1.0058594,6.0507812 v -0.00781 -0.00586 l -0.00195,-0.025391 V 6 L 1.0019594,5.99414 C 0.99999548,5.9663172 1,5.9514447 1,5.9472656 1,5.1875185 1.4812983,4.5796138 2.171875,4.4277344 h 0.00195 L 2.5312469,4.3476564 C 3.0027715,2.4105914 4.0367857,1.7133821 5.0996094,1.5234375 h 0.00195 v -0.00195 C 5.2292939,1.5053858 5.329579,1.5 5.4238281,1.5 Z"
     id="path4"
     sodipodi:nodetypes="cccsccccsszccccccccsccccssssccccccsccccccs" />
  <metadata
     id="metadata61">
    <rdf:RDF>
      <cc:Work
         rdf:about="">
        <dc:title>Line/Cloud</dc:title>
      </cc:Work>
    </rdf:RDF>
  </metadata>
</svg>
