<?xml version="1.0" encoding="UTF-8"?>
<svg width="15px" height="13px" viewBox="0 0 15 13" version="1.1" xmlns="http://www.w3.org/2000/svg" xmlns:xlink="http://www.w3.org/1999/xlink">
    <title>Line/Comment Empty</title>
    <g id="Page-1" stroke="none" stroke-width="1" fill="none" fill-rule="evenodd">
        <g id="Objects" transform="translate(-59.000000, -163.000000)" fill="#000000">
            <g id="Shape" transform="translate(59.000000, 162.000000)">
                <path d="M12.5,1 C13.8807087,1 15,2.11928654 15,3.5 L15,8.50002718 C15,9.88073826 13.8807125,11.0000277 12.5,11.0000277 L11,11.0000277 L11,13.5 C11,13.7022285 10.8781786,13.8845463 10.6913414,13.961937 C10.5045042,14.0393276 10.2894459,13.9965496 10.1464462,13.8535509 L7.29292345,11.0000277 L2.5,11.0000277 C1.11928797,11.0000277 0,9.88073921 0,8.50002718 L0,3.50002289 C0,2.11931324 1.11928463,1 2.5,1 L12.5,1 Z M2.5,2.00002289 C1.67157078,2.00002468 1,2.671597 1,3.50002289 L1,8.50002718 C1,9.32845497 1.67157304,10.0000277 2.5,10.0000277 L7.50003052,10.0000277 C7.63263893,10.0000277 7.75981569,10.0527058 7.85358381,10.1464739 L10,12.2928896 L10,10.5000277 C10,10.2238855 10.2238579,10.0000277 10.5,10.0000277 L12.5,10.0000277 C13.3284264,10.0000277 14,9.32845402 14,8.50002718 L14,3.5 C14,2.67157304 13.3284264,2 12.5,2 L2.5,2.00002289 Z"></path>
            </g>
        </g>
    </g>
</svg>