<?xml version="1.0" encoding="UTF-8" standalone="no"?>
<svg
   width="15px"
   height="13px"
   viewBox="0 0 15 13"
   version="1.1"
   id="svg10"
   sodipodi:docname="Comment Full Fds.svg"
   inkscape:version="1.1.1 (3bf5ae0d25, 2021-09-20)"
   xmlns:inkscape="http://www.inkscape.org/namespaces/inkscape"
   xmlns:sodipodi="http://sodipodi.sourceforge.net/DTD/sodipodi-0.dtd"
   xmlns="http://www.w3.org/2000/svg"
   xmlns:svg="http://www.w3.org/2000/svg"
   xmlns:rdf="http://www.w3.org/1999/02/22-rdf-syntax-ns#"
   xmlns:cc="http://creativecommons.org/ns#"
   xmlns:dc="http://purl.org/dc/elements/1.1/">
  <defs
     id="defs14" />
  <sodipodi:namedview
     id="namedview12"
     pagecolor="#ffffff"
     bordercolor="#666666"
     borderopacity="1.0"
     inkscape:pageshadow="2"
     inkscape:pageopacity="0.0"
     inkscape:pagecheckerboard="0"
     showgrid="false"
     inkscape:zoom="55.307692"
     inkscape:cx="7.4944367"
     inkscape:cy="5.0535466"
     inkscape:window-width="2560"
     inkscape:window-height="1377"
     inkscape:window-x="-8"
     inkscape:window-y="-8"
     inkscape:window-maximized="1"
     inkscape:current-layer="svg10" />
  <title
     id="title2">Line/Comment Full</title>
  <path
     id="Shape"
     style="fill:#000000;fill-rule:evenodd;stroke:none;stroke-width:1"
     d="M 2.5 0 C 1.1192846 2.9605947e-16 0 1.1192903 0 2.5 L 0 7.5 C 0 8.880712 1.119288 10 2.5 10 L 7.2929688 10 L 10.146484 12.853516 C 10.289484 12.996512 10.504569 13.040281 10.691406 12.962891 C 10.878244 12.8855 11 12.702229 11 12.5 L 11 10 L 12.5 10 C 13.880713 10 15 8.8807111 15 7.5 L 15 2.5 C 15 1.1192865 13.880709 0 12.5 0 L 2.5 0 z M 2.5 1 L 12.5 1 C 13.328426 1 14 1.671573 14 2.5 L 14 7.5 C 14 8.3284268 13.328426 9 12.5 9 L 10.5 9 C 10.223858 9 10 9.223858 10 9.5 L 10 11.292969 L 7.8535156 9.1464844 C 7.7597475 9.0527184 7.6326084 9 7.5 9 L 2.5 9 C 1.671573 9 1 8.3284278 1 7.5 L 1 2.5 C 1 1.6715741 1.6715708 1.0000018 2.5 1 z M 3 3 L 3 4 L 12 4 L 12 3 L 3 3 z M 3 6 L 3 7 L 7 7 L 7 6 L 3 6 z " />
  <metadata
     id="metadata47">
    <rdf:RDF>
      <cc:Work
         rdf:about="">
        <dc:title>Line/Comment Full</dc:title>
      </cc:Work>
    </rdf:RDF>
  </metadata>
</svg>
