<?xml version="1.0" encoding="UTF-8" standalone="no"?>
<svg
   width="13px"
   height="13px"
   viewBox="0 0 13 13"
   version="1.1"
   id="svg10"
   sodipodi:docname="Command Line Fds.svg"
   inkscape:version="1.1.1 (3bf5ae0d25, 2021-09-20)"
   xmlns:inkscape="http://www.inkscape.org/namespaces/inkscape"
   xmlns:sodipodi="http://sodipodi.sourceforge.net/DTD/sodipodi-0.dtd"
   xmlns="http://www.w3.org/2000/svg"
   xmlns:svg="http://www.w3.org/2000/svg"
   xmlns:rdf="http://www.w3.org/1999/02/22-rdf-syntax-ns#"
   xmlns:cc="http://creativecommons.org/ns#"
   xmlns:dc="http://purl.org/dc/elements/1.1/">
  <defs
     id="defs14" />
  <sodipodi:namedview
     id="namedview12"
     pagecolor="#ffffff"
     bordercolor="#666666"
     borderopacity="1.0"
     inkscape:pageshadow="2"
     inkscape:pageopacity="0.0"
     inkscape:pagecheckerboard="0"
     showgrid="false"
     inkscape:zoom="55.307692"
     inkscape:cx="3.4262865"
     inkscape:cy="7.9464534"
     inkscape:window-width="2560"
     inkscape:window-height="1377"
     inkscape:window-x="-8"
     inkscape:window-y="-8"
     inkscape:window-maximized="1"
     inkscape:current-layer="svg10" />
  <title
     id="title2">Line/Command Line</title>
  <path
     id="Rectangle"
     style="color:#000000;fill:#000000;fill-rule:evenodd;-inkscape-stroke:none"
     d="M 2 0 C 0.90064972 0 0 0.90064972 0 2 L 0 11 C 0 12.09935 0.90064972 13 2 13 L 11 13 C 12.09935 13 13 12.09935 13 11 L 13 2 C 13 0.90064972 12.09935 0 11 0 L 2 0 z M 2 1 L 11 1 C 11.562648 1 12 1.4373519 12 2 L 12 11 C 12 11.562648 11.562648 12 11 12 L 2 12 C 1.4373519 12 1 11.562648 1 11 L 1 2 C 1 1.4373519 1.4373519 1 2 1 z M 3.3535156 3.6464844 L 2.6464844 4.3535156 L 4.2929688 6 L 2.6464844 7.6464844 L 3.3535156 8.3535156 L 5.7070312 6 L 3.3535156 3.6464844 z M 6.5 9 L 6.5 10 L 10.5 10 L 10.5 9 L 6.5 9 z " />
  <metadata
     id="metadata174">
    <rdf:RDF>
      <cc:Work
         rdf:about="">
        <dc:title>Line/Command Line</dc:title>
      </cc:Work>
    </rdf:RDF>
  </metadata>
</svg>
