<?xml version="1.0" encoding="UTF-8"?>
<svg width="13px" height="10px" viewBox="0 0 13 10" version="1.1" xmlns="http://www.w3.org/2000/svg" xmlns:xlink="http://www.w3.org/1999/xlink">
    <title>Line/Connection KO</title>
    <g id="Page-1" stroke="none" stroke-width="1" fill="none" fill-rule="evenodd">
        <g id="Abstract" transform="translate(-119.000000, -200.000000)" fill="#000000" fill-rule="nonzero">
            <g id="Combined-Shape" transform="translate(118.000000, 198.000000)">
                <path d="M6.42349045,3.76776695 L6.467665,3.76803061 C6.3083029,4.08876997 6.18622734,4.43074091 6.10679812,4.78875817 C4.91220632,4.93425557 3.91952724,5.85578352 3.63678849,7.0666086 L3.59976573,7.25034125 L3.53222207,7.61472379 L3.21081178,7.68732009 L3.0368468,7.73256454 C2.46478987,7.9166076 2.06110852,8.43510316 2.00635841,9.06647139 L2,9.21407456 L2.0216547,9.46029957 C2.12746336,10.1609197 2.67736325,10.6970183 3.34423551,10.7612939 L3.47907267,10.767767 L11.6079005,10.767767 C12.3013348,10.767767 12.8843409,10.2284708 12.984733,9.521785 C13.3342788,9.28839799 13.6505017,9.008022 13.9229376,8.68911394 C13.9483127,8.78628191 13.9674666,8.88639065 13.9803373,8.9886192 L13.9949232,9.14344927 L14,9.30481638 C14,10.6051204 13.0152053,11.6786959 11.7654481,11.7625015 L11.6079005,11.767767 L3.47907267,11.767767 C2.17127143,11.767767 1.09213614,10.7172696 1.01902606,9.45610411 L1.01545127,9.43652834 L1.01298803,9.42267435 L1,9.21407456 C1,8.18329669 1.58266259,7.2830767 2.46617002,6.8822432 L2.63528438,6.81302915 L2.672,6.80076695 L2.70175158,6.68452399 C3.08642936,5.28102974 4.2032793,4.18786533 5.58473166,3.86717905 L5.78383152,3.82667158 L5.97736417,3.79803583 C6.14002576,3.77753488 6.28303944,3.76776695 6.42349045,3.76776695 Z M9.51653855,2.08859116 L9.58578644,2.14644661 L11,3.56066017 L12.4142136,2.14644661 C12.6094757,1.95118446 12.9260582,1.95118446 13.1213203,2.14644661 C13.2948867,2.32001296 13.3141718,2.58943736 13.1791758,2.7843055 L13.1213203,2.85355339 L11.7071068,4.26776695 L13.1213203,5.68198052 C13.3165825,5.87724266 13.3165825,6.19382515 13.1213203,6.3890873 C12.947754,6.56265365 12.6783296,6.5819388 12.4834614,6.44694275 L12.4142136,6.3890873 L11,4.97487373 L9.58578644,6.3890873 C9.39052429,6.58434944 9.0739418,6.58434944 8.87867966,6.3890873 C8.7051133,6.21552094 8.68582815,5.94609654 8.82082421,5.7512284 L8.87867966,5.68198052 L10.2928932,4.26776695 L8.87867966,2.85355339 C8.68341751,2.65829124 8.68341751,2.34170876 8.87867966,2.14644661 C9.05224601,1.97288026 9.32167041,1.95359511 9.51653855,2.08859116 Z"></path>
            </g>
        </g>
    </g>
</svg>