<?xml version="1.0" encoding="UTF-8"?>
<svg width="13px" height="11px" viewBox="0 0 13 11" version="1.1" xmlns="http://www.w3.org/2000/svg" xmlns:xlink="http://www.w3.org/1999/xlink">
    <title>Line/Connection OK</title>
    <g id="Page-1" stroke="none" stroke-width="1" fill="none" fill-rule="evenodd">
        <g id="Abstract" transform="translate(-60.000000, -199.000000)" fill="#000000" fill-rule="nonzero">
            <g id="Combined-Shape" transform="translate(59.000000, 198.000000)">
                <path d="M6.42349045,3.5 L6.467665,3.50026366 C6.3083029,3.82100301 6.18622734,4.16297395 6.10679812,4.52099121 C4.91220632,4.66648862 3.91952724,5.58801657 3.63678849,6.79884165 L3.59976573,6.9825743 L3.53222207,7.34695684 L3.21081178,7.41955314 L3.0368468,7.46479759 C2.46478987,7.64884064 2.06110852,8.1673362 2.00635841,8.79870444 L2,8.9463076 L2.0216547,9.19253261 C2.12746336,9.89315273 2.67736325,10.4292514 3.34423551,10.4935269 L3.47907267,10.5 L11.6079005,10.5 C12.3013348,10.5 12.8843409,9.96070385 12.984733,9.25401804 C13.3342788,9.02063104 13.6505017,8.74025504 13.9229376,8.42134699 C13.9483127,8.51851496 13.9674666,8.61862369 13.9803373,8.72085224 L13.9949232,8.87568232 L14,9.03704943 C14,10.3373534 13.0152053,11.410929 11.7654481,11.4947346 L11.6079005,11.5 L3.47907267,11.5 C2.17127143,11.5 1.09213614,10.4495026 1.01902606,9.18833716 L1.01545127,9.16876138 L1.01298803,9.1549074 L1,8.9463076 C1,7.91552974 1.58266259,7.01530975 2.46617002,6.61447625 L2.63528438,6.5452622 L2.672,6.533 L2.70175158,6.41675703 C3.08642936,5.01326279 4.2032793,3.92009838 5.58473166,3.59941209 L5.78383152,3.55890462 L5.97736417,3.53026887 C6.14002576,3.50976792 6.28303944,3.5 6.42349045,3.5 Z M13.7941539,1.07894034 C14.0042634,1.22518282 14.0632232,1.5250521 13.9258437,1.74871712 L10.8349632,6.78092605 C10.7621217,6.8995178 10.6441099,6.97816267 10.5120766,6.99610277 C10.3800432,7.0140425 10.2472578,6.96947484 10.1487684,6.87416237 L8.14878691,4.93869743 C7.96303518,4.75893798 7.94934596,4.45291765 8.11821116,4.25518211 C8.28707639,4.05744638 8.57455026,4.04287395 8.76030201,4.22263358 L10.3658246,5.77636427 L13.1649691,1.21912617 C13.3023486,0.99546117 13.5840441,0.93269781 13.7941539,1.07894034 Z"></path>
            </g>
        </g>
    </g>
</svg>