<?xml version="1.0" encoding="UTF-8"?>
<svg width="13px" height="13px" viewBox="0 0 13 13" version="1.1" xmlns="http://www.w3.org/2000/svg" xmlns:xlink="http://www.w3.org/1999/xlink">
    <title>Line/Copy</title>
    <g id="Page-1" stroke="none" stroke-width="1" fill="none" fill-rule="evenodd">
        <g id="Objects" transform="translate(-90.000000, -199.000000)" fill="#000000">
            <g id="Shape" transform="translate(89.000000, 198.000000)">
                <path d="M2.5,11 L4,11 L4,10 L2.5,10 C2.223858,10 2,9.77614212 2,9.5 L2,2.5 C2,2.22385788 2.22385752,2 2.5,2 L9.5,2 C9.77614212,2 10,2.22385752 10,2.5 L10,3.99995947 L5.5,3.99995947 C4.67157531,3.99995947 4,4.67153215 4,5.49995947 L4,12.4999599 C4,13.3283863 4.67157507,13.9999599 5.5,13.9999599 L12.5,13.9999599 C13.3284302,13.9999599 14,13.3283863 14,12.4999599 L14,5.49995947 C14,4.67153239 13.3284302,3.99995947 12.5,3.99995947 L11,3.99995947 L11,2.5 C11,1.67157227 10.3284273,1 9.5,1 L2.5,1 C1.67157286,1 1,1.67157269 1,2.5 L1,9.5 C1,10.3284273 1.67157316,11 2.5,11 Z M5.5,4.99995947 L12.5,4.99995947 C12.776144,4.99995947 13,5.22381687 13,5.49995947 L13,12.4999599 C13,12.7761021 12.776144,12.9999599 12.5,12.9999599 L5.5,12.9999599 C5.22385979,12.9999599 5,12.7761021 5,12.4999599 L5,5.49995947 C5,5.22381687 5.22385979,4.99995947 5.5,4.99995947 Z"></path>
            </g>
        </g>
    </g>
</svg>