<?xml version="1.0" encoding="UTF-8"?>
<svg width="14px" height="14px" viewBox="0 0 14 14" version="1.1" xmlns="http://www.w3.org/2000/svg" xmlns:xlink="http://www.w3.org/1999/xlink">
    <title>Line/Counter Clockwise</title>
    <g id="Page-1" stroke="none" stroke-width="1" fill="none" fill-rule="evenodd">
        <g id="Objects" transform="translate(-179.000000, -199.000000)" fill="#000000">
            <g id="Shape" transform="translate(178.000000, 198.000000)">
                <path d="M7.50002432,2 C4.72167468,2 3.34848595,4.05642343 2.76334667,5.15002441 L4.5,5.15002441 C4.77614236,5.15002441 5,5.37388229 5,5.65002441 C5,5.92616653 4.77614236,6.15002441 4.5,6.15002441 L1.5,6.15002441 C1.22385764,6.15002441 1,5.92616653 1,5.65002441 L1,2.65002441 C1,2.37388206 1.22385764,2.15002441 1.5,2.15002441 C1.77614236,2.15002441 2,2.37388206 2,2.65002441 L2,4.4632051 C2.7045275,3.2212801 4.33405852,1 7.50002432,1 C11.5628443,1 14.1500244,4.33539939 14.1500244,7.6500001 C14.1500244,10.9646006 11.5628443,14.3000002 7.50002432,14.3000002 C5.55618382,14.3000002 3.93778038,13.5308733 2.78548241,12.3584061 C2.16851902,11.7306433 1.68667507,10.9889936 1.35815525,10.1907463 C1.25306034,9.93538475 1.37487602,9.64317703 1.63023853,9.53808212 C1.88560009,9.43298721 2.17780781,9.55480289 2.28290272,9.81016541 C2.56373692,10.4925451 2.97494793,11.1245441 3.49869728,11.6574612 C4.47051525,12.6462889 5.83496475,13.3000002 7.50002432,13.3000002 C10.9402046,13.3000002 13.1500244,10.4853992 13.1500244,7.6500001 C13.1500244,4.81460071 10.9402046,2 7.50002432,2 Z M8,4.650038 L8,7.44293118 L9.85355282,9.29648495 C10.0488148,9.4917469 10.0488148,9.80832958 9.85355282,10.0035915 C9.65829086,10.1988535 9.34170818,10.1988535 9.14644623,10.0035915 L7.14644623,8.00359154 C7.05267811,7.90982342 7,7.78264618 7,7.65003777 L7,4.650038 C7,4.37389565 7.22385693,4.150038 7.5,4.150038 C7.77614212,4.150038 8,4.37389565 8,4.650038 Z"></path>
            </g>
        </g>
    </g>
</svg>