<?xml version="1.0" encoding="UTF-8"?>
<svg width="13px" height="14px" viewBox="0 0 13 14" version="1.1" xmlns="http://www.w3.org/2000/svg" xmlns:xlink="http://www.w3.org/1999/xlink">
    <title>Line/Cube</title>
    <g id="Page-1" stroke="none" stroke-width="1" fill="none" fill-rule="evenodd">
        <g id="Objects" transform="translate(-179.000000, -271.000000)" fill="#000000">
            <g id="Shape" transform="translate(178.000000, 270.000000)">
                <path d="M7.71144295,1.04690844 L13.7114429,3.84690857 C13.8874798,3.92905927 14,4.10573792 14,4.30000019 L14,11.2000008 C14,11.3942633 13.8874798,11.5709419 13.7114429,11.6530924 L7.71144247,14.4530916 C7.5774188,14.5156364 7.4225812,14.5156364 7.28855753,14.4530916 L1.28855732,11.6530924 C1.11252007,11.5709419 1,11.3942633 1,11.2000008 L1,4.30000019 C1,4.10573792 1.11252004,3.92905927 1.28855726,3.84690857 L7.28855705,1.04690844 C7.4225812,0.984363854 7.5774188,0.984363854 7.71144295,1.04690844 Z M7,7.18078327 L7,13.2149019 L2,10.8815689 L2,5.05578327 L7,7.18078327 Z M13,10.8815689 L13,5.05578327 L8,7.18078327 L8,13.2149019 L13,10.8815689 Z M12.2719088,4.27865601 L7.5,2.05176497 L2.72809088,4.27865601 L7.5,6.3067174 L12.2719088,4.27865601 Z"></path>
            </g>
        </g>
    </g>
</svg>