<?xml version="1.0" encoding="UTF-8"?>
<svg width="13px" height="12px" viewBox="0 0 13 12" version="1.1" xmlns="http://www.w3.org/2000/svg" xmlns:xlink="http://www.w3.org/1999/xlink">
    <title>Line/Cut</title>
    <g id="Page-1" stroke="none" stroke-width="1" fill="none" fill-rule="evenodd">
        <g id="Objects" transform="translate(-60.000000, -200.000000)" fill="#000000" fill-rule="nonzero">
            <g id="Combined-Shape" transform="translate(59.000000, 198.000000)">
                <path d="M4,2 C5.38071187,2 6.5,3.11928813 6.5,4.5 C6.5,4.74103023 6.46589023,4.9740937 6.40223446,5.19462663 L8.435,7.228 L13.1725347,3.12215546 L13.2457287,3.06938074 C13.4497197,2.94861154 13.7170854,2.98704337 13.8778445,3.17253473 C14.0586986,3.38121251 14.036143,3.69699047 13.8274653,3.87784454 L13.8274653,3.87784454 L9.143,7.936 L13.3535534,12.1464466 L13.4114088,12.2156945 C13.5464049,12.4105626 13.5271197,12.679987 13.3535534,12.8535534 C13.1582912,13.0488155 12.8417088,13.0488155 12.6464466,12.8535534 L12.6464466,12.8535534 L8.386,8.593 L6.32746527,10.3778445 L6.25887499,10.4274303 C6.41347941,10.7524544 6.5,11.1161232 6.5,11.5 C6.5,12.8807119 5.38071187,14 4,14 C2.61928813,14 1.5,12.8807119 1.5,11.5 C1.5,10.1192881 2.61928813,9 4,9 C4.63824907,9 5.22063578,9.23917521 5.66242177,9.63278727 L5.67253473,9.62215546 L7.677,7.884 L5.90838973,6.11502678 C5.44980856,6.65636472 4.76503444,7 4,7 C2.61928813,7 1.5,5.88071187 1.5,4.5 C1.5,3.11928813 2.61928813,2 4,2 Z M4,10 C3.17157288,10 2.5,10.6715729 2.5,11.5 C2.5,12.3284271 3.17157288,13 4,13 C4.82842712,13 5.5,12.3284271 5.5,11.5 C5.5,10.6715729 4.82842712,10 4,10 Z M4,3 C3.17157288,3 2.5,3.67157288 2.5,4.5 C2.5,5.32842712 3.17157288,6 4,6 C4.82842712,6 5.5,5.32842712 5.5,4.5 C5.5,3.67157288 4.82842712,3 4,3 Z"></path>
            </g>
        </g>
    </g>
</svg>