<?xml version="1.0" encoding="UTF-8"?>
<svg width="11px" height="13px" viewBox="0 0 11 13" version="1.1" xmlns="http://www.w3.org/2000/svg" xmlns:xlink="http://www.w3.org/1999/xlink">
    <title>Line/Database</title>
    <g id="Page-1" stroke="none" stroke-width="1" fill="none" fill-rule="evenodd">
        <g id="Objects" transform="translate(-61.000000, -307.000000)" fill="#000000" fill-rule="nonzero">
            <g id="Combined-Shape" transform="translate(59.000000, 306.000000)">
                <path d="M7.5,14 C4.85764738,14 2.63829635,12.9125851 2.50621663,11.414368 L2.5,11.2727273 L2.5,3.09090909 L2.51391011,3.09050349 C2.70735865,1.83530674 4.8934913,1 7.50045887,1 C10.0909783,1 12.2659565,1.8247996 12.4823254,3.09028793 L12.5,3.09090909 L12.5,11.2727273 L12.5,11.2727273 C12.5,12.8435597 10.2249261,14 7.5,14 Z M7.5,8.54545455 C5.87988904,8.54545455 4.41879742,8.13666172 3.50033141,7.4750321 L3.5,8.559 L3.50620634,8.64406291 C3.62157473,9.56164359 5.33179914,10.3929619 7.5,10.3929619 C9.66820086,10.3929619 11.3784253,9.56164359 11.4937937,8.64406291 L11.5,8.54545455 L11.5,8.545 L11.5015747,7.47365805 C10.5832249,8.1360957 9.1212322,8.54545455 7.5,8.54545455 Z M3.4993013,4.66655644 L3.5,5.832 L3.50620634,5.91679018 C3.62157473,6.83437086 5.33179914,7.66568915 7.5,7.66568915 C9.66820086,7.66568915 11.3784253,6.83437086 11.4937937,5.91679018 L11.5,5.81818182 L11.5,5.818 L11.5019613,4.6724528 C10.6332276,5.19193323 9.27820854,5.50992443 7.76093638,5.54265378 L7.50045887,5.54545455 C5.87904848,5.54545455 4.41817005,5.22172152 3.4993013,4.66655644 Z M7.50045892,1.90909091 C5.26107746,1.90909091 3.50091784,2.62034812 3.5,3.24519669 L3.5,3.24519669 L3.50391599,3.31758816 C3.59085337,3.96726351 5.33313133,4.63636364 7.50045892,4.63636364 C9.66778651,4.63636364 11.4100645,3.96726351 11.4942601,3.34495524 L11.4942601,3.34495524 L11.5,3.27272727 C11.5,2.62034812 9.73984037,1.90909091 7.50045892,1.90909091 Z M11.5,11.2727273 L11.5015747,10.2009308 C10.5832249,10.8633684 9.1212322,11.2727273 7.5,11.2727273 C5.87988904,11.2727273 4.41879742,10.8639344 3.50033141,10.2023048 L3.5,11.2727273 L3.5,11.2727273 C3.5,12.2284761 5.25436339,13.1202346 7.5,13.1202346 C9.66820086,13.1202346 11.3784253,12.2889163 11.4937937,11.3713356 L11.5,11.2727273 L11.5,11.2727273 Z"></path>
            </g>
        </g>
    </g>
</svg>