<?xml version="1.0" encoding="UTF-8"?>
<svg width="32px" height="16px" viewBox="0 0 32 16" version="1.1" xmlns="http://www.w3.org/2000/svg" xmlns:xlink="http://www.w3.org/1999/xlink">
    <title>Line/Ellipse Big Size-32px</title>
    <g id="Page-1" stroke="none" stroke-width="1" fill="none" fill-rule="evenodd">
        <g id="32x32px" transform="translate(-29.000000, -26.000000)" fill="#000000" fill-rule="nonzero">
            <g id="Combined-Shape" transform="translate(29.000000, 18.000000)">
                <path d="M16,8 C24.836556,8 32,11.581722 32,16 C32,20.418278 24.836556,24 16,24 C7.163444,24 0,20.418278 0,16 C0,11.581722 7.163444,8 16,8 Z M16,9 C7.64486797,9 1,12.322434 1,16 C1,19.677566 7.64486797,23 16,23 C24.355132,23 31,19.677566 31,16 C31,12.322434 24.355132,9 16,9 Z M27.5574294,13.1340359 L30,15.6764089 C30.1716985,15.8551234 30.1716985,16.1448766 30,16.3235912 L27.5574294,18.865964 C27.3857299,19.0446785 27.1073516,19.0446785 26.9356521,18.865964 C26.7639536,18.6872495 26.7639536,18.3974957 26.9356521,18.2187812 C27.2579415,17.8833233 27.5111689,17.6197492 27.6953343,17.428059 L27.7816618,17.3382042 C27.969664,17.1425203 28.2516672,16.8489947 28.6276716,16.4576272 L3.30798065,16.5624371 L5,18.3235912 C5.17169899,18.5023057 5.17169899,18.7920594 5,18.9707739 C4.82830101,19.1494885 4.54992219,19.1494885 4.3782232,18.9707739 L1.93565243,16.4284011 C1.76395347,16.2496866 1.76395347,15.9599333 1.93565243,15.7812188 L4.3782232,13.2388458 C4.54992219,13.0601313 4.82830101,13.0601313 5,13.2388458 C5.17169899,13.4175603 5.17169899,13.7073138 5,13.8860283 L3.30798065,15.6471828 L28.6276716,15.5423728 L26.9356521,13.7812184 C26.7639536,13.6025039 26.7639536,13.3127504 26.9356521,13.1340359 C27.1073516,12.9553214 27.3857299,12.9553214 27.5574294,13.1340359 Z"></path>
            </g>
        </g>
    </g>
</svg>