<?xml version="1.0" encoding="UTF-8"?>
<svg width="15px" height="9px" viewBox="0 0 15 9" version="1.1" xmlns="http://www.w3.org/2000/svg" xmlns:xlink="http://www.w3.org/1999/xlink">
    <title>Line/Ellipse Big Size-16px</title>
    <g id="Page-1" stroke="none" stroke-width="1" fill="none" fill-rule="evenodd">
        <g id="Arrows" transform="translate(-118.000000, -93.000000)" fill="#000000" fill-rule="nonzero">
            <g id="Group" transform="translate(118.000000, 90.000000)">
                <path d="M7.5,3 C11.6421356,3 15,5.01471863 15,7.5 C15,9.98528137 11.6421356,12 7.5,12 C3.35786438,12 0,9.98528137 0,7.5 C0,5.01471863 3.35786438,3 7.5,3 Z M7.5,4 C3.83703104,4 1,5.76526376 1,7.5 C1,9.23473624 3.83703104,11 7.5,11 C11.162969,11 14,9.23473624 14,7.5 C14,5.76526376 11.162969,4 7.5,4 Z" id="Oval" opacity="0.5"></path>
                <path d="M5.29312179,5.28121837 L3.60110244,7.04237285 L11.3815896,7.08474584 L9.6895701,5.32359137 C9.51787158,5.14487686 9.51787158,4.85512337 9.6895701,4.67640886 C9.86126956,4.49769437 10.1396479,4.49769437 10.3113474,4.67640886 L12.753918,7.21878185 C12.9256165,7.39749638 12.9256165,7.68724962 12.753918,7.86596415 L10.3113474,10.408337 C10.1396479,10.5870515 9.86126956,10.5870515 9.6895701,10.408337 C9.51787158,10.2296225 9.51787158,9.93986873 9.6895701,9.76115421 L11.3815896,8 L3.60110244,7.95762717 L5.29312179,9.71878122 C5.46482078,9.89749574 5.46482078,10.1872495 5.29312179,10.365964 C5.1214228,10.5446785 4.84304398,10.5446785 4.67134499,10.365964 L2.22877422,7.82359115 C2.05707526,7.64487663 2.05707526,7.35512338 2.22877422,7.17640886 L4.67134499,4.63403587 C4.84304398,4.45532138 5.1214228,4.45532138 5.29312179,4.63403587 C5.46482078,4.81275038 5.46482078,5.10250387 5.29312179,5.28121837 Z" id="Shape"></path>
            </g>
        </g>
    </g>
</svg>