<?xml version="1.0" encoding="UTF-8"?>
<svg width="16px" height="32px" viewBox="0 0 16 32" version="1.1" xmlns="http://www.w3.org/2000/svg" xmlns:xlink="http://www.w3.org/1999/xlink">
    <title>Line/Ellipse Small Size-32px</title>
    <g id="Page-1" stroke="none" stroke-width="1" fill="none" fill-rule="evenodd">
        <g id="32x32px" transform="translate(-82.000000, -18.000000)" fill="#000000" fill-rule="nonzero">
            <g id="Combined-Shape" transform="translate(74.000000, 18.000000)">
                <path d="M16,0 C20.418278,-2.705415e-16 24,7.163444 24,16 C24,24.836556 20.418278,32 16,32 C11.581722,32 8,24.836556 8,16 C8,7.163444 11.581722,2.705415e-16 16,0 Z M16,1 C12.322434,1 9,7.64486797 9,16 C9,24.355132 12.322434,31 16,31 C19.677566,31 23,24.355132 23,16 C23,7.64486797 19.677566,1 16,1 Z M12.5,13.4152547 C12.671699,13.5939692 12.671699,13.8837226 12.5,14.0624372 L10.8079807,15.8235916 L21.1276716,15.865964 L19.4356521,14.1048095 C19.2639536,13.926095 19.2639536,13.6363415 19.4356521,13.457627 C19.6073516,13.2789125 19.8857299,13.2789125 20.0574294,13.457627 L22.5,16 C22.6716985,16.1787145 22.6716985,16.4684678 22.5,16.6471823 L20.0574294,19.1895551 C19.8857299,19.3682697 19.6073516,19.3682697 19.4356521,19.1895551 C19.2639536,19.0108406 19.2639536,18.7210869 19.4356521,18.5423724 C19.7579415,18.2069144 20.0111689,17.9433403 20.1953343,17.7516501 L20.2816618,17.6617953 C20.469664,17.4661115 20.7516672,17.172586 21.1276716,16.7812188 L10.8079807,16.738846 L12.5,18.5 C12.671699,18.6787145 12.671699,18.9684683 12.5,19.1471828 C12.328301,19.3258973 12.0499222,19.3258973 11.8782232,19.1471828 L9.43565243,16.6048099 C9.26395347,16.4260954 9.26395347,16.1363422 9.43565243,15.9576276 L11.8782232,13.4152547 C12.0499222,13.2365402 12.328301,13.2365402 12.5,13.4152547 Z"></path>
            </g>
        </g>
    </g>
</svg>