<?xml version="1.0" encoding="UTF-8"?>
<svg width="9px" height="15px" viewBox="0 0 9 15" version="1.1" xmlns="http://www.w3.org/2000/svg" xmlns:xlink="http://www.w3.org/1999/xlink">
    <title>Line/Ellipse Small Size-16px</title>
    <g id="Page-1" stroke="none" stroke-width="1" fill="none" fill-rule="evenodd">
        <g id="Arrows" transform="translate(-151.000000, -90.000000)">
            <g id="Group" transform="translate(148.000000, 90.000000)">
                <ellipse id="Oval" stroke="#000000" opacity="0.5" cx="7.415" cy="7.5" rx="3.715" ry="7"></ellipse>
                <path d="M6.5,5.56243716 L4.75364512,7.32359163 L10.0836022,7.36596399 L8.33724722,5.60480951 C8.16003497,5.426095 8.16003497,5.13634152 8.33724722,4.95762701 C8.51446043,4.77891252 8.80177831,4.77891252 8.97899152,4.95762701 L11.5,7.5 C11.6772122,7.67871452 11.6772122,7.96846777 11.5,8.14718229 L8.97899152,10.6895551 C8.80177831,10.8682697 8.51446043,10.8682697 8.33724722,10.6895551 C8.16003497,10.5108406 8.16003497,10.2210869 8.33724722,10.0423724 L10.0836022,8.28121878 L4.75364512,8.23884595 L6.5,10 C6.67721273,10.1787145 6.67721273,10.4684683 6.5,10.6471828 C6.32278727,10.8258973 6.03546891,10.8258973 5.85825618,10.6471828 L3.33724755,8.10480994 C3.16003485,7.92609541 3.16003485,7.63634217 3.33724755,7.45762764 L5.85825618,4.91525465 C6.03546891,4.73654016 6.32278727,4.73654016 6.5,4.91525465 C6.67721273,5.09396916 6.67721273,5.38372265 6.5,5.56243716 Z" id="Shape" fill="#000000" fill-rule="nonzero"></path>
            </g>
        </g>
    </g>
</svg>