<?xml version="1.0" encoding="UTF-8"?>
<svg width="13px" height="13px" viewBox="0 0 13 13" version="1.1" xmlns="http://www.w3.org/2000/svg" xmlns:xlink="http://www.w3.org/1999/xlink">
    <title>Line/Enter</title>
    <g id="Page-1" stroke="none" stroke-width="1" fill="none" fill-rule="evenodd">
        <g id="Abstract" transform="translate(-119.000000, -127.000000)" fill="#000000">
            <g id="Shape" transform="translate(118.000000, 126.000000)">
                <path d="M5,1.5 C5,1.77614236 5.2238574,2 5.5,2 L13,2 L13,13 L5.5,13 C5.2238574,13 5,13.2238579 5,13.5 C5,13.7761421 5.2238574,14 5.5,14 L13,14 C13.5522852,14 14,13.5522842 14,13 L14,2 C14,1.44771582 13.5522852,1 13,1 L5.5,1 C5.2238574,1 5,1.22385761 5,1.5 Z M6.8964467,4.8964467 C6.70118427,5.09170866 6.70118427,5.40829134 6.8964467,5.6035533 L8.29289341,7 L1.5,7 C1.22385761,7 1,7.22385788 1,7.5 C1,7.77614212 1.22385761,8 1.5,8 L8.29289341,8 L6.8964467,9.39644623 C6.70118427,9.59170914 6.70118427,9.90829086 6.8964467,10.1035538 C7.09170866,10.2988157 7.40829134,10.2988157 7.6035533,10.1035538 L9.85355377,7.8535533 C10.0488157,7.65829134 10.0488157,7.34170866 9.85355377,7.1464467 L7.6035533,4.8964467 C7.40829134,4.70118451 7.09170866,4.70118451 6.8964467,4.8964467 Z"></path>
            </g>
        </g>
    </g>
</svg>