<?xml version="1.0" encoding="UTF-8" standalone="no"?>
<svg
   width="13px"
   height="15px"
   viewBox="0 0 13 15"
   version="1.1"
   id="svg9"
   sodipodi:docname="Export MetaBlockFDS.svg"
   inkscape:version="1.1.1 (3bf5ae0d25, 2021-09-20)"
   xmlns:inkscape="http://www.inkscape.org/namespaces/inkscape"
   xmlns:sodipodi="http://sodipodi.sourceforge.net/DTD/sodipodi-0.dtd"
   xmlns="http://www.w3.org/2000/svg"
   xmlns:svg="http://www.w3.org/2000/svg"
   xmlns:rdf="http://www.w3.org/1999/02/22-rdf-syntax-ns#"
   xmlns:cc="http://creativecommons.org/ns#"
   xmlns:dc="http://purl.org/dc/elements/1.1/">
  <metadata
     id="metadata15">
    <rdf:RDF>
      <cc:Work
         rdf:about="">
        <dc:format>image/svg+xml</dc:format>
        <dc:type
           rdf:resource="http://purl.org/dc/dcmitype/StillImage" />
        <dc:title>Line/Export MetaBlock</dc:title>
      </cc:Work>
    </rdf:RDF>
  </metadata>
  <defs
     id="defs13" />
  <sodipodi:namedview
     pagecolor="#ffffff"
     bordercolor="#666666"
     borderopacity="1"
     objecttolerance="10"
     gridtolerance="10"
     guidetolerance="10"
     inkscape:pageopacity="0"
     inkscape:pageshadow="2"
     inkscape:window-width="2560"
     inkscape:window-height="1377"
     id="namedview11"
     showgrid="false"
     inkscape:zoom="45.254834"
     inkscape:cx="2.9057669"
     inkscape:cy="6.242427"
     inkscape:window-x="-8"
     inkscape:window-y="-8"
     inkscape:window-maximized="1"
     inkscape:current-layer="svg9"
     inkscape:pagecheckerboard="0" />
  <title
     id="title2">Line/Export MetaBlock</title>
  <path
     id="Combined-Shape"
     style="fill-rule:nonzero;stroke:none;stroke-width:1"
     d="M 3.3984375 0.5078125 C 3.1768375 0.5078125 3 0.68660313 3 0.90820312 L 3 3.1074219 C 3 3.3290219 3.1768375 3.5078125 3.3984375 3.5078125 L 6 3.5078125 L 6 4 L 1 4 C 0.4477152 4 0 4.4477152 0 5 L 0 13.5 C 0 14.052285 0.4477152 14.5 1 14.5 L 12 14.5 C 12.552285 14.5 13 14.052285 13 13.5 L 13 5 C 13 4.4477152 12.552285 4 12 4 L 7 4 L 7 3.5078125 L 9.6035156 3.5078125 C 9.8251156 3.5078125 10 3.3290219 10 3.1074219 L 10 0.90820312 C 10 0.68660312 9.8251156 0.5078125 9.6035156 0.5078125 L 3.3984375 0.5078125 z M 3.6855469 1.1933594 L 9.3144531 1.1933594 L 9.3144531 2.8222656 L 3.6855469 2.8222656 L 3.6855469 1.1933594 z M 1 5 L 6 5 L 6 6 L 3.3886719 6 C 3.1738945 6 3 6.191041 3 6.4277344 L 3 8.5722656 C 3 8.808959 3.1738945 9 3.3886719 9 L 6 9 L 6 10 L 3.3886719 10 C 3.1738945 10 3 10.191041 3 10.427734 L 3 12.572266 C 3 12.808959 3.1738945 13 3.3886719 13 L 9.6113281 13 C 9.8261061 13 10 12.808959 10 12.572266 L 10 10.427734 C 10 10.191041 9.8261061 10 9.6113281 10 L 7 10 L 7 9 L 9.6113281 9 C 9.8261061 9 10 8.808959 10 8.5722656 L 10 6.4277344 C 10 6.191041 9.8261061 6 9.6113281 6 L 7 6 L 7 5 L 12 5 L 12 13.5 L 1 13.5 L 1 5 z " />
</svg>
