<?xml version="1.0" encoding="UTF-8" standalone="no"?>
<svg
   xmlns:dc="http://purl.org/dc/elements/1.1/"
   xmlns:cc="http://creativecommons.org/ns#"
   xmlns:rdf="http://www.w3.org/1999/02/22-rdf-syntax-ns#"
   xmlns:svg="http://www.w3.org/2000/svg"
   xmlns="http://www.w3.org/2000/svg"
   xmlns:sodipodi="http://sodipodi.sourceforge.net/DTD/sodipodi-0.dtd"
   xmlns:inkscape="http://www.inkscape.org/namespaces/inkscape"
   width="12px"
   height="12px"
   viewBox="0 0 12 12"
   version="1.1"
   id="svg9"
   sodipodi:docname="Export 2.svg"
   inkscape:version="0.92.4 (5da689c313, 2019-01-14)">
  <metadata
     id="metadata15">
    <rdf:RDF>
      <cc:Work
         rdf:about="">
        <dc:format>image/svg+xml</dc:format>
        <dc:type
           rdf:resource="http://purl.org/dc/dcmitype/StillImage" />
      </cc:Work>
    </rdf:RDF>
  </metadata>
  <defs
     id="defs13" />
  <sodipodi:namedview
     pagecolor="#ffffff"
     bordercolor="#666666"
     borderopacity="1"
     objecttolerance="10"
     gridtolerance="10"
     guidetolerance="10"
     inkscape:pageopacity="0"
     inkscape:pageshadow="2"
     inkscape:window-width="1920"
     inkscape:window-height="1147"
     id="namedview11"
     showgrid="false"
     inkscape:zoom="19.666667"
     inkscape:cx="-0.33050847"
     inkscape:cy="6"
     inkscape:window-x="1912"
     inkscape:window-y="-8"
     inkscape:window-maximized="1"
     inkscape:current-layer="svg9" />
  <title
     id="title2">Line/Export 2</title>
  <path
     inkscape:connector-curvature="0"
     id="path4"
     d="M 5.5,1.5 C 5.77614,1.5 6,1.72386 6,2 6,2.24546 5.82312,2.44961 5.58988,2.49194 L 5.5,2.5 H 2 C 1.75454,2.5 1.55039,2.67688 1.50806,2.91012 L 1.5,3 v 7 c 0,0.24546 0.17688,0.44961 0.41012,0.49194 L 2,10.5 h 7 c 0.24546,0 0.44961,-0.17688 0.49194,-0.41012 L 9.5,10 V 6 c 0,-0.27614 0.22386,-0.5 0.5,-0.5 0.24546,0 0.44961,0.17688 0.49194,0.41012 L 10.5,6 v 4 c 0,0.7797 -0.59489,1.42045 -1.35554,1.49313 L 9,11.5 H 2 C 1.2203,11.5 0.57955,10.90511 0.50687,10.14446 L 0.5,10 V 3 C 0.5,2.2203 1.09489,1.57955 1.85554,1.50687 L 2,1.5 Z m 5.26034,-0.73531 c 0.11935,0 0.23381,0.0474 0.3182,0.1318 0.0844,0.0844 0.1318,0.19885 0.1318,0.3182 v 3.18198 c 0,0.24853 -0.20147,0.45 -0.45,0.45 -0.24853,0 -0.45,-0.20147 -0.45,-0.45 V 2.3718 l -4.8533,4.8533 c -0.19526,0.19526 -0.51185,0.19526 -0.70711,0 -0.19526,-0.19526 -0.19526,-0.51185 0,-0.70711 l 4.8533,-4.8533 H 7.57836 c -0.24853,0 -0.45,-0.20147 -0.45,-0.45 0,-0.24853 0.20147,-0.45 0.45,-0.45 z"
     style="fill:#000000;fill-rule:nonzero;stroke:none;stroke-width:1" />
</svg>
