<?xml version="1.0" encoding="UTF-8" standalone="no"?>
<svg
   width="15px"
   height="9px"
   viewBox="0 0 15 9"
   version="1.1"
   id="svg9"
   sodipodi:docname="Eye Open Fds.svg"
   inkscape:version="1.1.1 (3bf5ae0d25, 2021-09-20)"
   xmlns:inkscape="http://www.inkscape.org/namespaces/inkscape"
   xmlns:sodipodi="http://sodipodi.sourceforge.net/DTD/sodipodi-0.dtd"
   xmlns="http://www.w3.org/2000/svg"
   xmlns:svg="http://www.w3.org/2000/svg"
   xmlns:rdf="http://www.w3.org/1999/02/22-rdf-syntax-ns#"
   xmlns:cc="http://creativecommons.org/ns#"
   xmlns:dc="http://purl.org/dc/elements/1.1/">
  <defs
     id="defs13" />
  <sodipodi:namedview
     id="namedview11"
     pagecolor="#ffffff"
     bordercolor="#666666"
     borderopacity="1.0"
     inkscape:pageshadow="2"
     inkscape:pageopacity="0.0"
     inkscape:pagecheckerboard="0"
     showgrid="false"
     inkscape:zoom="77.133333"
     inkscape:cx="7.4935177"
     inkscape:cy="4.3107174"
     inkscape:window-width="1920"
     inkscape:window-height="1017"
     inkscape:window-x="-8"
     inkscape:window-y="-8"
     inkscape:window-maximized="1"
     inkscape:current-layer="Shape" />
  <title
     id="title2">Line/Eye Open</title>
  <g
     id="Page-1"
     stroke="none"
     stroke-width="1"
     fill="none"
     fill-rule="evenodd">
    <g
       id="Objects"
       fill="#000000">
      <g
         id="Shape">
        <path
           d="m 9.5,4.5146931 c 0,-1.104569 -0.8954306,-2 -2,-2 -1.1045694,0 -2,0.895431 -2,2 0,1.104569 0.8954306,2 2,2 1.1045694,0 2,-0.895431 2,-2 z M 0.07600024,4.2497071 c -0.10133406,0.162135 -0.10133364,0.367864 1.2e-6,0.529999 C 1.6563916,7.3083171 4.3078594,9.0146931 7.5,9.0146931 c 3.192141,0 5.843609,-1.706376 7.423999,-4.234988 0.101334,-0.162134 0.101334,-0.367863 10e-7,-0.529998 C 13.34361,1.7210701 10.692142,0.01469317 7.5,0.01469317 c -3.1921415,0 -5.8436097,1.70637693 -7.42399976,4.23501393 z M 1.0962218,4.5147041 C 2.5295212,2.3928561 4.8028507,1.0146932 7.5,1.0146932 c 2.697148,0 4.970478,1.3781619 6.403777,3.4999999 -1.433299,2.121834 -3.706629,3.5 -6.403777,3.5 -2.6971488,0 -4.9704788,-1.378163 -6.4037782,-3.499989 z"
           id="path4" />
      </g>
    </g>
  </g>
  <metadata
     id="metadata23">
    <rdf:RDF>
      <cc:Work
         rdf:about="">
        <dc:title>Line/Eye Open</dc:title>
      </cc:Work>
    </rdf:RDF>
  </metadata>
</svg>
