<?xml version="1.0" encoding="UTF-8" standalone="no"?>
<svg
   width="15px"
   height="13px"
   viewBox="0 0 15 13"
   version="1.1"
   id="svg11"
   sodipodi:docname="Eye None fds.svg"
   inkscape:version="1.1.1 (3bf5ae0d25, 2021-09-20)"
   xmlns:inkscape="http://www.inkscape.org/namespaces/inkscape"
   xmlns:sodipodi="http://sodipodi.sourceforge.net/DTD/sodipodi-0.dtd"
   xmlns="http://www.w3.org/2000/svg"
   xmlns:svg="http://www.w3.org/2000/svg"
   xmlns:rdf="http://www.w3.org/1999/02/22-rdf-syntax-ns#"
   xmlns:cc="http://creativecommons.org/ns#"
   xmlns:dc="http://purl.org/dc/elements/1.1/">
  <defs
     id="defs15" />
  <sodipodi:namedview
     id="namedview13"
     pagecolor="#ffffff"
     bordercolor="#666666"
     borderopacity="1.0"
     inkscape:pageshadow="2"
     inkscape:pageopacity="0.0"
     inkscape:pagecheckerboard="0"
     showgrid="false"
     inkscape:zoom="55.307692"
     inkscape:cx="7.4944367"
     inkscape:cy="6.5"
     inkscape:window-width="1920"
     inkscape:window-height="1017"
     inkscape:window-x="242"
     inkscape:window-y="1432"
     inkscape:window-maximized="1"
     inkscape:current-layer="svg11" />
  <title
     id="title2">Line/Eye None</title>
  <path
     id="path4"
     style="fill:#000000;fill-rule:evenodd;stroke:none;stroke-width:1"
     d="M 13 0.5 C 12.872039 0.5 12.744115 0.54885333 12.646484 0.64648438 L 10.683594 2.609375 C 9.7073399 2.2159652 8.6375923 2 7.5 2 C 4.3078585 2 1.6565619 3.7057378 0.076171875 6.234375 C -0.025162185 6.3965101 -0.025162965 6.6034903 0.076171875 6.765625 C 0.90311504 8.0887279 2.0238647 9.1854476 3.3613281 9.9316406 L 1.6464844 11.646484 C 1.4512223 11.841746 1.4512223 12.158254 1.6464844 12.353516 C 1.8417466 12.548778 2.1582536 12.548778 2.3535156 12.353516 L 4.3164062 10.390625 C 5.2926597 10.784034 6.3624077 11 7.5 11 C 10.692141 11 13.343438 9.2942367 14.923828 6.765625 C 15.025162 6.6034903 15.025161 6.3965106 14.923828 6.234375 C 14.096884 4.9112582 12.976137 3.8145554 11.638672 3.0683594 L 13.353516 1.3535156 C 13.548778 1.1582535 13.548778 0.84174658 13.353516 0.64648438 C 13.255885 0.54885333 13.127961 0.5 13 0.5 z M 7.5 3 C 8.3475876 3 9.1533347 3.1361616 9.9042969 3.3886719 L 8.515625 4.7773438 C 8.2178636 4.601391 7.8709133 4.5 7.5 4.5 C 6.3954306 4.5 5.5 5.3954306 5.5 6.5 C 5.5 6.8709133 5.601391 7.2178636 5.7773438 7.515625 L 4.0996094 9.1933594 C 2.8959506 8.5812699 1.8723222 7.6496906 1.0957031 6.5 C 2.5290025 4.3781524 4.8028507 3 7.5 3 z M 10.900391 3.8066406 C 12.10405 4.4187324 13.127678 5.350307 13.904297 6.5 C 12.470998 8.6218338 10.197148 10 7.5 10 C 6.6524124 10 5.8466653 9.8638381 5.0957031 9.6113281 L 6.484375 8.2226562 C 6.7821364 8.398609 7.1290867 8.5 7.5 8.5 C 8.6045694 8.5 9.5 7.6045694 9.5 6.5 C 9.5 6.1290867 9.398609 5.7821364 9.2226562 5.484375 L 10.900391 3.8066406 z " />
  <metadata
     id="metadata27">
    <rdf:RDF>
      <cc:Work
         rdf:about="">
        <dc:title>Line/Eye None</dc:title>
      </cc:Work>
    </rdf:RDF>
  </metadata>
</svg>
