<?xml version="1.0" encoding="UTF-8"?>
<svg width="11px" height="13px" viewBox="0 0 11 13" version="1.1" xmlns="http://www.w3.org/2000/svg" xmlns:xlink="http://www.w3.org/1999/xlink">
    <title>Line/File</title>
    <g id="Page-1" stroke="none" stroke-width="1" fill="none" fill-rule="evenodd">
        <g id="Objects" transform="translate(-31.000000, -55.000000)" fill="#000000">
            <g id="Shape" transform="translate(29.000000, 54.000000)">
                <path d="M3.5,1 L8.5,1 C8.63260841,1 8.75978518,1.05267841 8.8535533,1.14644662 L12.8535538,5.1464467 C12.9473219,5.24021482 13,5.36739182 13,5.5 L13,12.5 C13,13.3284273 12.3284264,14 11.5,14 L3.5,14 C2.67157304,14 2,13.3284273 2,12.5 L2,2.5 C2,1.67157286 2.67157304,1 3.5,1 Z M3,2.5 L3,12.5 C3,12.7761421 3.22385746,13 3.5,13 L11.5,13 C11.7761421,13 12,12.7761421 12,12.5 L12,6 L8.5,6 C8.2238574,6 8,5.7761426 8,5.5 L8,2 L3.5,2 C3.2238577,2 3,2.2238577 3,2.5 Z M11.2928934,5 L9,5 L9,2.70710671 L11.2928934,5 Z"></path>
            </g>
        </g>
    </g>
</svg>