<?xml version="1.0" encoding="UTF-8"?>
<svg width="13px" height="13px" viewBox="0 0 13 13" version="1.1" xmlns="http://www.w3.org/2000/svg" xmlns:xlink="http://www.w3.org/1999/xlink">
    <title>Line/Filter</title>
    <g id="Page-1" stroke="none" stroke-width="1" fill="none" fill-rule="evenodd">
        <g id="Abstract" transform="translate(-60.000000, -91.000000)" fill="#000000" fill-rule="nonzero">
            <g id="Combined-Shape" transform="translate(59.000000, 90.000000)">
                <path d="M12.9495147,1.5 L2.05048525,1.5 C1.82081447,1.5 1.59814334,1.5790573 1.41989263,1.723886 L1.32745175,1.80903323 C0.983679562,2.16785527 0.952894309,2.73492869 1.27437125,3.13059263 L5.499,8.331 L5.50009881,13.9020621 L8.55999788,11.9896251 L8.70133407,11.8926484 C9.20150023,11.5169874 9.5,10.9257436 9.5,10.2936285 L9.499,8.331 L13.7256143,3.13061039 C13.8704574,2.95234192 13.9495147,2.72967078 13.9495147,2.5 C13.9495147,1.94771525 13.5017995,1.5 12.9495147,1.5 Z M2.05048525,2.5 L12.9495147,2.5 L8.49942514,7.976521 L8.50000002,10.2937526 L8.49179686,10.4216464 C8.45380192,10.716384 8.28583263,10.9817308 8.02999894,11.1416268 L6.499,12.098 L6.49944974,7.97647659 L2.05048525,2.5 Z"></path>
            </g>
        </g>
    </g>
</svg>