<?xml version="1.0" encoding="UTF-8" standalone="no"?>
<svg
   xmlns:dc="http://purl.org/dc/elements/1.1/"
   xmlns:cc="http://creativecommons.org/ns#"
   xmlns:rdf="http://www.w3.org/1999/02/22-rdf-syntax-ns#"
   xmlns:svg="http://www.w3.org/2000/svg"
   xmlns="http://www.w3.org/2000/svg"
   xmlns:sodipodi="http://sodipodi.sourceforge.net/DTD/sodipodi-0.dtd"
   xmlns:inkscape="http://www.inkscape.org/namespaces/inkscape"
   width="13px"
   height="13px"
   viewBox="0 0 13 13"
   version="1.1"
   id="svg9"
   sodipodi:docname="Folder.svg"
   inkscape:version="0.92.4 (5da689c313, 2019-01-14)">
  <metadata
     id="metadata15">
    <rdf:RDF>
      <cc:Work
         rdf:about="">
        <dc:format>image/svg+xml</dc:format>
        <dc:type
           rdf:resource="http://purl.org/dc/dcmitype/StillImage" />
      </cc:Work>
    </rdf:RDF>
  </metadata>
  <defs
     id="defs13" />
  <sodipodi:namedview
     pagecolor="#ffffff"
     bordercolor="#666666"
     borderopacity="1"
     objecttolerance="10"
     gridtolerance="10"
     guidetolerance="10"
     inkscape:pageopacity="0"
     inkscape:pageshadow="2"
     inkscape:window-width="1920"
     inkscape:window-height="1147"
     id="namedview11"
     showgrid="false"
     inkscape:zoom="18.153846"
     inkscape:cx="-0.35805085"
     inkscape:cy="6.5"
     inkscape:window-x="1912"
     inkscape:window-y="-8"
     inkscape:window-maximized="1"
     inkscape:current-layer="svg9" />
  <title
     id="title2">Line/Folder</title>
  <path
     inkscape:connector-curvature="0"
     id="path4"
     d="M 13,11.33333 C 13,12.25381 12.328427,13 11.5,13 H 1.5 C 0.671573,13 0,12.25381 0,11.33333 V 4.666667 C 0,3.746192 0.671573,3 1.5,3 H 5.655 L 7.458303,0.994386 C 8.027268,0.361472 8.838277,0 9.689336,0 H 11.9 C 12.507513,0 13,0.492487 13,1.1 Z M 12,4.111111 H 1.5 c -0.24546,0 -0.449608,0.196528 -0.491944,0.455694 L 1,4.666667 v 6.666663 c 0,0.27274 0.176875,0.49957 0.410124,0.54661 l 0.08988,0.009 h 10 c 0.24546,0 0.449608,-0.19653 0.491944,-0.4557 L 12,11.33333 Z M 11.9,1 H 9.689336 C 9.121964,1 8.581291,1.240981 8.201981,1.662924 L 7,3 h 5 V 1.1 C 12,1.044771 11.955229,1 11.9,1 Z"
     style="fill:#000000;fill-rule:nonzero;stroke:none;stroke-width:1" />
</svg>
