<?xml version="1.0" encoding="UTF-8"?>
<svg width="14px" height="13px" viewBox="0 0 14 13" version="1.1" xmlns="http://www.w3.org/2000/svg" xmlns:xlink="http://www.w3.org/1999/xlink">
    <title>Line/Folder Open</title>
    <g id="Page-1" stroke="none" stroke-width="1" fill="none" fill-rule="evenodd">
        <g id="Objects" transform="translate(-148.000000, -91.000000)" fill="#000000" fill-rule="nonzero">
            <g id="Combined-Shape" transform="translate(148.000000, 90.000000)">
                <path d="M11.3901094,5.5 L13.1286874,11.163 L13.1300367,5 L3.99541833,5 C3.78187714,5 3.60427538,5.17687516 3.56744464,5.41012437 L3.5604365,5.5 L11.3901094,5.5 Z M10.7750451,6.5 L1.92498847,6.5 C1.87567477,6.5 1.82672012,6.509639 1.78021777,6.52850483 C1.5788505,6.61019882 1.46258644,6.84493511 1.49539071,7.07897712 L1.51480482,7.16641006 L3.20355779,12.6664101 C3.25616946,12.8377579 3.38445335,12.9604531 3.53617142,12.9920119 L3.61374145,13 L12.1555938,13 C12.2049075,13 12.2538621,12.990361 12.3003645,12.9714952 C12.5017317,12.8898012 12.6179958,12.6550649 12.5851915,12.4210229 L12.5657774,12.3335899 L10.7750451,6.5 Z M13.0430403,2 L11.1198434,2 C10.6262496,2 10.1558842,2.24098112 9.82589794,2.66292375 L8.78021843,4 L13.1300367,4 L13.1300367,2.1 C13.1300367,2.04477153 13.0910871,2 13.0430403,2 Z M3.61374145,14 C3.06046706,14 2.56733132,13.5989476 2.38319048,12.9992302 L0.694437499,7.49923018 C0.454573545,6.71803141 0.811061828,5.86123171 1.49067637,5.5855145 C1.6301834,5.52891699 1.77704737,5.5 1.92498847,5.5 L2.69047284,5.5 C2.69047284,4.67157288 3.27471684,4 3.99541833,4 L7.60968736,4 L9.17892522,1.99438563 C9.67390459,1.36147168 10.3794528,1 11.1198434,1 L13.0430403,1 C13.5715548,1 14.0000004,1.49248678 14.0000004,2.1 L14.0000004,12.5 C14.0000004,13.3284271 13.4157564,14 12.6950549,14 L3.61374145,14 Z"></path>
            </g>
        </g>
    </g>
</svg>