<?xml version="1.0" encoding="UTF-8"?>
<svg width="13px" height="13px" viewBox="0 0 13 13" version="1.1" xmlns="http://www.w3.org/2000/svg" xmlns:xlink="http://www.w3.org/1999/xlink">
    <title>Line/Folder Minus</title>
    <g id="Page-1" stroke="none" stroke-width="1" fill="none" fill-rule="evenodd">
        <g id="Objects" transform="translate(-90.000000, -91.000000)" fill="#000000" fill-rule="nonzero">
            <g id="Shape" transform="translate(89.000000, 90.000000)">
                <path d="M14,12.3333333 C14,13.2538079 13.3284271,14 12.5,14 L2.5,14 C1.67157288,14 1,13.2538079 1,12.3333333 L1,5.66666667 C1,4.74619208 1.67157288,4 2.5,4 L6.655,4 L8.45830282,1.99438563 C9.02726839,1.36147168 9.83827717,1 10.6893364,1 L12.9,1 C13.5075132,1 14,1.49248678 14,2.1 L14,12.3333333 Z M13,5.11111111 L2.5,5.11111111 C2.25454011,5.11111111 2.05039163,5.30763907 2.00805567,5.56680485 L2,5.66666667 L2,12.3333333 C2,12.6060665 2.17687516,12.8328982 2.41012437,12.8799381 L2.5,12.8888889 L12.5,12.8888889 C12.7454599,12.8888889 12.9496084,12.6923609 12.9919443,12.4331951 L13,12.3333333 L13,5.11111111 Z M12.9,2 L10.6893364,2 C10.1219636,2 9.58129107,2.24098112 9.20198069,2.66292375 L8,4 L13,4 L13,2.1 C13,2.04477153 12.9552285,2 12.9,2 Z M4.75,9 C4.75,9.2761426 4.97385764,9.5 5.25,9.5 L9.75,9.5 C10.0261421,9.5 10.25,9.2761426 10.25,9 C10.25,8.7238574 10.0261421,8.5 9.75,8.5 L5.25,8.5 C4.97385764,8.5 4.75,8.7238574 4.75,9 Z"></path>
            </g>
        </g>
    </g>
</svg>