<?xml version="1.0" encoding="UTF-8"?>
<svg width="13px" height="13px" viewBox="0 0 13 13" version="1.1" xmlns="http://www.w3.org/2000/svg" xmlns:xlink="http://www.w3.org/1999/xlink">
    <title>Line/Fringes</title>
    <g id="Page-1" stroke="none" stroke-width="1" fill="none" fill-rule="evenodd">
        <g id="Geometry" transform="translate(-60.000000, -19.000000)" fill="#000000" fill-rule="nonzero">
            <g id="Combined-Shape" transform="translate(59.000000, 18.000000)">
                <path d="M2.07017828,1.5 C2.31563817,1.5 2.51978665,1.67687516 2.56212261,1.91012437 L2.57017828,2 L2.57017828,13 C2.57017828,13.2761424 2.34632065,13.5 2.07017828,13.5 C1.82471839,13.5 1.62056991,13.3231248 1.57823395,13.0898756 L1.57017828,13 L1.57017828,2 C1.57017828,1.72385763 1.79403591,1.5 2.07017828,1.5 Z M4.79745101,1.5 C5.0429109,1.5 5.24705938,1.67687516 5.28939534,1.91012437 L5.29745101,2 L5.29745101,13 C5.29745101,13.2761424 5.07359338,13.5 4.79745101,13.5 C4.55199112,13.5 4.34784264,13.3231248 4.30550668,13.0898756 L4.29745101,13 L4.29745101,2 C4.29745101,1.72385763 4.52130863,1.5 4.79745101,1.5 Z M7.52472373,1.5 C7.77018362,1.5 7.9743321,1.67687516 8.01666807,1.91012437 L8.02472373,2 L8.02472373,13 C8.02472373,13.2761424 7.80086611,13.5 7.52472373,13.5 C7.27926385,13.5 7.07511536,13.3231248 7.0327794,13.0898756 L7.02472373,13 L7.02472373,2 C7.02472373,1.72385763 7.24858136,1.5 7.52472373,1.5 Z M10.2519965,1.5 C10.4974564,1.5 10.7016048,1.67687516 10.7439408,1.91012437 L10.7519965,2 L10.7519965,13 C10.7519965,13.2761424 10.5281388,13.5 10.2519965,13.5 C10.0065366,13.5 9.80238809,13.3231248 9.76005213,13.0898756 L9.75199646,13 L9.75199646,2 C9.75199646,1.72385763 9.97585409,1.5 10.2519965,1.5 Z M12.9792692,1.5 C13.2247291,1.5 13.4288776,1.67687516 13.4712135,1.91012437 L13.4792692,2 L13.4792692,13 C13.4792692,13.2761424 13.2554116,13.5 12.9792692,13.5 C12.7338093,13.5 12.5296608,13.3231248 12.4873249,13.0898756 L12.4792692,13 L12.4792692,2 C12.4792692,1.72385763 12.7031268,1.5 12.9792692,1.5 Z"></path>
            </g>
        </g>
    </g>
</svg>