<?xml version="1.0" encoding="UTF-8"?>
<svg width="11px" height="11px" viewBox="0 0 11 11" version="1.1" xmlns="http://www.w3.org/2000/svg" xmlns:xlink="http://www.w3.org/1999/xlink">
    <title>Line/Fullscreen Exit</title>
    <g id="Page-1" stroke="none" stroke-width="1" fill="none" fill-rule="evenodd">
        <g id="Abstract" transform="translate(-150.000000, -56.000000)" fill="#000000">
            <g id="Shape" transform="translate(148.000000, 54.000000)">
                <path d="M6,2.5 L6,5.5 C6,5.77614236 5.77614236,6 5.5,6 L2.5,6 C2.22385761,6 2,5.77614236 2,5.5 C2,5.22385764 2.22385761,5 2.5,5 L5,5 L5,2.5 C5,2.22385761 5.22385764,2 5.5,2 C5.77614236,2 6,2.22385761 6,2.5 Z M10,2.5 L10,5 L12.5,5 C12.7761421,5 13,5.22385764 13,5.5 C13,5.77614236 12.7761421,6 12.5,6 L9.5,6 C9.2238574,6 9,5.77614236 9,5.5 L9,2.5 C9,2.22385761 9.2238574,2 9.5,2 C9.7761426,2 10,2.22385761 10,2.5 Z M2.5,9 L5.5,9 C5.77614236,9 6,9.2238574 6,9.5 L6,12.5 C6,12.7761421 5.77614236,13 5.5,13 C5.22385764,13 5,12.7761421 5,12.5 L5,10 L2.5,10 C2.22385761,10 2,9.7761426 2,9.5 C2,9.2238574 2.22385761,9 2.5,9 Z M9.5,9 L12.5,9 C12.7761421,9 13,9.2238574 13,9.5 C13,9.7761426 12.7761421,10 12.5,10 L10,10 L10,12.5 C10,12.7761421 9.7761426,13 9.5,13 C9.2238574,13 9,12.7761421 9,12.5 L9,9.5 C9,9.2238574 9.2238574,9 9.5,9 Z"></path>
            </g>
        </g>
    </g>
</svg>