<?xml version="1.0" encoding="UTF-8"?>
<svg width="11px" height="11px" viewBox="0 0 11 11" version="1.1" xmlns="http://www.w3.org/2000/svg" xmlns:xlink="http://www.w3.org/1999/xlink">
    <title>Line/Fullscreen</title>
    <g id="Page-1" stroke="none" stroke-width="1" fill="none" fill-rule="evenodd">
        <g id="Abstract" transform="translate(-120.000000, -56.000000)" fill="#000000">
            <g id="Shape" transform="translate(118.000000, 54.000000)">
                <path d="M2.5,2 L5.5,2 C5.77614236,2 6,2.22385761 6,2.5 C6,2.77614239 5.77614236,3 5.5,3 L3,3 L3,5.5 C3,5.77614236 2.77614239,6 2.5,6 C2.22385761,6 2,5.77614236 2,5.5 L2,2.5 C2,2.22385761 2.22385761,2 2.5,2 Z M9.5,2 L12.5,2 C12.7761421,2 13,2.22385761 13,2.5 L13,5.5 C13,5.77614236 12.7761421,6 12.5,6 C12.2238579,6 12,5.77614236 12,5.5 L12,3 L9.5,3 C9.2238574,3 9,2.77614239 9,2.5 C9,2.22385761 9.2238574,2 9.5,2 Z M3,9.5 L3,12 L5.5,12 C5.77614236,12 6,12.2238579 6,12.5 C6,12.7761421 5.77614236,13 5.5,13 L2.5,13 C2.22385761,13 2,12.7761421 2,12.5 L2,9.5 C2,9.2238574 2.22385761,9 2.5,9 C2.77614239,9 3,9.2238574 3,9.5 Z M13,9.5 L13,12.5 C13,12.7761421 12.7761421,13 12.5,13 L9.5,13 C9.2238574,13 9,12.7761421 9,12.5 C9,12.2238579 9.2238574,12 9.5,12 L12,12 L12,9.5 C12,9.2238574 12.2238579,9 12.5,9 C12.7761421,9 13,9.2238574 13,9.5 Z"></path>
            </g>
        </g>
    </g>
</svg>