<?xml version="1.0" encoding="UTF-8"?>
<svg width="13px" height="13px" viewBox="0 0 13 13" version="1.1" xmlns="http://www.w3.org/2000/svg" xmlns:xlink="http://www.w3.org/1999/xlink">
    <title>Line/Graph</title>
    <g id="Page-1" stroke="none" stroke-width="1" fill="none" fill-rule="evenodd">
        <g id="Geometry" transform="translate(-119.000000, -19.000000)" fill="#000000" fill-rule="nonzero">
            <g id="Combined-Shape" transform="translate(118.000000, 18.000000)">
                <path d="M1.93076834,1.5 C2.17622823,1.5 2.38037671,1.67687516 2.42271267,1.91012437 L2.43076834,2 L2.43,12.5 L13.1182979,12.5 C13.3637578,12.5 13.5679062,12.6768752 13.6102422,12.9101244 L13.6182979,13 C13.6182979,13.2454599 13.4414227,13.4496084 13.2081735,13.4919443 L13.1182979,13.5 L1.93076834,13.5 C1.68530845,13.5 1.48115997,13.3231248 1.43882401,13.0898756 L1.43076834,13 L1.43076834,2 C1.43076834,1.72385763 1.65462596,1.5 1.93076834,1.5 Z M11.3851133,3.1145645 L13.3780508,5.74624116 L12.5808482,6.34995315 L11.549,4.987 L9.11999416,9.72990003 L6.514,6.908 L4.28169277,11.1711902 L3.39586022,10.7071851 L6.2869419,5.18781816 L8.882,7.999 L11.3851133,3.1145645 Z"></path>
            </g>
        </g>
    </g>
</svg>