<?xml version="1.0" encoding="UTF-8"?>
<svg width="9px" height="12px" viewBox="0 0 9 12" version="1.1" xmlns="http://www.w3.org/2000/svg" xmlns:xlink="http://www.w3.org/1999/xlink">
    <title>Line/Grey Level</title>
    <g id="Page-1" stroke="none" stroke-width="1" fill="none" fill-rule="evenodd">
        <g id="Abstract" transform="translate(-92.000000, -56.000000)" fill="#000000">
            <g id="Shape" transform="translate(89.000000, 54.000000)">
                <path d="M7.5,2 C10.5,4.75 12,7 12,9.5 C12,11.9852819 9.98528147,14 7.5,14 C5.01471853,14 3,11.9852819 3,9.5 C3,7 4.5,4.75 7.5,2 Z M6.98956418,9.56259441 C5.93270469,10.0514231 4.93364859,10.5135145 4.0969547,10.3215322 C4.03357375,10.0580406 4,9.78294134 4,9.5 C4,7.61203241 5.0268569,5.77194941 7.5,3.37356675 C9.66837358,5.47639096 10.7249532,7.15003824 10.9524331,8.80307102 C9.67347097,8.321208 8.28789854,8.96207619 6.98956418,9.56259441 Z"></path>
            </g>
        </g>
    </g>
</svg>