<?xml version="1.0" encoding="UTF-8"?>
<svg width="13px" height="13px" viewBox="0 0 13 13" version="1.1" xmlns="http://www.w3.org/2000/svg" xmlns:xlink="http://www.w3.org/1999/xlink">
    <title>Line/Grid</title>
    <g id="Page-1" stroke="none" stroke-width="1" fill="none" fill-rule="evenodd">
        <g id="Geometry" transform="translate(-30.000000, -19.000000)" fill="#000000" fill-rule="nonzero">
            <g id="Combined-Shape" transform="translate(29.000000, 18.000000)">
                <path d="M11.8613312,1.50163171 C12.1067911,1.50163171 12.3109396,1.67850687 12.3532755,1.91175608 L12.3613312,2.00163171 L12.3612274,2.63563171 L13.0050429,2.6362153 C13.2811853,2.6362153 13.5050429,2.86007292 13.5050429,3.1362153 C13.5050429,3.38167519 13.3281677,3.58582367 13.0949185,3.62815963 L13.0050429,3.6362153 L12.3612274,3.63563171 L12.3612274,6.99963171 L13.0050429,6.99985166 C13.2811853,6.99985166 13.5050429,7.22370929 13.5050429,7.49985166 C13.5050429,7.74531155 13.3281677,7.94946003 13.0949185,7.99179599 L13.0050429,7.99985166 L12.3612274,7.99963171 L12.3612274,11.3626317 L13.0050429,11.363488 C13.2811853,11.363488 13.5050429,11.5873457 13.5050429,11.863488 C13.5050429,12.1089479 13.3281677,12.3130964 13.0949185,12.3554324 L13.0050429,12.363488 L12.3612274,12.3626317 L12.3613312,13.0016317 C12.3613312,13.2777741 12.1374736,13.5016317 11.8613312,13.5016317 C11.6158713,13.5016317 11.4117228,13.3247566 11.3693869,13.0915073 L11.3613312,13.0016317 L11.3612274,12.3626317 L7.99422737,12.3626317 L7.994674,13.0016317 C7.994674,13.2777741 7.77081638,13.5016317 7.494674,13.5016317 C7.24921412,13.5016317 7.04506563,13.3247566 7.00272967,13.0915073 L6.994674,13.0016317 L6.99422737,12.3626317 L3.62722737,12.3626317 L3.62801682,13.0016317 C3.62801682,13.2777741 3.4041592,13.5016317 3.12801682,13.5016317 C2.88255693,13.5016317 2.67840845,13.3247566 2.63607249,13.0915073 L2.62801682,13.0016317 L2.62722737,12.3626317 L2.00522737,12.363488 C1.72908499,12.363488 1.50522737,12.1396304 1.50522737,11.863488 C1.50522737,11.6180281 1.68210253,11.4138797 1.91535174,11.3715437 L2.00522737,11.363488 L2.62722737,11.3626317 L2.62722737,7.99963171 L2.00522737,7.99985166 C1.72908499,7.99985166 1.50522737,7.77599404 1.50522737,7.49985166 C1.50522737,7.25439177 1.68210253,7.05024329 1.91535174,7.00790733 L2.00522737,6.99985166 L2.62722737,6.99963171 L2.62722737,3.63563171 L2.00522737,3.6362153 C1.72908499,3.6362153 1.50522737,3.41235767 1.50522737,3.1362153 C1.50522737,2.89075541 1.68210253,2.68660693 1.91535174,2.64427097 L2.00522737,2.6362153 L2.62722737,2.63563171 L2.62801682,2.00163171 C2.62801682,1.72548934 2.85187445,1.50163171 3.12801682,1.50163171 C3.37347671,1.50163171 3.57762519,1.67850687 3.61996115,1.91175608 L3.62801682,2.00163171 L3.62722737,2.63563171 L6.99422737,2.63563171 L6.994674,2.00163171 C6.994674,1.72548934 7.21853163,1.50163171 7.494674,1.50163171 C7.74013389,1.50163171 7.94428237,1.67850687 7.98661833,1.91175608 L7.994674,2.00163171 L7.99422737,2.63563171 L11.3612274,2.63563171 L11.3613312,2.00163171 C11.3613312,1.72548934 11.5851888,1.50163171 11.8613312,1.50163171 Z M6.99422737,7.99963171 L3.62722737,7.99963171 L3.62722737,11.3626317 L6.99422737,11.3626317 L6.99422737,7.99963171 Z M11.3612274,7.99963171 L7.99422737,7.99963171 L7.99422737,11.3626317 L11.3612274,11.3626317 L11.3612274,7.99963171 Z M6.99422737,3.63563171 L3.62722737,3.63563171 L3.62722737,6.99963171 L6.99422737,6.99963171 L6.99422737,3.63563171 Z M11.3612274,3.63563171 L7.99422737,3.63563171 L7.99422737,6.99963171 L11.3612274,6.99963171 L11.3612274,3.63563171 Z"></path>
            </g>
        </g>
    </g>
</svg>