<?xml version="1.0" encoding="UTF-8" standalone="no"?>
<svg
   width="13px"
   height="15px"
   viewBox="0 0 13 15"
   version="1.1"
   id="svg9"
   sodipodi:docname="Hand Line Fds.svg"
   inkscape:version="1.1.1 (3bf5ae0d25, 2021-09-20)"
   xmlns:inkscape="http://www.inkscape.org/namespaces/inkscape"
   xmlns:sodipodi="http://sodipodi.sourceforge.net/DTD/sodipodi-0.dtd"
   xmlns="http://www.w3.org/2000/svg"
   xmlns:svg="http://www.w3.org/2000/svg"
   xmlns:rdf="http://www.w3.org/1999/02/22-rdf-syntax-ns#"
   xmlns:cc="http://creativecommons.org/ns#"
   xmlns:dc="http://purl.org/dc/elements/1.1/">
  <defs
     id="defs13" />
  <sodipodi:namedview
     id="namedview11"
     pagecolor="#ffffff"
     bordercolor="#666666"
     borderopacity="1.0"
     inkscape:pageshadow="2"
     inkscape:pageopacity="0.0"
     inkscape:pagecheckerboard="0"
     showgrid="false"
     inkscape:zoom="47.933333"
     inkscape:cx="6.4986092"
     inkscape:cy="7.5"
     inkscape:window-width="1920"
     inkscape:window-height="1017"
     inkscape:window-x="242"
     inkscape:window-y="1432"
     inkscape:window-maximized="1"
     inkscape:current-layer="svg9" />
  <title
     id="title2">Line/Hand Line</title>
  <path
     id="Combined-Shape"
     style="fill:#000000;fill-rule:nonzero;stroke:none;stroke-width:1"
     d="M 6.2753906 0.47851562 C 5.5575043 0.47851593 4.9746094 1.0594575 4.9746094 1.7773438 L 4.9746094 2.1484375 C 4.8693584 2.1209325 4.7603552 2.1054688 4.6464844 2.1054688 C 3.9285981 2.1054688 3.3457031 2.6883637 3.3457031 3.40625 L 3.3457031 3.7773438 C 3.2407524 3.7500077 3.1310886 3.734375 3.0175781 3.734375 C 2.2996918 3.734375 1.7167969 4.31727 1.7167969 5.0351562 L 1.7167969 9.7011719 L 1.7109375 9.7011719 L 1.7128906 9.7773438 L 2.6875 8.8007812 L 2.6875 5.0351562 L 2.6953125 4.96875 C 2.725979 4.8188862 2.8586484 4.7070312 3.0175781 4.7070312 C 3.1992119 4.7070313 3.3457031 4.8535224 3.3457031 5.0351562 L 3.3457031 7.6816406 L 3.8085938 7.6816406 L 4.3164062 7.1738281 L 4.3164062 3.40625 L 4.3242188 3.3398438 C 4.3548854 3.18998 4.4875548 3.078125 4.6464844 3.078125 C 4.8281183 3.078125 4.9746094 3.2246161 4.9746094 3.40625 L 4.9746094 6.515625 L 5.9453125 5.5449219 L 5.9453125 1.7773438 L 5.953125 1.7109375 C 5.9837916 1.5610737 6.116461 1.4492188 6.2753906 1.4492188 C 6.4570245 1.4492188 6.6035156 1.59571 6.6035156 1.7773438 L 6.6035156 4.8867188 L 7.5742188 3.9160156 L 7.5742188 3.40625 L 7.5800781 3.3398438 C 7.6107447 3.18998 7.7434141 3.078125 7.9023438 3.078125 C 8.0404 3.078125 8.1602199 3.162627 8.2089844 3.2832031 L 8.9082031 2.5820312 C 8.6698113 2.291786 8.3072539 2.1054688 7.9023438 2.1054688 C 7.7885587 2.1054688 7.6793981 2.1209735 7.5742188 2.1484375 L 7.5742188 1.7773438 L 7.5683594 1.6523438 C 7.5053733 0.99318915 6.9510483 0.47851562 6.2753906 0.47851562 z M 11.757812 1.1054688 L 0.10546875 12.757812 L 0.79101562 13.443359 L 12.443359 1.7910156 L 11.757812 1.1054688 z M 10.109375 5.4980469 L 8.2324219 7.3769531 L 8.2324219 9.3105469 L 9.203125 9.3105469 L 9.203125 6.6640625 L 9.2089844 6.5976562 C 9.2396504 6.4477924 9.37232 6.3339844 9.53125 6.3339844 C 9.712884 6.3339844 9.8613281 6.4824286 9.8613281 6.6640625 L 9.859375 9.7011719 L 9.8554688 9.7011719 L 9.8496094 9.8925781 C 9.7505994 11.784706 8.1843596 13.289062 6.2675781 13.289062 C 5.1857582 13.289063 4.2161422 12.810216 3.5585938 12.052734 L 2.8710938 12.740234 C 3.7055792 13.672847 4.9176367 14.259766 6.2675781 14.259766 C 8.7125925 14.259766 10.708291 12.333336 10.820312 9.9160156 L 10.824219 9.7167969 L 10.832031 9.7167969 L 10.832031 6.6640625 L 10.826172 6.5390625 C 10.782524 6.0822799 10.50207 5.6931139 10.109375 5.4980469 z " />
  <metadata
     id="metadata25">
    <rdf:RDF>
      <cc:Work
         rdf:about="">
        <dc:title>Line/Hand Line</dc:title>
      </cc:Work>
    </rdf:RDF>
  </metadata>
</svg>
