<?xml version="1.0" encoding="UTF-8"?>
<svg width="11px" height="15px" viewBox="0 0 11 15" version="1.1" xmlns="http://www.w3.org/2000/svg" xmlns:xlink="http://www.w3.org/1999/xlink">
    <title>Line/Hand</title>
    <g id="Page-1" stroke="none" stroke-width="1" fill="none" fill-rule="evenodd">
        <g id="Objects" transform="translate(-120.000000, -306.000000)" fill="#000000" fill-rule="nonzero">
            <g id="Line/Hand" transform="translate(118.000000, 306.000000)">
                <path d="M7.5,0.500003622 C8.19585783,0.500003622 8.76771226,1.03092909 8.83258144,1.70979539 L8.83870968,1.838723 L8.83797066,2.22084813 C8.94637515,2.19251736 9.06013594,2.17743513 9.17741935,2.17743513 C9.87327718,2.17743513 10.4451316,2.70836059 10.5100008,3.38722689 L10.516129,3.5161545 L10.5156923,5.57563218 C10.624006,5.54735235 10.7376643,5.53229814 10.8548387,5.53229814 C11.5506965,5.53229814 12.122551,6.0632236 12.1874202,6.7420899 L12.1935484,6.87101751 L12.1935484,10.0162016 L12.187,10.0160036 L12.182301,10.2149334 C12.0700083,12.7073862 10.013737,14.6936378 7.49354839,14.6936378 C4.9733598,14.6936378 2.91708851,12.7073862 2.80479581,10.2149334 L2.799966,10.0000894 L2.806,10.0000036 L2.80645161,5.19358601 C2.80645161,4.45423171 3.40581235,3.85486663 4.14516129,3.85486663 C4.26239625,3.85486663 4.3761115,3.86993641 4.48447563,3.89824453 L4.48387097,3.5161545 C4.48387097,2.77680021 5.08323171,2.17743513 5.82258065,2.17743513 C5.93981561,2.17743513 6.05353086,2.1925049 6.16189498,2.22081302 L6.16129032,1.838723 C6.16129032,1.0993687 6.76065106,0.500003622 7.5,0.500003622 Z M7.5,1.50000362 C7.33631883,1.50000362 7.19975511,1.61611528 7.1681717,1.77046069 L7.16129032,1.838723 L7.16129032,7.50005432 L6.16129032,7.50005432 L6.16129032,3.5161545 C6.16129032,3.32908896 6.00964483,3.17743513 5.82258065,3.17743513 C5.65889948,3.17743513 5.52233576,3.29354679 5.49075234,3.44789219 L5.48387097,3.5161545 L5.48387097,7.9194122 L4.48387097,7.9194122 L4.48387097,5.19358601 C4.48387097,5.00652046 4.33222548,4.85486663 4.14516129,4.85486663 C3.98148012,4.85486663 3.8449164,4.97097829 3.81333299,5.1253237 L3.80645161,5.19358601 L3.80645161,10.0162016 L3.799,10.0160036 L3.80509304,10.1962499 C3.90706354,12.1449467 5.51944656,13.6936378 7.49354839,13.6936378 C9.46765022,13.6936378 11.0800332,12.1449467 11.1820037,10.1962499 L11.1871308,10.0000894 L11.193,10.0000036 L11.1935484,6.87101751 C11.1935484,6.68395197 11.0419029,6.53229814 10.8548387,6.53229814 C10.6911575,6.53229814 10.5545938,6.6484098 10.5230104,6.8027552 L10.516129,6.87101751 L10.516129,9.59684371 L9.51612903,9.59684371 L9.51612903,3.5161545 C9.51612903,3.32908896 9.36448354,3.17743513 9.17741935,3.17743513 C9.01373819,3.17743513 8.87717447,3.29354679 8.84559105,3.44789219 L8.83870968,3.5161545 L8.83870968,7.50005432 L7.83870968,7.50005432 L7.83870968,1.838723 C7.83870968,1.65165745 7.68706419,1.50000362 7.5,1.50000362 Z" id="Combined-Shape"></path>
            </g>
        </g>
    </g>
</svg>