<?xml version="1.0" encoding="UTF-8"?>
<svg width="7px" height="13px" viewBox="0 0 7 13" version="1.1" xmlns="http://www.w3.org/2000/svg" xmlns:xlink="http://www.w3.org/1999/xlink">
    <title>Line/Height</title>
    <g id="Page-1" stroke="none" stroke-width="1" fill="none" fill-rule="evenodd">
        <g id="Arrows" transform="translate(-33.000000, -91.000000)" fill="#000000" fill-rule="nonzero">
            <g id="Shape" transform="translate(29.000000, 90.000000)">
                <path d="M7.87359112,1.68290955 L10.415964,4.20391839 C10.5946785,4.38113112 10.5946785,4.66844972 10.415964,4.84566221 C10.2372495,5.02287494 9.94749578,5.02287494 9.76878127,4.84566221 L8.00762712,3.09930709 L8.00762664,12.000693 L9.76878079,10.254338 C9.9474953,10.0771258 10.237249,10.0771258 10.4159635,10.254338 C10.594678,10.4315512 10.594678,10.7188691 10.4159635,10.8960823 L7.87359064,13.4170908 C7.78776893,13.5021916 7.67136967,13.55 7.55,13.55 C7.42862936,13.55 7.3122301,13.5021916 7.22640839,13.4170908 L4.68403585,10.8960823 C4.50532137,10.7188691 4.50532137,10.4315512 4.68403588,10.254338 C4.86275037,10.0771258 5.15250383,10.0771258 5.3312183,10.254338 L7.09237239,12.000693 L7.09237288,3.09930697 L5.33121849,4.84566173 C5.15250399,5.02287446 4.86275057,5.02287446 4.68403609,4.84566173 C4.50532162,4.668449 4.50532162,4.3811304 4.68403612,4.20391791 L7.22640888,1.68290952 C7.40512339,1.50569682 7.69487685,1.50569682 7.87359112,1.68290955 Z"></path>
            </g>
        </g>
    </g>
</svg>