<?xml version="1.0" encoding="UTF-8"?>
<svg width="13px" height="13px" viewBox="0 0 13 13" version="1.1" xmlns="http://www.w3.org/2000/svg" xmlns:xlink="http://www.w3.org/1999/xlink">
    <title>Line/Image</title>
    <g id="Page-1" stroke="none" stroke-width="1" fill="none" fill-rule="evenodd">
        <g id="Objects" transform="translate(-90.000000, -163.000000)" fill="#000000">
            <g id="Shape" transform="translate(89.000000, 162.000000)">
                <path d="M5.74921894,5.5 C5.74921894,6.46692944 6.53307009,7.25078106 7.5,7.25078106 C8.46692944,7.25078106 9.25078106,6.46692944 9.25078106,5.5 C9.25078106,4.53307033 8.46692944,3.7492187 7.5,3.7492187 C6.53307009,3.7492187 5.74921894,4.53307033 5.74921894,5.5 Z M7.5,4.6492188 C7.96987343,4.6492188 8.35078144,5.03012657 8.35078144,5.5 C8.35078144,5.96987343 7.96987343,6.35078144 7.5,6.35078144 C7.03012657,6.35078144 6.64921856,5.96987343 6.64921856,5.5 C6.64921856,5.03012657 7.03012657,4.6492188 7.5,4.6492188 Z M12.5,1 C13.3284264,1 14,1.67157245 14,2.5 L14,12.5 C14,13.3284264 13.3284273,14 12.5,14 L2.5,14 C1.67157352,14 1,13.3284273 1,12.5 L1,2.5 C1,1.67157352 1.67157245,1 2.5,1 L12.5,1 Z M2,2.5 L2,8.36360359 L3.68180203,6.6818018 C3.76809049,6.59551334 3.88572311,6.54796886 4.00773549,6.55006647 C4.12974787,6.55216408 4.24567676,6.60372448 4.32894802,6.69292831 L7.87355042,10.4900532 L10.6818018,7.6818018 C10.8575382,7.50606585 11.1424618,7.50606585 11.3181982,7.6818018 L13,9.36360359 L13,2.5 C13,2.22385764 12.7761421,2 12.5,2 L2.5,2 C2.22385764,2 2,2.22385776 2,2.5 Z M2,9.63639641 L3.98886728,7.64752865 L7.53110266,11.4421186 L8.94113255,13 L2.5,13 C2.22385776,13 2,12.7761421 2,12.5 L2,9.63639641 Z M10.1550312,13 L8.48335695,11.1530399 L11,8.63639641 L13,10.6363964 L13,12.5 C13,12.7761421 12.7761421,13 12.5,13 L10.1550312,13 Z"></path>
            </g>
        </g>
    </g>
</svg>