<?xml version="1.0" encoding="UTF-8" standalone="no"?>
<svg
   xmlns:dc="http://purl.org/dc/elements/1.1/"
   xmlns:cc="http://creativecommons.org/ns#"
   xmlns:rdf="http://www.w3.org/1999/02/22-rdf-syntax-ns#"
   xmlns:svg="http://www.w3.org/2000/svg"
   xmlns="http://www.w3.org/2000/svg"
   xmlns:sodipodi="http://sodipodi.sourceforge.net/DTD/sodipodi-0.dtd"
   xmlns:inkscape="http://www.inkscape.org/namespaces/inkscape"
   width="14px"
   height="14px"
   viewBox="0 0 14 14"
   version="1.1"
   id="svg9"
   sodipodi:docname="Information.svg"
   inkscape:version="0.92.4 (5da689c313, 2019-01-14)">
  <metadata
     id="metadata15">
    <rdf:RDF>
      <cc:Work
         rdf:about="">
        <dc:format>image/svg+xml</dc:format>
        <dc:type
           rdf:resource="http://purl.org/dc/dcmitype/StillImage" />
      </cc:Work>
    </rdf:RDF>
  </metadata>
  <defs
     id="defs13" />
  <sodipodi:namedview
     pagecolor="#ffffff"
     bordercolor="#666666"
     borderopacity="1"
     objecttolerance="10"
     gridtolerance="10"
     guidetolerance="10"
     inkscape:pageopacity="0"
     inkscape:pageshadow="2"
     inkscape:window-width="1920"
     inkscape:window-height="1147"
     id="namedview11"
     showgrid="false"
     inkscape:zoom="33.714286"
     inkscape:cx="4.3904275"
     inkscape:cy="7.6165061"
     inkscape:window-x="1912"
     inkscape:window-y="-8"
     inkscape:window-maximized="1"
     inkscape:current-layer="svg9" />
  <title
     id="title2">Line/Information</title>
  <path
     inkscape:connector-curvature="0"
     id="path4"
     d="m 7.0000211,4.6221395 c -0.4378098,0 -0.7927124,-0.3549101 -0.7927124,-0.7927125 0,-0.4378035 0.3549026,-0.7927125 0.7927124,-0.7927125 0.4377993,0 0.7927125,0.354909 0.7927125,0.7927125 0,0.4378024 -0.3549132,0.7927125 -0.7927125,0.7927125 z m 1.163e-4,0.7927124 c 0.2918662,0 0.528475,0.2366057 0.528475,0.528475 v 3.6993249 h 1.05695 v 1.0569502 h -3.17085 V 9.6426518 h 1.05695 V 6.4718019 h -1.05695 v -1.05695 z M 0,7 c 0,3.865962 3.1340046,7.000002 7,7.000002 3.865964,0 7,-3.134038 7,-7.000002 C 14,3.1340089 10.865964,-2.115e-6 7,-2.115e-6 3.1340152,-2.115e-6 0,3.1340099 0,7 Z M 7,1.0041004 c 3.311414,0 5.995898,2.6844616 5.995898,5.9958996 0,3.311413 -2.684484,5.9959 -5.995898,5.9959 C 3.6885652,12.9959 1.0041025,10.311414 1.0041025,7 1.0041025,3.6885609 3.6885652,1.0041004 7,1.0041004 Z"
     style="fill:#000000;fill-rule:evenodd;stroke:none;stroke-width:1.05694997" />
</svg>
