<?xml version="1.0" encoding="UTF-8" standalone="no"?>
<svg
   width="14px"
   height="14px"
   viewBox="0 0 14 14"
   version="1.1"
   id="svg9"
   sodipodi:docname="Initialized Fds.svg"
   inkscape:version="1.1.1 (3bf5ae0d25, 2021-09-20)"
   xmlns:inkscape="http://www.inkscape.org/namespaces/inkscape"
   xmlns:sodipodi="http://sodipodi.sourceforge.net/DTD/sodipodi-0.dtd"
   xmlns="http://www.w3.org/2000/svg"
   xmlns:svg="http://www.w3.org/2000/svg"
   xmlns:rdf="http://www.w3.org/1999/02/22-rdf-syntax-ns#"
   xmlns:cc="http://creativecommons.org/ns#"
   xmlns:dc="http://purl.org/dc/elements/1.1/">
  <defs
     id="defs13" />
  <sodipodi:namedview
     id="namedview11"
     pagecolor="#ffffff"
     bordercolor="#666666"
     borderopacity="1.0"
     inkscape:pageshadow="2"
     inkscape:pageopacity="0.0"
     inkscape:pagecheckerboard="0"
     showgrid="false"
     inkscape:zoom="51.357143"
     inkscape:cx="7"
     inkscape:cy="7"
     inkscape:window-width="1920"
     inkscape:window-height="1017"
     inkscape:window-x="242"
     inkscape:window-y="1432"
     inkscape:window-maximized="1"
     inkscape:current-layer="svg9" />
  <title
     id="title2">Line/Initialized</title>
  <path
     id="Combined-Shape"
     style="fill:#000000;fill-rule:nonzero;stroke:none;stroke-width:1"
     d="M 6.6503906 0 C 2.5875709 0 -1.1842379e-15 3.3357899 0 6.6503906 C 0 9.9649912 2.5875709 13.300781 6.6503906 13.300781 C 8.5942311 13.300781 10.212936 12.52989 11.365234 11.357422 C 11.982197 10.72966 12.462496 9.9896533 12.791016 9.1914062 C 12.896111 8.9360443 12.774893 8.6422043 12.519531 8.5371094 C 12.264169 8.4320145 11.972283 8.5551846 11.867188 8.8105469 C 11.586354 9.4929271 11.17414 10.125286 10.650391 10.658203 C 9.6785724 11.64703 8.3154502 12.300781 6.6503906 12.300781 C 3.2102099 12.300781 1 9.4857902 1 6.6503906 C 1 3.8149913 3.2102099 1 6.6503906 1 C 9.4287402 1 10.80158 3.0567896 11.386719 4.1503906 L 9.6503906 4.1503906 C 9.3742482 4.1503906 9.1503906 4.3742485 9.1503906 4.6503906 C 9.1503906 4.9265327 9.3742482 5.1503906 9.6503906 5.1503906 L 12.650391 5.1503906 C 12.926533 5.1503906 13.150391 4.9265327 13.150391 4.6503906 L 13.150391 1.6503906 C 13.150391 1.3742482 12.926533 1.1503906 12.650391 1.1503906 C 12.374249 1.1503906 12.150391 1.3742482 12.150391 1.6503906 L 12.150391 3.4628906 C 11.445864 2.2209657 9.8163564 -2.9605947e-16 6.6503906 0 z M 6.9179688 2 L 3 7.0371094 L 7.4863281 7.0371094 L 5.6855469 9.1777344 L 4.7148438 8.2070312 L 4.7148438 10.896484 L 5.7167969 10.896484 L 5.7480469 10.921875 L 5.7695312 10.896484 L 7.40625 10.896484 L 6.515625 10.007812 L 10 5.8671875 L 5.390625 5.8671875 L 7.8417969 2.71875 L 6.9179688 2 z " />
  <metadata
     id="metadata25">
    <rdf:RDF>
      <cc:Work
         rdf:about="">
        <dc:title>Line/Initialized</dc:title>
      </cc:Work>
    </rdf:RDF>
  </metadata>
</svg>
