<?xml version="1.0" encoding="UTF-8"?>
<svg width="11px" height="13px" viewBox="0 0 11 13" version="1.1" xmlns="http://www.w3.org/2000/svg" xmlns:xlink="http://www.w3.org/1999/xlink">
    <title>Line/Input</title>
    <g id="Page-1" stroke="none" stroke-width="1" fill="none" fill-rule="evenodd">
        <g id="Abstract" transform="translate(-61.000000, -163.000000)" fill="#000000">
            <g id="Shape" transform="translate(59.000000, 162.000000)">
                <path d="M7.95004892,1.44999999 L7.95004892,8.36360407 L10.1818504,6.13180208 C10.3575859,5.95606613 10.6425114,5.95606613 10.8182468,6.13180208 C10.9939823,6.30753803 10.9939823,6.59246206 10.8182468,6.76819801 L7.81824684,9.76819801 C7.64251089,9.94393349 7.35758686,9.94393349 7.18185091,9.76819801 L4.18185067,6.76819801 C4.00611496,6.59246206 4.00611496,6.30753803 4.18185067,6.13180208 C4.35758662,5.95606613 4.64251089,5.95606613 4.81824684,6.13180208 L7.05004883,8.36360455 L7.05004883,1.44999999 C7.05004883,1.20147185 7.25152063,1 7.50004864,1 C7.74857712,1 7.95004892,1.20147185 7.95004892,1.44999999 Z M3,10.4500122 L3,11.9500122 C3,12.5038862 3.44565058,12.9500122 3.99634886,12.9500122 L11.0011511,12.9500122 C11.5529366,12.9500122 12,12.5027962 12,11.9500122 L12,10.4500122 C12,10.1738701 12.2238588,9.95001221 12.5,9.95001221 C12.7761431,9.95001221 13,10.1738701 13,10.4500122 L13,11.9500122 C13,13.0540819 12.1062202,13.9500122 11.0011511,13.9500122 L3.99634886,13.9500122 C2.89019275,13.9500122 2,13.0529928 2,11.9500122 L2,10.4500122 C2,10.1738701 2.22385761,9.95001221 2.5,9.95001221 C2.77614236,9.95001221 3,10.1738701 3,10.4500122 Z"></path>
            </g>
        </g>
    </g>
</svg>