<?xml version="1.0" encoding="UTF-8"?>
<svg width="13px" height="13px" viewBox="0 0 13 13" version="1.1" xmlns="http://www.w3.org/2000/svg" xmlns:xlink="http://www.w3.org/1999/xlink">
    <title>Line/Link</title>
    <g id="Page-1" stroke="none" stroke-width="1" fill="none" fill-rule="evenodd">
        <g id="Objects" transform="translate(-30.000000, -271.000000)" fill="#000000">
            <g id="Shape" transform="translate(29.000000, 270.000000)">
                <path d="M10.5285311,2.80358459 C10.6727972,2.89832808 10.8268671,3.04869391 11.2387543,3.46058155 C11.6506414,3.87246872 11.8010082,4.02653934 11.8957519,4.17080594 C12.3129978,4.80614854 12.3039999,5.66131211 11.8445349,6.33766843 C11.7396707,6.49203397 11.5773687,6.65750171 11.1503668,7.08450366 L10.5316486,7.70322229 C10.3363857,7.89848424 10.3363857,8.21506644 10.5316477,8.41032888 C10.7269096,8.60559083 11.0434923,8.60559131 11.2387543,8.41032888 L11.9004049,7.74868823 C12.2700424,7.37915994 12.5065794,7.14269305 12.6717214,6.89959622 C13.3469524,5.90562106 13.3818064,4.61191798 12.731617,3.62187101 C12.5730467,3.38041569 12.3419418,3.14940287 11.9905062,2.79810763 L11.9012203,2.70882035 C11.5499306,2.35739083 11.3189192,2.12628801 11.077466,1.96771909 C10.0874185,1.31752963 8.79371594,1.35238494 7.79974126,2.02761538 C7.55664014,2.19275946 7.32016944,2.42930115 6.95063161,2.79894961 L6.28900813,3.46058155 C6.0937457,3.65584351 6.0937457,3.97242595 6.28900813,4.16768814 C6.48427009,4.36295034 6.80085277,4.36295034 6.99611472,4.16768838 L7.61483335,3.54896999 C8.0418353,3.12196804 8.20730304,2.95966602 8.3616681,2.85480214 C9.03802537,2.395337 9.89318847,2.3863386 10.5285311,2.80358459 Z M4.16768788,6.28900863 C3.97242569,6.0937462 3.65584325,6.0937462 3.46058105,6.28900863 L2.79894864,6.95063306 C2.42930066,7.32016994 2.1927595,7.55664016 2.0276153,7.79974128 C1.35238527,8.79371549 1.31752943,10.0874186 1.96771883,11.077466 C2.12628894,11.3189211 2.35739445,11.5499344 2.70883023,11.9012299 L2.79810034,11.9905005 C3.14939903,12.3419399 3.38041376,12.5730467 3.62187122,12.7316179 C4.61191796,13.3818073 5.90562152,13.3469515 6.89959573,12.6717215 C7.14269399,12.5065794 7.37916278,12.2700405 7.7486925,11.9004011 L8.41032838,11.2387562 C8.60559081,11.0434933 8.60559081,10.7269116 8.41032838,10.5316486 C8.21506642,10.3363867 7.89848374,10.3363867 7.70322179,10.5316486 L7.08450364,11.1503668 C6.65750217,11.5773687 6.49203395,11.7396708 6.33766889,11.8445349 C5.66131209,12.3039999 4.80614804,12.3129988 4.17080544,11.8957529 C4.02653884,11.8010092 3.8724687,11.6506434 3.46058117,11.2387552 C3.04869401,10.8268681 2.89832782,10.6727982 2.80358433,10.5285311 C2.38633846,9.89318944 2.3953371,9.03802491 2.854802,8.36166812 C2.959666,8.20730306 3.12196754,8.0418358 3.5489695,7.61483384 L4.16768788,6.99611522 C4.36295008,6.80085326 4.36295008,6.48427058 4.16768788,6.28900863 Z M9.47145223,5.22786761 C9.27619027,5.03260542 8.95960759,5.03260542 8.76434564,5.22786761 L5.22881197,8.76340152 C5.03354978,8.95866347 5.03354978,9.27524615 5.22881197,9.47050811 C5.42407393,9.66577006 5.74065637,9.66577006 5.93591832,9.47050811 L9.47145223,5.9349742 C9.66671466,5.73971225 9.66671466,5.42312957 9.47145223,5.22786761 Z"></path>
            </g>
        </g>
    </g>
</svg>