<?xml version="1.0" encoding="UTF-8"?>
<svg width="15px" height="15px" viewBox="0 0 15 15" version="1.1" xmlns="http://www.w3.org/2000/svg" xmlns:xlink="http://www.w3.org/1999/xlink">
    <title>Line/Link Break</title>
    <g id="Page-1" stroke="none" stroke-width="1" fill="none" fill-rule="evenodd">
        <g id="Objects" transform="translate(-59.000000, -270.000000)" fill="#000000">
            <g id="Shape" transform="translate(59.000000, 270.000000)">
                <path d="M5,0.5 L5,2.5 C5,2.77614236 4.7761426,3 4.5,3 C4.22385788,3 4,2.77614236 4,2.5 L4,0.5 C4,0.223857611 4.22385788,0 4.5,0 C4.7761426,0 5,0.223857611 5,0.5 Z M1.35326624,0.646483302 L2.85326624,2.14648342 C3.04852843,2.34174538 3.04852843,2.65832806 2.85326624,2.85359001 C2.65800428,3.04885221 2.3414216,3.04885221 2.14615965,2.85359001 L0.64615953,1.35359013 C0.450897336,1.15832806 0.450897336,0.841745496 0.64615947,0.646483302 C0.841421604,0.451221168 1.15800405,0.451221168 1.35326624,0.646483302 Z M0.5,4 L2.5,4 C2.77614236,4 3,4.2238574 3,4.5 C3,4.7761426 2.77614236,5 2.5,5 L0.5,5 C0.223857611,5 0,4.7761426 0,4.5 C0,4.2238574 0.223857611,4 0.5,4 Z M12.5,10 L14.5,10 C14.7761431,10 15,10.2238579 15,10.5 C15,10.7761421 14.7761431,11 14.5,11 L12.5,11 C12.2238579,11 12,10.7761421 12,10.5 C12,10.2238579 12.2238579,10 12.5,10 Z M11,12.5 L11,14.5 C11,14.7761421 10.7761421,15 10.5,15 C10.2238579,15 10,14.7761421 10,14.5 L10,12.5 C10,12.2238579 10.2238579,12 10.5,12 C10.7761421,12 11,12.2238579 11,12.5 Z M12.8532629,12.1464767 L14.3532629,13.6464767 C14.5485258,13.8417397 14.5485258,14.1583214 14.3532629,14.3535843 C14.1580019,14.5488462 13.8414183,14.5488462 13.6461573,14.3535843 L12.1461563,12.8535843 C11.9508944,12.6583214 11.9508944,12.3417397 12.1461563,12.1464767 C12.3414192,11.9512148 12.6580019,11.9512148 12.8532629,12.1464767 Z M8.51146698,3.00528407 C9.1878233,2.54581904 10.0429869,2.53682089 10.6783295,2.95406675 C10.8225965,3.04880977 10.9766665,3.19917607 11.3885536,3.61106348 C11.8004417,4.02295065 11.9508076,4.17702103 12.0455503,4.32128811 C12.4627972,4.95663023 12.4537983,5.8117938 11.9943333,6.4881506 C11.8894691,6.64251614 11.7271671,6.80798388 11.3001652,7.23498535 L10.681447,7.85370398 C10.4861851,8.04896593 10.4861851,8.36554813 10.681447,8.56081009 C10.8767099,8.75607204 11.1932917,8.75607204 11.3885536,8.56081009 L12.0501852,7.89918756 C12.4198351,7.52964926 12.6563759,7.29317951 12.8215199,7.05007792 C13.4967499,6.05610371 13.5316067,4.76240015 12.8814173,3.77235317 C12.722847,3.53089809 12.4917421,3.29988503 12.1403065,2.94859147 L12.0510263,2.8593111 C11.6997328,2.50787592 11.4687195,2.27677131 11.2272644,2.11820078 C10.2372169,1.46801186 8.94351387,1.50286758 7.94954014,2.17809725 C7.70644045,2.34324074 7.46997166,2.57978058 7.10043859,2.94942451 L6.43880701,3.61106348 C6.24354458,3.80632567 6.24354458,4.12290812 6.43880701,4.31817007 C6.63406897,4.5134325 6.95065117,4.5134325 7.1459136,4.31817007 L7.76463223,3.69945192 C8.19163322,3.27245021 8.35710144,3.11014819 8.51146698,3.00528407 Z M2.17741394,7.95022297 C1.50218403,8.94419718 1.46732819,10.2379017 2.11751747,11.2279491 C2.27608562,11.4694014 2.50718713,11.7004099 2.85861564,12.0516987 L2.94790149,12.1409855 C3.2991848,12.4924088 3.53021932,12.7235336 3.77166986,12.8821011 C4.76171684,13.5322895 6.0554204,13.4974337 7.04939508,12.8222046 C7.2924962,12.6570597 7.52896643,12.4205179 7.89850426,12.050869 L8.56012726,11.3892384 C8.75538921,11.1939754 8.75538921,10.8773928 8.56012726,10.6821308 C8.3648653,10.4868679 8.04828262,10.4868679 7.85302067,10.6821308 L7.23430204,11.3008499 C6.80730057,11.7278509 6.64183235,11.8901539 6.48746729,11.995018 C5.8111105,12.454483 4.95594692,12.4634819 4.32060432,12.046236 C4.17633772,11.9514923 4.02226686,11.8011255 3.6103797,11.3892384 C3.19849277,10.9773512 3.0481267,10.8232803 2.95338297,10.6790142 C2.5361371,10.0436716 2.54513597,9.18850708 3.00460076,8.51214981 C3.10946488,8.35778427 3.27176666,8.19231749 3.69876814,7.76531553 L4.31748676,7.14659739 C4.51274872,6.95133543 4.51274872,6.63475275 4.31748676,6.43949032 C4.12222433,6.24422836 3.80564213,6.24422836 3.6103797,6.43949032 L2.9487443,7.10111761 C2.57909775,7.47065353 2.34255791,7.7071228 2.17741394,7.95022297 Z"></path>
            </g>
        </g>
    </g>
</svg>