<?xml version="1.0" encoding="UTF-8" standalone="no"?>
<svg
   width="13px"
   height="13px"
   viewBox="0 0 13 13"
   version="1.1"
   id="svg9"
   sodipodi:docname="LinkVertical.svg"
   inkscape:version="1.1.1 (3bf5ae0d25, 2021-09-20)"
   xmlns:inkscape="http://www.inkscape.org/namespaces/inkscape"
   xmlns:sodipodi="http://sodipodi.sourceforge.net/DTD/sodipodi-0.dtd"
   xmlns="http://www.w3.org/2000/svg"
   xmlns:svg="http://www.w3.org/2000/svg"
   xmlns:rdf="http://www.w3.org/1999/02/22-rdf-syntax-ns#"
   xmlns:cc="http://creativecommons.org/ns#"
   xmlns:dc="http://purl.org/dc/elements/1.1/">
  <defs
     id="defs13" />
  <sodipodi:namedview
     id="namedview11"
     pagecolor="#ffffff"
     bordercolor="#666666"
     borderopacity="1.0"
     inkscape:pageshadow="2"
     inkscape:pageopacity="0.0"
     inkscape:pagecheckerboard="0"
     showgrid="false"
     inkscape:zoom="24.846154"
     inkscape:cx="0.42260062"
     inkscape:cy="6.0773994"
     inkscape:window-width="1536"
     inkscape:window-height="890"
     inkscape:window-x="-6"
     inkscape:window-y="-6"
     inkscape:window-maximized="1"
     inkscape:current-layer="Shape" />
  <title
     id="title2">Line/Link</title>
  <g
     id="Page-1"
     stroke="none"
     stroke-width="1"
     fill="none"
     fill-rule="evenodd">
    <g
       id="Objects"
       fill="#000000">
      <g
         id="Shape">
        <path
           d="m 5.8540409,1.0833532 c 0.1689691,-0.035192 0.3842348,-0.038034 0.9667313,-0.038634 0.5824961,-6.011e-4 0.7977684,0.0018 0.9668103,0.036639 0.7444512,0.1534495 1.3434109,0.7638862 1.497605,1.5668744 0.035192,0.1832669 0.037669,0.4150327 0.038293,1.0189043 l 9.033e-4,0.8749995 C 9.3246681,4.818279 9.5487565,5.0419053 9.8248985,5.0416207 10.10104,5.0413357 10.324667,4.8172474 10.324382,4.5411051 L 10.323423,3.6053975 C 10.322961,3.0827285 10.322666,2.7482644 10.267245,2.459653 10.040641,1.2795792 9.1495318,0.34106654 7.9894622,0.101948 7.706541,0.04363137 7.3797747,0.04403368 6.8828693,0.04464571 L 6.756599,0.04477504 C 6.2597017,0.04518894 5.9329377,0.0454615 5.65014,0.1043614 4.4905659,0.34587404 3.6013964,1.2862244 3.3772283,2.4667626 3.3224023,2.7554923 3.3227976,3.0899623 3.3234152,3.6126456 L 3.3243868,4.548328 C 3.3246714,4.8244703 3.5487599,5.0480967 3.8249024,5.0478116 4.1010445,5.0475268 4.3246711,4.8234382 4.3243862,4.5472962 L 4.3234834,3.6722966 C 4.3228602,3.0684249 4.3248596,2.8366545 4.359673,2.653316 4.51221,1.8500104 5.1099079,1.2383388 5.8540409,1.0833532 Z M 3.8279984,8.04781 C 3.5518559,8.0480948 3.3282295,8.2721833 3.3285146,8.5483258 l 9.599e-4,0.9356836 c 4.608e-4,0.5226816 7.558e-4,0.8571516 0.056178,1.1457676 0.226604,1.180072 1.1177124,2.118586 2.2777824,2.357705 0.2829208,0.05832 0.609688,0.05791 1.1065936,0.0573 l 0.1262473,-1.3e-4 c 0.4969107,-4.13e-4 0.8236799,-6.85e-4 1.1064822,-0.05959 1.1595735,-0.241513 2.048744,-1.181864 2.272912,-2.362402 0.05482,-0.288726 0.05443,-0.6231926 0.05381,-1.1458636 L 10.328511,8.5411023 C 10.328225,8.2649594 10.104137,8.0413334 9.8279942,8.041618 9.5518522,8.041903 9.328226,8.2659917 9.3285109,8.5421336 l 9.03e-4,0.8749988 c 6.235e-4,0.6038716 -0.00138,0.8356416 -0.036189,1.0189806 -0.1525368,0.803305 -0.750235,1.414978 -1.4943679,1.569963 -0.1689696,0.03519 -0.3842355,0.03803 -0.9667326,0.03863 -0.5824961,6.01e-4 -0.7977675,-0.0018 -0.9668095,-0.03664 C 5.1208639,11.854622 4.521904,11.244185 4.3677096,10.441196 4.3325179,10.25793 4.3300402,10.026165 4.3294171,9.4222934 L 4.328514,8.5472937 C 4.3282292,8.2711515 4.1041405,8.0475249 3.8279984,8.04781 Z M 6.8233401,3.5440489 C 6.5471979,3.5443337 6.3235713,3.7684223 6.3238564,4.0445644 l 0.00516,4.9999972 C 6.3293012,9.3207034 6.5533899,9.5443304 6.829532,9.5440454 7.105674,9.5437604 7.3293004,9.3196714 7.3290155,9.0435298 L 7.3238556,4.0435325 C 7.323571,3.7673902 7.0994824,3.5437636 6.8233401,3.5440489 Z"
           id="path4" />
      </g>
    </g>
  </g>
  <metadata
     id="metadata110">
    <rdf:RDF>
      <cc:Work
         rdf:about="">
        <dc:title>Line/Link</dc:title>
      </cc:Work>
    </rdf:RDF>
  </metadata>
</svg>
