<?xml version="1.0" encoding="UTF-8"?>
<svg width="11px" height="14px" viewBox="0 0 11 14" version="1.1" xmlns="http://www.w3.org/2000/svg" xmlns:xlink="http://www.w3.org/1999/xlink">
    <title>Line/Lock</title>
    <g id="Page-1" stroke="none" stroke-width="1" fill="none" fill-rule="evenodd">
        <g id="Objects" transform="translate(-120.000000, -163.000000)" fill="#000000">
            <g id="Shape" transform="translate(118.000000, 162.000000)">
                <path d="M4,4.65771079 C4,3.60317922 4.29339004,2.67923367 4.91049075,2.01476336 C5.5325222,1.34498376 6.42674971,1 7.5014019,1 C8.57582569,1 9.46951532,1.34402639 10.0910187,2.01331854 C10.7075567,2.67726445 11,3.60065651 11,4.65494895 L11,6.02169037 L12,6.02169037 C12.5522842,6.02169037 13,6.46940565 13,7.02169037 L13,13.0216904 C13,13.5739746 12.5522852,14.0216904 12,14.0216904 L3,14.0216904 C2.44771552,14.0216904 2,13.5739746 2,13.0216904 L2,7.02169037 C2,6.46940613 2.44771504,6.02169037 3,6.02169037 L4,6.02169037 L4,4.65771079 Z M5.6432333,2.69526923 C6.03934336,2.26875293 6.6458168,2 7.5014019,2 C8.35744572,2 8.96305561,2.26821434 9.35823441,2.69377983 C9.75837803,3.12469149 10,3.77877402 10,4.65494895 L10,6.02169037 L5,6.02169037 L5,4.65771079 C5,3.78200483 5.24219227,3.12709475 5.6432333,2.69526923 Z M12,7.02169037 L12,13.0216904 L3,13.0216904 L3,7.02169037 L12,7.02169037 Z"></path>
            </g>
        </g>
    </g>
</svg>