<?xml version="1.0" encoding="UTF-8" standalone="no"?>
<svg
   width="13px"
   height="13px"
   viewBox="0 0 13 13"
   version="1.1"
   id="svg9"
   sodipodi:docname="Log Fds.svg"
   inkscape:version="1.1.1 (3bf5ae0d25, 2021-09-20)"
   xmlns:inkscape="http://www.inkscape.org/namespaces/inkscape"
   xmlns:sodipodi="http://sodipodi.sourceforge.net/DTD/sodipodi-0.dtd"
   xmlns="http://www.w3.org/2000/svg"
   xmlns:svg="http://www.w3.org/2000/svg"
   xmlns:rdf="http://www.w3.org/1999/02/22-rdf-syntax-ns#"
   xmlns:cc="http://creativecommons.org/ns#"
   xmlns:dc="http://purl.org/dc/elements/1.1/">
  <defs
     id="defs13" />
  <sodipodi:namedview
     id="namedview11"
     pagecolor="#ffffff"
     bordercolor="#666666"
     borderopacity="1.0"
     inkscape:pageshadow="2"
     inkscape:pageopacity="0.0"
     inkscape:pagecheckerboard="0"
     showgrid="false"
     inkscape:zoom="55.307692"
     inkscape:cx="6.5"
     inkscape:cy="6.5"
     inkscape:window-width="1920"
     inkscape:window-height="1017"
     inkscape:window-x="242"
     inkscape:window-y="1432"
     inkscape:window-maximized="1"
     inkscape:current-layer="svg9" />
  <title
     id="title2">Line/Log</title>
  <path
     id="Rectangle"
     style="color:#000000;fill:#000000;fill-rule:evenodd;-inkscape-stroke:none"
     d="M 2 0 C 0.90064972 0 0 0.90064972 0 2 L 0 11 C 0 12.09935 0.90064972 13 2 13 L 11 13 C 12.09935 13 13 12.09935 13 11 L 13 2 C 13 0.90064972 12.09935 0 11 0 L 2 0 z M 2 1 L 11 1 C 11.562648 1 12 1.4373519 12 2 L 12 11 C 12 11.562648 11.562648 12 11 12 L 2 12 C 1.4373519 12 1 11.562648 1 11 L 1 2 C 1 1.4373519 1.4373519 1 2 1 z M 6.2597656 5 C 6.0258515 5 5.8196542 5.0374878 5.640625 5.1132812 C 5.5060264 5.1694729 5.382568 5.2567432 5.2695312 5.3730469 C 5.1564946 5.4893506 5.0672922 5.6192653 5.0019531 5.765625 C 4.9143987 5.964256 4.8691406 6.2111869 4.8691406 6.5039062 C 4.8691406 6.9612802 4.9958378 7.319375 5.2480469 7.5800781 C 5.5002559 7.8407813 5.8402602 7.9707035 6.2675781 7.9707031 C 6.689669 7.9707031 7.0270879 7.8401349 7.2792969 7.578125 C 7.531506 7.316115 7.65625 6.9541423 7.65625 6.4902344 C 7.65625 6.0224061 7.5295598 5.6571947 7.2753906 5.3945312 C 7.0212213 5.1318683 6.6831633 5 6.2597656 5 z M 9.4375 5 C 9.163076 5 8.9323033 5.047183 8.7480469 5.1425781 C 8.5062921 5.2667225 8.3227168 5.445127 8.1972656 5.6777344 C 8.0718145 5.9103417 8.0097656 6.1773092 8.0097656 6.4765625 C 8.0097656 6.7522936 8.0653514 7.00762 8.1777344 7.2421875 C 8.2901177 7.476755 8.4581807 7.6570985 8.6816406 7.7832031 C 8.9051004 7.9093076 9.16819 7.9707031 9.46875 7.9707031 C 9.705278 7.9707031 9.9392749 7.9274055 10.169922 7.8378906 C 10.40057 7.7483756 10.575735 7.6449542 10.697266 7.5273438 L 10.697266 6.3828125 L 9.4472656 6.3828125 L 9.4472656 6.8652344 L 10.111328 6.8652344 L 10.111328 7.2304688 C 10.023774 7.2984215 9.919059 7.3565993 9.796875 7.4042969 C 9.674691 7.4519944 9.5531716 7.4765625 9.4316406 7.4765625 C 9.1859656 7.4765625 8.9875243 7.3912382 8.8359375 7.2207031 C 8.6843507 7.0501679 8.6074219 6.7941953 8.6074219 6.453125 C 8.6074219 6.1368835 8.6824044 5.8970624 8.8320312 5.7363281 C 8.9816579 5.5755938 9.183984 5.4960937 9.4375 5.4960938 C 9.604768 5.4960938 9.7437398 5.5374667 9.8554688 5.6191406 C 9.9671987 5.7008146 10.043474 5.8119924 10.083984 5.953125 L 10.660156 5.8457031 C 10.602658 5.581733 10.474029 5.3742361 10.273438 5.2246094 C 10.072845 5.0749828 9.794252 5 9.4375 5 z M 2.5507812 5.0722656 L 2.5507812 7.921875 L 4.5742188 7.921875 L 4.5742188 7.4375 L 3.1308594 7.4375 L 3.1308594 5.0722656 L 2.5507812 5.0722656 z M 6.265625 5.4960938 C 6.5047662 5.4960938 6.6954443 5.5762407 6.8398438 5.7382812 C 6.9842432 5.9003223 7.0566406 6.1472532 7.0566406 6.4765625 C 7.0566406 6.8097921 6.9823042 7.0599477 6.8339844 7.2265625 C 6.6856645 7.3931773 6.4969255 7.4765625 6.265625 7.4765625 C 6.0343244 7.4765625 5.8436394 7.3925308 5.6933594 7.2246094 C 5.5430794 7.0566879 5.4667969 6.8097639 5.4667969 6.484375 C 5.4667969 6.1537589 5.5411405 5.9061888 5.6875 5.7421875 C 5.8338596 5.5781863 6.0264837 5.4960938 6.265625 5.4960938 z " />
  <metadata
     id="metadata30">
    <rdf:RDF>
      <cc:Work
         rdf:about="">
        <dc:title>Line/Log</dc:title>
      </cc:Work>
    </rdf:RDF>
  </metadata>
</svg>
