<?xml version="1.0" encoding="UTF-8"?>
<svg width="9px" height="15px" viewBox="0 0 9 15" version="1.1" xmlns="http://www.w3.org/2000/svg" xmlns:xlink="http://www.w3.org/1999/xlink">
    <title>Line/Module Before</title>
    <g id="Page-1" stroke="none" stroke-width="1" fill="none" fill-rule="evenodd">
        <g id="Abstract" transform="translate(-32.000000, -234.000000)" fill="#000000" fill-rule="nonzero">
            <g id="Combined-Shape" transform="translate(29.000000, 234.000000)">
                <path d="M3.5,9.5 C3.22385763,9.5 3,9.27614237 3,9 L3,6.5 C3,6.22385763 3.22385763,6 3.5,6 L7,6 L7,3.5 L3.5,3.5 C3.22385763,3.5 3,3.27614237 3,3 L3,0.5 C3,0.223857625 3.22385763,0 3.5,0 L11.5,0 C11.7761424,0 12,0.223857625 12,0.5 L12,3 C12,3.27614237 11.7761424,3.5 11.5,3.5 L8,3.5 L8,6 L11.5,6 C11.7761424,6 12,6.22385763 12,6.5 L12,9 C12,9.27614237 11.7761424,9.5 11.5,9.5 L8,9.5 L8,11.5 L11.5,11.5 C11.7761424,11.5 12,11.7238576 12,12 L12,14.5 C12,14.7761424 11.7761424,15 11.5,15 L3.5,15 C3.22385763,15 3,14.7761424 3,14.5 L3,12 C3,11.7238576 3.22385763,11.5 3.5,11.5 L7,11.5 L7,9.5 L3.5,9.5 Z M11,12.5 L4,12.5 L4,14 L11,14 L11,12.5 Z M11,7 L4,7 L4,8.5 L11,8.5 L11,7 Z"></path>
            </g>
        </g>
    </g>
</svg>