<?xml version="1.0" encoding="UTF-8" standalone="no"?>
<svg
   width="9px"
   height="9px"
   viewBox="0 0 9 9"
   version="1.1"
   id="svg10"
   sodipodi:docname="Module Fds.svg"
   inkscape:version="1.1.1 (3bf5ae0d25, 2021-09-20)"
   xmlns:inkscape="http://www.inkscape.org/namespaces/inkscape"
   xmlns:sodipodi="http://sodipodi.sourceforge.net/DTD/sodipodi-0.dtd"
   xmlns="http://www.w3.org/2000/svg"
   xmlns:svg="http://www.w3.org/2000/svg"
   xmlns:rdf="http://www.w3.org/1999/02/22-rdf-syntax-ns#"
   xmlns:cc="http://creativecommons.org/ns#"
   xmlns:dc="http://purl.org/dc/elements/1.1/">
  <defs
     id="defs14" />
  <sodipodi:namedview
     id="namedview12"
     pagecolor="#ffffff"
     bordercolor="#666666"
     borderopacity="1.0"
     inkscape:pageshadow="2"
     inkscape:pageopacity="0.0"
     inkscape:pagecheckerboard="0"
     showgrid="false"
     inkscape:zoom="79.888889"
     inkscape:cx="4.5"
     inkscape:cy="4.5"
     inkscape:window-width="1920"
     inkscape:window-height="1017"
     inkscape:window-x="242"
     inkscape:window-y="1432"
     inkscape:window-maximized="1"
     inkscape:current-layer="svg10" />
  <title
     id="title2">Line/Module</title>
  <path
     id="Combined-Shape"
     style="fill:#000000;fill-rule:nonzero;stroke:none;stroke-width:1"
     d="M 4 0.5 L 4 3 L 0.5 3 C 0.2238576 3 0 3.2238576 0 3.5 L 0 6 C 0 6.2761424 0.2238576 6.5 0.5 6.5 L 4 6.5 L 4 9 L 5 9 L 5 6.5 L 8.5 6.5 C 8.776142 6.5 9 6.2761424 9 6 L 9 3.5 C 9 3.2238576 8.776142 3 8.5 3 L 5 3 L 5 0.5 L 4 0.5 z M 1 4 L 8 4 L 8 5.5 L 1 5.5 L 1 4 z " />
  <metadata
     id="metadata29">
    <rdf:RDF>
      <cc:Work
         rdf:about="">
        <dc:title>Line/Module</dc:title>
      </cc:Work>
    </rdf:RDF>
  </metadata>
</svg>
