<?xml version="1.0" encoding="UTF-8"?>
<svg width="15px" height="15px" viewBox="0 0 15 15" version="1.1" xmlns="http://www.w3.org/2000/svg" xmlns:xlink="http://www.w3.org/1999/xlink">
    <title>Line/Move</title>
    <g id="Page-1" stroke="none" stroke-width="1" fill="none" fill-rule="evenodd">
        <g id="Arrows" transform="translate(-29.000000, -108.000000)" fill="#000000">
            <g id="Shape" transform="translate(29.000000, 108.000000)">
                <path d="M7.18180161,0.931801941 L5.43180161,2.68180185 C5.25606566,2.8575378 5.25606566,3.14246207 5.43180161,3.31819802 C5.60753756,3.49393397 5.89246207,3.49393397 6.06819802,3.31819802 L6.99999982,2.38639611 L6.99999982,5.49999982 C6.99999982,5.77614241 7.22385722,5.99999982 7.49999982,5.99999982 C7.77614241,5.99999982 7.99999982,5.77614241 7.99999982,5.49999982 L7.99999982,2.38639611 L8.93180161,3.31819802 C9.10753804,3.49393397 9.39246159,3.49393397 9.56819802,3.31819802 C9.74393349,3.14246207 9.74393349,2.8575378 9.56819802,2.68180185 L7.81819802,0.931801941 C7.64246207,0.75606602 7.35753756,0.75606602 7.18180161,0.931801941 Z M7.49999982,8.99999982 C7.22385722,8.99999982 6.99999982,9.2238577 6.99999982,9.49999982 L6.99999982,12.6136034 L6.06819802,11.6818016 C5.89246207,11.5060661 5.60753756,11.5060661 5.43180161,11.6818016 C5.25606566,11.857538 5.25606566,12.1424616 5.43180161,12.318198 L7.18180161,14.068198 C7.35753756,14.2439335 7.64246207,14.2439335 7.81819802,14.068198 L9.56819802,12.318198 C9.74393349,12.1424616 9.74393349,11.857538 9.56819802,11.6818016 C9.39246159,11.5060661 9.10753804,11.5060661 8.93180161,11.6818016 L7.99999982,12.6136034 L7.99999982,9.49999982 C7.99999982,9.2238577 7.77614241,8.99999982 7.49999982,8.99999982 Z M9.49999982,6.99999982 L12.6136034,6.99999982 L11.6818016,6.06819802 C11.5060661,5.89246207 11.5060661,5.60753756 11.6818016,5.43180161 C11.857538,5.25606566 12.1424616,5.25606566 12.318198,5.43180161 L14.068198,7.18180161 C14.2439335,7.35753756 14.2439335,7.64246207 14.068198,7.81819802 L12.318198,9.56819802 C12.1424616,9.74393349 11.857538,9.74393349 11.6818016,9.56819802 C11.5060661,9.39246159 11.5060661,9.10753804 11.6818016,8.93180161 L12.6136034,7.99999982 L9.49999982,7.99999982 C9.2238577,7.99999982 8.99999982,7.77614241 8.99999982,7.49999982 C8.99999982,7.22385722 9.2238577,6.99999982 9.49999982,6.99999982 Z M2.38639611,6.99999982 L5.49999982,6.99999982 C5.77614241,6.99999982 5.99999982,7.22385722 5.99999982,7.49999982 C5.99999982,7.77614241 5.77614241,7.99999982 5.49999982,7.99999982 L2.38639611,7.99999982 L3.31819802,8.93180161 C3.49393397,9.10753804 3.49393397,9.39246159 3.31819802,9.56819802 C3.14246207,9.74393349 2.8575378,9.74393349 2.68180185,9.56819802 L0.931801941,7.81819802 C0.75606602,7.64246207 0.75606602,7.35753756 0.931801941,7.18180161 L2.68180185,5.43180161 C2.8575378,5.25606566 3.14246207,5.25606566 3.31819802,5.43180161 C3.49393397,5.60753756 3.49393397,5.89246207 3.31819802,6.06819802 L2.38639611,6.99999982 Z"></path>
            </g>
        </g>
    </g>
</svg>