<?xml version="1.0" encoding="UTF-8"?>
<svg width="12px" height="11px" viewBox="0 0 12 11" version="1.1" xmlns="http://www.w3.org/2000/svg" xmlns:xlink="http://www.w3.org/1999/xlink">
    <title>Line/Next</title>
    <g id="Page-1" stroke="none" stroke-width="1" fill="none" fill-rule="evenodd">
        <g id="Player" transform="translate(-91.000000, -38.000000)" fill="#000000">
            <g id="Shape" transform="translate(89.000000, 36.000000)">
                <path d="M12.5002441,2 C12.1964874,2 11.9502439,2.24624339 11.9502439,2.55000001 L11.9502439,7.08261442 C11.9046011,6.98813391 11.8295403,6.90862036 11.7333794,6.85786867 L2.7333793,2.10786867 C2.57839519,2.02607149 2.39189905,2.03138483 2.24182338,2.1218732 C2.0917477,2.2123616 2,2.37481591 2,2.55006105 L2,12.0500612 C2,12.2253056 2.0917477,12.3877602 2.24182338,12.4782486 C2.39189905,12.568737 2.57839519,12.5740499 2.7333793,12.4922533 L11.7333794,7.7422533 C11.8295403,7.69150162 11.9046011,7.61198807 11.9502439,7.51750755 L11.9502439,12.0500002 C11.9502439,12.3537569 12.1964874,12.6000004 12.5002441,12.6000004 C12.8040009,12.6000004 13.0502443,12.3537569 13.0502443,12.0500002 L13.0502443,2.55000001 C13.0502443,2.24624339 12.8040009,2 12.5002441,2 Z M3,11.2208071 L3,3.37931466 L10.4287825,7.30006075 L3,11.2208071 Z"></path>
            </g>
        </g>
    </g>
</svg>