<?xml version="1.0" encoding="UTF-8"?>
<svg width="14px" height="14px" viewBox="0 0 14 14" version="1.1" xmlns="http://www.w3.org/2000/svg" xmlns:xlink="http://www.w3.org/1999/xlink">
    <title>Line/Not Initialized</title>
    <g id="Page-1" stroke="none" stroke-width="1" fill="none" fill-rule="evenodd">
        <g id="Abstract" transform="translate(-208.000000, -55.000000)" fill="#000000">
            <g id="Combined-Shape" transform="translate(207.000000, 54.000000)">
                <path d="M7.62283182,1 C11.2804909,1 14.2456636,3.96514606 14.2456636,7.62283182 C14.2456636,11.2804918 11.2804918,14.2456636 7.62283182,14.2456636 C3.96514606,14.2456636 1,11.2804909 1,7.62283182 C1,3.96514726 3.96514726,1 7.62283182,1 Z M7.62283182,1.94999999 C6.32877951,1.94999999 5.13592639,2.38329293 4.18143976,3.11271153 L3.98060536,3.27349806 L5.716,5.009 L5.081,5.788 L3.2734983,3.98060513 C2.4474026,4.96603489 1.94999999,6.2363472 1.94999999,7.62283182 C1.94999999,10.7558222 4.48981905,13.2956638 7.62283182,13.2956638 C9.00930595,13.2956638 10.2796173,12.7982559 11.265049,11.9721565 L9.219,9.926 L9.882,9.175 L11.9721565,11.265049 C12.7431826,10.3453128 13.2278819,9.17741467 13.2890817,7.89852782 L13.2956638,7.62283182 C13.2956638,6.94379956 13.1763576,6.29263192 12.9575642,5.68914722 L13,5.63962544 L12.9391842,5.63918917 C12.1348494,3.48443472 10.0580164,1.94999999 7.62283182,1.94999999 Z M7.91781121,3 L8.84099236,3.71802979 L6.39026949,6.8676431 L11,6.8676431 L7.516,11.007 L8.40539162,11.8966769 L6.769,11.896 L6.747697,11.9222674 L6.716,11.896 L5.71544333,11.8966769 L5.71544333,9.20672858 L6.686,10.177 L8.48725962,8.03718584 L4,8.03718584 L7.91781121,3 Z"></path>
            </g>
        </g>
    </g>
</svg>