<?xml version="1.0" encoding="UTF-8" standalone="no"?>
<svg
   width="11px"
   height="14px"
   viewBox="0 0 11 14"
   version="1.1"
   id="svg9"
   sodipodi:docname="Oblique Light Fds.svg"
   inkscape:version="1.1.1 (3bf5ae0d25, 2021-09-20)"
   xmlns:inkscape="http://www.inkscape.org/namespaces/inkscape"
   xmlns:sodipodi="http://sodipodi.sourceforge.net/DTD/sodipodi-0.dtd"
   xmlns="http://www.w3.org/2000/svg"
   xmlns:svg="http://www.w3.org/2000/svg"
   xmlns:rdf="http://www.w3.org/1999/02/22-rdf-syntax-ns#"
   xmlns:cc="http://creativecommons.org/ns#"
   xmlns:dc="http://purl.org/dc/elements/1.1/">
  <defs
     id="defs13" />
  <sodipodi:namedview
     id="namedview11"
     pagecolor="#ffffff"
     bordercolor="#666666"
     borderopacity="1.0"
     inkscape:pageshadow="2"
     inkscape:pageopacity="0.0"
     inkscape:pagecheckerboard="0"
     showgrid="true"
     inkscape:snap-grids="false"
     showguides="true"
     inkscape:guide-bbox="true"
     inkscape:snap-global="true"
     inkscape:zoom="32"
     inkscape:cx="4.3125"
     inkscape:cy="2.265625"
     inkscape:window-width="2560"
     inkscape:window-height="1377"
     inkscape:window-x="-8"
     inkscape:window-y="-8"
     inkscape:window-maximized="1"
     inkscape:current-layer="svg9">
    <inkscape:grid
       type="xygrid"
       id="grid1022" />
    <sodipodi:guide
       position="7.5014193,9.5316626"
       orientation="1,0"
       id="guide1404" />
    <sodipodi:guide
       position="3.5194711,13.506259"
       orientation="0,-1"
       id="guide1558" />
    <sodipodi:guide
       position="3.4996751,9.5322069"
       orientation="1,0"
       id="guide1788" />
  </sodipodi:namedview>
  <title
     id="title2">Line/Oblique Light</title>
  <path
     style="color:#000000;fill:#000000;fill-rule:evenodd;-inkscape-stroke:none"
     d="M 3,-0.00585938 V 4.2695312 C 1.5361864,5.1425144 0.5,6.6763788 0.5,8.5 0.5,9.8777496 1.0605875,11.1309 1.9648437,12.035156 2.8691,12.939412 4.1222506,13.5 5.5,13.5 6.8777494,13.5 8.1308996,12.939411 9.0351563,12.035156 9.9394115,11.1309 10.5,9.8777497 10.5,8.5 10.5,6.6769002 9.46507,5.1446326 8.0019531,4.2714844 v -4.27734378 h -0.5 z M 4,0.99414063 H 7.0019531 V 4.7773437 L 7.2792969,4.9160156 C 8.5950016,5.570621 9.5,6.925706 9.5,8.5 9.5,9.6075298 9.0525461,10.603703 8.328125,11.328125 7.6037027,12.052546 6.6075295,12.5 5.5,12.5 4.3924705,12.5 3.3962968,12.052546 2.671875,11.328125 1.9474533,10.603703 1.5,9.6075299 1.5,8.5 1.5,6.9253182 2.4064262,5.5704345 3.7226563,4.9160156 L 4,4.7773437 Z"
     id="path4" />
  <metadata
     id="metadata2044">
    <rdf:RDF>
      <cc:Work
         rdf:about="">
        <dc:title>Line/Oblique Light</dc:title>
      </cc:Work>
    </rdf:RDF>
  </metadata>
</svg>
