<?xml version="1.0" encoding="UTF-8"?>
<svg width="11px" height="13px" viewBox="0 0 11 13" version="1.1" xmlns="http://www.w3.org/2000/svg" xmlns:xlink="http://www.w3.org/1999/xlink">
    <title>Line/Output</title>
    <g id="Page-1" stroke="none" stroke-width="1" fill="none" fill-rule="evenodd">
        <g id="Abstract" transform="translate(-31.000000, -163.000000)" fill="#000000">
            <g id="Shape" transform="translate(29.000000, 162.000000)">
                <path d="M7.18185091,1.13180194 L4.18185067,4.13180209 C4.00611496,4.30753804 4.00611496,4.59246207 4.18185067,4.76819802 C4.35758662,4.94393397 4.64251089,4.94393397 4.81824684,4.76819802 L7.05004883,2.53639591 L7.05004883,9.44987775 C7.05004883,9.69840623 7.25152063,9.89987756 7.50004864,9.89987756 C7.74857712,9.89987756 7.95004892,9.69840623 7.95004892,9.44987775 L7.95004892,2.53639639 L10.1818504,4.76819802 C10.3575859,4.94393397 10.6425114,4.94393397 10.8182468,4.76819802 C10.9939823,4.59246207 10.9939823,4.30753804 10.8182468,4.13180209 L7.81824684,1.13180194 C7.64251089,0.95606602 7.35758686,0.95606602 7.18185091,1.13180194 Z M3,10.4498901 L3,11.9498901 C3,12.5037642 3.44565058,12.9498901 3.99634886,12.9498901 L11.0011511,12.9498901 C11.5529366,12.9498901 12,12.5026741 12,11.9498901 L12,10.4498901 C12,10.173748 12.2238588,9.94989014 12.5,9.94989014 C12.7761431,9.94989014 13,10.173748 13,10.4498901 L13,11.9498901 C13,13.0539599 12.1062202,13.9498901 11.0011511,13.9498901 L3.99634886,13.9498901 C2.89019275,13.9498901 2,13.0528708 2,11.9498901 L2,10.4498901 C2,10.173748 2.22385761,9.94989014 2.5,9.94989014 C2.77614236,9.94989014 3,10.173748 3,10.4498901 Z" transform="translate(7.500000, 7.474945) scale(1, -1) translate(-7.500000, -7.474945) "></path>
            </g>
        </g>
    </g>
</svg>