<?xml version="1.0" encoding="UTF-8"?>
<svg width="11px" height="15px" viewBox="0 0 11 15" version="1.1" xmlns="http://www.w3.org/2000/svg" xmlns:xlink="http://www.w3.org/1999/xlink">
    <title>Line/Paste</title>
    <g id="Page-1" stroke="none" stroke-width="1" fill="none" fill-rule="evenodd">
        <g id="Objects" transform="translate(-31.000000, -198.000000)" fill="#000000">
            <g id="Shape" transform="translate(29.000000, 198.000000)">
                <path d="M4,1.25 L4,1.5 L3.5,1.5 C2.67157304,1.5 2,2.17157233 2,3 L2,13 C2,13.8284273 2.67157328,14.5 3.5,14.5 L11.5,14.5 C12.3284273,14.5 13,13.8284273 13,13 L13,3 C13,2.1715728 12.3284273,1.5 11.5,1.5 L11,1.5 L11,1.25 C11,0.835786104 10.6642132,0.5 10.25,0.5 L4.75,0.5 C4.33578658,0.5 4,0.835786402 4,1.25 Z M5,1.5 L10,1.5 L10,2.5 L5,2.5 L5,1.5 Z M11,2.75 C11,3.16421366 10.6642132,3.5 10.25,3.5 L4.75,3.5 C4.33578682,3.5 4,3.1642139 4,2.75 L4,2.5 L3.5,2.5 C3.2238574,2.5 3,2.7238574 3,3 L3,13 C3,13.2761421 3.22385776,13.5 3.5,13.5 L11.5,13.5 C11.7761421,13.5 12,13.2761421 12,13 L12,3 C12,2.7238574 11.7761421,2.5 11.5,2.5 L11,2.5 L11,2.75 Z"></path>
            </g>
        </g>
    </g>
</svg>