<?xml version="1.0" encoding="UTF-8" standalone="no"?>
<svg
   width="6px"
   height="11px"
   viewBox="0 0 6 11"
   version="1.1"
   id="svg9"
   sodipodi:docname="Pause.svg"
   inkscape:version="1.1.1 (3bf5ae0d25, 2021-09-20)"
   xmlns:inkscape="http://www.inkscape.org/namespaces/inkscape"
   xmlns:sodipodi="http://sodipodi.sourceforge.net/DTD/sodipodi-0.dtd"
   xmlns="http://www.w3.org/2000/svg"
   xmlns:svg="http://www.w3.org/2000/svg">
  <defs
     id="defs13" />
  <sodipodi:namedview
     id="namedview11"
     pagecolor="#ffffff"
     bordercolor="#666666"
     borderopacity="1.0"
     inkscape:pageshadow="2"
     inkscape:pageopacity="0.0"
     inkscape:pagecheckerboard="0"
     showgrid="false"
     inkscape:zoom="80.636364"
     inkscape:cx="4.7683202"
     inkscape:cy="8.011274"
     inkscape:window-width="3072"
     inkscape:window-height="1796"
     inkscape:window-x="-12"
     inkscape:window-y="2508"
     inkscape:window-maximized="1"
     inkscape:current-layer="Shape" />
  <title
     id="title2">Line/Pause</title>
  <g
     id="Page-1"
     stroke="none"
     stroke-width="1"
     fill="none"
     fill-rule="evenodd">
    <g
       id="Player"
       fill="#000000"
       transform="translate(-94.000000, -20.000000)">
      <g
         id="Shape">
        <path
           d="m 95.000958,20.24239 c -0.303756,0 -0.55,0.246244 -0.55,0.55 v 9.500001 c 0,0.303756 0.246244,0.55 0.55,0.55 0.303757,0 0.55,-0.246244 0.55,-0.55 V 20.79239 c 0,-0.303756 -0.246243,-0.55 -0.55,-0.55 z m 4,0 c -0.303756,0 -0.55,0.246244 -0.55,0.55 v 9.500001 c 0,0.303756 0.246244,0.55 0.55,0.55 0.303757,0 0.550001,-0.246244 0.550001,-0.55 V 20.79239 c 0,-0.303756 -0.246244,-0.55 -0.550001,-0.55 z"
           id="path4" />
      </g>
    </g>
  </g>
</svg>
