<?xml version="1.0" encoding="UTF-8" standalone="no"?>
<svg
   width="11px"
   height="11px"
   viewBox="0 0 11 11"
   version="1.1"
   id="svg9"
   sodipodi:docname="Plus Fds.svg"
   inkscape:version="1.1.1 (3bf5ae0d25, 2021-09-20)"
   xmlns:inkscape="http://www.inkscape.org/namespaces/inkscape"
   xmlns:sodipodi="http://sodipodi.sourceforge.net/DTD/sodipodi-0.dtd"
   xmlns="http://www.w3.org/2000/svg"
   xmlns:svg="http://www.w3.org/2000/svg"
   xmlns:rdf="http://www.w3.org/1999/02/22-rdf-syntax-ns#"
   xmlns:cc="http://creativecommons.org/ns#"
   xmlns:dc="http://purl.org/dc/elements/1.1/">
  <defs
     id="defs13" />
  <sodipodi:namedview
     id="namedview11"
     pagecolor="#ffffff"
     bordercolor="#666666"
     borderopacity="1.0"
     inkscape:pageshadow="2"
     inkscape:pageopacity="0.0"
     inkscape:pagecheckerboard="0"
     showgrid="false"
     inkscape:zoom="65.363636"
     inkscape:cx="2.9144645"
     inkscape:cy="5.5"
     inkscape:window-width="1920"
     inkscape:window-height="1017"
     inkscape:window-x="-8"
     inkscape:window-y="-8"
     inkscape:window-maximized="1"
     inkscape:current-layer="svg9" />
  <title
     id="title2">Line/Plus</title>
  <path
     d="M 5.5,0 C 5.2107078,0 4.9761905,0.2345175 4.9761905,0.5238095 v 4.452381 H 0.5238095 C 0.2345175,4.9761905 0,5.2107078 0,5.5 0,5.7892922 0.2345175,6.0238095 0.5238095,6.0238095 h 4.452381 V 10.476191 C 4.9761905,10.765482 5.2107078,11 5.5,11 5.7892922,11 6.0238095,10.765482 6.0238095,10.476191 V 6.0238095 H 10.476191 C 10.765482,6.0238095 11,5.7892922 11,5.5 11,5.2107078 10.765482,4.9761905 10.476191,4.9761905 H 6.0238095 V 0.5238095 C 6.0238095,0.2345175 5.7892922,0 5.5,0 Z"
     id="path4"
     style="fill:#000000;fill-rule:nonzero;stroke:none;stroke-width:1" />
  <metadata
     id="metadata15">
    <rdf:RDF>
      <cc:Work
         rdf:about="">
        <dc:title>Line/Plus</dc:title>
      </cc:Work>
    </rdf:RDF>
  </metadata>
</svg>
