<?xml version="1.0" encoding="UTF-8"?>
<svg width="14px" height="16px" viewBox="0 0 14 16" version="1.1" xmlns="http://www.w3.org/2000/svg" xmlns:xlink="http://www.w3.org/1999/xlink">
    <title>Line/Power</title>
    <g id="Page-1" stroke="none" stroke-width="1" fill="none" fill-rule="evenodd">
        <g id="Abstract" transform="translate(-268.000000, -54.000000)" fill="#000000">
            <g id="Line/Power" transform="translate(267.000000, 54.000000)">
                <path d="M11.00106,2.70368362 C12.9437175,3.85958491 14.2456617,5.98209013 14.2456617,8.40908964 C14.2456617,12.0717398 11.2804899,15.040957 7.62283039,15.040957 C3.96514463,15.040957 1,12.0717389 1,8.40908964 C1,6.08542023 2.19343296,4.04086844 3.99999922,2.85652636 L4.00002426,4.03759295 C2.74751385,5.07957951 1.9499985,6.65107427 1.9499985,8.40908964 C1.9499985,11.5463544 4.48981762,14.0896611 7.62283039,14.0896611 C10.7558193,14.0896611 13.2956619,11.5463534 13.2956619,8.40908964 C13.2956619,6.5391476 12.3933548,4.88023177 11.0009512,3.84510072 L11.00106,2.70368362 Z M7.5,0 C7.77614237,-5.07265313e-17 8,0.223857625 8,0.5 L8,7.51091442 C8,7.7870568 7.77614237,8.01091442 7.5,8.01091442 C7.22385763,8.01091442 7,7.7870568 7,7.51091442 L7,0.5 C7,0.223857625 7.22385763,2.72771136e-16 7.5,0 Z" id="Combined-Shape"></path>
            </g>
        </g>
    </g>
</svg>