<?xml version="1.0" encoding="UTF-8"?>
<svg width="12px" height="11px" viewBox="0 0 12 11" version="1.1" xmlns="http://www.w3.org/2000/svg" xmlns:xlink="http://www.w3.org/1999/xlink">
    <title>Line/Previous</title>
    <g id="Page-1" stroke="none" stroke-width="1" fill="none" fill-rule="evenodd">
        <g id="Player" transform="translate(-31.000000, -38.000000)" fill="#000000">
            <g id="Shape" transform="translate(29.000000, 36.000000)">
                <path d="M2.55000019,2 C2.8537569,2 3.10000038,2.24624339 3.10000038,2.55000001 L3.10000038,7.08261442 C3.14564323,6.98813391 3.22070408,6.90862036 3.31686497,6.85786867 L12.316865,2.10786867 C12.4718491,2.02607149 12.6583455,2.03138483 12.8084211,2.1218732 C12.9584968,2.2123616 13.0502443,2.37481591 13.0502443,2.55006105 L13.0502443,12.0500612 C13.0502443,12.2253056 12.9584968,12.3877602 12.8084211,12.4782486 C12.6583455,12.568737 12.4718491,12.5740499 12.316865,12.4922533 L3.31686497,7.7422533 C3.22070408,7.69150162 3.14564323,7.61198807 3.10000038,7.51750755 L3.10000038,12.0500002 C3.10000038,12.3537569 2.8537569,12.6000004 2.55000019,12.6000004 C2.24624348,12.6000004 2,12.3537569 2,12.0500002 L2,2.55000001 C2,2.24624339 2.24624348,2 2.55000019,2 Z M12.0502443,11.2208071 L12.0502443,3.37931466 L4.62146187,7.30006075 L12.0502443,11.2208071 Z"></path>
            </g>
        </g>
    </g>
</svg>