<?xml version="1.0" encoding="UTF-8"?>
<svg width="15px" height="15px" viewBox="0 0 15 15" version="1.1" xmlns="http://www.w3.org/2000/svg" xmlns:xlink="http://www.w3.org/1999/xlink">
    <title>Line/Production</title>
    <g id="Page-1" stroke="none" stroke-width="1" fill="none" fill-rule="evenodd">
        <g id="Objects" transform="translate(-148.000000, -270.000000)" fill="#000000" fill-rule="nonzero">
            <g id="Combined-Shape" transform="translate(148.000000, 270.000000)">
                <path d="M14.5,14.5 L0.5,14.5 L0.5,0.5 L4.96334444,0.5 L4.99998889,5.99666674 L4.5,6 L4.99993057,6.00833218 L4.986,6.822 L8.14444444,3.84035992 L8.144,6.84 L11.3222222,3.84035992 L11.322,6.839 L14.5,3.84035992 L14.5,14.5 Z M13.5,6.159 L10.3222222,9.15964008 L10.322,6.159 L7.14444444,9.15964008 L7.144,6.159 L3.94695982,9.17824444 L4.00006943,5.99166782 L3.969,1.5 L1.5,1.5 L1.5,13.5 L13.5,13.5 L13.5,6.159 Z M10,10 L12,10 L12,12 L10,12 L10,10 Z M6.5,10 L8.5,10 L8.5,12 L6.5,12 L6.5,10 Z M3,10 L5,10 L5,12 L3,12 L3,10 Z"></path>
            </g>
        </g>
    </g>
</svg>