<?xml version="1.0" encoding="UTF-8"?>
<svg width="14px" height="14px" viewBox="0 0 14 14" version="1.1" xmlns="http://www.w3.org/2000/svg" xmlns:xlink="http://www.w3.org/1999/xlink">
    <title>Line/Question Mark</title>
    <g id="Page-1" stroke="none" stroke-width="1" fill="none" fill-rule="evenodd">
        <g id="Abstract" transform="translate(-208.000000, -19.000000)" fill="#000000">
            <g id="Shape" transform="translate(207.000000, 18.000000)">
                <path d="M7.62285233,11.3731079 C7.20863867,11.3731079 6.87285233,11.0373211 6.87285233,10.6231079 C6.87285233,10.2088947 7.20863867,9.87310791 7.62285233,9.87310791 C8.03706598,9.87310791 8.37285233,10.2088947 8.37285233,10.6231079 C8.37285233,11.0373211 8.03706598,11.3731079 7.62285233,11.3731079 Z M7.62295914,5.0481081 C8.48788452,5.0481081 9.07295895,5.6952157 9.07295895,6.37310791 C9.07295895,6.86429024 8.80294895,7.11522722 8.33739805,7.39804935 C8.28543043,7.42962027 8.22550535,7.46442127 8.1613965,7.50165272 C7.97820091,7.60804224 7.76080132,7.73429585 7.59741592,7.8616004 C7.35506964,8.05042839 7.07295847,8.35508919 7.07295895,8.82310867 C7.0729599,9.12686539 7.31920338,9.37310791 7.62296009,9.37310791 C7.92532539,9.37310791 8.17070293,9.1291132 8.17294359,8.82727575 L8.1734848,8.82640982 C8.18216419,8.81271267 8.20785427,8.78045321 8.2735014,8.72930336 C8.37499428,8.65022373 8.48800468,8.58473301 8.63859272,8.49746609 C8.71710825,8.45196533 8.80588055,8.40051985 8.90851927,8.33816719 C9.44296837,8.01348877 10.1729593,7.47692585 10.1729593,6.37310791 C10.1729593,5.05100012 9.05803394,3.94810796 7.62295914,3.94810796 C6.18788433,3.94810796 5.07295895,5.05100012 5.07295895,6.37310791 C5.07295895,6.67686462 5.31920242,6.9231081 5.62295914,6.9231081 C5.92671585,6.9231081 6.17295933,6.67686462 6.17295933,6.37310791 C6.17295933,5.6952157 6.75803375,5.0481081 7.62295914,5.0481081 Z M7.62283182,1 C11.2804909,1 14.2456636,3.96514606 14.2456636,7.62283182 C14.2456636,11.2804918 11.2804918,14.2456636 7.62283182,14.2456636 C3.96514606,14.2456636 1,11.2804909 1,7.62283182 C1,3.96514726 3.96514726,1 7.62283182,1 Z M1.94999999,7.62283182 C1.94999999,10.7558222 4.48981905,13.2956638 7.62283182,13.2956638 C10.7558212,13.2956638 13.2956638,10.7558212 13.2956638,7.62283182 C13.2956638,4.48981905 10.7558222,1.94999999 7.62283182,1.94999999 C4.48981786,1.94999999 1.94999999,4.48981786 1.94999999,7.62283182 Z"></path>
            </g>
        </g>
    </g>
</svg>