<?xml version="1.0" encoding="UTF-8"?>
<svg width="13px" height="13px" viewBox="0 0 13 13" version="1.1" xmlns="http://www.w3.org/2000/svg" xmlns:xlink="http://www.w3.org/1999/xlink">
    <title>Line/Quit</title>
    <g id="Page-1" stroke="none" stroke-width="1" fill="none" fill-rule="evenodd">
        <g id="Abstract" transform="translate(-149.000000, -127.000000)" fill="#000000">
            <g id="Shape" transform="translate(148.000000, 126.000000)">
                <path d="M1,2 L1,13 C1,13.5522842 1.44771522,14 2,14 L9.5,14 C9.77614212,14 10,13.7761421 10,13.5 C10,13.2238579 9.77614212,13 9.5,13 L2,13 L2,2 L9.5,2 C9.77614212,2 10,1.77614236 10,1.5 C10,1.22385761 9.77614212,1 9.5,1 L2,1 C1.44771492,1 1,1.44771582 1,2 Z M10.8964462,4.8964467 C10.7011843,5.09170866 10.7011843,5.40829134 10.8964462,5.6035533 L12.2928934,7 L5.5,7 C5.2238574,7 5,7.22385788 5,7.5 C5,7.77614212 5.2238574,8 5.5,8 L12.2928934,8 L10.8964462,9.39644623 C10.7011843,9.59170914 10.7011843,9.90829086 10.8964462,10.1035538 C11.0917091,10.2988157 11.4082909,10.2988157 11.6035538,10.1035538 L13.8535538,7.8535533 C14.0488157,7.65829134 14.0488157,7.34170866 13.8535538,7.1464467 L11.6035538,4.8964467 C11.4082909,4.70118451 11.0917091,4.70118451 10.8964462,4.8964467 Z"></path>
            </g>
        </g>
    </g>
</svg>