<?xml version="1.0" encoding="UTF-8"?>
<svg width="14px" height="14px" viewBox="0 0 14 14" version="1.1" xmlns="http://www.w3.org/2000/svg" xmlns:xlink="http://www.w3.org/1999/xlink">
    <title>Line/Redo</title>
    <g id="Page-1" stroke="none" stroke-width="1" fill="none" fill-rule="evenodd">
        <g id="Abstract" transform="translate(-90.000000, -163.000000)" fill="#000000" fill-rule="nonzero">
            <g id="Combined-Shape" transform="translate(89.000000, 162.000000)">
                <path d="M7.6500001,1 C10.7138377,1 12.3387667,3.08028313 13.0789361,4.34006894 L13.1500244,4.4632051 L13.1500244,2.65002441 C13.1500244,2.37388206 13.3738823,2.15002441 13.6500244,2.15002441 C13.8954841,2.15002441 14.0996327,2.32689959 14.1419687,2.56014879 L14.1500244,2.65002441 L14.1500244,5.65002441 C14.1500244,5.89548408 13.9731491,6.09963273 13.7399,6.14196874 L13.6500244,6.15002441 L10.6500244,6.15002441 C10.3738823,6.15002441 10.1500244,5.92616653 10.1500244,5.65002441 C10.1500244,5.40456475 10.3268998,5.20041609 10.5601488,5.15808009 L10.6500244,5.15002441 L12.3866777,5.15002441 C11.8015385,4.05642343 10.4283495,2 7.6500001,2 C4.20981932,2 2,4.81460071 2,7.6500001 C2,9.99587752 3.51265186,12.3275183 5.98325441,13.0626944 L6.015,13.06 C6.30494949,13.06 6.54,13.2939312 6.54,13.5825 C6.54,13.8710688 6.30494949,14.105 6.015,14.105 C6.00985905,14.105 6.00473536,14.1049265 5.99962993,14.1047804 L5.9991068,14.1047765 C5.91335354,14.1012067 5.83874429,14.0804481 5.7724451,14.0460132 L5.9991068,14.1047765 C2.89944919,13.345445 1,10.4900874 1,7.6500001 C1,4.33539939 3.58718014,1 7.6500001,1 Z"></path>
            </g>
        </g>
    </g>
</svg>