<?xml version="1.0" encoding="UTF-8"?>
<svg width="14px" height="14px" viewBox="0 0 14 14" version="1.1" xmlns="http://www.w3.org/2000/svg" xmlns:xlink="http://www.w3.org/1999/xlink">
    <title>Line/Refresh</title>
    <g id="Page-1" stroke="none" stroke-width="1" fill="none" fill-rule="evenodd">
        <g id="Abstract" transform="translate(-90.000000, -127.000000)" fill="#000000" fill-rule="nonzero">
            <g id="Shape" transform="translate(89.000000, 126.000000)">
                <path d="M7.6500001,2 C10.4283495,2 11.8015385,4.05642343 12.3866777,5.15002441 L10.6500244,5.15002441 C10.3738823,5.15002441 10.1500244,5.37388229 10.1500244,5.65002441 C10.1500244,5.92616653 10.3738823,6.15002441 10.6500244,6.15002441 L13.6500244,6.15002441 C13.9261665,6.15002441 14.1500244,5.92616653 14.1500244,5.65002441 L14.1500244,2.65002441 C14.1500244,2.37388206 13.9261665,2.15002441 13.6500244,2.15002441 C13.3738823,2.15002441 13.1500244,2.37388206 13.1500244,2.65002441 L13.1500244,4.4632051 C12.4454966,3.2212801 10.8159657,1 7.6500001,1 C3.58718014,1 1,4.33539939 1,7.6500001 C1,10.9646006 3.58718014,14.3000002 7.6500001,14.3000002 C9.5938406,14.3000002 11.212244,13.5308733 12.364542,12.3584061 C12.9815054,11.7306433 13.4633493,10.9889936 13.7918692,10.1907463 C13.8969641,9.93538475 13.7751484,9.64317703 13.5197859,9.53808212 C13.2644243,9.43298721 12.9722166,9.55480289 12.8671217,9.81016541 C12.5862875,10.4925451 12.1750765,11.1245441 11.6513271,11.6574612 C10.6795092,12.6462889 9.31505966,13.3000002 7.6500001,13.3000002 C4.20981932,13.3000002 2,10.4853992 2,7.6500001 C2,4.81460071 4.20981932,2 7.6500001,2 Z"></path>
            </g>
        </g>
    </g>
</svg>