<?xml version="1.0" encoding="UTF-8"?>
<svg width="13px" height="13px" viewBox="0 0 13 13" version="1.1" xmlns="http://www.w3.org/2000/svg" xmlns:xlink="http://www.w3.org/1999/xlink">
    <title>Line/Rendering</title>
    <g id="Page-1" stroke="none" stroke-width="1" fill="none" fill-rule="evenodd">
        <g id="Objects" transform="translate(-268.000000, -199.000000)" fill="#000000">
            <g id="Combined-Shape" transform="translate(267.000000, 198.000000)">
                <path d="M2.5,2 C2.22385764,2 2,2.22385776 2,2.5 L2,8.36360359 L3.68180203,6.6818018 C3.76809049,6.59551334 3.88572311,6.54796886 4.00773549,6.55006647 C4.12974787,6.55216408 4.24567676,6.60372448 4.32894802,6.69292831 L7,9.555 L7,10.873 L3.98886728,7.64752865 L2,9.63639641 L2,12.5 C2,12.7454597 2.17687527,12.9496083 2.4101244,12.9919443 L2.5,13 L7.32842712,13 L7.32842712,14 L2.5,14 C1.67157352,14 1,13.3284273 1,12.5 L1,2.5 C1,1.67157352 1.67157245,1 2.5,1 L7.5,1 L7.5,2 L2.5,2 Z M11.3284271,13 L11.3284271,14 L10.3284271,14 L10.3284271,13 L11.3284271,13 Z M9.32842712,13 L9.32842712,14 L8.32842712,14 L8.32842712,13 L9.32842712,13 Z M12.9145477,12.779733 L13.7424609,13.3405892 C13.5274663,13.6579554 13.1992283,13.8818327 12.7911519,13.9670973 L12.634446,13.9924859 L12.3409569,13.999843 L12.3158973,13.000157 L12.5615864,12.996296 C12.7051965,12.9788405 12.8335527,12.8992945 12.9145477,12.779733 Z M14,11.0857864 L14,12.0857864 L13,12.0857864 L13,11.0857864 L14,11.0857864 Z M8.35355339,9.93933983 L9.06066017,10.6464466 L8.35355339,11.3535534 L7.64644661,10.6464466 L8.35355339,9.93933983 Z M12.5961941,8.8890873 L13,9.293 L13,9.08578644 L14,9.08578644 L14,10.0857864 L13,10.0857864 L13,9.899 L12.5961941,10.3033009 L11.8890873,9.59619408 L12.5961941,8.8890873 Z M9.76776695,8.52512627 L10.4748737,9.23223305 L9.76776695,9.93933983 L9.06066017,9.23223305 L9.76776695,8.52512627 Z M11,7.29289322 L11.8890873,8.18198052 L11.1819805,8.8890873 L10.6464466,8.35355339 L10.828,8.172 L10.4748737,7.81801948 L11,7.29289322 Z M11,8 L10.828,8.172 L11.1819805,8.52512627 L11.3535534,8.35355339 L11,8 Z M14,7.08578644 L14,8.08578644 L13,8.08578644 L13,7.08578644 L14,7.08578644 Z M8.08664232,6.04392979 L8.74638794,6.6560864 C8.46251685,6.96202561 8.07696317,7.15383178 7.65838201,7.19267835 L7.5,7.2 L7.5,6.3 C7.72596831,6.3 7.93586029,6.2064336 8.08664232,6.04392979 Z M6.99995228,3.82166851 L7.00042318,4.81126578 C6.78759448,4.96590913 6.64921856,5.21679489 6.64921856,5.5 C6.64921856,5.78320511 6.78759448,6.03409095 7.00042318,6.18873438 L6.99995228,7.17833125 C6.27666714,6.96315405 5.74921894,6.29317294 5.74921894,5.5 C5.74921894,4.70682686 6.27666714,4.03684572 6.99995228,3.82166851 Z M14,5.08578644 L14,6.08578644 L13,6.08578644 L13,5.08578644 L14,5.08578644 Z M8.40613104,4.0614313 C8.76015801,4.2847718 9.02015486,4.63094462 9.13486351,5.03278311 L9.17096876,5.18595068 L8.28631756,5.35145677 C8.25222789,5.16924312 8.15515641,5.00577927 8.01502022,4.88776223 L7.92593007,4.82261921 L8.40613104,4.0614313 Z M14,3.08578644 L14,4.08578644 L13,4.08578644 L13,3.08578644 L14,3.08578644 Z M12.5,1 C12.9921444,1 13.4430307,1.23935422 13.7208523,1.62830263 L13.798875,1.74938523 L12.9333664,2.25027916 C12.8591276,2.12199983 12.7332264,2.03371441 12.5886922,2.00784925 L12.5,2 L12.5,1 Z M9.5,1 L9.5,2 L8.5,2 L8.5,1 L9.5,1 Z M11.5,1 L11.5,2 L10.5,2 L10.5,1 L11.5,1 Z"></path>
            </g>
        </g>
    </g>
</svg>