<?xml version="1.0" encoding="UTF-8"?>
<svg width="14px" height="14px" viewBox="0 0 14 14" version="1.1" xmlns="http://www.w3.org/2000/svg" xmlns:xlink="http://www.w3.org/1999/xlink">
    <title>Line/Replay</title>
    <g id="Page-1" stroke="none" stroke-width="1" fill="none" fill-rule="evenodd">
        <g id="Abstract" transform="translate(-179.000000, -127.000000)" fill="#000000" fill-rule="nonzero">
            <g id="Combined-Shape" transform="translate(178.000000, 126.000000)">
                <path d="M7.50002432,1 C11.5628443,1 14.1500244,4.33539939 14.1500244,7.6500001 C14.1500244,10.9646006 11.5628443,14.3000002 7.50002432,14.3000002 C5.55618382,14.3000002 3.93778038,13.5308733 2.78548241,12.3584061 C2.16851902,11.7306433 1.68667507,10.9889936 1.35815525,10.1907463 C1.25306034,9.93538475 1.37487602,9.64317703 1.63023853,9.53808212 C1.88560009,9.43298721 2.17780781,9.55480289 2.28290272,9.81016541 C2.56373692,10.4925451 2.97494793,11.1245441 3.49869728,11.6574612 C4.47051525,12.6462889 5.83496475,13.3000002 7.50002432,13.3000002 C10.9402051,13.3000002 13.1500244,10.4853992 13.1500244,7.6500001 C13.1500244,4.81460071 10.9402051,2 7.50002432,2 C4.72167492,2 3.34848595,4.05642343 2.76334667,5.15002441 L4.5,5.15002441 C4.77614212,5.15002441 5,5.37388229 5,5.65002441 C5,5.92616653 4.77614212,6.15002441 4.5,6.15002441 L1.5,6.15002441 C1.22385788,6.15002441 1,5.92616653 1,5.65002441 L1,2.65002441 C1,2.37388206 1.22385788,2.15002441 1.5,2.15002441 C1.77614212,2.15002441 2,2.37388206 2,2.65002441 L2,4.4632051 C2.70452785,3.2212801 4.33405876,1 7.50002432,1 Z M6.29335172,6.02202204 L9.89335175,7.83154569 C9.95894966,7.8645183 10,7.92935835 10,8 C10,8.07064147 9.95894966,8.13548152 9.89335175,8.16845412 L6.29335172,9.97797793 C6.23135807,10.0091386 6.15675962,10.0071146 6.09672935,9.97264281 C6.03669908,9.93817102 6,9.87628355 6,9.80952381 L6,6.19047628 C6,6.12371623 6.03669908,6.06182887 6.09672935,6.0273571 C6.15675962,5.99288533 6.23135807,5.9908612 6.29335172,6.02202204 Z"></path>
            </g>
        </g>
    </g>
</svg>