<?xml version="1.0" encoding="UTF-8"?>
<svg width="14px" height="11px" viewBox="0 0 14 11" version="1.1" xmlns="http://www.w3.org/2000/svg" xmlns:xlink="http://www.w3.org/1999/xlink">
    <title>Line/Resume</title>
    <g id="Page-1" stroke="none" stroke-width="1" fill="none" fill-rule="evenodd">
        <g id="Player" transform="translate(-179.000000, -20.000000)" fill="#000000">
            <g id="Shape" transform="translate(178.000000, 18.000000)">
                <path d="M1.54999995,2 C1.24624333,2 1,2.24624339 1,2.55000001 L1,12.0500002 C1,12.3537569 1.24624333,12.6000004 1.54999995,12.6000004 C1.85375655,12.6000004 2.0999999,12.3537569 2.0999999,12.0500002 L2.0999999,2.55000001 C2.0999999,2.24624339 1.85375655,2 1.54999995,2 Z M4.29182339,2.12181216 C4.14174771,2.21230057 4.04999995,2.37475488 4.04999995,2.55000001 L4.04999995,12.0500002 C4.04999995,12.2252445 4.14174771,12.3876991 4.29182339,12.4781876 C4.44189906,12.568676 4.62839508,12.5739889 4.78337932,12.4921923 L13.7833796,7.74219227 C13.9473743,7.65563917 14.0500002,7.48543406 14.0500002,7.30000019 C14.0500002,7.11456585 13.9473743,6.94436073 13.7833796,6.85780764 L4.78337932,2.10780764 C4.62839508,2.02601045 4.44189906,2.03132379 4.29182339,2.12181216 Z M5.05000019,11.220746 L5.05000019,3.37925363 L12.4787827,7.29999971 L5.05000019,11.220746 Z"></path>
            </g>
        </g>
    </g>
</svg>