<?xml version="1.0" encoding="UTF-8"?>
<svg width="13px" height="13px" viewBox="0 0 13 13" version="1.1" xmlns="http://www.w3.org/2000/svg" xmlns:xlink="http://www.w3.org/1999/xlink">
    <title>Line/ROI</title>
    <g id="Page-1" stroke="none" stroke-width="1" fill="none" fill-rule="evenodd">
        <g id="Geometry" transform="translate(-179.000000, -19.000000)" fill="#000000" fill-rule="nonzero">
            <g id="Combined-Shape" transform="translate(178.000000, 18.000000)">
                <path d="M14,13 C14,13.5522847 13.5522847,14 13,14 L2,14 C1.44771525,14 1,13.5522847 1,13 L1,2 C1,1.44771525 1.44771525,1 2,1 L13,1 C13.5522847,1 14,1.44771525 14,2 L14,13 Z M3,12 L2,12 L2,12.5 C2,12.7454599 2.17687516,12.9496084 2.41012437,12.9919443 L2.5,13 L3,13 L3,12 Z M11,2 L4,2 L4,2 L4,3 C4,3.55228475 3.55228475,4 3,4 L2,4 L2,11 L2,11 L3,11 C3.55228475,11 4,11.4477153 4,12 L4,13 L11,13 L11,13 L11,12 C11,11.4477153 11.4477153,11 12,11 L13,11 L13,4 L13,4 L12,4 C11.4477153,4 11,3.55228475 11,3 L11,2 Z M13,12 L12,12 L12,13 L12.5,13 C12.7454599,13 12.9496084,12.8231248 12.9919443,12.5898756 L13,12.5 L13,12 Z M3,2 L2.5,2 C2.25454011,2 2.05039163,2.17687516 2.00805567,2.41012437 L2,2.5 L2,3 L3,3 L3,2 Z M12.5,2 L12,2 L12,3 L13,3 L13,2.5 C13,2.25454011 12.8231248,2.05039163 12.5898756,2.00805567 L12.5,2 Z"></path>
            </g>
        </g>
    </g>
</svg>