<?xml version="1.0" encoding="UTF-8" standalone="no"?>
<svg
   width="13px"
   height="13px"
   viewBox="0 0 13 13"
   version="1.1"
   id="svg9"
   sodipodi:docname="Save Fds.svg"
   inkscape:version="1.1.1 (3bf5ae0d25, 2021-09-20)"
   xmlns:inkscape="http://www.inkscape.org/namespaces/inkscape"
   xmlns:sodipodi="http://sodipodi.sourceforge.net/DTD/sodipodi-0.dtd"
   xmlns="http://www.w3.org/2000/svg"
   xmlns:svg="http://www.w3.org/2000/svg"
   xmlns:rdf="http://www.w3.org/1999/02/22-rdf-syntax-ns#"
   xmlns:cc="http://creativecommons.org/ns#"
   xmlns:dc="http://purl.org/dc/elements/1.1/">
  <defs
     id="defs13" />
  <sodipodi:namedview
     id="namedview11"
     pagecolor="#ffffff"
     bordercolor="#666666"
     borderopacity="1.0"
     inkscape:pageshadow="2"
     inkscape:pageopacity="0.0"
     inkscape:pagecheckerboard="0"
     showgrid="false"
     inkscape:zoom="55.307692"
     inkscape:cx="6.5090403"
     inkscape:cy="6.5"
     inkscape:window-width="1920"
     inkscape:window-height="1017"
     inkscape:window-x="-8"
     inkscape:window-y="-8"
     inkscape:window-maximized="1"
     inkscape:current-layer="Combined-Shape" />
  <title
     id="title2">Line/Save</title>
  <g
     id="Page-1"
     stroke="none"
     stroke-width="1"
     fill="none"
     fill-rule="evenodd">
    <g
       id="Objects"
       fill="#000000"
       fill-rule="nonzero">
      <g
         id="Combined-Shape">
        <path
           d="m 8.2236439,0.02364395 v 0.00738 l 0.01726,0.00127 c 0.2166791,0.02874 0.4193372,0.1279474 0.5756027,0.2842128 L 12.730751,4.2307506 c 0.187536,0.1875365 0.292893,0.4418904 0.292893,0.7071069 v 7.0851655 c 0,0.552285 -0.447715,1 -1,1 H 1.0236439 c -0.55228475,0 -0.99999995,-0.447715 -0.99999995,-1 V 1.0230227 c 0,-0.55228475 0.4476422,-0.99999995 0.99992685,-0.99999995 z m -6.2,0.99937875 h -1 V 12.023023 H 12.023644 V 4.9378575 L 8.2236439,1.1380227 v 2.8856212 h -6.2 z m 4.5,5.0006212 c 1.3807119,0 2.5,1.1192881 2.5,2.5 0,1.380712 -1.1192881,2.5000001 -2.5,2.5000001 -1.3807119,0 -2.5,-1.1192881 -2.5,-2.5000001 0,-1.3807119 1.1192881,-2.5 2.5,-2.5 z m 0,1 c -0.8284271,0 -1.5,0.6715729 -1.5,1.5 0,0.828427 0.6715729,1.5000001 1.5,1.5000001 0.8284271,0 1.5,-0.6715731 1.5,-1.5000001 0,-0.8284271 -0.6715729,-1.5 -1.5,-1.5 z m 0.7,-6 h -4.2 v 2 h 4.2 z"
           id="path4" />
      </g>
    </g>
  </g>
  <metadata
     id="metadata15">
    <rdf:RDF>
      <cc:Work
         rdf:about="">
        <dc:title>Line/Save</dc:title>
      </cc:Work>
    </rdf:RDF>
  </metadata>
</svg>
