<?xml version="1.0" encoding="UTF-8" standalone="no"?>
<svg
   xmlns:dc="http://purl.org/dc/elements/1.1/"
   xmlns:cc="http://creativecommons.org/ns#"
   xmlns:rdf="http://www.w3.org/1999/02/22-rdf-syntax-ns#"
   xmlns:svg="http://www.w3.org/2000/svg"
   xmlns="http://www.w3.org/2000/svg"
   xmlns:sodipodi="http://sodipodi.sourceforge.net/DTD/sodipodi-0.dtd"
   xmlns:inkscape="http://www.inkscape.org/namespaces/inkscape"
   width="11px"
   height="11px"
   viewBox="0 0 11 11"
   version="1.1"
   id="svg9"
   sodipodi:docname="Search.svg"
   inkscape:version="0.92.4 (5da689c313, 2019-01-14)">
  <metadata
     id="metadata15">
    <rdf:RDF>
      <cc:Work
         rdf:about="">
        <dc:format>image/svg+xml</dc:format>
        <dc:type
           rdf:resource="http://purl.org/dc/dcmitype/StillImage" />
      </cc:Work>
    </rdf:RDF>
  </metadata>
  <defs
     id="defs13" />
  <sodipodi:namedview
     pagecolor="#ffffff"
     bordercolor="#666666"
     borderopacity="1"
     objecttolerance="10"
     gridtolerance="10"
     guidetolerance="10"
     inkscape:pageopacity="0"
     inkscape:pageshadow="2"
     inkscape:window-width="1920"
     inkscape:window-height="1147"
     id="namedview11"
     showgrid="false"
     inkscape:zoom="21.454545"
     inkscape:cx="-8.6927966"
     inkscape:cy="5.5"
     inkscape:window-x="1912"
     inkscape:window-y="-8"
     inkscape:window-maximized="1"
     inkscape:current-layer="svg9" />
  <title
     id="title2">Line/Search</title>
  <path
     inkscape:connector-curvature="0"
     d="M 4.5,0 C 6.985281,0 9,2.01472 9,4.5 9,5.56251 8.631764,6.53901 8.015949,7.30884 l 2.837605,2.83761 c 0.195262,0.19526 0.195262,0.51184 0,0.7071 -0.195263,0.19527 -0.511845,0.19527 -0.707108,0 L 7.308843,8.01595 C 6.539008,8.63176 5.562507,9 4.5,9 2.014718,9 0,6.98528 0,4.5 0,2.01472 2.014718,0 4.5,0 Z m 0,1 C 2.567003,1 1,2.567 1,4.5 1,6.433 2.567003,8 4.5,8 V 8 L 4.692035,7.995 C 6.535722,7.89513 8,6.36856 8,4.5 8,2.567 6.432997,1 4.5,1 Z"
     id="path4"
     style="fill:#000000;fill-rule:evenodd;stroke:none;stroke-width:1" />
</svg>
