<?xml version="1.0" encoding="UTF-8"?>
<svg width="13px" height="13px" viewBox="0 0 13 13" version="1.1" xmlns="http://www.w3.org/2000/svg" xmlns:xlink="http://www.w3.org/1999/xlink">
    <title>Line/Shape</title>
    <g id="Page-1" stroke="none" stroke-width="1" fill="none" fill-rule="evenodd">
        <g id="Geometry" transform="translate(-149.000000, -19.000000)" fill="#000000" fill-rule="nonzero">
            <g id="Combined-Shape" transform="translate(148.000000, 18.000000)">
                <path d="M3,1 C3.55228475,1 4,1.44771525 4,2 L4,2.5 L11,2.5 L11,2 C11,1.44771525 11.4477153,1 12,1 L13,1 C13.5522847,1 14,1.44771525 14,2 L14,3 C14,3.55228475 13.5522847,4 13,4 L12.5,4 L12.5,11 L13,11 C13.5522847,11 14,11.4477153 14,12 L14,13 C14,13.5522847 13.5522847,14 13,14 L12,14 C11.4477153,14 11,13.5522847 11,13 L11,12.5 L4,12.5 L4,13 C4,13.5522847 3.55228475,14 3,14 L2,14 C1.44771525,14 1,13.5522847 1,13 L1,12 C1,11.4477153 1.44771525,11 2,11 L2.5,11 L2.5,4 L2,4 C1.44771525,4 1,3.55228475 1,3 L1,2 C1,1.44771525 1.44771525,1 2,1 L3,1 Z M3,12 L2,12 L2,13 L3,13 L3,12 Z M12,12 L12,13 L13,13 L13,12 L12,12 Z M11.1344277,3.5011143 L3.86557226,3.5011143 C3.77799375,3.65206215 3.65206215,3.77799375 3.5011143,3.86557226 L3.5011143,11.1344277 C3.6523903,11.2221966 3.77854116,11.3484856 3.86614288,11.4998705 L11.1338571,11.4998705 C11.2216489,11.3481572 11.3481572,11.2216489 11.4998705,11.1338571 L11.4998705,3.86614288 C11.3484856,3.77854116 11.2221966,3.6523903 11.1344277,3.5011143 Z M3,2 L2,2 L2,3 L3,3 L3,2 Z M13,2 L12,2 L12,3 L13,3 L13,2 Z"></path>
            </g>
        </g>
    </g>
</svg>