<?xml version="1.0" encoding="UTF-8"?>
<svg width="11px" height="13px" viewBox="0 0 11 13" version="1.1" xmlns="http://www.w3.org/2000/svg" xmlns:xlink="http://www.w3.org/1999/xlink">
    <title>Line/Share</title>
    <g id="Page-1" stroke="none" stroke-width="1" fill="none" fill-rule="evenodd">
        <g id="Abstract" transform="translate(-31.000000, -127.000000)" fill="#000000">
            <g id="Shape" transform="translate(29.000000, 126.000000)">
                <path d="M3,6.4500618 L3,12.4500618 C3,12.7262039 3.223858,12.9500618 3.5,12.9500618 L11.5,12.9500618 C11.7761431,12.9500618 12,12.7262044 12,12.4500618 L12,6.45006227 C12,6.17391968 11.7761431,5.95006226 11.5,5.95006227 L10.25,5.95006227 C9.97385788,5.95006229 9.75000049,5.72620487 9.75000048,5.4500618 C9.75000046,5.17391968 9.97385788,4.95006157 10.25,4.95006156 L11.5,4.95006156 C12.3284273,4.95006152 13,5.62163496 13,6.4500618 L13,12.4500618 C13,13.2784886 12.3284273,13.9500618 11.5,13.9500618 L3.5,13.9500618 C2.6715737,13.9500618 2,13.2784891 2,12.4500618 L2,6.45006227 C2,5.62163496 2.67157322,4.95006207 3.5,4.95006204 L4.75000048,4.95006204 C5.02614284,4.95006202 5.25000046,5.17391968 5.25000048,5.4500618 C5.25000049,5.72620392 5.02614284,5.95006179 4.75000048,5.9500618 L3.5,5.9500618 C3.223858,5.95006181 3,6.17391968 3,6.4500618 Z M5.56819844,4.01819897 C5.39246251,4.19393446 5.10753848,4.19393443 4.93180251,4.01819897 C4.75606655,3.84246255 4.75606634,3.55753805 4.93180227,3.38180256 L7.18180227,1.13180257 C7.26619387,1.04741098 7.38065338,1 7.5,1 C7.61934757,1 7.73380709,1.04741095 7.8181982,1.13180254 L10.0681992,3.38180256 C10.2439346,3.55753897 10.2439346,3.84246252 10.0681992,4.01819897 C9.89246275,4.19393446 9.60753824,4.19393443 9.43180227,4.01819897 L8,2.58639717 L8,9.45000076 C8,9.72614336 7.7761426,9.95000075 7.5,9.95000076 C7.22385788,9.95000078 7,9.72614336 7,9.45000076 L7,2.58639717 L5.56819844,4.01819897 Z"></path>
            </g>
        </g>
    </g>
</svg>