<?xml version="1.0" encoding="UTF-8"?>
<svg width="15px" height="13px" viewBox="0 0 15 13" version="1.1" xmlns="http://www.w3.org/2000/svg" xmlns:xlink="http://www.w3.org/1999/xlink">
    <title>Line/Shuffle</title>
    <g id="Page-1" stroke="none" stroke-width="1" fill="none" fill-rule="evenodd">
        <g id="Arrows" transform="translate(-59.000000, -109.000000)" fill="#000000">
            <g id="Shape" transform="translate(59.000000, 108.000000)">
                <path d="M11.6464462,1.14644662 C11.4511843,1.34170876 11.4511843,1.65829123 11.6464462,1.85355342 L12.7928925,3.00000001 L12,3.00000001 C10.7036753,3.00000001 9.71110916,3.58422638 8.87248421,4.38930631 C8.20065117,5.03426648 7.59349298,5.85684205 6.99461317,6.66820193 C6.86287498,6.84668065 6.73153734,7.02461673 6.5999999,7.19999982 C5.10873604,9.18835259 3.49036837,11 0.5,11 C0.223857611,11 0,11.2238579 0,11.5 C0,11.7761421 0.223857611,12 0.5,12 C4.00963163,12 5.89126396,9.81164838 7.4000001,7.8000002 C7.54366589,7.60844565 7.68319941,7.419621 7.8199625,7.23454428 C8.4166379,6.42708731 8.96068573,5.69085074 9.56501579,5.11069394 C10.2888908,4.41577364 11.0463247,4.00000001 12,4.00000001 L12.7928925,4.00000001 L11.6464462,5.14644671 C11.4511843,5.34170867 11.4511843,5.65829135 11.6464462,5.8535533 C11.8417091,6.04881573 12.1582909,6.04881573 12.3535538,5.8535533 L14.3535538,3.8535533 C14.5488157,3.65829135 14.5488157,3.34170867 14.3535538,3.14644671 L12.3535538,1.14644662 C12.1582909,0.951184459 11.8417091,0.951184459 11.6464462,1.14644662 Z M6.50548124,6.06746197 L6.37620068,6.24266101 C6.24829578,6.41609908 6.12293482,6.58608723 6,6.75000001 C5.96397114,6.79803849 5.92797661,6.84581424 5.89199781,6.89331151 C4.57347918,5.29306222 3.02637148,4.00000001 0.5,4.00000001 C0.223857611,4.00000001 0,3.77614237 0,3.50000001 C0,3.22385765 0.223857611,3.00000001 0.5,3.00000001 C3.35278416,3.00000001 5.12992239,4.44587947 6.50548124,6.06746197 Z M7.45767307,8.95468236 C7.64688206,8.71693278 7.8270402,8.48061324 8,8.25000001 L8.08987331,8.12986995 C8.58411503,8.79402018 9.0528841,9.39765931 9.56501579,9.88930703 C10.2888908,10.5842266 11.0463247,11 12,11 L12.7928925,11 L11.6464462,9.85355378 C11.4511843,9.65829087 11.4511843,9.34170914 11.6464462,9.14644624 C11.8417091,8.95118428 12.1582909,8.95118428 12.3535538,9.14644624 L14.3535538,11.1464462 C14.5488157,11.3417091 14.5488157,11.6582909 14.3535538,11.8535538 L12.3535538,13.8535538 C12.1582909,14.0488157 11.8417091,14.0488157 11.6464462,13.8535538 C11.4511843,13.6582909 11.4511843,13.3417091 11.6464462,13.1464462 L12.7928925,12 L12,12 C10.7036753,12 9.71110916,11.4157734 8.87248421,10.610693 C8.37284184,10.1310368 7.90897131,9.5531416 7.45767307,8.95468236 Z"></path>
            </g>
        </g>
    </g>
</svg>