<?xml version="1.0" encoding="UTF-8"?>
<svg width="9px" height="9px" viewBox="0 0 9 9" version="1.1" xmlns="http://www.w3.org/2000/svg" xmlns:xlink="http://www.w3.org/1999/xlink">
    <title>Line/Size</title>
    <g id="Page-1" stroke="none" stroke-width="1" fill="none" fill-rule="evenodd">
        <g id="Arrows" transform="translate(-92.000000, -93.000000)" fill="#000000" fill-rule="nonzero">
            <g id="Shape" transform="translate(89.000000, 90.000000)">
                <path d="M11.9000006,3.45000431 L11.9000006,7.45000029 C11.9000006,7.69852845 11.698528,7.9000001 11.4499998,7.9000001 C11.2014716,7.9000001 11,7.69852798 11,7.44999981 L11,4.5364002 L4.53639638,11 L7.44999886,11 C7.69852702,11 7.89999914,11.2014745 7.89999914,11.4500027 C7.8999988,11.6985312 7.69852735,11.9000025 7.44999886,11.9000025 L3.44999987,11.9000025 C3.3306523,11.9000025 3.21619344,11.8525912 3.13180213,11.7681999 C3.04741065,11.6838084 3,11.5693502 3,11.4500027 L3,7.45000029 C3,7.20147181 3.20147221,7 3.4500007,7 C3.69852886,7 3.90000072,7.20147169 3.90000069,7.44999981 L3.90000027,10.3636065 L10.363605,3.90000314 L7.44999933,3.90000004 C7.20147121,3.89999974 7,3.69852772 7,3.44999954 C7,3.20147137 7.20147219,3 7.45000029,3 L11.4500008,3 C11.6985287,3 11.9000006,3.20147644 11.9000006,3.45000431 Z"></path>
            </g>
        </g>
    </g>
</svg>