<?xml version="1.0" encoding="UTF-8"?>
<svg width="15px" height="7px" viewBox="0 0 15 7" version="1.1" xmlns="http://www.w3.org/2000/svg" xmlns:xlink="http://www.w3.org/1999/xlink">
    <title>Line/Size 2</title>
    <g id="Page-1" stroke="none" stroke-width="1" fill="none" fill-rule="evenodd">
        <g id="Objects" transform="translate(-178.000000, -310.000000)" fill="#000000">
            <g id="Shape" transform="translate(178.000000, 306.000000)">
                <path d="M0,4.5 L0,10.5 C0,10.7761426 0.223857611,11 0.5,11 L14.5,11 C14.7761421,11 15,10.7761426 15,10.5 L15,4.5 C15,4.22385761 14.7761421,4 14.5,4 L0.5,4 C0.223857611,4 0,4.22385761 0,4.5 Z M1,5 L2.07500005,5 L2.07500005,7.5 C2.07500005,7.73472095 2.26527905,7.92499995 2.5,7.92499995 C2.73472095,7.92499995 2.92499995,7.73472095 2.92499995,7.5 L2.92499995,5 L4.07499981,5 L4.07499981,6.5 C4.07499981,6.73472095 4.26527882,6.92499995 4.5,6.92499995 C4.73472118,6.92499995 4.92500019,6.73472095 4.92500019,6.5 L4.92500019,5 L6.07499981,5 L6.07499981,6.5 C6.07499981,6.73472095 6.26527882,6.92499995 6.5,6.92499995 C6.73472118,6.92499995 6.92500019,6.73472095 6.92500019,6.5 L6.92500019,5 L8.07499981,5 L8.07499981,7.5 C8.07499981,7.73472095 8.26527882,7.92499995 8.5,7.92499995 C8.73472118,7.92499995 8.92500019,7.73472095 8.92500019,7.5 L8.92500019,5 L10.0749998,5 L10.0749998,6.5 C10.0749998,6.73472095 10.2652788,6.92499995 10.5,6.92499995 C10.7347212,6.92499995 10.9250002,6.73472095 10.9250002,6.5 L10.9250002,5 L12.0749998,5 L12.0749998,6.5 C12.0749998,6.73472095 12.2652788,6.92499995 12.5,6.92499995 C12.7347212,6.92499995 12.9250002,6.73472095 12.9250002,6.5 L12.9250002,5 L14,5 L14,10 L1,10 L1,5 Z"></path>
            </g>
        </g>
    </g>
</svg>