<?xml version="1.0" encoding="UTF-8"?>
<svg width="15px" height="15px" viewBox="0 0 15 15" version="1.1" xmlns="http://www.w3.org/2000/svg" xmlns:xlink="http://www.w3.org/1999/xlink">
    <title>Line/Size 1</title>
    <g id="Page-1" stroke="none" stroke-width="1" fill="none" fill-rule="evenodd">
        <g id="Objects" transform="translate(-148.000000, -306.000000)" fill="#000000">
            <g id="Shape" transform="translate(148.000000, 306.000000)">
                <path d="M0,0.5 L0,14.5 C0,14.7761421 0.223857611,15 0.5,15 L4.5,15 C4.7761426,15 5,14.7761421 5,14.5 L5,5 L14.5,5 C14.7761421,5 15,4.7761426 15,4.5 L15,0.5 C15,0.223857611 14.7761421,0 14.5,0 L0.5,0 C0.223857611,0 0,0.223857611 0,0.5 Z M1,1 L4.0750227,1 C4.0750227,1 4.0750227,1 4.0750227,1 L4.07505417,4.07506943 L1,4.07504749 L1,1 Z M1,14 L4,14 L4,12.9250364 L2.75002456,12.9250364 C2.51530361,12.9250364 2.3250246,12.7347574 2.3250246,12.5000362 C2.3250246,12.2653151 2.51530361,12.075036 2.75002456,12.075036 L4,12.075036 L4,10.9250288 L2.25002456,10.9250288 C2.01530361,10.9250288 1.8250246,10.7347498 1.8250246,10.5000286 C1.8250246,10.2653074 2.01530361,10.0750284 2.25002456,10.0750284 L4,10.0750284 L4,8.92503929 L2.7500186,8.92502117 C2.51529741,8.92501831 2.32502127,8.73473549 2.3250246,8.50001526 C2.32502794,8.26529408 2.51530957,8.07501793 2.75003052,8.07502079 L4,8.07503891 L4,6.92501974 L2.7499938,6.9250021 C2.51527309,6.92499876 2.32499671,6.73471689 2.32500005,6.5 C2.32500315,6.265275 2.51528502,6.07499838 2.7500062,6.07500172 L4,6.07501936 L4,4.92506933 L1,4.92504787 L1,14 Z M6.07500172,4 L6.07500172,2.75006104 C6.07500172,2.51533985 6.26528072,2.32506108 6.5,2.32506108 C6.73472309,2.32506108 6.9250021,2.51533985 6.9250021,2.75006104 L6.9250021,4 L8.07502079,4 L8.07502079,2.75004911 C8.07502079,2.51532793 8.2652998,2.32504892 8.50002098,2.32504892 C8.73474216,2.32504892 8.92502117,2.51532793 8.92502117,2.75004911 L8.92502117,4 L10.0750637,4 L10.0750637,2.25004888 C10.0750637,2.01532793 10.2653427,1.82504892 10.5000639,1.82504892 C10.7347851,1.82504892 10.9250641,2.01532793 10.9250641,2.25004888 L10.9250641,4 L12.0750732,4 L12.0750732,2.75004911 C12.0750732,2.51532793 12.2653522,2.32504892 12.5000734,2.32504892 C12.7347946,2.32504892 12.9250736,2.51532793 12.9250736,2.75004911 L12.9250736,4 L14,4 L14,1 L4.92502308,1 L4.92505312,4 L6.07500172,4 Z"></path>
            </g>
        </g>
    </g>
</svg>