<?xml version="1.0" encoding="UTF-8"?>
<svg width="14px" height="13px" viewBox="0 0 14 13" version="1.1" xmlns="http://www.w3.org/2000/svg" xmlns:xlink="http://www.w3.org/1999/xlink">
    <title>Line/Star Empty</title>
    <g id="Page-1" stroke="none" stroke-width="1" fill="none" fill-rule="evenodd">
        <g id="Objects" transform="translate(-30.000000, -127.000000)" fill="#000000">
            <g id="Shape" transform="translate(29.000000, 126.000000)">
                <path d="M5.52396631,5.30302287 L1.27645042,5.64354468 C1.01045414,5.66486931 0.90259667,5.99682188 1.10525777,6.17042256 L4.34141683,8.94253731 C4.42685317,9.01572323 4.46416473,9.13055611 4.43806266,9.23998356 L3.44936299,13.3848372 C3.38744688,13.6444044 3.66982269,13.8495617 3.89755249,13.7104654 L7.53401851,11.4893265 C7.63002347,11.430687 7.75076675,11.430687 7.84677171,11.4893265 L11.4832382,13.7104654 C11.710968,13.8495617 11.9933433,13.6444044 11.931428,13.3848372 L10.942728,9.23998261 C10.916625,9.13055611 10.9539375,9.01572228 11.0393734,8.94253731 L14.2755327,6.17042256 C14.4781942,5.99682141 14.3703356,5.66486931 14.1043396,5.6435442 L9.85682296,5.30302287 C9.74468612,5.29403305 9.64700317,5.22306157 9.60380077,5.11919117 L7.96739101,1.1847907 C7.8649125,0.938402954 7.51587724,0.938403163 7.41339874,1.18479094 L5.77698898,5.11919165 C5.73378705,5.22306204 5.63610363,5.29403305 5.52396631,5.30302287 Z M6.70030927,5.50322199 C6.51309919,5.95332957 6.08980512,6.26086808 5.60387945,6.29982472 L3.03398251,6.50585223 L4.9919734,8.18307972 C5.3621993,8.50021792 5.52388143,8.99782944 5.41077184,9.47200966 L4.8125739,11.9797926 L7.01276445,10.6359243 C7.42878723,10.3818197 7.95200586,10.3818216 8.3680253,10.6359253 L10.5682173,11.9797926 L9.97001838,9.47200966 C9.85690784,8.99782563 10.0185928,8.50021553 10.3888168,8.18307925 L12.3468075,6.50585223 L9.77690982,6.29982472 C9.29098129,6.26086808 8.8676896,5.95332623 8.68048048,5.50322152 L7.69039487,3.12277079 L6.70030927,5.50322199 Z"></path>
            </g>
        </g>
    </g>
</svg>