<?xml version="1.0" encoding="UTF-8"?>
<svg width="13px" height="13px" viewBox="0 0 13 13" version="1.1" xmlns="http://www.w3.org/2000/svg" xmlns:xlink="http://www.w3.org/1999/xlink">
    <title>Line/Stats</title>
    <g id="Page-1" stroke="none" stroke-width="1" fill="none" fill-rule="evenodd">
        <g id="Geometry" transform="translate(-90.000000, -19.000000)" fill="#000000" fill-rule="nonzero">
            <g id="Combined-Shape" transform="translate(89.000000, 18.000000)">
                <path d="M12.9792692,12.5 C13.2554116,12.5 13.4792692,12.7238576 13.4792692,13 C13.4792692,13.2454599 13.302394,13.4496084 13.0691448,13.4919443 L12.9792692,13.5 L2.07017828,13.5 C1.79403591,13.5 1.57017828,13.2761424 1.57017828,13 C1.57017828,12.7545401 1.74705344,12.5503916 1.98030265,12.5080557 L2.07017828,12.5 L12.9792692,12.5 Z M5.99665486,3.51701341 C6.24211475,3.51701341 6.44626323,3.69388857 6.4885992,3.92713778 L6.49665486,4.01701341 L6.49665486,11.0170134 C6.49665486,11.2931558 6.27279724,11.5170134 5.99665486,11.5170134 C5.75119498,11.5170134 5.54704649,11.3401382 5.50471053,11.106889 L5.49665486,11.0170134 L5.49665486,4.01701341 C5.49665486,3.74087103 5.72051249,3.51701341 5.99665486,3.51701341 Z M9.0884423,5.55100486 C9.33390219,5.55100486 9.53805067,5.72788002 9.58038663,5.96112922 L9.5884423,6.05100486 L9.5884423,11.0170134 C9.5884423,11.2931558 9.36458468,11.5170134 9.0884423,11.5170134 C8.84298242,11.5170134 8.63883393,11.3401382 8.59649797,11.106889 L8.5884423,11.0170134 L8.5884423,6.05100486 C8.5884423,5.77486248 8.81229993,5.55100486 9.0884423,5.55100486 Z M3.00148578,1.51701341 C3.24694567,1.51701341 3.45109415,1.69388857 3.49343011,1.92713778 L3.50148578,2.01701341 L3.50148578,11.0170134 C3.50148578,11.2931558 3.27762816,11.5170134 3.00148578,11.5170134 C2.75602589,11.5170134 2.55187741,11.3401382 2.50954145,11.106889 L2.50148578,11.0170134 L2.50148578,2.01701341 C2.50148578,1.74087103 2.72534341,1.51701341 3.00148578,1.51701341 Z M12.1802297,1.51701341 C12.4256896,1.51701341 12.6298381,1.69388857 12.6721741,1.92713778 L12.6802297,2.01701341 L12.6802297,11.0170134 C12.6802297,11.2931558 12.4563721,11.5170134 12.1802297,11.5170134 C11.9347699,11.5170134 11.7306214,11.3401382 11.6882854,11.106889 L11.6802297,11.0170134 L11.6802297,2.01701341 C11.6802297,1.74087103 11.9040874,1.51701341 12.1802297,1.51701341 Z"></path>
            </g>
        </g>
    </g>
</svg>