<?xml version="1.0" encoding="UTF-8"?>
<svg width="15px" height="15px" viewBox="0 0 15 15" version="1.1" xmlns="http://www.w3.org/2000/svg" xmlns:xlink="http://www.w3.org/1999/xlink">
    <title>Line/Target</title>
    <g id="Page-1" stroke="none" stroke-width="1" fill="none" fill-rule="evenodd">
        <g id="Abstract" transform="translate(-178.000000, -90.000000)" fill="#000000">
            <g id="Shape" transform="translate(178.000000, 90.000000)">
                <path d="M8,0.5 L8,1.80686653 C10.6921549,2.0934968 12.8166857,4.28011942 13.0068073,7 L14.5,7 C14.7761421,7 15,7.2238574 15,7.5 C15,7.7761426 14.7761421,8 14.5,8 L12.9887962,8 C12.7093782,10.6243954 10.6243954,12.7093782 8,12.9887962 L8,14.5 C8,14.7761421 7.7761426,15 7.5,15 C7.2238574,15 7,14.7761421 7,14.5 L7,13.0068073 C4.28011942,12.8166857 2.09349656,10.6921558 1.80686653,8 L0.5,8 C0.223857611,8 0,7.7761426 0,7.5 C0,7.2238574 0.223857611,7 0.5,7 L1.78885615,7 C1.98376119,4.21166182 4.21166229,1.98376119 7,1.78885615 L7,0.5 C7,0.223857611 7.2238574,0 7.5,0 C7.7761426,0 8,0.223857611 8,0.5 Z M8,9.5 C8,9.22385788 7.7761426,9 7.5,9 C7.2238574,9 7,9.22385788 7,9.5 L7,12.0539646 C4.80517006,11.8689165 3.04221725,10.1668167 2.76344132,8 L5.5,8 C5.7761426,8 6,7.7761426 6,7.5 C6,7.2238574 5.7761426,7 5.5,7 L2.74169731,7 C2.93252277,4.73662376 4.73662329,2.93252277 7,2.74169731 L7,5.5 C7,5.7761426 7.2238574,6 7.5,6 C7.7761426,6 8,5.7761426 8,5.5 L8,2.76344132 C10.1668177,3.04221725 11.8689165,4.80517006 12.0539646,7 L9.5,7 C9.22385788,7 9,7.2238574 9,7.5 C9,7.7761426 9.22385788,8 9.5,8 L12.0322208,8 C11.7621489,10.0991449 10.0991449,11.7621489 8,12.0322208 L8,9.5 Z"></path>
            </g>
        </g>
    </g>
</svg>