<?xml version="1.0" encoding="UTF-8" standalone="no"?>
<svg
   width="9px"
   height="13px"
   viewBox="0 0 9 13"
   version="1.1"
   id="svg9"
   sodipodi:docname="Trash Fds.svg"
   inkscape:version="1.1.1 (3bf5ae0d25, 2021-09-20)"
   xmlns:inkscape="http://www.inkscape.org/namespaces/inkscape"
   xmlns:sodipodi="http://sodipodi.sourceforge.net/DTD/sodipodi-0.dtd"
   xmlns="http://www.w3.org/2000/svg"
   xmlns:svg="http://www.w3.org/2000/svg"
   xmlns:rdf="http://www.w3.org/1999/02/22-rdf-syntax-ns#"
   xmlns:cc="http://creativecommons.org/ns#"
   xmlns:dc="http://purl.org/dc/elements/1.1/">
  <defs
     id="defs13" />
  <sodipodi:namedview
     id="namedview11"
     pagecolor="#ffffff"
     bordercolor="#666666"
     borderopacity="1.0"
     inkscape:pageshadow="2"
     inkscape:pageopacity="0.0"
     inkscape:pagecheckerboard="0"
     showgrid="false"
     inkscape:zoom="55.307692"
     inkscape:cx="1.0305981"
     inkscape:cy="5.5055633"
     inkscape:window-width="1920"
     inkscape:window-height="1017"
     inkscape:window-x="-8"
     inkscape:window-y="-8"
     inkscape:window-maximized="1"
     inkscape:current-layer="Shape" />
  <title
     id="title2">Line/Trash</title>
  <g
     id="Page-1"
     stroke="none"
     stroke-width="1"
     fill="none"
     fill-rule="evenodd">
    <g
       id="Objects"
       fill="#000000">
      <g
         id="Shape">
        <path
           d="m 2.0166898,0.91515995 c 0,0.27614235 0.2238577,0.49999995 0.5,0.49999995 h 4 c 0.2761426,0 0.5,-0.2238576 0.5,-0.49999995 0,-0.27614239 -0.2238574,-0.5 -0.5,-0.5 h -4 c -0.2761423,0 -0.5,0.22385761 -0.5,0.5 z M 0.51668985,2.4151599 H 8.5166898 c 0.2761421,0 0.5,0.2238577 0.5,0.5 0,0.2761424 -0.2238579,0.5 -0.5,0.5 h -0.5 V 11.41516 c 0,0.552284 -0.4477153,1 -1,1 h -5 c -0.5522848,0 -1,-0.447715 -1,-1 V 3.4151599 H 0.51668985 c -0.27614239,0 -0.5,-0.2238576 -0.5,-0.5 0,-0.2761423 0.22385761,-0.5 0.5,-0.5 z m 6.49999995,1 V 11.41516 h -5 V 3.4151599 Z"
           id="path4" />
      </g>
    </g>
  </g>
  <metadata
     id="metadata15">
    <rdf:RDF>
      <cc:Work
         rdf:about="">
        <dc:title>Line/Trash</dc:title>
      </cc:Work>
    </rdf:RDF>
  </metadata>
</svg>
