<?xml version="1.0" encoding="UTF-8" standalone="no"?>
<svg
   width="14px"
   height="14px"
   viewBox="0 0 14 14"
   version="1.1"
   id="svg9"
   sodipodi:docname="Undo Fds.svg"
   inkscape:version="1.1.1 (3bf5ae0d25, 2021-09-20)"
   xmlns:inkscape="http://www.inkscape.org/namespaces/inkscape"
   xmlns:sodipodi="http://sodipodi.sourceforge.net/DTD/sodipodi-0.dtd"
   xmlns="http://www.w3.org/2000/svg"
   xmlns:svg="http://www.w3.org/2000/svg"
   xmlns:rdf="http://www.w3.org/1999/02/22-rdf-syntax-ns#"
   xmlns:cc="http://creativecommons.org/ns#"
   xmlns:dc="http://purl.org/dc/elements/1.1/">
  <defs
     id="defs13" />
  <sodipodi:namedview
     id="namedview11"
     pagecolor="#ffffff"
     bordercolor="#666666"
     borderopacity="1.0"
     inkscape:pageshadow="2"
     inkscape:pageopacity="0.0"
     inkscape:pagecheckerboard="0"
     showgrid="false"
     inkscape:zoom="51.357143"
     inkscape:cx="3.72879"
     inkscape:cy="7"
     inkscape:window-width="1920"
     inkscape:window-height="1017"
     inkscape:window-x="242"
     inkscape:window-y="1432"
     inkscape:window-maximized="1"
     inkscape:current-layer="Combined-Shape" />
  <title
     id="title2">Line/Undo</title>
  <g
     id="Page-1"
     stroke="none"
     stroke-width="1"
     fill="none"
     fill-rule="evenodd">
    <g
       id="Abstract"
       transform="translate(-119.000000, -163.000000)"
       fill="#000000"
       fill-rule="nonzero">
      <g
         id="Combined-Shape"
         transform="translate(118.000000, 162.000000)">
        <path
           d="M 7.5000243,1 C 4.4361867,1 2.8112577,3.0802831 2.0710883,4.3400689 L 2,4.4632051 V 2.6500244 c 0,-0.2761423 -0.2238579,-0.5 -0.5,-0.5 -0.2454597,0 -0.4496083,0.1768752 -0.4919443,0.4101244 L 1,2.6500244 v 3 C 1,5.8954841 1.1768753,6.0996327 1.4101244,6.1419687 L 1.5,6.1500244 h 3 c 0.2761421,0 0.5,-0.2238579 0.5,-0.5 C 5,5.4045647 4.8231246,5.2004161 4.5898756,5.1580801 L 4.5,5.1500244 H 2.7633467 C 3.3484859,4.0564234 4.7216749,2 7.5000243,2 c 3.4401807,0 5.6499997,2.8146007 5.6499997,5.6500001 0,2.3458774 -1.512651,4.6775179 -3.983254,5.4126939 L 9.1350244,13.06 c -0.2899495,0 -0.525,0.233931 -0.525,0.5225 0,0.288569 0.2350505,0.5225 0.525,0.5225 0.00514,0 0.010265,-7.4e-5 0.01537,-2.2e-4 l 5.231e-4,-3e-6 c 0.085753,-0.0036 0.1603625,-0.02433 0.2266617,-0.05876 l -0.2266617,0.05876 C 12.250575,13.345445 14.150024,10.490087 14.150024,7.6500001 14.150024,4.3353994 11.562844,1 7.5000243,1 Z"
           id="path4" />
      </g>
    </g>
  </g>
  <metadata
     id="metadata23">
    <rdf:RDF>
      <cc:Work
         rdf:about="">
        <dc:title>Line/Undo</dc:title>
      </cc:Work>
    </rdf:RDF>
  </metadata>
</svg>
