<?xml version="1.0" encoding="UTF-8"?>
<svg width="14px" height="14px" viewBox="0 0 14 14" version="1.1" xmlns="http://www.w3.org/2000/svg" xmlns:xlink="http://www.w3.org/1999/xlink">
    <title>Line/User 2</title>
    <g id="Page-1" stroke="none" stroke-width="1" fill="none" fill-rule="evenodd">
        <g id="Objects" transform="translate(-238.000000, -127.000000)" fill="#000000">
            <g id="Shape" transform="translate(237.000000, 126.000000)">
                <path d="M7.62297344,4.27782583 C8.92084312,4.27782583 9.97297287,5.32995605 9.97297287,6.62782574 C9.97297287,7.92569542 8.92084312,8.97782564 7.62297344,8.97782564 C6.32510376,8.97782564 5.27297354,7.92569542 5.27297354,6.62782574 C5.27297354,5.32995605 6.32510376,4.27782583 7.62297344,4.27782583 Z M6.22297335,6.62782574 C6.22297335,7.40102482 6.84977436,8.02782583 7.62297344,8.02782583 C8.39617252,8.02782583 9.02297401,7.40102482 9.02297401,6.62782574 C9.02297401,5.85462666 8.39617252,5.22782564 7.62297344,5.22782564 C6.84977436,5.22782564 6.22297335,5.85462666 6.22297335,6.62782574 Z M7.62283182,1 C11.2804909,1 14.2456636,3.96514606 14.2456636,7.62283182 C14.2456636,11.2804918 11.2804918,14.2456636 7.62283182,14.2456636 C3.96514606,14.2456636 1,11.2804909 1,7.62283182 C1,3.96514726 3.96514726,1 7.62283182,1 Z M1.94999999,7.62283182 C1.94999999,9.09492016 2.5107286,10.4360571 3.43025255,11.4443007 C4.31372094,10.0641451 5.86117077,9.1479435 7.62321377,9.1479435 C9.38504601,9.1479435 10.9323349,10.0639248 11.815856,11.4438038 C12.7351141,10.4356155 13.2956638,9.09467793 13.2956638,7.62283182 C13.2956638,4.48981905 10.7558222,1.94999999 7.62283182,1.94999999 C4.48981786,1.94999999 1.94999999,4.48981786 1.94999999,7.62283182 Z M7.62321377,10.0979443 C6.13756895,10.0979443 4.83922386,10.9026718 4.14143944,12.1020947 C5.10250282,12.8501339 6.3106389,13.2956638 7.62283182,13.2956638 C8.93525696,13.2956638 10.1435947,12.849968 11.1047459,12.1016798 C10.4069033,10.9024868 9.1086874,10.0979443 7.62321377,10.0979443 Z"></path>
            </g>
        </g>
    </g>
</svg>