<?xml version="1.0" encoding="UTF-8"?>
<svg width="11px" height="14px" viewBox="0 0 11 14" version="1.1" xmlns="http://www.w3.org/2000/svg" xmlns:xlink="http://www.w3.org/1999/xlink">
    <title>Line/User 1</title>
    <g id="Page-1" stroke="none" stroke-width="1" fill="none" fill-rule="evenodd">
        <g id="Objects" transform="translate(-209.000000, -127.000000)" fill="#000000">
            <g id="Shape" transform="translate(207.000000, 126.000000)">
                <path d="M3.84997547,4.625 C3.84997547,6.27788019 4.95621657,7.67238235 6.46870232,8.10851002 C5.27467966,8.25401402 4.25054431,8.6763401 3.47904623,9.43666935 C2.49713111,10.4043694 2,11.8450012 2,13.7249479 C2,13.9872837 2.21266475,14.1999474 2.47499999,14.1999474 C2.73733521,14.1999474 2.94999999,13.9872837 2.94999999,13.7249479 C2.94999999,12.00494 3.40283287,10.8455925 4.14588189,10.1133003 C4.89033151,9.37962818 6.00171089,8.9999876 7.47492838,8.9999876 C8.94814682,8.9999876 10.0595655,9.37962914 10.8040447,10.113306 C11.5471182,10.8455982 11.9999685,12.0049429 11.999939,13.7249393 C11.9999352,13.9872751 12.2125959,14.1999474 12.4749317,14.1999474 C12.7372665,14.1999474 12.9499397,13.9872913 12.9499397,13.7249565 C12.9499397,11.8449984 12.452816,10.4043627 11.4708691,9.43666363 C10.6993637,8.67635202 9.67522669,8.2540288 8.48122215,8.10851765 C9.99372149,7.67239857 11.0999756,6.27788973 11.0999756,4.625 C11.0999756,2.622967 9.47700882,1 7.47497559,1 C5.47294235,1 3.84997547,2.622967 3.84997547,4.625 Z M7.47497559,1.94999999 C8.95233822,1.94999999 10.1499758,3.14763737 10.1499758,4.625 C10.1499758,6.10236263 8.95233822,7.30000019 7.47497559,7.30000019 C5.99761295,7.30000019 4.7999754,6.10236263 4.7999754,4.625 C4.7999754,3.14763737 5.99761295,1.94999999 7.47497559,1.94999999 Z"></path>
            </g>
        </g>
    </g>
</svg>