<?xml version="1.0" encoding="UTF-8" standalone="no"?>
<svg
   xmlns:dc="http://purl.org/dc/elements/1.1/"
   xmlns:cc="http://creativecommons.org/ns#"
   xmlns:rdf="http://www.w3.org/1999/02/22-rdf-syntax-ns#"
   xmlns:svg="http://www.w3.org/2000/svg"
   xmlns="http://www.w3.org/2000/svg"
   xmlns:sodipodi="http://sodipodi.sourceforge.net/DTD/sodipodi-0.dtd"
   xmlns:inkscape="http://www.inkscape.org/namespaces/inkscape"
   width="13px"
   height="13px"
   viewBox="0 0 13 13"
   version="1.1"
   id="svg9"
   sodipodi:docname="Wafer.svg"
   inkscape:version="0.92.4 (5da689c313, 2019-01-14)">
  <metadata
     id="metadata15">
    <rdf:RDF>
      <cc:Work
         rdf:about="">
        <dc:format>image/svg+xml</dc:format>
        <dc:type
           rdf:resource="http://purl.org/dc/dcmitype/StillImage" />
      </cc:Work>
    </rdf:RDF>
  </metadata>
  <defs
     id="defs13" />
  <sodipodi:namedview
     pagecolor="#ffffff"
     bordercolor="#666666"
     borderopacity="1"
     objecttolerance="10"
     gridtolerance="10"
     guidetolerance="10"
     inkscape:pageopacity="0"
     inkscape:pageshadow="2"
     inkscape:window-width="1920"
     inkscape:window-height="1147"
     id="namedview11"
     showgrid="false"
     inkscape:zoom="18.153846"
     inkscape:cx="-0.35805085"
     inkscape:cy="6.5"
     inkscape:window-x="1912"
     inkscape:window-y="-8"
     inkscape:window-maximized="1"
     inkscape:current-layer="svg9" />
  <title
     id="title2">Line/Wafer</title>
  <path
     inkscape:connector-curvature="0"
     id="path4"
     d="m 6.5,0.5 c 3.589851,0 6.5,2.91015 6.5,6.5 0,2.31647 -1.211761,4.34992 -3.035982,5.50105 H 3.035982 C 1.211761,11.34992 0,9.31647 0,7 0,3.41015 2.910149,0.5 6.5,0.5 Z m 0,1 C 3.462434,1.5 1,3.96243 1,7 1,8.74541 1.818668,10.34931 3.169466,11.37759 L 3.34,11.501 h 6.319 l 0.171534,-0.12341 c 1.286474,-0.97931 2.090291,-2.48073 2.163928,-4.12926 L 12,7 C 12,3.96243 9.537566,1.5 6.5,1.5 Z"
     style="fill:#000000;fill-rule:nonzero;stroke:none;stroke-width:1" />
</svg>
