<?xml version="1.0" encoding="UTF-8"?>
<svg width="13px" height="14px" viewBox="0 0 13 14" version="1.1" xmlns="http://www.w3.org/2000/svg" xmlns:xlink="http://www.w3.org/1999/xlink">
    <title>Line/Wafer Error</title>
    <g id="Page-1" stroke="none" stroke-width="1" fill="none" fill-rule="evenodd">
        <g id="Objects" transform="translate(-149.000000, -343.000000)" fill="#000000" fill-rule="nonzero">
            <g id="Combined-Shape" transform="translate(148.000000, 342.000000)">
                <path d="M7.5,1.5 C9.11486875,1.5 10.592194,2.08889367 11.7289391,3.06364436 L13.1464466,1.64644661 L13.8535534,2.35355339 L12.4363556,3.77106087 C13.4111063,4.90780599 14,6.38513125 14,8 C14,9.61472923 13.4112081,11.0919387 12.4366083,12.2286445 L13.8535534,13.6464466 L13.1464466,14.3535534 L11.7286943,12.9365656 C11.4883819,13.1426111 11.2328503,13.331413 10.9640177,13.501053 L4.0359823,13.501053 C3.76714967,13.331413 3.51161812,13.1426111 3.27130569,12.9365656 L1.85355339,14.3535534 L1.14644661,13.6464466 L2.56425918,12.229656 C1.5891413,11.0928152 1,9.61520824 1,8 C1,6.38513125 1.58889367,4.90780599 2.56364436,3.77106087 L1.14644661,2.35355339 L1.85355339,1.64644661 L3.27106087,3.06364436 C4.40780599,2.08889367 5.88513125,1.5 7.5,1.5 Z M7.5,8.707 L3.98065882,12.2272555 C4.04237408,12.2786357 4.10532001,12.3287644 4.16946591,12.377595 L4.34,12.501 L10.659,12.501 L10.8305341,12.377595 L11.019,12.226 L7.5,8.707 Z M2,8 C2,9.31594649 2.46536116,10.5514549 3.27328085,11.5204785 L6.793,8 L3.27343865,4.4803837 C2.47834123,5.43414319 2,6.6612103 2,8 Z M11.7265614,4.4803837 L8.207,8 L11.7275317,11.5195037 C12.4839374,10.6118408 12.9398689,9.47051443 12.9944618,8.24833463 L13,8 C13,6.6612103 12.5216588,5.43414319 11.7265614,4.4803837 Z M7.5,2.5 C6.1612103,2.5 4.93414319,2.97834123 3.9803837,3.77343865 L7.5,7.293 L11.0196163,3.77343865 C10.0658568,2.97834123 8.8387897,2.5 7.5,2.5 Z"></path>
            </g>
        </g>
    </g>
</svg>