<?xml version="1.0" encoding="UTF-8"?>
<svg width="13px" height="13px" viewBox="0 0 13 13" version="1.1" xmlns="http://www.w3.org/2000/svg" xmlns:xlink="http://www.w3.org/1999/xlink">
    <title>Line/Wafer Wait</title>
    <g id="Page-1" stroke="none" stroke-width="1" fill="none" fill-rule="evenodd">
        <g id="Objects" transform="translate(-179.000000, -343.000000)" fill="#000000" fill-rule="nonzero">
            <g id="Combined-Shape" transform="translate(178.000000, 342.000000)">
                <path d="M7.5,1.5 C11.0898509,1.5 14,4.41014913 14,8 C14,10.316473 12.7882391,12.3499241 10.9640177,13.501053 L4.0359823,13.501053 C2.21176087,12.3499241 1,10.316473 1,8 C1,4.41014913 3.91014913,1.5 7.5,1.5 Z M7.5,2.5 C4.46243388,2.5 2,4.96243388 2,8 C2,9.74540896 2.81866848,11.3493103 4.16946591,12.377595 L4.34,12.501 L10.659,12.501 L10.8305341,12.377595 C12.1170078,11.3982762 12.9208249,9.89685622 12.9944618,8.24833463 L13,8 C13,4.96243388 10.5375661,2.5 7.5,2.5 Z M9.51538674,5.5 L9.49479797,6.17918119 C9.44980166,6.92045898 9.15406688,7.57697347 8.70517029,8.00089566 C9.10917722,8.38081345 9.38912309,8.95058196 9.4738745,9.60112799 L9.49479797,9.82081881 L9.51538674,10.5 L5.5,10.5 L5.5,10 C5.5,9.19284754 5.8050272,8.45995314 6.29295699,7.99941199 C5.8050272,7.54004686 5.5,6.80715246 5.5,6 L5.5,5.5 L9.51538674,5.5 Z M7.5,8.5 C7.1453001,8.5 6.80565631,8.80506676 6.62801761,9.27342685 L6.58369775,9.40510349 L6.559,9.5 L8.44,9.5 L8.42030843,9.41929303 C8.28926875,8.96299129 8.01181474,8.6338936 7.70112095,8.53268365 L7.5964805,8.5075254 L7.5,8.5 Z M8.44,6.5 L6.559,6.5 L6.58369775,6.59489651 C6.74402733,7.13694534 7.11305466,7.5 7.5,7.5 L7.5964805,7.4924746 C7.94835071,7.4376688 8.27470879,7.0877089 8.42030843,6.58070697 L8.44,6.5 Z"></path>
            </g>
        </g>
    </g>
</svg>