<?xml version="1.0" encoding="UTF-8"?>
<svg width="13px" height="14px" viewBox="0 0 13 14" version="1.1" xmlns="http://www.w3.org/2000/svg" xmlns:xlink="http://www.w3.org/1999/xlink">
    <title>Line/Wafer Not Process</title>
    <g id="Page-1" stroke="none" stroke-width="1" fill="none" fill-rule="evenodd">
        <g id="Objects" transform="translate(-119.000000, -343.000000)" fill="#000000" fill-rule="nonzero">
            <g id="Combined-Shape" transform="translate(118.000000, 342.000000)">
                <path d="M7.5,1.5 C9.11486875,1.5 10.592194,2.08889367 11.7289391,3.06364436 L13.1464466,1.64644661 L13.8535534,2.35355339 L12.4363556,3.77106087 C13.4111063,4.90780599 14,6.38513125 14,8 C14,10.316473 12.7882391,12.3499241 10.9640177,13.501053 L4.0359823,13.501053 C3.76714967,13.331413 3.51161812,13.1426111 3.27130569,12.9365656 L1.85355339,14.3535534 L1.14644661,13.6464466 L2.56339174,12.2286445 C1.58879192,11.0919387 1,9.61472923 1,8 C1,4.41014913 3.91014913,1.5 7.5,1.5 Z M11.7265614,4.4803837 L3.97967931,12.2264399 C4.04170802,12.2781052 4.10498061,12.328506 4.16946591,12.377595 L4.34,12.501 L10.659,12.501 L10.8305341,12.377595 C12.1170078,11.3982762 12.9208249,9.89685622 12.9944618,8.24833463 L13,8 C13,6.6612103 12.5216588,5.43414319 11.7265614,4.4803837 Z M7.5,2.5 C4.46243388,2.5 2,4.96243388 2,8 C2,9.31548717 2.46503635,10.5505924 3.27243498,11.5194637 L11.0196163,3.77343865 C10.0658568,2.97834123 8.8387897,2.5 7.5,2.5 Z"></path>
            </g>
        </g>
    </g>
</svg>