<?xml version="1.0" encoding="UTF-8"?>
<svg width="13px" height="13px" viewBox="0 0 13 13" version="1.1" xmlns="http://www.w3.org/2000/svg" xmlns:xlink="http://www.w3.org/1999/xlink">
    <title>Line/Wafer Error 2</title>
    <g id="Page-1" stroke="none" stroke-width="1" fill="none" fill-rule="evenodd">
        <g id="Objects" transform="translate(-60.000000, -343.000000)" fill="#000000" fill-rule="nonzero">
            <g id="Combined-Shape" transform="translate(59.000000, 342.000000)">
                <path d="M7.5,1.5 C11.0898509,1.5 14,4.41014913 14,8 C14,10.316473 12.7882391,12.3499241 10.9640177,13.501053 L4.0359823,13.501053 C2.21176087,12.3499241 1,10.316473 1,8 C1,4.41014913 3.91014913,1.5 7.5,1.5 Z M7.5,2.5 C4.46243388,2.5 2,4.96243388 2,8 C2,9.74540896 2.81866848,11.3493103 4.16946591,12.377595 L4.34,12.501 L10.659,12.501 L10.8305341,12.377595 C12.1170078,11.3982762 12.9208249,9.89685622 12.9944618,8.24833463 L13,8 C13,4.96243388 10.5375661,2.5 7.5,2.5 Z M6.19141228,6.2476009 L6.26066017,6.30545635 L7.49810678,7.54300974 L8.73553391,6.30545635 L8.80478179,6.2476009 C8.99964993,6.11260485 9.26907434,6.13189 9.44264069,6.30545635 C9.61620704,6.4790227 9.63549219,6.7484471 9.50049614,6.94331525 L9.44264069,7.01256313 L8.20510678,8.25000974 L9.44264069,9.48743687 C9.63790283,9.68269901 9.63790283,9.9992815 9.44264069,10.1945436 C9.26907434,10.36811 8.99964993,10.3873952 8.80478179,10.2523991 L8.73553391,10.1945436 L7.49810678,8.95700974 L6.26066017,10.1945436 L6.19141228,10.2523991 C5.99654414,10.3873952 5.72711974,10.36811 5.55355339,10.1945436 C5.37998704,10.0209773 5.36070189,9.7515529 5.49569794,9.55668475 L5.55355339,9.48743687 L6.79110678,8.25000974 L5.55355339,7.01256313 C5.35829124,6.81730099 5.35829124,6.5007185 5.55355339,6.30545635 C5.72711974,6.13189 5.99654414,6.11260485 6.19141228,6.2476009 Z"></path>
            </g>
        </g>
    </g>
</svg>