<?xml version="1.0" encoding="UTF-8" standalone="no"?>
<svg
   width="14px"
   height="14px"
   viewBox="0 0 14 14"
   version="1.1"
   id="svg11"
   sodipodi:docname="Warning Circle Fds.svg"
   inkscape:version="1.1.1 (3bf5ae0d25, 2021-09-20)"
   xmlns:inkscape="http://www.inkscape.org/namespaces/inkscape"
   xmlns:sodipodi="http://sodipodi.sourceforge.net/DTD/sodipodi-0.dtd"
   xmlns="http://www.w3.org/2000/svg"
   xmlns:svg="http://www.w3.org/2000/svg"
   xmlns:rdf="http://www.w3.org/1999/02/22-rdf-syntax-ns#"
   xmlns:cc="http://creativecommons.org/ns#"
   xmlns:dc="http://purl.org/dc/elements/1.1/">
  <defs
     id="defs15" />
  <sodipodi:namedview
     id="namedview13"
     pagecolor="#ffffff"
     bordercolor="#666666"
     borderopacity="1.0"
     inkscape:pageshadow="2"
     inkscape:pageopacity="0.0"
     inkscape:pagecheckerboard="0"
     showgrid="false"
     inkscape:zoom="51.357143"
     inkscape:cx="7"
     inkscape:cy="7"
     inkscape:window-width="1920"
     inkscape:window-height="1017"
     inkscape:window-x="242"
     inkscape:window-y="1432"
     inkscape:window-maximized="1"
     inkscape:current-layer="svg11" />
  <title
     id="title2">Line/Warning Circle</title>
  <path
     id="path4"
     style="fill:#000000;fill-rule:evenodd;stroke:none;stroke-width:1"
     d="M 6.6230469 0 C 2.9653624 0 0 2.9653623 0 6.6230469 C 0 10.280705 2.9653612 13.246094 6.6230469 13.246094 C 10.280707 13.246094 13.246094 10.280706 13.246094 6.6230469 C 13.246094 2.9653611 10.280706 1.1842379e-15 6.6230469 0 z M 6.6230469 0.94921875 C 9.7560371 0.94921875 12.294922 3.4900341 12.294922 6.6230469 C 12.294922 9.7560355 9.7560361 12.294922 6.6230469 12.294922 C 3.4900342 12.294922 0.94921875 9.7560365 0.94921875 6.6230469 C 0.94921875 3.4900329 3.490033 0.94921875 6.6230469 0.94921875 z M 6.4960938 2.7148438 C 6.1139241 2.7148438 5.8075776 3.0321756 5.8222656 3.4140625 L 5.9765625 7.4160156 C 5.9872928 7.6950073 6.2168965 7.9140625 6.4960938 7.9140625 C 6.7752915 7.9140625 7.0048943 7.6950073 7.015625 7.4160156 L 7.1679688 3.4140625 C 7.1826563 3.0321755 6.8782631 2.7148438 6.4960938 2.7148438 z M 6.4960938 8.6542969 C 6.08188 8.6542969 5.7460938 8.9900839 5.7460938 9.4042969 C 5.7460938 9.8185099 6.08188 10.154297 6.4960938 10.154297 C 6.9103073 10.154297 7.2460938 9.8185099 7.2460938 9.4042969 C 7.2460938 8.9900839 6.9103074 8.6542969 6.4960938 8.6542969 z " />
  <metadata
     id="metadata27">
    <rdf:RDF>
      <cc:Work
         rdf:about="">
        <dc:title>Line/Warning Circle</dc:title>
      </cc:Work>
    </rdf:RDF>
  </metadata>
</svg>
