<?xml version="1.0" encoding="UTF-8"?>
<svg width="13px" height="14px" viewBox="0 0 13 14" version="1.1" xmlns="http://www.w3.org/2000/svg" xmlns:xlink="http://www.w3.org/1999/xlink">
    <title>Line/Webcam</title>
    <g id="Page-1" stroke="none" stroke-width="1" fill="none" fill-rule="evenodd">
        <g id="Objects" transform="translate(-149.000000, -19.000000)" fill="#000000" fill-rule="nonzero">
            <g id="Combined-Shape" transform="translate(148.000000, 18.000000)">
                <path d="M7.5,1 C10.5375661,1 13,3.46243388 13,6.5 C13,8.56249917 11.8647261,10.3598409 10.184985,11.3012185 L10.2050716,11.2899059 L10.2050716,11.2899059 L11.309,13.5 L13,13.5 C13.2761424,13.5 13.5,13.7238576 13.5,14 C13.5,14.2454599 13.3231248,14.4496084 13.0898756,14.4919443 L13,14.5 L2,14.5 C1.72385763,14.5 1.5,14.2761424 1.5,14 C1.5,13.7545401 1.67687516,13.5503916 1.91012437,13.5080557 L2,13.5 L3.69,13.5 L4.79593151,11.2904734 L4.82709195,11.3079668 C3.14071778,10.3684477 2,8.5674383 2,6.5 C2,3.46243388 4.46243388,1 7.5,1 Z M7.5,12 C6.86672387,12 6.25844557,11.8929715 5.69226698,11.6960164 L5.70925495,11.7018947 L5.70925495,11.7018947 L4.809,13.5 L10.19,13.5 L9.29174504,11.7015504 L9.31771416,11.6925335 C8.74870557,11.8917094 8.1369991,12 7.5,12 Z M7.5,2 C5.01471863,2 3,4.01471863 3,6.5 C3,8.98528137 5.01471863,11 7.5,11 C9.98528137,11 12,8.98528137 12,6.5 C12,4.01471863 9.98528137,2 7.5,2 Z M7.5,4.5 C8.6045695,4.5 9.5,5.3954305 9.5,6.5 C9.5,7.6045695 8.6045695,8.5 7.5,8.5 C6.3954305,8.5 5.5,7.6045695 5.5,6.5 C5.5,5.3954305 6.3954305,4.5 7.5,4.5 Z M8,5.5 C7.72385763,5.5 7.5,5.72385763 7.5,6 C7.5,6.27614237 7.72385763,6.5 8,6.5 C8.27614237,6.5 8.5,6.27614237 8.5,6 C8.5,5.72385763 8.27614237,5.5 8,5.5 Z"></path>
            </g>
        </g>
    </g>
</svg>