<?xml version="1.0" encoding="UTF-8"?>
<svg width="13px" height="7px" viewBox="0 0 13 7" version="1.1" xmlns="http://www.w3.org/2000/svg" xmlns:xlink="http://www.w3.org/1999/xlink">
    <title>Line/Width</title>
    <g id="Page-1" stroke="none" stroke-width="1" fill="none" fill-rule="evenodd">
        <g id="Arrows" transform="translate(-60.000000, -94.000000)" fill="#000000" fill-rule="nonzero">
            <g id="Shape" transform="translate(59.000000, 90.000000)">
                <path d="M4.79566197,5.28121837 L3.04930709,7.04237284 L11.950693,7.04237284 L10.204338,5.28121837 C10.0271258,5.10250386 10.0271258,4.81275037 10.204338,4.63403586 C10.3815512,4.45532137 10.6688691,4.45532137 10.8460823,4.63403586 L13.3670908,7.17640885 C13.5443031,7.35512338 13.5443031,7.64487662 13.3670908,7.82359115 L10.8460823,10.365964 C10.6688691,10.5446785 10.3815512,10.5446785 10.204338,10.365964 C10.0271258,10.1872495 10.0271258,9.89749573 10.204338,9.71878121 L11.950693,7.95762716 L3.04930709,7.95762716 L4.79566197,9.71878121 C4.9728747,9.89749573 4.9728747,10.1872495 4.79566197,10.365964 C4.61844924,10.5446785 4.33113088,10.5446785 4.15391815,10.365964 L1.63290952,7.82359115 C1.45569682,7.64487662 1.45569682,7.35512338 1.63290952,7.17640885 L4.15391815,4.63403586 C4.33113088,4.45532137 4.61844924,4.45532137 4.79566197,4.63403586 C4.9728747,4.81275037 4.9728747,5.10250386 4.79566197,5.28121837 Z"></path>
            </g>
        </g>
    </g>
</svg>