<?xml version="1.0" encoding="UTF-8"?>
<svg width="11px" height="11px" viewBox="0 0 11 11" version="1.1" xmlns="http://www.w3.org/2000/svg" xmlns:xlink="http://www.w3.org/1999/xlink">
    <title>Line/Zoom In</title>
    <g id="Page-1" stroke="none" stroke-width="1" fill="none" fill-rule="evenodd">
        <g id="Objects" transform="translate(-61.000000, -236.000000)" fill="#000000">
            <g id="Shape" transform="translate(59.000000, 234.000000)">
                <path d="M4.75,6 L6,6 L6,4.75 C6,4.47385764 6.2238574,4.25 6.5,4.25 C6.7761426,4.25 7,4.47385764 7,4.75 L7,6 L8.25,6 C8.52614212,6 8.75,6.2238574 8.75,6.5 C8.75,6.7761426 8.52614212,7 8.25,7 L7,7 L7,8.25 C7,8.52614212 6.7761426,8.75 6.5,8.75 C6.2238574,8.75 6,8.52614212 6,8.25 L6,7 L4.75,7 C4.47385764,7 4.25,6.7761426 4.25,6.5 C4.25,6.2238574 4.47385764,6 4.75,6 Z M6.5,11 C4.01471853,11 2,8.98528147 2,6.5 C2,4.01471853 4.01471853,2 6.5,2 C8.98528147,2 11,4.01471853 11,6.5 C11,7.56250715 10.6317635,8.53900766 10.0159492,9.30884314 L12.8535538,12.1464462 C13.0488157,12.3417091 13.0488157,12.6582909 12.8535538,12.8535538 C12.6582909,13.0488157 12.3417091,13.0488157 12.1464462,12.8535538 L9.30884314,10.0159492 C8.53900766,10.6317635 7.56250715,11 6.5,11 Z M6.5,10 C4.56700349,10 3,8.43299675 3,6.5 C3,4.56700349 4.56700349,3 6.5,3 C8.43299675,3 10,4.56700349 10,6.5 C10,8.43299675 8.43299675,10 6.5,10 Z"></path>
            </g>
        </g>
    </g>
</svg>